<?xml version="1.0" encoding="utf-8" standalone="no"?>
<!DOCTYPE svg PUBLIC "-//W3C//DTD SVG 1.1//EN"
  "http://www.w3.org/Graphics/SVG/1.1/DTD/svg11.dtd">
<!-- Created with matplotlib (https://matplotlib.org/) -->
<svg height="288pt" version="1.1" viewBox="0 0 432 288" width="432pt" xmlns="http://www.w3.org/2000/svg" xmlns:xlink="http://www.w3.org/1999/xlink">
 <metadata>
  <rdf:RDF xmlns:cc="http://creativecommons.org/ns#" xmlns:dc="http://purl.org/dc/elements/1.1/" xmlns:rdf="http://www.w3.org/1999/02/22-rdf-syntax-ns#">
   <cc:Work>
    <dc:type rdf:resource="http://purl.org/dc/dcmitype/StillImage"/>
    <dc:date>2020-07-29T08:50:45.038240</dc:date>
    <dc:format>image/svg+xml</dc:format>
    <dc:creator>
     <cc:Agent>
      <dc:title>Matplotlib v3.3.0, https://matplotlib.org/</dc:title>
     </cc:Agent>
    </dc:creator>
   </cc:Work>
  </rdf:RDF>
 </metadata>
 <defs>
  <style type="text/css">*{stroke-linecap:butt;stroke-linejoin:round;}</style>
 </defs>
 <g id="figure_1">
  <g id="patch_1">
   <path d="M 0 288 
L 432 288 
L 432 0 
L 0 0 
z
" style="fill:#ffffff;"/>
  </g>
  <g id="axes_1">
   <g id="patch_2">
    <path d="M 54 229.14 
L 388.8 229.14 
L 388.8 61.74 
L 54 61.74 
z
" style="fill:#eaeaf2;"/>
   </g>
   <g id="matplotlib.axis_1">
    <g id="xtick_1">
     <g id="line2d_1">
      <path clip-path="url(#p86258a6503)" d="M 69.218182 229.14 
L 69.218182 61.74 
" style="fill:none;stroke:#ffffff;stroke-linecap:round;"/>
     </g>
     <g id="text_1">
      <!-- −2 -->
      <g style="fill:#262626;" transform="translate(61.109979 246.998281)scale(0.11 -0.11)">
       <defs>
        <path d="M 10.59375 35.5 
L 73.1875 35.5 
L 73.1875 27.203125 
L 10.59375 27.203125 
z
" id="DejaVuSans-8722"/>
        <path d="M 19.1875 8.296875 
L 53.609375 8.296875 
L 53.609375 0 
L 7.328125 0 
L 7.328125 8.296875 
Q 12.9375 14.109375 22.625 23.890625 
Q 32.328125 33.6875 34.8125 36.53125 
Q 39.546875 41.84375 41.421875 45.53125 
Q 43.3125 49.21875 43.3125 52.78125 
Q 43.3125 58.59375 39.234375 62.25 
Q 35.15625 65.921875 28.609375 65.921875 
Q 23.96875 65.921875 18.8125 64.3125 
Q 13.671875 62.703125 7.8125 59.421875 
L 7.8125 69.390625 
Q 13.765625 71.78125 18.9375 73 
Q 24.125 74.21875 28.421875 74.21875 
Q 39.75 74.21875 46.484375 68.546875 
Q 53.21875 62.890625 53.21875 53.421875 
Q 53.21875 48.921875 51.53125 44.890625 
Q 49.859375 40.875 45.40625 35.40625 
Q 44.1875 33.984375 37.640625 27.21875 
Q 31.109375 20.453125 19.1875 8.296875 
z
" id="DejaVuSans-50"/>
       </defs>
       <use xlink:href="#DejaVuSans-8722"/>
       <use x="83.789062" xlink:href="#DejaVuSans-50"/>
      </g>
     </g>
    </g>
    <g id="xtick_2">
     <g id="line2d_2">
      <path clip-path="url(#p86258a6503)" d="M 119.945455 229.14 
L 119.945455 61.74 
" style="fill:none;stroke:#ffffff;stroke-linecap:round;"/>
     </g>
     <g id="text_2">
      <!-- −1 -->
      <g style="fill:#262626;" transform="translate(111.837251 246.998281)scale(0.11 -0.11)">
       <defs>
        <path d="M 12.40625 8.296875 
L 28.515625 8.296875 
L 28.515625 63.921875 
L 10.984375 60.40625 
L 10.984375 69.390625 
L 28.421875 72.90625 
L 38.28125 72.90625 
L 38.28125 8.296875 
L 54.390625 8.296875 
L 54.390625 0 
L 12.40625 0 
z
" id="DejaVuSans-49"/>
       </defs>
       <use xlink:href="#DejaVuSans-8722"/>
       <use x="83.789062" xlink:href="#DejaVuSans-49"/>
      </g>
     </g>
    </g>
    <g id="xtick_3">
     <g id="line2d_3">
      <path clip-path="url(#p86258a6503)" d="M 170.672727 229.14 
L 170.672727 61.74 
" style="fill:none;stroke:#ffffff;stroke-linecap:round;"/>
     </g>
     <g id="text_3">
      <!-- 0 -->
      <g style="fill:#262626;" transform="translate(167.173352 246.998281)scale(0.11 -0.11)">
       <defs>
        <path d="M 31.78125 66.40625 
Q 24.171875 66.40625 20.328125 58.90625 
Q 16.5 51.421875 16.5 36.375 
Q 16.5 21.390625 20.328125 13.890625 
Q 24.171875 6.390625 31.78125 6.390625 
Q 39.453125 6.390625 43.28125 13.890625 
Q 47.125 21.390625 47.125 36.375 
Q 47.125 51.421875 43.28125 58.90625 
Q 39.453125 66.40625 31.78125 66.40625 
z
M 31.78125 74.21875 
Q 44.046875 74.21875 50.515625 64.515625 
Q 56.984375 54.828125 56.984375 36.375 
Q 56.984375 17.96875 50.515625 8.265625 
Q 44.046875 -1.421875 31.78125 -1.421875 
Q 19.53125 -1.421875 13.0625 8.265625 
Q 6.59375 17.96875 6.59375 36.375 
Q 6.59375 54.828125 13.0625 64.515625 
Q 19.53125 74.21875 31.78125 74.21875 
z
" id="DejaVuSans-48"/>
       </defs>
       <use xlink:href="#DejaVuSans-48"/>
      </g>
     </g>
    </g>
    <g id="xtick_4">
     <g id="line2d_4">
      <path clip-path="url(#p86258a6503)" d="M 221.4 229.14 
L 221.4 61.74 
" style="fill:none;stroke:#ffffff;stroke-linecap:round;"/>
     </g>
     <g id="text_4">
      <!-- 1 -->
      <g style="fill:#262626;" transform="translate(217.900625 246.998281)scale(0.11 -0.11)">
       <use xlink:href="#DejaVuSans-49"/>
      </g>
     </g>
    </g>
    <g id="xtick_5">
     <g id="line2d_5">
      <path clip-path="url(#p86258a6503)" d="M 272.127273 229.14 
L 272.127273 61.74 
" style="fill:none;stroke:#ffffff;stroke-linecap:round;"/>
     </g>
     <g id="text_5">
      <!-- 2 -->
      <g style="fill:#262626;" transform="translate(268.627898 246.998281)scale(0.11 -0.11)">
       <use xlink:href="#DejaVuSans-50"/>
      </g>
     </g>
    </g>
    <g id="xtick_6">
     <g id="line2d_6">
      <path clip-path="url(#p86258a6503)" d="M 322.854545 229.14 
L 322.854545 61.74 
" style="fill:none;stroke:#ffffff;stroke-linecap:round;"/>
     </g>
     <g id="text_6">
      <!-- 3 -->
      <g style="fill:#262626;" transform="translate(319.35517 246.998281)scale(0.11 -0.11)">
       <defs>
        <path d="M 40.578125 39.3125 
Q 47.65625 37.796875 51.625 33 
Q 55.609375 28.21875 55.609375 21.1875 
Q 55.609375 10.40625 48.1875 4.484375 
Q 40.765625 -1.421875 27.09375 -1.421875 
Q 22.515625 -1.421875 17.65625 -0.515625 
Q 12.796875 0.390625 7.625 2.203125 
L 7.625 11.71875 
Q 11.71875 9.328125 16.59375 8.109375 
Q 21.484375 6.890625 26.8125 6.890625 
Q 36.078125 6.890625 40.9375 10.546875 
Q 45.796875 14.203125 45.796875 21.1875 
Q 45.796875 27.640625 41.28125 31.265625 
Q 36.765625 34.90625 28.71875 34.90625 
L 20.21875 34.90625 
L 20.21875 43.015625 
L 29.109375 43.015625 
Q 36.375 43.015625 40.234375 45.921875 
Q 44.09375 48.828125 44.09375 54.296875 
Q 44.09375 59.90625 40.109375 62.90625 
Q 36.140625 65.921875 28.71875 65.921875 
Q 24.65625 65.921875 20.015625 65.03125 
Q 15.375 64.15625 9.8125 62.3125 
L 9.8125 71.09375 
Q 15.4375 72.65625 20.34375 73.4375 
Q 25.25 74.21875 29.59375 74.21875 
Q 40.828125 74.21875 47.359375 69.109375 
Q 53.90625 64.015625 53.90625 55.328125 
Q 53.90625 49.265625 50.4375 45.09375 
Q 46.96875 40.921875 40.578125 39.3125 
z
" id="DejaVuSans-51"/>
       </defs>
       <use xlink:href="#DejaVuSans-51"/>
      </g>
     </g>
    </g>
    <g id="xtick_7">
     <g id="line2d_7">
      <path clip-path="url(#p86258a6503)" d="M 373.581818 229.14 
L 373.581818 61.74 
" style="fill:none;stroke:#ffffff;stroke-linecap:round;"/>
     </g>
     <g id="text_7">
      <!-- 4 -->
      <g style="fill:#262626;" transform="translate(370.082443 246.998281)scale(0.11 -0.11)">
       <defs>
        <path d="M 37.796875 64.3125 
L 12.890625 25.390625 
L 37.796875 25.390625 
z
M 35.203125 72.90625 
L 47.609375 72.90625 
L 47.609375 25.390625 
L 58.015625 25.390625 
L 58.015625 17.1875 
L 47.609375 17.1875 
L 47.609375 0 
L 37.796875 0 
L 37.796875 17.1875 
L 4.890625 17.1875 
L 4.890625 26.703125 
z
" id="DejaVuSans-52"/>
       </defs>
       <use xlink:href="#DejaVuSans-52"/>
      </g>
     </g>
    </g>
   </g>
   <g id="matplotlib.axis_2">
    <g id="ytick_1">
     <g id="line2d_8">
      <path clip-path="url(#p86258a6503)" d="M 54 221.530909 
L 388.8 221.530909 
" style="fill:none;stroke:#ffffff;stroke-linecap:round;"/>
     </g>
     <g id="text_8">
      <!-- −0.5 -->
      <g style="fill:#262626;" transform="translate(17.788906 225.71005)scale(0.11 -0.11)">
       <defs>
        <path d="M 10.6875 12.40625 
L 21 12.40625 
L 21 0 
L 10.6875 0 
z
" id="DejaVuSans-46"/>
        <path d="M 10.796875 72.90625 
L 49.515625 72.90625 
L 49.515625 64.59375 
L 19.828125 64.59375 
L 19.828125 46.734375 
Q 21.96875 47.46875 24.109375 47.828125 
Q 26.265625 48.1875 28.421875 48.1875 
Q 40.625 48.1875 47.75 41.5 
Q 54.890625 34.8125 54.890625 23.390625 
Q 54.890625 11.625 47.5625 5.09375 
Q 40.234375 -1.421875 26.90625 -1.421875 
Q 22.3125 -1.421875 17.546875 -0.640625 
Q 12.796875 0.140625 7.71875 1.703125 
L 7.71875 11.625 
Q 12.109375 9.234375 16.796875 8.0625 
Q 21.484375 6.890625 26.703125 6.890625 
Q 35.15625 6.890625 40.078125 11.328125 
Q 45.015625 15.765625 45.015625 23.390625 
Q 45.015625 31 40.078125 35.4375 
Q 35.15625 39.890625 26.703125 39.890625 
Q 22.75 39.890625 18.8125 39.015625 
Q 14.890625 38.140625 10.796875 36.28125 
z
" id="DejaVuSans-53"/>
       </defs>
       <use xlink:href="#DejaVuSans-8722"/>
       <use x="83.789062" xlink:href="#DejaVuSans-48"/>
       <use x="147.412109" xlink:href="#DejaVuSans-46"/>
       <use x="179.199219" xlink:href="#DejaVuSans-53"/>
      </g>
     </g>
    </g>
    <g id="ytick_2">
     <g id="line2d_9">
      <path clip-path="url(#p86258a6503)" d="M 54 196.167273 
L 388.8 196.167273 
" style="fill:none;stroke:#ffffff;stroke-linecap:round;"/>
     </g>
     <g id="text_9">
      <!-- 0.0 -->
      <g style="fill:#262626;" transform="translate(27.006563 200.346413)scale(0.11 -0.11)">
       <use xlink:href="#DejaVuSans-48"/>
       <use x="63.623047" xlink:href="#DejaVuSans-46"/>
       <use x="95.410156" xlink:href="#DejaVuSans-48"/>
      </g>
     </g>
    </g>
    <g id="ytick_3">
     <g id="line2d_10">
      <path clip-path="url(#p86258a6503)" d="M 54 170.803636 
L 388.8 170.803636 
" style="fill:none;stroke:#ffffff;stroke-linecap:round;"/>
     </g>
     <g id="text_10">
      <!-- 0.5 -->
      <g style="fill:#262626;" transform="translate(27.006563 174.982777)scale(0.11 -0.11)">
       <use xlink:href="#DejaVuSans-48"/>
       <use x="63.623047" xlink:href="#DejaVuSans-46"/>
       <use x="95.410156" xlink:href="#DejaVuSans-53"/>
      </g>
     </g>
    </g>
    <g id="ytick_4">
     <g id="line2d_11">
      <path clip-path="url(#p86258a6503)" d="M 54 145.44 
L 388.8 145.44 
" style="fill:none;stroke:#ffffff;stroke-linecap:round;"/>
     </g>
     <g id="text_11">
      <!-- 1.0 -->
      <g style="fill:#262626;" transform="translate(27.006563 149.619141)scale(0.11 -0.11)">
       <use xlink:href="#DejaVuSans-49"/>
       <use x="63.623047" xlink:href="#DejaVuSans-46"/>
       <use x="95.410156" xlink:href="#DejaVuSans-48"/>
      </g>
     </g>
    </g>
    <g id="ytick_5">
     <g id="line2d_12">
      <path clip-path="url(#p86258a6503)" d="M 54 120.076364 
L 388.8 120.076364 
" style="fill:none;stroke:#ffffff;stroke-linecap:round;"/>
     </g>
     <g id="text_12">
      <!-- 1.5 -->
      <g style="fill:#262626;" transform="translate(27.006563 124.255504)scale(0.11 -0.11)">
       <use xlink:href="#DejaVuSans-49"/>
       <use x="63.623047" xlink:href="#DejaVuSans-46"/>
       <use x="95.410156" xlink:href="#DejaVuSans-53"/>
      </g>
     </g>
    </g>
    <g id="ytick_6">
     <g id="line2d_13">
      <path clip-path="url(#p86258a6503)" d="M 54 94.712727 
L 388.8 94.712727 
" style="fill:none;stroke:#ffffff;stroke-linecap:round;"/>
     </g>
     <g id="text_13">
      <!-- 2.0 -->
      <g style="fill:#262626;" transform="translate(27.006563 98.891868)scale(0.11 -0.11)">
       <use xlink:href="#DejaVuSans-50"/>
       <use x="63.623047" xlink:href="#DejaVuSans-46"/>
       <use x="95.410156" xlink:href="#DejaVuSans-48"/>
      </g>
     </g>
    </g>
    <g id="ytick_7">
     <g id="line2d_14">
      <path clip-path="url(#p86258a6503)" d="M 54 69.349091 
L 388.8 69.349091 
" style="fill:none;stroke:#ffffff;stroke-linecap:round;"/>
     </g>
     <g id="text_14">
      <!-- 2.5 -->
      <g style="fill:#262626;" transform="translate(27.006563 73.528232)scale(0.11 -0.11)">
       <use xlink:href="#DejaVuSans-50"/>
       <use x="63.623047" xlink:href="#DejaVuSans-46"/>
       <use x="95.410156" xlink:href="#DejaVuSans-53"/>
      </g>
     </g>
    </g>
   </g>
   <g id="line2d_15">
    <path clip-path="url(#p86258a6503)" d="M 69.218182 221.530909 
L 72.292562 219.993719 
L 75.366942 218.456529 
L 78.441322 216.919339 
L 81.515702 215.382149 
L 84.590083 213.844959 
L 87.664463 212.307769 
L 90.738843 210.770579 
L 93.813223 209.233388 
L 96.887603 207.696198 
L 99.961983 206.159008 
L 103.036364 204.621818 
L 106.110744 203.084628 
L 109.185124 201.547438 
L 112.259504 200.010248 
L 115.333884 198.473058 
L 118.408264 196.935868 
L 121.482645 195.398678 
L 124.557025 193.861488 
L 127.631405 192.324298 
L 130.705785 190.787107 
L 133.780165 189.249917 
L 136.854545 187.712727 
L 139.928926 186.175537 
L 143.003306 184.638347 
L 146.077686 183.101157 
L 149.152066 181.563967 
L 152.226446 180.026777 
L 155.300826 178.489587 
L 158.375207 176.952397 
L 161.449587 175.415207 
L 164.523967 173.878017 
L 167.598347 172.340826 
L 170.672727 170.803636 
L 173.747107 169.266446 
L 176.821488 167.729256 
L 179.895868 166.192066 
L 182.970248 164.654876 
L 186.044628 163.117686 
L 189.119008 161.580496 
L 192.193388 160.043306 
L 195.267769 158.506116 
L 198.342149 156.968926 
L 201.416529 155.431736 
L 204.490909 153.894545 
L 207.565289 152.357355 
L 210.639669 150.820165 
L 213.71405 149.282975 
L 216.78843 147.745785 
L 219.86281 146.208595 
L 222.93719 144.671405 
L 226.01157 143.134215 
L 229.08595 141.597025 
L 232.160331 140.059835 
L 235.234711 138.522645 
L 238.309091 136.985455 
L 241.383471 135.448264 
L 244.457851 133.911074 
L 247.532231 132.373884 
L 250.606612 130.836694 
L 253.680992 129.299504 
L 256.755372 127.762314 
L 259.829752 126.225124 
L 262.904132 124.687934 
L 265.978512 123.150744 
L 269.052893 121.613554 
L 272.127273 120.076364 
L 275.201653 118.539174 
L 278.276033 117.001983 
L 281.350413 115.464793 
L 284.424793 113.927603 
L 287.499174 112.390413 
L 290.573554 110.853223 
L 293.647934 109.316033 
L 296.722314 107.778843 
L 299.796694 106.241653 
L 302.871074 104.704463 
L 305.945455 103.167273 
L 309.019835 101.630083 
L 312.094215 100.092893 
L 315.168595 98.555702 
L 318.242975 97.018512 
L 321.317355 95.481322 
L 324.391736 93.944132 
L 327.466116 92.406942 
L 330.540496 90.869752 
L 333.614876 89.332562 
L 336.689256 87.795372 
L 339.763636 86.258182 
L 342.838017 84.720992 
L 345.912397 83.183802 
L 348.986777 81.646612 
L 352.061157 80.109421 
L 355.135537 78.572231 
L 358.209917 77.035041 
L 361.284298 75.497851 
L 364.358678 73.960661 
L 367.433058 72.423471 
L 370.507438 70.886281 
L 373.581818 69.349091 
" style="fill:none;stroke:#4c72b0;stroke-linecap:round;stroke-width:1.5;"/>
   </g>
   <g id="line2d_16">
    <path clip-path="url(#p86258a6503)" d="M 69.218182 179.258182 
L 72.292562 178.233388 
L 75.366942 177.208595 
L 78.441322 176.183802 
L 81.515702 175.159008 
L 84.590083 174.134215 
L 87.664463 173.109421 
L 90.738843 172.084628 
L 93.813223 171.059835 
L 96.887603 170.035041 
L 99.961983 169.010248 
L 103.036364 167.985455 
L 106.110744 166.960661 
L 109.185124 165.935868 
L 112.259504 164.911074 
L 115.333884 163.886281 
L 118.408264 162.861488 
L 121.482645 161.836694 
L 124.557025 160.811901 
L 127.631405 159.787107 
L 130.705785 158.762314 
L 133.780165 157.737521 
L 136.854545 156.712727 
L 139.928926 155.687934 
L 143.003306 154.66314 
L 146.077686 153.638347 
L 149.152066 152.613554 
L 152.226446 151.58876 
L 155.300826 150.563967 
L 158.375207 149.539174 
L 161.449587 148.51438 
L 164.523967 147.489587 
L 167.598347 146.464793 
L 170.672727 145.44 
L 173.747107 144.415207 
L 176.821488 143.390413 
L 179.895868 142.36562 
L 182.970248 141.340826 
L 186.044628 140.316033 
L 189.119008 139.29124 
L 192.193388 138.266446 
L 195.267769 137.241653 
L 198.342149 136.21686 
L 201.416529 135.192066 
L 204.490909 134.167273 
L 207.565289 133.142479 
L 210.639669 132.117686 
L 213.71405 131.092893 
L 216.78843 130.068099 
L 219.86281 129.043306 
L 222.93719 128.018512 
L 226.01157 126.993719 
L 229.08595 125.968926 
L 232.160331 124.944132 
L 235.234711 123.919339 
L 238.309091 122.894545 
L 241.383471 121.869752 
L 244.457851 120.844959 
L 247.532231 119.820165 
L 250.606612 118.795372 
L 253.680992 117.770579 
L 256.755372 116.745785 
L 259.829752 115.720992 
L 262.904132 114.696198 
L 265.978512 113.671405 
L 269.052893 112.646612 
L 272.127273 111.621818 
L 275.201653 110.597025 
L 278.276033 109.572231 
L 281.350413 108.547438 
L 284.424793 107.522645 
L 287.499174 106.497851 
L 290.573554 105.473058 
L 293.647934 104.448264 
L 296.722314 103.423471 
L 299.796694 102.398678 
L 302.871074 101.373884 
L 305.945455 100.349091 
L 309.019835 99.324298 
L 312.094215 98.299504 
L 315.168595 97.274711 
L 318.242975 96.249917 
L 321.317355 95.225124 
L 324.391736 94.200331 
L 327.466116 93.175537 
L 330.540496 92.150744 
L 333.614876 91.12595 
L 336.689256 90.101157 
L 339.763636 89.076364 
L 342.838017 88.05157 
L 345.912397 87.026777 
L 348.986777 86.001983 
L 352.061157 84.97719 
L 355.135537 83.952397 
L 358.209917 82.927603 
L 361.284298 81.90281 
L 364.358678 80.878017 
L 367.433058 79.853223 
L 370.507438 78.82843 
L 373.581818 77.803636 
" style="fill:none;stroke:#dd8452;stroke-linecap:round;stroke-width:1.5;"/>
   </g>
   <g id="patch_3">
    <path d="M 54 229.14 
L 54 61.74 
" style="fill:none;stroke:#ffffff;stroke-linecap:square;stroke-linejoin:miter;stroke-width:1.25;"/>
   </g>
   <g id="patch_4">
    <path d="M 388.8 229.14 
L 388.8 61.74 
" style="fill:none;stroke:#ffffff;stroke-linecap:square;stroke-linejoin:miter;stroke-width:1.25;"/>
   </g>
   <g id="patch_5">
    <path d="M 54 229.14 
L 388.8 229.14 
" style="fill:none;stroke:#ffffff;stroke-linecap:square;stroke-linejoin:miter;stroke-width:1.25;"/>
   </g>
   <g id="patch_6">
    <path d="M 54 61.74 
L 388.8 61.74 
" style="fill:none;stroke:#ffffff;stroke-linecap:square;stroke-linejoin:miter;stroke-width:1.25;"/>
   </g>
  </g>
 </g>
 <defs>
  <clipPath id="p86258a6503">
   <rect height="167.4" width="334.8" x="54" y="61.74"/>
  </clipPath>
 </defs>
</svg>
