<?xml version="1.0" encoding="utf-8" standalone="no"?>
<!DOCTYPE svg PUBLIC "-//W3C//DTD SVG 1.1//EN"
  "http://www.w3.org/Graphics/SVG/1.1/DTD/svg11.dtd">
<!-- Created with matplotlib (https://matplotlib.org/) -->
<svg height="288pt" version="1.1" viewBox="0 0 864 288" width="864pt" xmlns="http://www.w3.org/2000/svg" xmlns:xlink="http://www.w3.org/1999/xlink">
 <metadata>
  <rdf:RDF xmlns:cc="http://creativecommons.org/ns#" xmlns:dc="http://purl.org/dc/elements/1.1/" xmlns:rdf="http://www.w3.org/1999/02/22-rdf-syntax-ns#">
   <cc:Work>
    <dc:type rdf:resource="http://purl.org/dc/dcmitype/StillImage"/>
    <dc:date>2020-07-29T08:50:45.182059</dc:date>
    <dc:format>image/svg+xml</dc:format>
    <dc:creator>
     <cc:Agent>
      <dc:title>Matplotlib v3.3.0, https://matplotlib.org/</dc:title>
     </cc:Agent>
    </dc:creator>
   </cc:Work>
  </rdf:RDF>
 </metadata>
 <defs>
  <style type="text/css">*{stroke-linecap:butt;stroke-linejoin:round;}</style>
 </defs>
 <g id="figure_1">
  <g id="patch_1">
   <path d="M 0 288 
L 864 288 
L 864 0 
L 0 0 
z
" style="fill:#ffffff;"/>
  </g>
  <g id="axes_1">
   <g id="patch_2">
    <path d="M 108 246.894545 
L 412.363636 246.894545 
L 412.363636 43.985455 
L 108 43.985455 
z
" style="fill:#eaeaf2;"/>
   </g>
   <g id="matplotlib.axis_1">
    <g id="xtick_1">
     <g id="line2d_1">
      <path clip-path="url(#pe30f540db0)" d="M 121.834711 246.894545 
L 121.834711 43.985455 
" style="fill:none;stroke:#ffffff;stroke-linecap:round;"/>
     </g>
     <g id="text_1">
      <!-- −2 -->
      <g style="fill:#262626;" transform="translate(113.726508 264.752827)scale(0.11 -0.11)">
       <defs>
        <path d="M 10.59375 35.5 
L 73.1875 35.5 
L 73.1875 27.203125 
L 10.59375 27.203125 
z
" id="DejaVuSans-8722"/>
        <path d="M 19.1875 8.296875 
L 53.609375 8.296875 
L 53.609375 0 
L 7.328125 0 
L 7.328125 8.296875 
Q 12.9375 14.109375 22.625 23.890625 
Q 32.328125 33.6875 34.8125 36.53125 
Q 39.546875 41.84375 41.421875 45.53125 
Q 43.3125 49.21875 43.3125 52.78125 
Q 43.3125 58.59375 39.234375 62.25 
Q 35.15625 65.921875 28.609375 65.921875 
Q 23.96875 65.921875 18.8125 64.3125 
Q 13.671875 62.703125 7.8125 59.421875 
L 7.8125 69.390625 
Q 13.765625 71.78125 18.9375 73 
Q 24.125 74.21875 28.421875 74.21875 
Q 39.75 74.21875 46.484375 68.546875 
Q 53.21875 62.890625 53.21875 53.421875 
Q 53.21875 48.921875 51.53125 44.890625 
Q 49.859375 40.875 45.40625 35.40625 
Q 44.1875 33.984375 37.640625 27.21875 
Q 31.109375 20.453125 19.1875 8.296875 
z
" id="DejaVuSans-50"/>
       </defs>
       <use xlink:href="#DejaVuSans-8722"/>
       <use x="83.789062" xlink:href="#DejaVuSans-50"/>
      </g>
     </g>
    </g>
    <g id="xtick_2">
     <g id="line2d_2">
      <path clip-path="url(#pe30f540db0)" d="M 167.950413 246.894545 
L 167.950413 43.985455 
" style="fill:none;stroke:#ffffff;stroke-linecap:round;"/>
     </g>
     <g id="text_2">
      <!-- −1 -->
      <g style="fill:#262626;" transform="translate(159.84221 264.752827)scale(0.11 -0.11)">
       <defs>
        <path d="M 12.40625 8.296875 
L 28.515625 8.296875 
L 28.515625 63.921875 
L 10.984375 60.40625 
L 10.984375 69.390625 
L 28.421875 72.90625 
L 38.28125 72.90625 
L 38.28125 8.296875 
L 54.390625 8.296875 
L 54.390625 0 
L 12.40625 0 
z
" id="DejaVuSans-49"/>
       </defs>
       <use xlink:href="#DejaVuSans-8722"/>
       <use x="83.789062" xlink:href="#DejaVuSans-49"/>
      </g>
     </g>
    </g>
    <g id="xtick_3">
     <g id="line2d_3">
      <path clip-path="url(#pe30f540db0)" d="M 214.066116 246.894545 
L 214.066116 43.985455 
" style="fill:none;stroke:#ffffff;stroke-linecap:round;"/>
     </g>
     <g id="text_3">
      <!-- 0 -->
      <g style="fill:#262626;" transform="translate(210.566741 264.752827)scale(0.11 -0.11)">
       <defs>
        <path d="M 31.78125 66.40625 
Q 24.171875 66.40625 20.328125 58.90625 
Q 16.5 51.421875 16.5 36.375 
Q 16.5 21.390625 20.328125 13.890625 
Q 24.171875 6.390625 31.78125 6.390625 
Q 39.453125 6.390625 43.28125 13.890625 
Q 47.125 21.390625 47.125 36.375 
Q 47.125 51.421875 43.28125 58.90625 
Q 39.453125 66.40625 31.78125 66.40625 
z
M 31.78125 74.21875 
Q 44.046875 74.21875 50.515625 64.515625 
Q 56.984375 54.828125 56.984375 36.375 
Q 56.984375 17.96875 50.515625 8.265625 
Q 44.046875 -1.421875 31.78125 -1.421875 
Q 19.53125 -1.421875 13.0625 8.265625 
Q 6.59375 17.96875 6.59375 36.375 
Q 6.59375 54.828125 13.0625 64.515625 
Q 19.53125 74.21875 31.78125 74.21875 
z
" id="DejaVuSans-48"/>
       </defs>
       <use xlink:href="#DejaVuSans-48"/>
      </g>
     </g>
    </g>
    <g id="xtick_4">
     <g id="line2d_4">
      <path clip-path="url(#pe30f540db0)" d="M 260.181818 246.894545 
L 260.181818 43.985455 
" style="fill:none;stroke:#ffffff;stroke-linecap:round;"/>
     </g>
     <g id="text_4">
      <!-- 1 -->
      <g style="fill:#262626;" transform="translate(256.682443 264.752827)scale(0.11 -0.11)">
       <use xlink:href="#DejaVuSans-49"/>
      </g>
     </g>
    </g>
    <g id="xtick_5">
     <g id="line2d_5">
      <path clip-path="url(#pe30f540db0)" d="M 306.297521 246.894545 
L 306.297521 43.985455 
" style="fill:none;stroke:#ffffff;stroke-linecap:round;"/>
     </g>
     <g id="text_5">
      <!-- 2 -->
      <g style="fill:#262626;" transform="translate(302.798146 264.752827)scale(0.11 -0.11)">
       <use xlink:href="#DejaVuSans-50"/>
      </g>
     </g>
    </g>
    <g id="xtick_6">
     <g id="line2d_6">
      <path clip-path="url(#pe30f540db0)" d="M 352.413223 246.894545 
L 352.413223 43.985455 
" style="fill:none;stroke:#ffffff;stroke-linecap:round;"/>
     </g>
     <g id="text_6">
      <!-- 3 -->
      <g style="fill:#262626;" transform="translate(348.913848 264.752827)scale(0.11 -0.11)">
       <defs>
        <path d="M 40.578125 39.3125 
Q 47.65625 37.796875 51.625 33 
Q 55.609375 28.21875 55.609375 21.1875 
Q 55.609375 10.40625 48.1875 4.484375 
Q 40.765625 -1.421875 27.09375 -1.421875 
Q 22.515625 -1.421875 17.65625 -0.515625 
Q 12.796875 0.390625 7.625 2.203125 
L 7.625 11.71875 
Q 11.71875 9.328125 16.59375 8.109375 
Q 21.484375 6.890625 26.8125 6.890625 
Q 36.078125 6.890625 40.9375 10.546875 
Q 45.796875 14.203125 45.796875 21.1875 
Q 45.796875 27.640625 41.28125 31.265625 
Q 36.765625 34.90625 28.71875 34.90625 
L 20.21875 34.90625 
L 20.21875 43.015625 
L 29.109375 43.015625 
Q 36.375 43.015625 40.234375 45.921875 
Q 44.09375 48.828125 44.09375 54.296875 
Q 44.09375 59.90625 40.109375 62.90625 
Q 36.140625 65.921875 28.71875 65.921875 
Q 24.65625 65.921875 20.015625 65.03125 
Q 15.375 64.15625 9.8125 62.3125 
L 9.8125 71.09375 
Q 15.4375 72.65625 20.34375 73.4375 
Q 25.25 74.21875 29.59375 74.21875 
Q 40.828125 74.21875 47.359375 69.109375 
Q 53.90625 64.015625 53.90625 55.328125 
Q 53.90625 49.265625 50.4375 45.09375 
Q 46.96875 40.921875 40.578125 39.3125 
z
" id="DejaVuSans-51"/>
       </defs>
       <use xlink:href="#DejaVuSans-51"/>
      </g>
     </g>
    </g>
    <g id="xtick_7">
     <g id="line2d_7">
      <path clip-path="url(#pe30f540db0)" d="M 398.528926 246.894545 
L 398.528926 43.985455 
" style="fill:none;stroke:#ffffff;stroke-linecap:round;"/>
     </g>
     <g id="text_7">
      <!-- 4 -->
      <g style="fill:#262626;" transform="translate(395.029551 264.752827)scale(0.11 -0.11)">
       <defs>
        <path d="M 37.796875 64.3125 
L 12.890625 25.390625 
L 37.796875 25.390625 
z
M 35.203125 72.90625 
L 47.609375 72.90625 
L 47.609375 25.390625 
L 58.015625 25.390625 
L 58.015625 17.1875 
L 47.609375 17.1875 
L 47.609375 0 
L 37.796875 0 
L 37.796875 17.1875 
L 4.890625 17.1875 
L 4.890625 26.703125 
z
" id="DejaVuSans-52"/>
       </defs>
       <use xlink:href="#DejaVuSans-52"/>
      </g>
     </g>
    </g>
   </g>
   <g id="matplotlib.axis_2">
    <g id="ytick_1">
     <g id="line2d_8">
      <path clip-path="url(#pe30f540db0)" d="M 108 237.671405 
L 412.363636 237.671405 
" style="fill:none;stroke:#ffffff;stroke-linecap:round;"/>
     </g>
     <g id="text_8">
      <!-- −0.5 -->
      <g style="fill:#262626;" transform="translate(71.788906 241.850546)scale(0.11 -0.11)">
       <defs>
        <path d="M 10.6875 12.40625 
L 21 12.40625 
L 21 0 
L 10.6875 0 
z
" id="DejaVuSans-46"/>
        <path d="M 10.796875 72.90625 
L 49.515625 72.90625 
L 49.515625 64.59375 
L 19.828125 64.59375 
L 19.828125 46.734375 
Q 21.96875 47.46875 24.109375 47.828125 
Q 26.265625 48.1875 28.421875 48.1875 
Q 40.625 48.1875 47.75 41.5 
Q 54.890625 34.8125 54.890625 23.390625 
Q 54.890625 11.625 47.5625 5.09375 
Q 40.234375 -1.421875 26.90625 -1.421875 
Q 22.3125 -1.421875 17.546875 -0.640625 
Q 12.796875 0.140625 7.71875 1.703125 
L 7.71875 11.625 
Q 12.109375 9.234375 16.796875 8.0625 
Q 21.484375 6.890625 26.703125 6.890625 
Q 35.15625 6.890625 40.078125 11.328125 
Q 45.015625 15.765625 45.015625 23.390625 
Q 45.015625 31 40.078125 35.4375 
Q 35.15625 39.890625 26.703125 39.890625 
Q 22.75 39.890625 18.8125 39.015625 
Q 14.890625 38.140625 10.796875 36.28125 
z
" id="DejaVuSans-53"/>
       </defs>
       <use xlink:href="#DejaVuSans-8722"/>
       <use x="83.789062" xlink:href="#DejaVuSans-48"/>
       <use x="147.412109" xlink:href="#DejaVuSans-46"/>
       <use x="179.199219" xlink:href="#DejaVuSans-53"/>
      </g>
     </g>
    </g>
    <g id="ytick_2">
     <g id="line2d_9">
      <path clip-path="url(#pe30f540db0)" d="M 108 214.613554 
L 412.363636 214.613554 
" style="fill:none;stroke:#ffffff;stroke-linecap:round;"/>
     </g>
     <g id="text_9">
      <!-- 0.0 -->
      <g style="fill:#262626;" transform="translate(81.006563 218.792694)scale(0.11 -0.11)">
       <use xlink:href="#DejaVuSans-48"/>
       <use x="63.623047" xlink:href="#DejaVuSans-46"/>
       <use x="95.410156" xlink:href="#DejaVuSans-48"/>
      </g>
     </g>
    </g>
    <g id="ytick_3">
     <g id="line2d_10">
      <path clip-path="url(#pe30f540db0)" d="M 108 191.555702 
L 412.363636 191.555702 
" style="fill:none;stroke:#ffffff;stroke-linecap:round;"/>
     </g>
     <g id="text_10">
      <!-- 0.5 -->
      <g style="fill:#262626;" transform="translate(81.006563 195.734843)scale(0.11 -0.11)">
       <use xlink:href="#DejaVuSans-48"/>
       <use x="63.623047" xlink:href="#DejaVuSans-46"/>
       <use x="95.410156" xlink:href="#DejaVuSans-53"/>
      </g>
     </g>
    </g>
    <g id="ytick_4">
     <g id="line2d_11">
      <path clip-path="url(#pe30f540db0)" d="M 108 168.497851 
L 412.363636 168.497851 
" style="fill:none;stroke:#ffffff;stroke-linecap:round;"/>
     </g>
     <g id="text_11">
      <!-- 1.0 -->
      <g style="fill:#262626;" transform="translate(81.006563 172.676992)scale(0.11 -0.11)">
       <use xlink:href="#DejaVuSans-49"/>
       <use x="63.623047" xlink:href="#DejaVuSans-46"/>
       <use x="95.410156" xlink:href="#DejaVuSans-48"/>
      </g>
     </g>
    </g>
    <g id="ytick_5">
     <g id="line2d_12">
      <path clip-path="url(#pe30f540db0)" d="M 108 145.44 
L 412.363636 145.44 
" style="fill:none;stroke:#ffffff;stroke-linecap:round;"/>
     </g>
     <g id="text_12">
      <!-- 1.5 -->
      <g style="fill:#262626;" transform="translate(81.006563 149.619141)scale(0.11 -0.11)">
       <use xlink:href="#DejaVuSans-49"/>
       <use x="63.623047" xlink:href="#DejaVuSans-46"/>
       <use x="95.410156" xlink:href="#DejaVuSans-53"/>
      </g>
     </g>
    </g>
    <g id="ytick_6">
     <g id="line2d_13">
      <path clip-path="url(#pe30f540db0)" d="M 108 122.382149 
L 412.363636 122.382149 
" style="fill:none;stroke:#ffffff;stroke-linecap:round;"/>
     </g>
     <g id="text_13">
      <!-- 2.0 -->
      <g style="fill:#262626;" transform="translate(81.006563 126.561289)scale(0.11 -0.11)">
       <use xlink:href="#DejaVuSans-50"/>
       <use x="63.623047" xlink:href="#DejaVuSans-46"/>
       <use x="95.410156" xlink:href="#DejaVuSans-48"/>
      </g>
     </g>
    </g>
    <g id="ytick_7">
     <g id="line2d_14">
      <path clip-path="url(#pe30f540db0)" d="M 108 99.324298 
L 412.363636 99.324298 
" style="fill:none;stroke:#ffffff;stroke-linecap:round;"/>
     </g>
     <g id="text_14">
      <!-- 2.5 -->
      <g style="fill:#262626;" transform="translate(81.006563 103.503438)scale(0.11 -0.11)">
       <use xlink:href="#DejaVuSans-50"/>
       <use x="63.623047" xlink:href="#DejaVuSans-46"/>
       <use x="95.410156" xlink:href="#DejaVuSans-53"/>
      </g>
     </g>
    </g>
    <g id="ytick_8">
     <g id="line2d_15">
      <path clip-path="url(#pe30f540db0)" d="M 108 76.266446 
L 412.363636 76.266446 
" style="fill:none;stroke:#ffffff;stroke-linecap:round;"/>
     </g>
     <g id="text_15">
      <!-- 3.0 -->
      <g style="fill:#262626;" transform="translate(81.006563 80.445587)scale(0.11 -0.11)">
       <use xlink:href="#DejaVuSans-51"/>
       <use x="63.623047" xlink:href="#DejaVuSans-46"/>
       <use x="95.410156" xlink:href="#DejaVuSans-48"/>
      </g>
     </g>
    </g>
    <g id="ytick_9">
     <g id="line2d_16">
      <path clip-path="url(#pe30f540db0)" d="M 108 53.208595 
L 412.363636 53.208595 
" style="fill:none;stroke:#ffffff;stroke-linecap:round;"/>
     </g>
     <g id="text_16">
      <!-- 3.5 -->
      <g style="fill:#262626;" transform="translate(81.006563 57.387736)scale(0.11 -0.11)">
       <use xlink:href="#DejaVuSans-51"/>
       <use x="63.623047" xlink:href="#DejaVuSans-46"/>
       <use x="95.410156" xlink:href="#DejaVuSans-53"/>
      </g>
     </g>
    </g>
   </g>
   <g id="line2d_17">
    <path clip-path="url(#pe30f540db0)" d="M 121.834711 237.671405 
L 124.629602 236.273959 
L 127.424493 234.876514 
L 130.219384 233.479068 
L 133.014275 232.081623 
L 135.809166 230.684177 
L 138.604057 229.286732 
L 141.398948 227.889286 
L 144.193839 226.491841 
L 146.98873 225.094395 
L 149.783621 223.69695 
L 152.578512 222.299504 
L 155.373403 220.902059 
L 158.168295 219.504613 
L 160.963186 218.107168 
L 163.758077 216.709722 
L 166.552968 215.312276 
L 169.347859 213.914831 
L 172.14275 212.517385 
L 174.937641 211.11994 
L 177.732532 209.722494 
L 180.527423 208.325049 
L 183.322314 206.927603 
L 186.117205 205.530158 
L 188.912096 204.132712 
L 191.706987 202.735267 
L 194.501878 201.337821 
L 197.296769 199.940376 
L 200.09166 198.54293 
L 202.886551 197.145485 
L 205.681443 195.748039 
L 208.476334 194.350594 
L 211.271225 192.953148 
L 214.066116 191.555702 
L 216.861007 190.158257 
L 219.655898 188.760811 
L 222.450789 187.363366 
L 225.24568 185.96592 
L 228.040571 184.568475 
L 230.835462 183.171029 
L 233.630353 181.773584 
L 236.425244 180.376138 
L 239.220135 178.978693 
L 242.015026 177.581247 
L 244.809917 176.183802 
L 247.604808 174.786356 
L 250.399699 173.388911 
L 253.194591 171.991465 
L 255.989482 170.59402 
L 258.784373 169.196574 
L 261.579264 167.799128 
L 264.374155 166.401683 
L 267.169046 165.004237 
L 269.963937 163.606792 
L 272.758828 162.209346 
L 275.553719 160.811901 
L 278.34861 159.414455 
L 281.143501 158.01701 
L 283.938392 156.619564 
L 286.733283 155.222119 
L 289.528174 153.824673 
L 292.323065 152.427228 
L 295.117956 151.029782 
L 297.912847 149.632337 
L 300.707739 148.234891 
L 303.50263 146.837446 
L 306.297521 145.44 
L 309.092412 144.042554 
L 311.887303 142.645109 
L 314.682194 141.247663 
L 317.477085 139.850218 
L 320.271976 138.452772 
L 323.066867 137.055327 
L 325.861758 135.657881 
L 328.656649 134.260436 
L 331.45154 132.86299 
L 334.246431 131.465545 
L 337.041322 130.068099 
L 339.836213 128.670654 
L 342.631104 127.273208 
L 345.425995 125.875763 
L 348.220887 124.478317 
L 351.015778 123.080872 
L 353.810669 121.683426 
L 356.60556 120.28598 
L 359.400451 118.888535 
L 362.195342 117.491089 
L 364.990233 116.093644 
L 367.785124 114.696198 
L 370.580015 113.298753 
L 373.374906 111.901307 
L 376.169797 110.503862 
L 378.964688 109.106416 
L 381.759579 107.708971 
L 384.55447 106.311525 
L 387.349361 104.91408 
L 390.144252 103.516634 
L 392.939144 102.119189 
L 395.734035 100.721743 
L 398.528926 99.324298 
" style="fill:none;stroke:#4c72b0;stroke-linecap:round;stroke-width:1.5;"/>
   </g>
   <g id="line2d_18">
    <path clip-path="url(#pe30f540db0)" d="M 121.834711 191.555702 
L 124.629602 190.158257 
L 127.424493 188.760811 
L 130.219384 187.363366 
L 133.014275 185.96592 
L 135.809166 184.568475 
L 138.604057 183.171029 
L 141.398948 181.773584 
L 144.193839 180.376138 
L 146.98873 178.978693 
L 149.783621 177.581247 
L 152.578512 176.183802 
L 155.373403 174.786356 
L 158.168295 173.388911 
L 160.963186 171.991465 
L 163.758077 170.59402 
L 166.552968 169.196574 
L 169.347859 167.799128 
L 172.14275 166.401683 
L 174.937641 165.004237 
L 177.732532 163.606792 
L 180.527423 162.209346 
L 183.322314 160.811901 
L 186.117205 159.414455 
L 188.912096 158.01701 
L 191.706987 156.619564 
L 194.501878 155.222119 
L 197.296769 153.824673 
L 200.09166 152.427228 
L 202.886551 151.029782 
L 205.681443 149.632337 
L 208.476334 148.234891 
L 211.271225 146.837446 
L 214.066116 145.44 
L 216.861007 144.042554 
L 219.655898 142.645109 
L 222.450789 141.247663 
L 225.24568 139.850218 
L 228.040571 138.452772 
L 230.835462 137.055327 
L 233.630353 135.657881 
L 236.425244 134.260436 
L 239.220135 132.86299 
L 242.015026 131.465545 
L 244.809917 130.068099 
L 247.604808 128.670654 
L 250.399699 127.273208 
L 253.194591 125.875763 
L 255.989482 124.478317 
L 258.784373 123.080872 
L 261.579264 121.683426 
L 264.374155 120.28598 
L 267.169046 118.888535 
L 269.963937 117.491089 
L 272.758828 116.093644 
L 275.553719 114.696198 
L 278.34861 113.298753 
L 281.143501 111.901307 
L 283.938392 110.503862 
L 286.733283 109.106416 
L 289.528174 107.708971 
L 292.323065 106.311525 
L 295.117956 104.91408 
L 297.912847 103.516634 
L 300.707739 102.119189 
L 303.50263 100.721743 
L 306.297521 99.324298 
L 309.092412 97.926852 
L 311.887303 96.529406 
L 314.682194 95.131961 
L 317.477085 93.734515 
L 320.271976 92.33707 
L 323.066867 90.939624 
L 325.861758 89.542179 
L 328.656649 88.144733 
L 331.45154 86.747288 
L 334.246431 85.349842 
L 337.041322 83.952397 
L 339.836213 82.554951 
L 342.631104 81.157506 
L 345.425995 79.76006 
L 348.220887 78.362615 
L 351.015778 76.965169 
L 353.810669 75.567724 
L 356.60556 74.170278 
L 359.400451 72.772832 
L 362.195342 71.375387 
L 364.990233 69.977941 
L 367.785124 68.580496 
L 370.580015 67.18305 
L 373.374906 65.785605 
L 376.169797 64.388159 
L 378.964688 62.990714 
L 381.759579 61.593268 
L 384.55447 60.195823 
L 387.349361 58.798377 
L 390.144252 57.400932 
L 392.939144 56.003486 
L 395.734035 54.606041 
L 398.528926 53.208595 
" style="fill:none;stroke:#dd8452;stroke-linecap:round;stroke-width:1.5;"/>
   </g>
   <g id="patch_3">
    <path d="M 108 246.894545 
L 108 43.985455 
" style="fill:none;stroke:#ffffff;stroke-linecap:square;stroke-linejoin:miter;stroke-width:1.25;"/>
   </g>
   <g id="patch_4">
    <path d="M 412.363636 246.894545 
L 412.363636 43.985455 
" style="fill:none;stroke:#ffffff;stroke-linecap:square;stroke-linejoin:miter;stroke-width:1.25;"/>
   </g>
   <g id="patch_5">
    <path d="M 108 246.894545 
L 412.363636 246.894545 
" style="fill:none;stroke:#ffffff;stroke-linecap:square;stroke-linejoin:miter;stroke-width:1.25;"/>
   </g>
   <g id="patch_6">
    <path d="M 108 43.985455 
L 412.363636 43.985455 
" style="fill:none;stroke:#ffffff;stroke-linecap:square;stroke-linejoin:miter;stroke-width:1.25;"/>
   </g>
  </g>
  <g id="axes_2">
   <g id="patch_7">
    <path d="M 473.236364 221.530909 
L 777.6 221.530909 
L 777.6 69.349091 
L 473.236364 69.349091 
z
" style="fill:#eaeaf2;"/>
   </g>
   <g id="matplotlib.axis_3">
    <g id="xtick_8">
     <g id="line2d_19">
      <path clip-path="url(#pf556df1c6b)" d="M 487.071074 221.530909 
L 487.071074 69.349091 
" style="fill:none;stroke:#ffffff;stroke-linecap:round;"/>
     </g>
     <g id="text_17">
      <!-- −2 -->
      <g style="fill:#262626;" transform="translate(478.962871 239.38919)scale(0.11 -0.11)">
       <use xlink:href="#DejaVuSans-8722"/>
       <use x="83.789062" xlink:href="#DejaVuSans-50"/>
      </g>
     </g>
    </g>
    <g id="xtick_9">
     <g id="line2d_20">
      <path clip-path="url(#pf556df1c6b)" d="M 533.186777 221.530909 
L 533.186777 69.349091 
" style="fill:none;stroke:#ffffff;stroke-linecap:round;"/>
     </g>
     <g id="text_18">
      <!-- −1 -->
      <g style="fill:#262626;" transform="translate(525.078574 239.38919)scale(0.11 -0.11)">
       <use xlink:href="#DejaVuSans-8722"/>
       <use x="83.789062" xlink:href="#DejaVuSans-49"/>
      </g>
     </g>
    </g>
    <g id="xtick_10">
     <g id="line2d_21">
      <path clip-path="url(#pf556df1c6b)" d="M 579.302479 221.530909 
L 579.302479 69.349091 
" style="fill:none;stroke:#ffffff;stroke-linecap:round;"/>
     </g>
     <g id="text_19">
      <!-- 0 -->
      <g style="fill:#262626;" transform="translate(575.803104 239.38919)scale(0.11 -0.11)">
       <use xlink:href="#DejaVuSans-48"/>
      </g>
     </g>
    </g>
    <g id="xtick_11">
     <g id="line2d_22">
      <path clip-path="url(#pf556df1c6b)" d="M 625.418182 221.530909 
L 625.418182 69.349091 
" style="fill:none;stroke:#ffffff;stroke-linecap:round;"/>
     </g>
     <g id="text_20">
      <!-- 1 -->
      <g style="fill:#262626;" transform="translate(621.918807 239.38919)scale(0.11 -0.11)">
       <use xlink:href="#DejaVuSans-49"/>
      </g>
     </g>
    </g>
    <g id="xtick_12">
     <g id="line2d_23">
      <path clip-path="url(#pf556df1c6b)" d="M 671.533884 221.530909 
L 671.533884 69.349091 
" style="fill:none;stroke:#ffffff;stroke-linecap:round;"/>
     </g>
     <g id="text_21">
      <!-- 2 -->
      <g style="fill:#262626;" transform="translate(668.034509 239.38919)scale(0.11 -0.11)">
       <use xlink:href="#DejaVuSans-50"/>
      </g>
     </g>
    </g>
    <g id="xtick_13">
     <g id="line2d_24">
      <path clip-path="url(#pf556df1c6b)" d="M 717.649587 221.530909 
L 717.649587 69.349091 
" style="fill:none;stroke:#ffffff;stroke-linecap:round;"/>
     </g>
     <g id="text_22">
      <!-- 3 -->
      <g style="fill:#262626;" transform="translate(714.150212 239.38919)scale(0.11 -0.11)">
       <use xlink:href="#DejaVuSans-51"/>
      </g>
     </g>
    </g>
    <g id="xtick_14">
     <g id="line2d_25">
      <path clip-path="url(#pf556df1c6b)" d="M 763.765289 221.530909 
L 763.765289 69.349091 
" style="fill:none;stroke:#ffffff;stroke-linecap:round;"/>
     </g>
     <g id="text_23">
      <!-- 4 -->
      <g style="fill:#262626;" transform="translate(760.265914 239.38919)scale(0.11 -0.11)">
       <use xlink:href="#DejaVuSans-52"/>
      </g>
     </g>
    </g>
   </g>
   <g id="matplotlib.axis_4">
    <g id="ytick_10">
     <g id="line2d_26">
      <path clip-path="url(#pf556df1c6b)" d="M 473.236364 191.555702 
L 777.6 191.555702 
" style="fill:none;stroke:#ffffff;stroke-linecap:round;"/>
     </g>
     <g id="text_24">
      <!-- 0 -->
      <g style="fill:#262626;" transform="translate(456.737614 195.734843)scale(0.11 -0.11)">
       <use xlink:href="#DejaVuSans-48"/>
      </g>
     </g>
    </g>
    <g id="ytick_11">
     <g id="line2d_27">
      <path clip-path="url(#pf556df1c6b)" d="M 473.236364 145.44 
L 777.6 145.44 
" style="fill:none;stroke:#ffffff;stroke-linecap:round;"/>
     </g>
     <g id="text_25">
      <!-- 1 -->
      <g style="fill:#262626;" transform="translate(456.737614 149.619141)scale(0.11 -0.11)">
       <use xlink:href="#DejaVuSans-49"/>
      </g>
     </g>
    </g>
    <g id="ytick_12">
     <g id="line2d_28">
      <path clip-path="url(#pf556df1c6b)" d="M 473.236364 99.324298 
L 777.6 99.324298 
" style="fill:none;stroke:#ffffff;stroke-linecap:round;"/>
     </g>
     <g id="text_26">
      <!-- 2 -->
      <g style="fill:#262626;" transform="translate(456.737614 103.503438)scale(0.11 -0.11)">
       <use xlink:href="#DejaVuSans-50"/>
      </g>
     </g>
    </g>
   </g>
   <g id="line2d_29">
    <path clip-path="url(#pf556df1c6b)" d="M 487.071074 214.613554 
L 489.865965 213.216108 
L 492.660856 211.818663 
L 495.455748 210.421217 
L 498.250639 209.023772 
L 501.04553 207.626326 
L 503.840421 206.228881 
L 506.635312 204.831435 
L 509.430203 203.433989 
L 512.225094 202.036544 
L 515.019985 200.639098 
L 517.814876 199.241653 
L 520.609767 197.844207 
L 523.404658 196.446762 
L 526.199549 195.049316 
L 528.99444 193.651871 
L 531.789331 192.254425 
L 534.584222 190.85698 
L 537.379113 189.459534 
L 540.174005 188.062089 
L 542.968896 186.664643 
L 545.763787 185.267198 
L 548.558678 183.869752 
L 551.353569 182.472307 
L 554.14846 181.074861 
L 556.943351 179.677415 
L 559.738242 178.27997 
L 562.533133 176.882524 
L 565.328024 175.485079 
L 568.122915 174.087633 
L 570.917806 172.690188 
L 573.712697 171.292742 
L 576.507588 169.895297 
L 579.302479 168.497851 
L 582.09737 167.100406 
L 584.892261 165.70296 
L 587.687153 164.305515 
L 590.482044 162.908069 
L 593.276935 161.510624 
L 596.071826 160.113178 
L 598.866717 158.715733 
L 601.661608 157.318287 
L 604.456499 155.920841 
L 607.25139 154.523396 
L 610.046281 153.12595 
L 612.841172 151.728505 
L 615.636063 150.331059 
L 618.430954 148.933614 
L 621.225845 147.536168 
L 624.020736 146.138723 
L 626.815627 144.741277 
L 629.610518 143.343832 
L 632.405409 141.946386 
L 635.200301 140.548941 
L 637.995192 139.151495 
L 640.790083 137.75405 
L 643.584974 136.356604 
L 646.379865 134.959159 
L 649.174756 133.561713 
L 651.969647 132.164267 
L 654.764538 130.766822 
L 657.559429 129.369376 
L 660.35432 127.971931 
L 663.149211 126.574485 
L 665.944102 125.17704 
L 668.738993 123.779594 
L 671.533884 122.382149 
L 674.328775 120.984703 
L 677.123666 119.587258 
L 679.918557 118.189812 
L 682.713449 116.792367 
L 685.50834 115.394921 
L 688.303231 113.997476 
L 691.098122 112.60003 
L 693.893013 111.202585 
L 696.687904 109.805139 
L 699.482795 108.407693 
L 702.277686 107.010248 
L 705.072577 105.612802 
L 707.867468 104.215357 
L 710.662359 102.817911 
L 713.45725 101.420466 
L 716.252141 100.02302 
L 719.047032 98.625575 
L 721.841923 97.228129 
L 724.636814 95.830684 
L 727.431705 94.433238 
L 730.226597 93.035793 
L 733.021488 91.638347 
L 735.816379 90.240902 
L 738.61127 88.843456 
L 741.406161 87.446011 
L 744.201052 86.048565 
L 746.995943 84.651119 
L 749.790834 83.253674 
L 752.585725 81.856228 
L 755.380616 80.458783 
L 758.175507 79.061337 
L 760.970398 77.663892 
L 763.765289 76.266446 
" style="fill:none;stroke:#4c72b0;stroke-linecap:round;stroke-width:1.5;"/>
   </g>
   <g id="line2d_30">
    <path clip-path="url(#pf556df1c6b)" d="M 487.071074 214.613554 
L 489.865965 213.216108 
L 492.660856 211.818663 
L 495.455748 210.421217 
L 498.250639 209.023772 
L 501.04553 207.626326 
L 503.840421 206.228881 
L 506.635312 204.831435 
L 509.430203 203.433989 
L 512.225094 202.036544 
L 515.019985 200.639098 
L 517.814876 199.241653 
L 520.609767 197.844207 
L 523.404658 196.446762 
L 526.199549 195.049316 
L 528.99444 193.651871 
L 531.789331 192.254425 
L 534.584222 190.85698 
L 537.379113 189.459534 
L 540.174005 188.062089 
L 542.968896 186.664643 
L 545.763787 185.267198 
L 548.558678 183.869752 
L 551.353569 182.472307 
L 554.14846 181.074861 
L 556.943351 179.677415 
L 559.738242 178.27997 
L 562.533133 176.882524 
L 565.328024 175.485079 
L 568.122915 174.087633 
L 570.917806 172.690188 
L 573.712697 171.292742 
L 576.507588 169.895297 
L 579.302479 168.497851 
L 582.09737 167.100406 
L 584.892261 165.70296 
L 587.687153 164.305515 
L 590.482044 162.908069 
L 593.276935 161.510624 
L 596.071826 160.113178 
L 598.866717 158.715733 
L 601.661608 157.318287 
L 604.456499 155.920841 
L 607.25139 154.523396 
L 610.046281 153.12595 
L 612.841172 151.728505 
L 615.636063 150.331059 
L 618.430954 148.933614 
L 621.225845 147.536168 
L 624.020736 146.138723 
L 626.815627 144.741277 
L 629.610518 143.343832 
L 632.405409 141.946386 
L 635.200301 140.548941 
L 637.995192 139.151495 
L 640.790083 137.75405 
L 643.584974 136.356604 
L 646.379865 134.959159 
L 649.174756 133.561713 
L 651.969647 132.164267 
L 654.764538 130.766822 
L 657.559429 129.369376 
L 660.35432 127.971931 
L 663.149211 126.574485 
L 665.944102 125.17704 
L 668.738993 123.779594 
L 671.533884 122.382149 
L 674.328775 120.984703 
L 677.123666 119.587258 
L 679.918557 118.189812 
L 682.713449 116.792367 
L 685.50834 115.394921 
L 688.303231 113.997476 
L 691.098122 112.60003 
L 693.893013 111.202585 
L 696.687904 109.805139 
L 699.482795 108.407693 
L 702.277686 107.010248 
L 705.072577 105.612802 
L 707.867468 104.215357 
L 710.662359 102.817911 
L 713.45725 101.420466 
L 716.252141 100.02302 
L 719.047032 98.625575 
L 721.841923 97.228129 
L 724.636814 95.830684 
L 727.431705 94.433238 
L 730.226597 93.035793 
L 733.021488 91.638347 
L 735.816379 90.240902 
L 738.61127 88.843456 
L 741.406161 87.446011 
L 744.201052 86.048565 
L 746.995943 84.651119 
L 749.790834 83.253674 
L 752.585725 81.856228 
L 755.380616 80.458783 
L 758.175507 79.061337 
L 760.970398 77.663892 
L 763.765289 76.266446 
" style="fill:none;stroke:#dd8452;stroke-linecap:round;stroke-width:1.5;"/>
   </g>
   <g id="patch_8">
    <path d="M 473.236364 221.530909 
L 473.236364 69.349091 
" style="fill:none;stroke:#ffffff;stroke-linecap:square;stroke-linejoin:miter;stroke-width:1.25;"/>
   </g>
   <g id="patch_9">
    <path d="M 777.6 221.530909 
L 777.6 69.349091 
" style="fill:none;stroke:#ffffff;stroke-linecap:square;stroke-linejoin:miter;stroke-width:1.25;"/>
   </g>
   <g id="patch_10">
    <path d="M 473.236364 221.530909 
L 777.6 221.530909 
" style="fill:none;stroke:#ffffff;stroke-linecap:square;stroke-linejoin:miter;stroke-width:1.25;"/>
   </g>
   <g id="patch_11">
    <path d="M 473.236364 69.349091 
L 777.6 69.349091 
" style="fill:none;stroke:#ffffff;stroke-linecap:square;stroke-linejoin:miter;stroke-width:1.25;"/>
   </g>
  </g>
 </g>
 <defs>
  <clipPath id="pe30f540db0">
   <rect height="202.909091" width="304.363636" x="108" y="43.985455"/>
  </clipPath>
  <clipPath id="pf556df1c6b">
   <rect height="152.181818" width="304.363636" x="473.236364" y="69.349091"/>
  </clipPath>
 </defs>
</svg>
