<svg width="2049" height="1242" xmlns="http://www.w3.org/2000/svg" xmlns:xlink="http://www.w3.org/1999/xlink" overflow="hidden"><defs><clipPath id="clip0"><rect x="2763" y="600" width="2049" height="1242"/></clipPath><clipPath id="clip1"><rect x="2768" y="605" width="2039" height="1232"/></clipPath><clipPath id="clip2"><rect x="2768" y="605" width="2039" height="1232"/></clipPath><clipPath id="clip3"><rect x="2768" y="605" width="2039" height="1232"/></clipPath><clipPath id="clip4"><rect x="2768" y="605" width="2039" height="1232"/></clipPath><clipPath id="clip5"><rect x="2979" y="751" width="1762" height="901"/></clipPath><clipPath id="clip6"><rect x="2768" y="605" width="2039" height="1232"/></clipPath><clipPath id="clip7"><rect x="2979" y="751" width="1762" height="901"/></clipPath><clipPath id="clip8"><rect x="2768" y="605" width="2039" height="1232"/></clipPath><clipPath id="clip9"><rect x="2979" y="751" width="1762" height="901"/></clipPath><clipPath id="clip10"><rect x="2768" y="605" width="2039" height="1232"/></clipPath><clipPath id="clip11"><rect x="2768" y="605" width="2039" height="1232"/></clipPath><clipPath id="clip12"><rect x="2768" y="605" width="2039" height="1232"/></clipPath><clipPath id="clip13"><rect x="2768" y="605" width="2039" height="1232"/></clipPath><clipPath id="clip14"><rect x="2768" y="605" width="2039" height="1232"/></clipPath><clipPath id="clip15"><rect x="2768" y="605" width="2039" height="1232"/></clipPath><clipPath id="clip16"><rect x="2768" y="605" width="2039" height="1232"/></clipPath><clipPath id="clip17"><rect x="2768" y="605" width="2039" height="1232"/></clipPath><clipPath id="clip18"><rect x="2768" y="605" width="2039" height="1232"/></clipPath><clipPath id="clip19"><rect x="2768" y="605" width="2039" height="1232"/></clipPath><clipPath id="clip20"><rect x="2768" y="605" width="2039" height="1232"/></clipPath><clipPath id="clip21"><rect x="2768" y="605" width="2039" height="1232"/></clipPath><clipPath id="clip22"><rect x="2768" y="605" width="2039" height="1232"/></clipPath><clipPath id="clip23"><rect x="2768" y="605" width="2039" height="1232"/></clipPath><clipPath id="clip24"><rect x="2768" y="605" width="2039" height="1232"/></clipPath><clipPath id="clip25"><rect x="2768" y="605" width="2039" height="1232"/></clipPath><clipPath id="clip26"><rect x="2768" y="605" width="2039" height="1232"/></clipPath><clipPath id="clip27"><rect x="2768" y="605" width="2039" height="1232"/></clipPath><clipPath id="clip28"><rect x="2768" y="605" width="2039" height="1232"/></clipPath><clipPath id="clip29"><rect x="2768" y="605" width="2039" height="1232"/></clipPath><clipPath id="clip30"><rect x="2768" y="605" width="2039" height="1232"/></clipPath><clipPath id="clip31"><rect x="2768" y="605" width="2039" height="1232"/></clipPath><clipPath id="clip32"><rect x="2768" y="605" width="2039" height="1232"/></clipPath><clipPath id="clip33"><rect x="2768" y="605" width="2039" height="1232"/></clipPath><clipPath id="clip34"><rect x="2768" y="605" width="2039" height="1232"/></clipPath><clipPath id="clip35"><rect x="2768" y="605" width="2039" height="1232"/></clipPath><clipPath id="clip36"><rect x="2768" y="605" width="2039" height="1232"/></clipPath><clipPath id="clip37"><rect x="2768" y="605" width="2039" height="1232"/></clipPath></defs><g clip-path="url(#clip0)" transform="translate(-2763 -600)"><rect x="2768" y="605" width="2040" height="1233" fill="#FFFFFF" fill-opacity="1"/><g clip-path="url(#clip1)"><path d="M2979.5 1521.55 4737.5 1521.55M2979.5 1392.55 4737.5 1392.55M2979.5 1264.54 4737.5 1264.54M2979.5 1136.54 4737.5 1136.54M2979.5 1007.53 4737.5 1007.53M2979.5 879.529 4737.5 879.529M2979.5 751.5 4737.5 751.5" stroke="#D9D9D9" stroke-width="3.4375" stroke-linecap="butt" stroke-linejoin="round" stroke-miterlimit="10" stroke-opacity="1" fill="none" fill-rule="nonzero"/></g><g clip-path="url(#clip2)"><path d="M3230.61 751.5 3230.61 1649.5M3481.61 751.5 3481.61 1649.5M3732.62 751.5 3732.62 1649.5M3983.63 751.5 3983.63 1649.5M4235.64 751.5 4235.64 1649.5M4486.65 751.5 4486.65 1649.5M4737.5 751.5 4737.5 1649.5" stroke="#D9D9D9" stroke-width="3.4375" stroke-linecap="butt" stroke-linejoin="round" stroke-miterlimit="10" stroke-opacity="1" fill="none" fill-rule="nonzero"/></g><g clip-path="url(#clip3)"><path d="M0 0 0.000360892 898" stroke="#BFBFBF" stroke-width="3.4375" stroke-linecap="butt" stroke-linejoin="round" stroke-miterlimit="10" stroke-opacity="1" fill="none" fill-rule="evenodd" transform="matrix(1 0 0 -1 2979.5 1649.5)"/></g><g clip-path="url(#clip4)"><path d="M2979.5 1649.5 4737.5 1649.5" stroke="#BFBFBF" stroke-width="3.4375" stroke-linecap="butt" stroke-linejoin="round" stroke-miterlimit="10" stroke-opacity="1" fill="none" fill-rule="evenodd"/></g><g clip-path="url(#clip5)"><path d="M2991.5 1643.5 3004.6 1636.55 3029.6 1623.55 3079.6 1600.55 3179.6 1581.55 3380.61 1477.55 3782.62 1378.55 4586.5 1174.5" stroke="#4472C4" stroke-width="6.875" stroke-linecap="round" stroke-linejoin="round" stroke-miterlimit="10" stroke-opacity="1" fill="none" fill-rule="nonzero"/></g><g clip-path="url(#clip6)"><path d="M3002.83 1643.5C3002.83 1649.57 2997.91 1654.5 2991.83 1654.5 2985.76 1654.5 2980.83 1649.57 2980.83 1643.5 2980.83 1637.42 2985.76 1632.5 2991.83 1632.5 2997.91 1632.5 3002.83 1637.42 3002.83 1643.5Z" stroke="#4472C4" stroke-width="3.4375" stroke-linecap="butt" stroke-linejoin="round" stroke-miterlimit="10" stroke-opacity="1" fill="#4472C4" fill-rule="nonzero" fill-opacity="1"/><path d="M3015.83 1636.5C3015.83 1642.57 3010.91 1647.5 3004.83 1647.5 2998.76 1647.5 2993.83 1642.57 2993.83 1636.5 2993.83 1630.42 2998.76 1625.5 3004.83 1625.5 3010.91 1625.5 3015.83 1630.42 3015.83 1636.5Z" stroke="#4472C4" stroke-width="3.4375" stroke-linecap="butt" stroke-linejoin="round" stroke-miterlimit="10" stroke-opacity="1" fill="#4472C4" fill-rule="nonzero" fill-opacity="1"/><path d="M3040.83 1623.5C3040.83 1629.57 3035.91 1634.5 3029.83 1634.5 3023.76 1634.5 3018.83 1629.57 3018.83 1623.5 3018.83 1617.42 3023.76 1612.5 3029.83 1612.5 3035.91 1612.5 3040.83 1617.42 3040.83 1623.5Z" stroke="#4472C4" stroke-width="3.4375" stroke-linecap="butt" stroke-linejoin="round" stroke-miterlimit="10" stroke-opacity="1" fill="#4472C4" fill-rule="nonzero" fill-opacity="1"/><path d="M3090.83 1600.5C3090.83 1606.57 3085.91 1611.5 3079.83 1611.5 3073.76 1611.5 3068.83 1606.57 3068.83 1600.5 3068.83 1594.42 3073.76 1589.5 3079.83 1589.5 3085.91 1589.5 3090.83 1594.42 3090.83 1600.5Z" stroke="#4472C4" stroke-width="3.4375" stroke-linecap="butt" stroke-linejoin="round" stroke-miterlimit="10" stroke-opacity="1" fill="#4472C4" fill-rule="nonzero" fill-opacity="1"/><path d="M3191.83 1581.5C3191.83 1587.57 3186.91 1592.5 3180.83 1592.5 3174.76 1592.5 3169.83 1587.57 3169.83 1581.5 3169.83 1575.42 3174.76 1570.5 3180.83 1570.5 3186.91 1570.5 3191.83 1575.42 3191.83 1581.5Z" stroke="#4472C4" stroke-width="3.4375" stroke-linecap="butt" stroke-linejoin="round" stroke-miterlimit="10" stroke-opacity="1" fill="#4472C4" fill-rule="nonzero" fill-opacity="1"/><path d="M3391.83 1477.5C3391.83 1483.57 3386.91 1488.5 3380.83 1488.5 3374.76 1488.5 3369.83 1483.57 3369.83 1477.5 3369.83 1471.42 3374.76 1466.5 3380.83 1466.5 3386.91 1466.5 3391.83 1471.42 3391.83 1477.5Z" stroke="#4472C4" stroke-width="3.4375" stroke-linecap="butt" stroke-linejoin="round" stroke-miterlimit="10" stroke-opacity="1" fill="#4472C4" fill-rule="nonzero" fill-opacity="1"/><path d="M3793.83 1378.5C3793.83 1384.57 3788.91 1389.5 3782.83 1389.5 3776.76 1389.5 3771.83 1384.57 3771.83 1378.5 3771.83 1372.42 3776.76 1367.5 3782.83 1367.5 3788.91 1367.5 3793.83 1372.42 3793.83 1378.5Z" stroke="#4472C4" stroke-width="3.4375" stroke-linecap="butt" stroke-linejoin="round" stroke-miterlimit="10" stroke-opacity="1" fill="#4472C4" fill-rule="nonzero" fill-opacity="1"/><path d="M4597.83 1174.5C4597.83 1180.57 4592.91 1185.5 4586.83 1185.5 4580.76 1185.5 4575.83 1180.57 4575.83 1174.5 4575.83 1168.42 4580.76 1163.5 4586.83 1163.5 4592.91 1163.5 4597.83 1168.42 4597.83 1174.5Z" stroke="#4472C4" stroke-width="3.4375" stroke-linecap="butt" stroke-linejoin="round" stroke-miterlimit="10" stroke-opacity="1" fill="#4472C4" fill-rule="nonzero" fill-opacity="1"/></g><g clip-path="url(#clip7)"><path d="M2991.5 1643.5 3004.6 1637.55 3029.6 1626.55 3079.6 1612.55 3179.6 1599.55 3380.61 1599.55 3782.62 1580.5 4586.5 1614.55" stroke="#ED7D31" stroke-width="6.875" stroke-linecap="round" stroke-linejoin="round" stroke-miterlimit="10" stroke-opacity="1" fill="none" fill-rule="nonzero"/></g><g clip-path="url(#clip8)"><path d="M3002.83 1643.5C3002.83 1649.57 2997.91 1654.5 2991.83 1654.5 2985.76 1654.5 2980.83 1649.57 2980.83 1643.5 2980.83 1637.42 2985.76 1632.5 2991.83 1632.5 2997.91 1632.5 3002.83 1637.42 3002.83 1643.5Z" stroke="#ED7D31" stroke-width="3.4375" stroke-linecap="butt" stroke-linejoin="round" stroke-miterlimit="10" stroke-opacity="1" fill="#ED7D31" fill-rule="nonzero" fill-opacity="1"/><path d="M3015.83 1637.5C3015.83 1643.57 3010.91 1648.5 3004.83 1648.5 2998.76 1648.5 2993.83 1643.57 2993.83 1637.5 2993.83 1631.42 2998.76 1626.5 3004.83 1626.5 3010.91 1626.5 3015.83 1631.42 3015.83 1637.5Z" stroke="#ED7D31" stroke-width="3.4375" stroke-linecap="butt" stroke-linejoin="round" stroke-miterlimit="10" stroke-opacity="1" fill="#ED7D31" fill-rule="nonzero" fill-opacity="1"/><path d="M3040.83 1626.5C3040.83 1632.57 3035.91 1637.5 3029.83 1637.5 3023.76 1637.5 3018.83 1632.57 3018.83 1626.5 3018.83 1620.42 3023.76 1615.5 3029.83 1615.5 3035.91 1615.5 3040.83 1620.42 3040.83 1626.5Z" stroke="#ED7D31" stroke-width="3.4375" stroke-linecap="butt" stroke-linejoin="round" stroke-miterlimit="10" stroke-opacity="1" fill="#ED7D31" fill-rule="nonzero" fill-opacity="1"/><path d="M3090.83 1612.5C3090.83 1618.57 3085.91 1623.5 3079.83 1623.5 3073.76 1623.5 3068.83 1618.57 3068.83 1612.5 3068.83 1606.42 3073.76 1601.5 3079.83 1601.5 3085.91 1601.5 3090.83 1606.42 3090.83 1612.5Z" stroke="#ED7D31" stroke-width="3.4375" stroke-linecap="butt" stroke-linejoin="round" stroke-miterlimit="10" stroke-opacity="1" fill="#ED7D31" fill-rule="nonzero" fill-opacity="1"/><path d="M3191.83 1600.5C3191.83 1606.57 3186.91 1611.5 3180.83 1611.5 3174.76 1611.5 3169.83 1606.57 3169.83 1600.5 3169.83 1594.42 3174.76 1589.5 3180.83 1589.5 3186.91 1589.5 3191.83 1594.42 3191.83 1600.5Z" stroke="#ED7D31" stroke-width="3.4375" stroke-linecap="butt" stroke-linejoin="round" stroke-miterlimit="10" stroke-opacity="1" fill="#ED7D31" fill-rule="nonzero" fill-opacity="1"/><path d="M3391.83 1599.5C3391.83 1605.57 3386.91 1610.5 3380.83 1610.5 3374.76 1610.5 3369.83 1605.57 3369.83 1599.5 3369.83 1593.42 3374.76 1588.5 3380.83 1588.5 3386.91 1588.5 3391.83 1593.42 3391.83 1599.5Z" stroke="#ED7D31" stroke-width="3.4375" stroke-linecap="butt" stroke-linejoin="round" stroke-miterlimit="10" stroke-opacity="1" fill="#ED7D31" fill-rule="nonzero" fill-opacity="1"/><path d="M3793.83 1580.5C3793.83 1586.57 3788.91 1591.5 3782.83 1591.5 3776.76 1591.5 3771.83 1586.57 3771.83 1580.5 3771.83 1574.42 3776.76 1569.5 3782.83 1569.5 3788.91 1569.5 3793.83 1574.42 3793.83 1580.5Z" stroke="#ED7D31" stroke-width="3.4375" stroke-linecap="butt" stroke-linejoin="round" stroke-miterlimit="10" stroke-opacity="1" fill="#ED7D31" fill-rule="nonzero" fill-opacity="1"/><path d="M4597.83 1614.5C4597.83 1620.57 4592.91 1625.5 4586.83 1625.5 4580.76 1625.5 4575.83 1620.57 4575.83 1614.5 4575.83 1608.42 4580.76 1603.5 4586.83 1603.5 4592.91 1603.5 4597.83 1608.42 4597.83 1614.5Z" stroke="#ED7D31" stroke-width="3.4375" stroke-linecap="butt" stroke-linejoin="round" stroke-miterlimit="10" stroke-opacity="1" fill="#ED7D31" fill-rule="nonzero" fill-opacity="1"/></g><g clip-path="url(#clip9)"><path d="M2991.5 1643.5 3004.6 1636.55 3029.6 1623.55 3079.6 1598.55 3179.6 1546.55 3380.61 1444.55 3782.62 1238.54 4586.5 828.5" stroke="#A5A5A5" stroke-width="6.875" stroke-linecap="round" stroke-linejoin="round" stroke-miterlimit="10" stroke-opacity="1" fill="none" fill-rule="nonzero"/></g><g clip-path="url(#clip10)"><path d="M3002.83 1643.5C3002.83 1649.57 2997.91 1654.5 2991.83 1654.5 2985.76 1654.5 2980.83 1649.57 2980.83 1643.5 2980.83 1637.42 2985.76 1632.5 2991.83 1632.5 2997.91 1632.5 3002.83 1637.42 3002.83 1643.5Z" stroke="#A5A5A5" stroke-width="3.4375" stroke-linecap="butt" stroke-linejoin="round" stroke-miterlimit="10" stroke-opacity="1" fill="#A5A5A5" fill-rule="nonzero" fill-opacity="1"/><path d="M3015.83 1636.5C3015.83 1642.57 3010.91 1647.5 3004.83 1647.5 2998.76 1647.5 2993.83 1642.57 2993.83 1636.5 2993.83 1630.42 2998.76 1625.5 3004.83 1625.5 3010.91 1625.5 3015.83 1630.42 3015.83 1636.5Z" stroke="#A5A5A5" stroke-width="3.4375" stroke-linecap="butt" stroke-linejoin="round" stroke-miterlimit="10" stroke-opacity="1" fill="#A5A5A5" fill-rule="nonzero" fill-opacity="1"/><path d="M3040.83 1623.5C3040.83 1629.57 3035.91 1634.5 3029.83 1634.5 3023.76 1634.5 3018.83 1629.57 3018.83 1623.5 3018.83 1617.42 3023.76 1612.5 3029.83 1612.5 3035.91 1612.5 3040.83 1617.42 3040.83 1623.5Z" stroke="#A5A5A5" stroke-width="3.4375" stroke-linecap="butt" stroke-linejoin="round" stroke-miterlimit="10" stroke-opacity="1" fill="#A5A5A5" fill-rule="nonzero" fill-opacity="1"/><path d="M3090.83 1598.5C3090.83 1604.57 3085.91 1609.5 3079.83 1609.5 3073.76 1609.5 3068.83 1604.57 3068.83 1598.5 3068.83 1592.42 3073.76 1587.5 3079.83 1587.5 3085.91 1587.5 3090.83 1592.42 3090.83 1598.5Z" stroke="#A5A5A5" stroke-width="3.4375" stroke-linecap="butt" stroke-linejoin="round" stroke-miterlimit="10" stroke-opacity="1" fill="#A5A5A5" fill-rule="nonzero" fill-opacity="1"/><path d="M3191.83 1546.5C3191.83 1552.57 3186.91 1557.5 3180.83 1557.5 3174.76 1557.5 3169.83 1552.57 3169.83 1546.5 3169.83 1540.42 3174.76 1535.5 3180.83 1535.5 3186.91 1535.5 3191.83 1540.42 3191.83 1546.5Z" stroke="#A5A5A5" stroke-width="3.4375" stroke-linecap="butt" stroke-linejoin="round" stroke-miterlimit="10" stroke-opacity="1" fill="#A5A5A5" fill-rule="nonzero" fill-opacity="1"/><path d="M3391.83 1444.5C3391.83 1450.57 3386.91 1455.5 3380.83 1455.5 3374.76 1455.5 3369.83 1450.57 3369.83 1444.5 3369.83 1438.42 3374.76 1433.5 3380.83 1433.5 3386.91 1433.5 3391.83 1438.42 3391.83 1444.5Z" stroke="#A5A5A5" stroke-width="3.4375" stroke-linecap="butt" stroke-linejoin="round" stroke-miterlimit="10" stroke-opacity="1" fill="#A5A5A5" fill-rule="nonzero" fill-opacity="1"/><path d="M3793.83 1238.5C3793.83 1244.57 3788.91 1249.5 3782.83 1249.5 3776.76 1249.5 3771.83 1244.57 3771.83 1238.5 3771.83 1232.42 3776.76 1227.5 3782.83 1227.5 3788.91 1227.5 3793.83 1232.42 3793.83 1238.5Z" stroke="#A5A5A5" stroke-width="3.4375" stroke-linecap="butt" stroke-linejoin="round" stroke-miterlimit="10" stroke-opacity="1" fill="#A5A5A5" fill-rule="nonzero" fill-opacity="1"/><path d="M4597.83 828.5C4597.83 834.575 4592.91 839.499 4586.83 839.499 4580.76 839.499 4575.83 834.575 4575.83 828.5 4575.83 822.425 4580.76 817.5 4586.83 817.5 4592.91 817.5 4597.83 822.425 4597.83 828.5Z" stroke="#A5A5A5" stroke-width="3.4375" stroke-linecap="butt" stroke-linejoin="round" stroke-miterlimit="10" stroke-opacity="1" fill="#A5A5A5" fill-rule="nonzero" fill-opacity="1"/></g><g clip-path="url(#clip11)"><text fill="#595959" fill-opacity="1" font-family="Calibri,Calibri_MSFontService,sans-serif" font-style="normal" font-variant="normal" font-weight="400" font-stretch="normal" font-size="55" text-anchor="start" direction="ltr" writing-mode="lr-tb" unicode-bidi="normal" text-decoration="none" transform="matrix(1 0 0 1 2900.15 1664)">0</text></g><g clip-path="url(#clip12)"><text fill="#595959" fill-opacity="1" font-family="Calibri,Calibri_MSFontService,sans-serif" font-style="normal" font-variant="normal" font-weight="400" font-stretch="normal" font-size="55" text-anchor="start" direction="ltr" writing-mode="lr-tb" unicode-bidi="normal" text-decoration="none" transform="matrix(1 0 0 1 2872.28 1536)">20</text></g><g clip-path="url(#clip13)"><text fill="#595959" fill-opacity="1" font-family="Calibri,Calibri_MSFontService,sans-serif" font-style="normal" font-variant="normal" font-weight="400" font-stretch="normal" font-size="55" text-anchor="start" direction="ltr" writing-mode="lr-tb" unicode-bidi="normal" text-decoration="none" transform="matrix(1 0 0 1 2872.28 1408)">40</text></g><g clip-path="url(#clip14)"><text fill="#595959" fill-opacity="1" font-family="Calibri,Calibri_MSFontService,sans-serif" font-style="normal" font-variant="normal" font-weight="400" font-stretch="normal" font-size="55" text-anchor="start" direction="ltr" writing-mode="lr-tb" unicode-bidi="normal" text-decoration="none" transform="matrix(1 0 0 1 2872.28 1279)">60</text></g><g clip-path="url(#clip15)"><text fill="#595959" fill-opacity="1" font-family="Calibri,Calibri_MSFontService,sans-serif" font-style="normal" font-variant="normal" font-weight="400" font-stretch="normal" font-size="55" text-anchor="start" direction="ltr" writing-mode="lr-tb" unicode-bidi="normal" text-decoration="none" transform="matrix(1 0 0 1 2872.28 1151)">80</text></g><g clip-path="url(#clip16)"><text fill="#595959" fill-opacity="1" font-family="Calibri,Calibri_MSFontService,sans-serif" font-style="normal" font-variant="normal" font-weight="400" font-stretch="normal" font-size="55" text-anchor="start" direction="ltr" writing-mode="lr-tb" unicode-bidi="normal" text-decoration="none" transform="matrix(1 0 0 1 2844.42 1023)">100</text></g><g clip-path="url(#clip17)"><text fill="#595959" fill-opacity="1" font-family="Calibri,Calibri_MSFontService,sans-serif" font-style="normal" font-variant="normal" font-weight="400" font-stretch="normal" font-size="55" text-anchor="start" direction="ltr" writing-mode="lr-tb" unicode-bidi="normal" text-decoration="none" transform="matrix(1 0 0 1 2844.42 894)">120</text></g><g clip-path="url(#clip18)"><text fill="#595959" fill-opacity="1" font-family="Calibri,Calibri_MSFontService,sans-serif" font-style="normal" font-variant="normal" font-weight="400" font-stretch="normal" font-size="55" text-anchor="start" direction="ltr" writing-mode="lr-tb" unicode-bidi="normal" text-decoration="none" transform="matrix(1 0 0 1 2844.42 766)">140</text></g><g clip-path="url(#clip19)"><text fill="#595959" fill-opacity="1" font-family="Calibri,Calibri_MSFontService,sans-serif" font-style="normal" font-variant="normal" font-weight="400" font-stretch="normal" font-size="55" text-anchor="start" direction="ltr" writing-mode="lr-tb" unicode-bidi="normal" text-decoration="none" transform="matrix(1 0 0 1 2965.11 1736)">0</text></g><g clip-path="url(#clip20)"><text fill="#595959" fill-opacity="1" font-family="Calibri,Calibri_MSFontService,sans-serif" font-style="normal" font-variant="normal" font-weight="400" font-stretch="normal" font-size="55" text-anchor="start" direction="ltr" writing-mode="lr-tb" unicode-bidi="normal" text-decoration="none" transform="matrix(1 0 0 1 3202.4 1736)">20</text></g><g clip-path="url(#clip21)"><text fill="#595959" fill-opacity="1" font-family="Calibri,Calibri_MSFontService,sans-serif" font-style="normal" font-variant="normal" font-weight="400" font-stretch="normal" font-size="55" text-anchor="start" direction="ltr" writing-mode="lr-tb" unicode-bidi="normal" text-decoration="none" transform="matrix(1 0 0 1 3453.62 1736)">40</text></g><g clip-path="url(#clip22)"><text fill="#595959" fill-opacity="1" font-family="Calibri,Calibri_MSFontService,sans-serif" font-style="normal" font-variant="normal" font-weight="400" font-stretch="normal" font-size="55" text-anchor="start" direction="ltr" writing-mode="lr-tb" unicode-bidi="normal" text-decoration="none" transform="matrix(1 0 0 1 3704.84 1736)">60</text></g><g clip-path="url(#clip23)"><text fill="#595959" fill-opacity="1" font-family="Calibri,Calibri_MSFontService,sans-serif" font-style="normal" font-variant="normal" font-weight="400" font-stretch="normal" font-size="55" text-anchor="start" direction="ltr" writing-mode="lr-tb" unicode-bidi="normal" text-decoration="none" transform="matrix(1 0 0 1 3956.06 1736)">80</text></g><g clip-path="url(#clip24)"><text fill="#595959" fill-opacity="1" font-family="Calibri,Calibri_MSFontService,sans-serif" font-style="normal" font-variant="normal" font-weight="400" font-stretch="normal" font-size="55" text-anchor="start" direction="ltr" writing-mode="lr-tb" unicode-bidi="normal" text-decoration="none" transform="matrix(1 0 0 1 4193.35 1736)">100</text></g><g clip-path="url(#clip25)"><text fill="#595959" fill-opacity="1" font-family="Calibri,Calibri_MSFontService,sans-serif" font-style="normal" font-variant="normal" font-weight="400" font-stretch="normal" font-size="55" text-anchor="start" direction="ltr" writing-mode="lr-tb" unicode-bidi="normal" text-decoration="none" transform="matrix(1 0 0 1 4444.57 1736)">120</text></g><g clip-path="url(#clip26)"><text fill="#595959" fill-opacity="1" font-family="Calibri,Calibri_MSFontService,sans-serif" font-style="normal" font-variant="normal" font-weight="400" font-stretch="normal" font-size="55" text-anchor="start" direction="ltr" writing-mode="lr-tb" unicode-bidi="normal" text-decoration="none" transform="matrix(1 0 0 1 4695.79 1736)">140</text></g><g clip-path="url(#clip27)"><text fill="#595959" fill-opacity="1" font-family="Calibri,Calibri_MSFontService,sans-serif" font-style="normal" font-variant="normal" font-weight="400" font-stretch="normal" font-size="55" text-anchor="start" direction="ltr" writing-mode="lr-tb" unicode-bidi="normal" text-decoration="none" transform="matrix(6.12323e-17 -1 1 6.12323e-17 2827.21 1298)">Speedup</text></g><g clip-path="url(#clip28)"><text fill="#595959" fill-opacity="1" font-family="Calibri,Calibri_MSFontService,sans-serif" font-style="normal" font-variant="normal" font-weight="400" font-stretch="normal" font-size="55" text-anchor="start" direction="ltr" writing-mode="lr-tb" unicode-bidi="normal" text-decoration="none" transform="matrix(1 0 0 1 3671.52 1816)">Number of cores</text></g><g clip-path="url(#clip29)"><path d="M3030.5 652.5 3118.5 652.5" stroke="#4472C4" stroke-width="6.875" stroke-linecap="round" stroke-linejoin="round" stroke-miterlimit="10" stroke-opacity="1" fill="none" fill-rule="evenodd"/></g><g clip-path="url(#clip30)"><path d="M3085 652C3085 658.075 3080.07 662.999 3074 662.999 3067.93 662.999 3063 658.075 3063 652 3063 645.924 3067.93 641 3074 641 3080.07 641 3085 645.924 3085 652Z" stroke="#4472C4" stroke-width="3.4375" stroke-linecap="butt" stroke-linejoin="round" stroke-miterlimit="10" stroke-opacity="1" fill="#4472C4" fill-rule="nonzero" fill-opacity="1"/></g><g clip-path="url(#clip31)"><text fill="#595959" fill-opacity="1" font-family="Calibri,Calibri_MSFontService,sans-serif" font-style="normal" font-variant="normal" font-weight="400" font-stretch="normal" font-size="55" text-anchor="start" direction="ltr" writing-mode="lr-tb" unicode-bidi="normal" text-decoration="none" transform="matrix(1 0 0 1 3127.85 667)">Calculation speedup</text></g><g clip-path="url(#clip32)"><path d="M3668.5 652.5 3756.5 652.5" stroke="#ED7D31" stroke-width="6.875" stroke-linecap="round" stroke-linejoin="round" stroke-miterlimit="10" stroke-opacity="1" fill="none" fill-rule="evenodd"/></g><g clip-path="url(#clip33)"><path d="M3723 652C3723 658.075 3718.07 662.999 3712 662.999 3705.93 662.999 3701 658.075 3701 652 3701 645.924 3705.93 641 3712 641 3718.07 641 3723 645.924 3723 652Z" stroke="#ED7D31" stroke-width="3.4375" stroke-linecap="butt" stroke-linejoin="round" stroke-miterlimit="10" stroke-opacity="1" fill="#ED7D31" fill-rule="nonzero" fill-opacity="1"/></g><g clip-path="url(#clip34)"><text fill="#595959" fill-opacity="1" font-family="Calibri,Calibri_MSFontService,sans-serif" font-style="normal" font-variant="normal" font-weight="400" font-stretch="normal" font-size="55" text-anchor="start" direction="ltr" writing-mode="lr-tb" unicode-bidi="normal" text-decoration="none" transform="matrix(1 0 0 1 3766.12 667)">Overall speedup</text></g><g clip-path="url(#clip35)"><path d="M4218.5 652.5 4306.5 652.5" stroke="#A5A5A5" stroke-width="6.875" stroke-linecap="round" stroke-linejoin="round" stroke-miterlimit="10" stroke-opacity="1" fill="none" fill-rule="evenodd"/></g><g clip-path="url(#clip36)"><path d="M4273 652C4273 658.075 4268.08 662.999 4262 662.999 4255.92 662.999 4251 658.075 4251 652 4251 645.924 4255.92 641 4262 641 4268.08 641 4273 645.924 4273 652Z" stroke="#A5A5A5" stroke-width="3.4375" stroke-linecap="butt" stroke-linejoin="round" stroke-miterlimit="10" stroke-opacity="1" fill="#A5A5A5" fill-rule="nonzero" fill-opacity="1"/></g><g clip-path="url(#clip37)"><text fill="#595959" fill-opacity="1" font-family="Calibri,Calibri_MSFontService,sans-serif" font-style="normal" font-variant="normal" font-weight="400" font-stretch="normal" font-size="55" text-anchor="start" direction="ltr" writing-mode="lr-tb" unicode-bidi="normal" text-decoration="none" transform="matrix(1 0 0 1 4315.38 667)">Perfect speedup</text></g><rect x="2768.5" y="605.5" width="2040" height="1233" stroke="#D9D9D9" stroke-width="3.4375" stroke-linecap="butt" stroke-linejoin="round" stroke-miterlimit="10" stroke-opacity="1" fill="none"/></g></svg>