<?xml version="1.0" encoding="utf-8" standalone="no"?>
<!DOCTYPE svg PUBLIC "-//W3C//DTD SVG 1.1//EN"
  "http://www.w3.org/Graphics/SVG/1.1/DTD/svg11.dtd">
<svg xmlns:xlink="http://www.w3.org/1999/xlink" width="625.153125pt" height="421.030918pt" viewBox="0 0 625.153125 421.030918" xmlns="http://www.w3.org/2000/svg" version="1.1">
 <metadata>
  <rdf:RDF xmlns:dc="http://purl.org/dc/elements/1.1/" xmlns:cc="http://creativecommons.org/ns#" xmlns:rdf="http://www.w3.org/1999/02/22-rdf-syntax-ns#">
   <cc:Work>
    <dc:type rdf:resource="http://purl.org/dc/dcmitype/StillImage"/>
    <dc:date>2023-10-19T17:27:11.195235</dc:date>
    <dc:format>image/svg+xml</dc:format>
    <dc:creator>
     <cc:Agent>
      <dc:title>Matplotlib v3.8.0, https://matplotlib.org/</dc:title>
     </cc:Agent>
    </dc:creator>
   </cc:Work>
  </rdf:RDF>
 </metadata>
 <defs>
  <style type="text/css">*{stroke-linejoin: round; stroke-linecap: butt}</style>
 </defs>
 <g id="figure_1">
  <g id="patch_1">
   <path d="M -0 421.030918 
L 625.153125 421.030918 
L 625.153125 0 
L -0 0 
z
" style="fill: #ffffff"/>
  </g>
  <g id="axes_1">
   <g id="patch_2">
    <path d="M 59.953125 378.603418 
L 617.953125 378.603418 
L 617.953125 35.965375 
L 59.953125 35.965375 
z
" style="fill: #ffffff"/>
   </g>
   <g id="matplotlib.axis_1">
    <g id="xtick_1">
     <g id="line2d_1">
      <path d="M 85.316761 378.603418 
L 85.316761 35.965375 
" clip-path="url(#pccde30e155)" style="fill: none; stroke-dasharray: 2,8; stroke-dashoffset: 0; stroke: #cccccc; stroke-width: 2; stroke-linecap: round"/>
     </g>
     <g id="line2d_2"/>
     <g id="text_1">
      <!-- 0 -->
      <g transform="translate(81.499261 391.721543) scale(0.12 -0.12)">
       <defs>
        <path id="DejaVuSans-30" d="M 2034 4250 
Q 1547 4250 1301 3770 
Q 1056 3291 1056 2328 
Q 1056 1369 1301 889 
Q 1547 409 2034 409 
Q 2525 409 2770 889 
Q 3016 1369 3016 2328 
Q 3016 3291 2770 3770 
Q 2525 4250 2034 4250 
z
M 2034 4750 
Q 2819 4750 3233 4129 
Q 3647 3509 3647 2328 
Q 3647 1150 3233 529 
Q 2819 -91 2034 -91 
Q 1250 -91 836 529 
Q 422 1150 422 2328 
Q 422 3509 836 4129 
Q 1250 4750 2034 4750 
z
" transform="scale(0.015625)"/>
       </defs>
       <use xlink:href="#DejaVuSans-30"/>
      </g>
     </g>
    </g>
    <g id="xtick_2">
     <g id="line2d_3">
      <path d="M 186.771307 378.603418 
L 186.771307 35.965375 
" clip-path="url(#pccde30e155)" style="fill: none; stroke-dasharray: 2,8; stroke-dashoffset: 0; stroke: #cccccc; stroke-width: 2; stroke-linecap: round"/>
     </g>
     <g id="line2d_4"/>
     <g id="text_2">
      <!-- 5 -->
      <g transform="translate(182.953807 391.721543) scale(0.12 -0.12)">
       <defs>
        <path id="DejaVuSans-35" d="M 691 4666 
L 3169 4666 
L 3169 4134 
L 1269 4134 
L 1269 2991 
Q 1406 3038 1543 3061 
Q 1681 3084 1819 3084 
Q 2600 3084 3056 2656 
Q 3513 2228 3513 1497 
Q 3513 744 3044 326 
Q 2575 -91 1722 -91 
Q 1428 -91 1123 -41 
Q 819 9 494 109 
L 494 744 
Q 775 591 1075 516 
Q 1375 441 1709 441 
Q 2250 441 2565 725 
Q 2881 1009 2881 1497 
Q 2881 1984 2565 2268 
Q 2250 2553 1709 2553 
Q 1456 2553 1204 2497 
Q 953 2441 691 2322 
L 691 4666 
z
" transform="scale(0.015625)"/>
       </defs>
       <use xlink:href="#DejaVuSans-35"/>
      </g>
     </g>
    </g>
    <g id="xtick_3">
     <g id="line2d_5">
      <path d="M 288.225852 378.603418 
L 288.225852 35.965375 
" clip-path="url(#pccde30e155)" style="fill: none; stroke-dasharray: 2,8; stroke-dashoffset: 0; stroke: #cccccc; stroke-width: 2; stroke-linecap: round"/>
     </g>
     <g id="line2d_6"/>
     <g id="text_3">
      <!-- 10 -->
      <g transform="translate(280.590852 391.721543) scale(0.12 -0.12)">
       <defs>
        <path id="DejaVuSans-31" d="M 794 531 
L 1825 531 
L 1825 4091 
L 703 3866 
L 703 4441 
L 1819 4666 
L 2450 4666 
L 2450 531 
L 3481 531 
L 3481 0 
L 794 0 
L 794 531 
z
" transform="scale(0.015625)"/>
       </defs>
       <use xlink:href="#DejaVuSans-31"/>
       <use xlink:href="#DejaVuSans-30" x="63.623047"/>
      </g>
     </g>
    </g>
    <g id="xtick_4">
     <g id="line2d_7">
      <path d="M 389.680398 378.603418 
L 389.680398 35.965375 
" clip-path="url(#pccde30e155)" style="fill: none; stroke-dasharray: 2,8; stroke-dashoffset: 0; stroke: #cccccc; stroke-width: 2; stroke-linecap: round"/>
     </g>
     <g id="line2d_8"/>
     <g id="text_4">
      <!-- 15 -->
      <g transform="translate(382.045398 391.721543) scale(0.12 -0.12)">
       <use xlink:href="#DejaVuSans-31"/>
       <use xlink:href="#DejaVuSans-35" x="63.623047"/>
      </g>
     </g>
    </g>
    <g id="xtick_5">
     <g id="line2d_9">
      <path d="M 491.134943 378.603418 
L 491.134943 35.965375 
" clip-path="url(#pccde30e155)" style="fill: none; stroke-dasharray: 2,8; stroke-dashoffset: 0; stroke: #cccccc; stroke-width: 2; stroke-linecap: round"/>
     </g>
     <g id="line2d_10"/>
     <g id="text_5">
      <!-- 20 -->
      <g transform="translate(483.499943 391.721543) scale(0.12 -0.12)">
       <defs>
        <path id="DejaVuSans-32" d="M 1228 531 
L 3431 531 
L 3431 0 
L 469 0 
L 469 531 
Q 828 903 1448 1529 
Q 2069 2156 2228 2338 
Q 2531 2678 2651 2914 
Q 2772 3150 2772 3378 
Q 2772 3750 2511 3984 
Q 2250 4219 1831 4219 
Q 1534 4219 1204 4116 
Q 875 4013 500 3803 
L 500 4441 
Q 881 4594 1212 4672 
Q 1544 4750 1819 4750 
Q 2544 4750 2975 4387 
Q 3406 4025 3406 3419 
Q 3406 3131 3298 2873 
Q 3191 2616 2906 2266 
Q 2828 2175 2409 1742 
Q 1991 1309 1228 531 
z
" transform="scale(0.015625)"/>
       </defs>
       <use xlink:href="#DejaVuSans-32"/>
       <use xlink:href="#DejaVuSans-30" x="63.623047"/>
      </g>
     </g>
    </g>
    <g id="xtick_6">
     <g id="line2d_11">
      <path d="M 592.589489 378.603418 
L 592.589489 35.965375 
" clip-path="url(#pccde30e155)" style="fill: none; stroke-dasharray: 2,8; stroke-dashoffset: 0; stroke: #cccccc; stroke-width: 2; stroke-linecap: round"/>
     </g>
     <g id="line2d_12"/>
     <g id="text_6">
      <!-- 25 -->
      <g transform="translate(584.954489 391.721543) scale(0.12 -0.12)">
       <use xlink:href="#DejaVuSans-32"/>
       <use xlink:href="#DejaVuSans-35" x="63.623047"/>
      </g>
     </g>
    </g>
    <g id="text_7">
     <!-- x-label (units) -->
     <g transform="translate(297.387187 411.335293) scale(0.12 -0.12)">
      <defs>
       <path id="DejaVuSans-78" d="M 3513 3500 
L 2247 1797 
L 3578 0 
L 2900 0 
L 1881 1375 
L 863 0 
L 184 0 
L 1544 1831 
L 300 3500 
L 978 3500 
L 1906 2253 
L 2834 3500 
L 3513 3500 
z
" transform="scale(0.015625)"/>
       <path id="DejaVuSans-2d" d="M 313 2009 
L 1997 2009 
L 1997 1497 
L 313 1497 
L 313 2009 
z
" transform="scale(0.015625)"/>
       <path id="DejaVuSans-6c" d="M 603 4863 
L 1178 4863 
L 1178 0 
L 603 0 
L 603 4863 
z
" transform="scale(0.015625)"/>
       <path id="DejaVuSans-61" d="M 2194 1759 
Q 1497 1759 1228 1600 
Q 959 1441 959 1056 
Q 959 750 1161 570 
Q 1363 391 1709 391 
Q 2188 391 2477 730 
Q 2766 1069 2766 1631 
L 2766 1759 
L 2194 1759 
z
M 3341 1997 
L 3341 0 
L 2766 0 
L 2766 531 
Q 2569 213 2275 61 
Q 1981 -91 1556 -91 
Q 1019 -91 701 211 
Q 384 513 384 1019 
Q 384 1609 779 1909 
Q 1175 2209 1959 2209 
L 2766 2209 
L 2766 2266 
Q 2766 2663 2505 2880 
Q 2244 3097 1772 3097 
Q 1472 3097 1187 3025 
Q 903 2953 641 2809 
L 641 3341 
Q 956 3463 1253 3523 
Q 1550 3584 1831 3584 
Q 2591 3584 2966 3190 
Q 3341 2797 3341 1997 
z
" transform="scale(0.015625)"/>
       <path id="DejaVuSans-62" d="M 3116 1747 
Q 3116 2381 2855 2742 
Q 2594 3103 2138 3103 
Q 1681 3103 1420 2742 
Q 1159 2381 1159 1747 
Q 1159 1113 1420 752 
Q 1681 391 2138 391 
Q 2594 391 2855 752 
Q 3116 1113 3116 1747 
z
M 1159 2969 
Q 1341 3281 1617 3432 
Q 1894 3584 2278 3584 
Q 2916 3584 3314 3078 
Q 3713 2572 3713 1747 
Q 3713 922 3314 415 
Q 2916 -91 2278 -91 
Q 1894 -91 1617 61 
Q 1341 213 1159 525 
L 1159 0 
L 581 0 
L 581 4863 
L 1159 4863 
L 1159 2969 
z
" transform="scale(0.015625)"/>
       <path id="DejaVuSans-65" d="M 3597 1894 
L 3597 1613 
L 953 1613 
Q 991 1019 1311 708 
Q 1631 397 2203 397 
Q 2534 397 2845 478 
Q 3156 559 3463 722 
L 3463 178 
Q 3153 47 2828 -22 
Q 2503 -91 2169 -91 
Q 1331 -91 842 396 
Q 353 884 353 1716 
Q 353 2575 817 3079 
Q 1281 3584 2069 3584 
Q 2775 3584 3186 3129 
Q 3597 2675 3597 1894 
z
M 3022 2063 
Q 3016 2534 2758 2815 
Q 2500 3097 2075 3097 
Q 1594 3097 1305 2825 
Q 1016 2553 972 2059 
L 3022 2063 
z
" transform="scale(0.015625)"/>
       <path id="DejaVuSans-20" transform="scale(0.015625)"/>
       <path id="DejaVuSans-28" d="M 1984 4856 
Q 1566 4138 1362 3434 
Q 1159 2731 1159 2009 
Q 1159 1288 1364 580 
Q 1569 -128 1984 -844 
L 1484 -844 
Q 1016 -109 783 600 
Q 550 1309 550 2009 
Q 550 2706 781 3412 
Q 1013 4119 1484 4856 
L 1984 4856 
z
" transform="scale(0.015625)"/>
       <path id="DejaVuSans-75" d="M 544 1381 
L 544 3500 
L 1119 3500 
L 1119 1403 
Q 1119 906 1312 657 
Q 1506 409 1894 409 
Q 2359 409 2629 706 
Q 2900 1003 2900 1516 
L 2900 3500 
L 3475 3500 
L 3475 0 
L 2900 0 
L 2900 538 
Q 2691 219 2414 64 
Q 2138 -91 1772 -91 
Q 1169 -91 856 284 
Q 544 659 544 1381 
z
M 1991 3584 
L 1991 3584 
z
" transform="scale(0.015625)"/>
       <path id="DejaVuSans-6e" d="M 3513 2113 
L 3513 0 
L 2938 0 
L 2938 2094 
Q 2938 2591 2744 2837 
Q 2550 3084 2163 3084 
Q 1697 3084 1428 2787 
Q 1159 2491 1159 1978 
L 1159 0 
L 581 0 
L 581 3500 
L 1159 3500 
L 1159 2956 
Q 1366 3272 1645 3428 
Q 1925 3584 2291 3584 
Q 2894 3584 3203 3211 
Q 3513 2838 3513 2113 
z
" transform="scale(0.015625)"/>
       <path id="DejaVuSans-69" d="M 603 3500 
L 1178 3500 
L 1178 0 
L 603 0 
L 603 3500 
z
M 603 4863 
L 1178 4863 
L 1178 4134 
L 603 4134 
L 603 4863 
z
" transform="scale(0.015625)"/>
       <path id="DejaVuSans-74" d="M 1172 4494 
L 1172 3500 
L 2356 3500 
L 2356 3053 
L 1172 3053 
L 1172 1153 
Q 1172 725 1289 603 
Q 1406 481 1766 481 
L 2356 481 
L 2356 0 
L 1766 0 
Q 1100 0 847 248 
Q 594 497 594 1153 
L 594 3053 
L 172 3053 
L 172 3500 
L 594 3500 
L 594 4494 
L 1172 4494 
z
" transform="scale(0.015625)"/>
       <path id="DejaVuSans-73" d="M 2834 3397 
L 2834 2853 
Q 2591 2978 2328 3040 
Q 2066 3103 1784 3103 
Q 1356 3103 1142 2972 
Q 928 2841 928 2578 
Q 928 2378 1081 2264 
Q 1234 2150 1697 2047 
L 1894 2003 
Q 2506 1872 2764 1633 
Q 3022 1394 3022 966 
Q 3022 478 2636 193 
Q 2250 -91 1575 -91 
Q 1294 -91 989 -36 
Q 684 19 347 128 
L 347 722 
Q 666 556 975 473 
Q 1284 391 1588 391 
Q 1994 391 2212 530 
Q 2431 669 2431 922 
Q 2431 1156 2273 1281 
Q 2116 1406 1581 1522 
L 1381 1569 
Q 847 1681 609 1914 
Q 372 2147 372 2553 
Q 372 3047 722 3315 
Q 1072 3584 1716 3584 
Q 2034 3584 2315 3537 
Q 2597 3491 2834 3397 
z
" transform="scale(0.015625)"/>
       <path id="DejaVuSans-29" d="M 513 4856 
L 1013 4856 
Q 1481 4119 1714 3412 
Q 1947 2706 1947 2009 
Q 1947 1309 1714 600 
Q 1481 -109 1013 -844 
L 513 -844 
Q 928 -128 1133 580 
Q 1338 1288 1338 2009 
Q 1338 2731 1133 3434 
Q 928 4138 513 4856 
z
" transform="scale(0.015625)"/>
      </defs>
      <use xlink:href="#DejaVuSans-78"/>
      <use xlink:href="#DejaVuSans-2d" x="59.179688"/>
      <use xlink:href="#DejaVuSans-6c" x="95.263672"/>
      <use xlink:href="#DejaVuSans-61" x="123.046875"/>
      <use xlink:href="#DejaVuSans-62" x="184.326172"/>
      <use xlink:href="#DejaVuSans-65" x="247.802734"/>
      <use xlink:href="#DejaVuSans-6c" x="309.326172"/>
      <use xlink:href="#DejaVuSans-20" x="337.109375"/>
      <use xlink:href="#DejaVuSans-28" x="368.896484"/>
      <use xlink:href="#DejaVuSans-75" x="407.910156"/>
      <use xlink:href="#DejaVuSans-6e" x="471.289062"/>
      <use xlink:href="#DejaVuSans-69" x="534.667969"/>
      <use xlink:href="#DejaVuSans-74" x="562.451172"/>
      <use xlink:href="#DejaVuSans-73" x="601.660156"/>
      <use xlink:href="#DejaVuSans-29" x="653.759766"/>
     </g>
    </g>
   </g>
   <g id="matplotlib.axis_2">
    <g id="ytick_1">
     <g id="line2d_13">
      <path d="M 59.953125 336.184044 
L 617.953125 336.184044 
" clip-path="url(#pccde30e155)" style="fill: none; stroke-dasharray: 2,8; stroke-dashoffset: 0; stroke: #cccccc; stroke-width: 2; stroke-linecap: round"/>
     </g>
     <g id="line2d_14"/>
     <g id="text_8">
      <!-- −1.0 -->
      <g transform="translate(26.81375 340.743106) scale(0.12 -0.12)">
       <defs>
        <path id="DejaVuSans-2212" d="M 678 2272 
L 4684 2272 
L 4684 1741 
L 678 1741 
L 678 2272 
z
" transform="scale(0.015625)"/>
        <path id="DejaVuSans-2e" d="M 684 794 
L 1344 794 
L 1344 0 
L 684 0 
L 684 794 
z
" transform="scale(0.015625)"/>
       </defs>
       <use xlink:href="#DejaVuSans-2212"/>
       <use xlink:href="#DejaVuSans-31" x="83.789062"/>
       <use xlink:href="#DejaVuSans-2e" x="147.412109"/>
       <use xlink:href="#DejaVuSans-30" x="179.199219"/>
      </g>
     </g>
    </g>
    <g id="ytick_2">
     <g id="line2d_15">
      <path d="M 59.953125 277.965314 
L 617.953125 277.965314 
" clip-path="url(#pccde30e155)" style="fill: none; stroke-dasharray: 2,8; stroke-dashoffset: 0; stroke: #cccccc; stroke-width: 2; stroke-linecap: round"/>
     </g>
     <g id="line2d_16"/>
     <g id="text_9">
      <!-- −0.5 -->
      <g transform="translate(26.81375 282.524377) scale(0.12 -0.12)">
       <use xlink:href="#DejaVuSans-2212"/>
       <use xlink:href="#DejaVuSans-30" x="83.789062"/>
       <use xlink:href="#DejaVuSans-2e" x="147.412109"/>
       <use xlink:href="#DejaVuSans-35" x="179.199219"/>
      </g>
     </g>
    </g>
    <g id="ytick_3">
     <g id="line2d_17">
      <path d="M 59.953125 219.746585 
L 617.953125 219.746585 
" clip-path="url(#pccde30e155)" style="fill: none; stroke-dasharray: 2,8; stroke-dashoffset: 0; stroke: #cccccc; stroke-width: 2; stroke-linecap: round"/>
     </g>
     <g id="line2d_18"/>
     <g id="text_10">
      <!-- 0.0 -->
      <g transform="translate(36.869375 224.305647) scale(0.12 -0.12)">
       <use xlink:href="#DejaVuSans-30"/>
       <use xlink:href="#DejaVuSans-2e" x="63.623047"/>
       <use xlink:href="#DejaVuSans-30" x="95.410156"/>
      </g>
     </g>
    </g>
    <g id="ytick_4">
     <g id="line2d_19">
      <path d="M 59.953125 161.527856 
L 617.953125 161.527856 
" clip-path="url(#pccde30e155)" style="fill: none; stroke-dasharray: 2,8; stroke-dashoffset: 0; stroke: #cccccc; stroke-width: 2; stroke-linecap: round"/>
     </g>
     <g id="line2d_20"/>
     <g id="text_11">
      <!-- 0.5 -->
      <g transform="translate(36.869375 166.086918) scale(0.12 -0.12)">
       <use xlink:href="#DejaVuSans-30"/>
       <use xlink:href="#DejaVuSans-2e" x="63.623047"/>
       <use xlink:href="#DejaVuSans-35" x="95.410156"/>
      </g>
     </g>
    </g>
    <g id="ytick_5">
     <g id="line2d_21">
      <path d="M 59.953125 103.309126 
L 617.953125 103.309126 
" clip-path="url(#pccde30e155)" style="fill: none; stroke-dasharray: 2,8; stroke-dashoffset: 0; stroke: #cccccc; stroke-width: 2; stroke-linecap: round"/>
     </g>
     <g id="line2d_22"/>
     <g id="text_12">
      <!-- 1.0 -->
      <g transform="translate(36.869375 107.868189) scale(0.12 -0.12)">
       <use xlink:href="#DejaVuSans-31"/>
       <use xlink:href="#DejaVuSans-2e" x="63.623047"/>
       <use xlink:href="#DejaVuSans-30" x="95.410156"/>
      </g>
     </g>
    </g>
    <g id="ytick_6">
     <g id="line2d_23">
      <path d="M 59.953125 45.090397 
L 617.953125 45.090397 
" clip-path="url(#pccde30e155)" style="fill: none; stroke-dasharray: 2,8; stroke-dashoffset: 0; stroke: #cccccc; stroke-width: 2; stroke-linecap: round"/>
     </g>
     <g id="line2d_24"/>
     <g id="text_13">
      <!-- 1.5 -->
      <g transform="translate(36.869375 49.649459) scale(0.12 -0.12)">
       <use xlink:href="#DejaVuSans-31"/>
       <use xlink:href="#DejaVuSans-2e" x="63.623047"/>
       <use xlink:href="#DejaVuSans-35" x="95.410156"/>
      </g>
     </g>
    </g>
    <g id="text_14">
     <!-- y-label (units) -->
     <g transform="translate(16.318125 248.745334) rotate(-90) scale(0.12 -0.12)">
      <defs>
       <path id="DejaVuSans-79" d="M 2059 -325 
Q 1816 -950 1584 -1140 
Q 1353 -1331 966 -1331 
L 506 -1331 
L 506 -850 
L 844 -850 
Q 1081 -850 1212 -737 
Q 1344 -625 1503 -206 
L 1606 56 
L 191 3500 
L 800 3500 
L 1894 763 
L 2988 3500 
L 3597 3500 
L 2059 -325 
z
" transform="scale(0.015625)"/>
      </defs>
      <use xlink:href="#DejaVuSans-79"/>
      <use xlink:href="#DejaVuSans-2d" x="57.429688"/>
      <use xlink:href="#DejaVuSans-6c" x="93.513672"/>
      <use xlink:href="#DejaVuSans-61" x="121.296875"/>
      <use xlink:href="#DejaVuSans-62" x="182.576172"/>
      <use xlink:href="#DejaVuSans-65" x="246.052734"/>
      <use xlink:href="#DejaVuSans-6c" x="307.576172"/>
      <use xlink:href="#DejaVuSans-20" x="335.359375"/>
      <use xlink:href="#DejaVuSans-28" x="367.146484"/>
      <use xlink:href="#DejaVuSans-75" x="406.160156"/>
      <use xlink:href="#DejaVuSans-6e" x="469.539062"/>
      <use xlink:href="#DejaVuSans-69" x="532.917969"/>
      <use xlink:href="#DejaVuSans-74" x="560.701172"/>
      <use xlink:href="#DejaVuSans-73" x="599.910156"/>
      <use xlink:href="#DejaVuSans-29" x="652.009766"/>
     </g>
    </g>
   </g>
   <g id="line2d_25">
    <defs>
     <path id="m6fc27778fb" d="M 0 3 
C 0.795609 3 1.55874 2.683901 2.12132 2.12132 
C 2.683901 1.55874 3 0.795609 3 0 
C 3 -0.795609 2.683901 -1.55874 2.12132 -2.12132 
C 1.55874 -2.683901 0.795609 -3 0 -3 
C -0.795609 -3 -1.55874 -2.683901 -2.12132 -2.12132 
C -2.683901 -1.55874 -3 -0.795609 -3 0 
C -3 0.795609 -2.683901 1.55874 -2.12132 2.12132 
C -1.55874 2.683901 -0.795609 3 0 3 
z
" style="stroke: #1f77b4"/>
    </defs>
    <g clip-path="url(#pccde30e155)">
     <use xlink:href="#m6fc27778fb" x="85.316761" y="220.020551" style="fill: #1f77b4; stroke: #1f77b4"/>
     <use xlink:href="#m6fc27778fb" x="90.440728" y="192.329112" style="fill: #1f77b4; stroke: #1f77b4"/>
     <use xlink:href="#m6fc27778fb" x="95.564695" y="114.251332" style="fill: #1f77b4; stroke: #1f77b4"/>
     <use xlink:href="#m6fc27778fb" x="100.688662" y="113.205172" style="fill: #1f77b4; stroke: #1f77b4"/>
     <use xlink:href="#m6fc27778fb" x="105.812629" y="117.198922" style="fill: #1f77b4; stroke: #1f77b4"/>
     <use xlink:href="#m6fc27778fb" x="110.936596" y="68.929201" style="fill: #1f77b4; stroke: #1f77b4"/>
     <use xlink:href="#m6fc27778fb" x="116.060563" y="105.295944" style="fill: #1f77b4; stroke: #1f77b4"/>
     <use xlink:href="#m6fc27778fb" x="121.18453" y="105.399357" style="fill: #1f77b4; stroke: #1f77b4"/>
     <use xlink:href="#m6fc27778fb" x="126.308497" y="126.659417" style="fill: #1f77b4; stroke: #1f77b4"/>
     <use xlink:href="#m6fc27778fb" x="131.432464" y="121.749057" style="fill: #1f77b4; stroke: #1f77b4"/>
     <use xlink:href="#m6fc27778fb" x="136.556431" y="160.91797" style="fill: #1f77b4; stroke: #1f77b4"/>
     <use xlink:href="#m6fc27778fb" x="141.680398" y="183.563787" style="fill: #1f77b4; stroke: #1f77b4"/>
     <use xlink:href="#m6fc27778fb" x="146.804365" y="196.709676" style="fill: #1f77b4; stroke: #1f77b4"/>
     <use xlink:href="#m6fc27778fb" x="151.928332" y="273.168277" style="fill: #1f77b4; stroke: #1f77b4"/>
     <use xlink:href="#m6fc27778fb" x="157.052299" y="233.926233" style="fill: #1f77b4; stroke: #1f77b4"/>
     <use xlink:href="#m6fc27778fb" x="162.176265" y="271.045904" style="fill: #1f77b4; stroke: #1f77b4"/>
     <use xlink:href="#m6fc27778fb" x="167.300232" y="334.260349" style="fill: #1f77b4; stroke: #1f77b4"/>
     <use xlink:href="#m6fc27778fb" x="172.424199" y="314.331098" style="fill: #1f77b4; stroke: #1f77b4"/>
     <use xlink:href="#m6fc27778fb" x="177.548166" y="363.028962" style="fill: #1f77b4; stroke: #1f77b4"/>
     <use xlink:href="#m6fc27778fb" x="182.672133" y="342.268251" style="fill: #1f77b4; stroke: #1f77b4"/>
     <use xlink:href="#m6fc27778fb" x="187.7961" y="317.11586" style="fill: #1f77b4; stroke: #1f77b4"/>
     <use xlink:href="#m6fc27778fb" x="192.920067" y="320.907716" style="fill: #1f77b4; stroke: #1f77b4"/>
     <use xlink:href="#m6fc27778fb" x="198.044034" y="310.042863" style="fill: #1f77b4; stroke: #1f77b4"/>
     <use xlink:href="#m6fc27778fb" x="203.168001" y="305.728557" style="fill: #1f77b4; stroke: #1f77b4"/>
     <use xlink:href="#m6fc27778fb" x="208.291968" y="254.301945" style="fill: #1f77b4; stroke: #1f77b4"/>
     <use xlink:href="#m6fc27778fb" x="213.415935" y="181.338902" style="fill: #1f77b4; stroke: #1f77b4"/>
     <use xlink:href="#m6fc27778fb" x="218.539902" y="153.412226" style="fill: #1f77b4; stroke: #1f77b4"/>
     <use xlink:href="#m6fc27778fb" x="223.663869" y="137.244298" style="fill: #1f77b4; stroke: #1f77b4"/>
     <use xlink:href="#m6fc27778fb" x="228.787836" y="146.34216" style="fill: #1f77b4; stroke: #1f77b4"/>
     <use xlink:href="#m6fc27778fb" x="233.911803" y="142.609207" style="fill: #1f77b4; stroke: #1f77b4"/>
     <use xlink:href="#m6fc27778fb" x="239.03577" y="139.228299" style="fill: #1f77b4; stroke: #1f77b4"/>
     <use xlink:href="#m6fc27778fb" x="244.159737" y="85.813654" style="fill: #1f77b4; stroke: #1f77b4"/>
     <use xlink:href="#m6fc27778fb" x="249.283704" y="128.772437" style="fill: #1f77b4; stroke: #1f77b4"/>
     <use xlink:href="#m6fc27778fb" x="254.40767" y="100.201787" style="fill: #1f77b4; stroke: #1f77b4"/>
     <use xlink:href="#m6fc27778fb" x="259.531637" y="150.31047" style="fill: #1f77b4; stroke: #1f77b4"/>
     <use xlink:href="#m6fc27778fb" x="264.655604" y="135.033836" style="fill: #1f77b4; stroke: #1f77b4"/>
     <use xlink:href="#m6fc27778fb" x="269.779571" y="185.566177" style="fill: #1f77b4; stroke: #1f77b4"/>
     <use xlink:href="#m6fc27778fb" x="274.903538" y="193.252249" style="fill: #1f77b4; stroke: #1f77b4"/>
     <use xlink:href="#m6fc27778fb" x="280.027505" y="261.799794" style="fill: #1f77b4; stroke: #1f77b4"/>
     <use xlink:href="#m6fc27778fb" x="285.151472" y="276.3876" style="fill: #1f77b4; stroke: #1f77b4"/>
     <use xlink:href="#m6fc27778fb" x="290.275439" y="274.742786" style="fill: #1f77b4; stroke: #1f77b4"/>
     <use xlink:href="#m6fc27778fb" x="295.399406" y="334.695614" style="fill: #1f77b4; stroke: #1f77b4"/>
     <use xlink:href="#m6fc27778fb" x="300.523373" y="340.029709" style="fill: #1f77b4; stroke: #1f77b4"/>
     <use xlink:href="#m6fc27778fb" x="305.64734" y="361.545233" style="fill: #1f77b4; stroke: #1f77b4"/>
     <use xlink:href="#m6fc27778fb" x="310.771307" y="327.323652" style="fill: #1f77b4; stroke: #1f77b4"/>
     <use xlink:href="#m6fc27778fb" x="315.895274" y="349.193914" style="fill: #1f77b4; stroke: #1f77b4"/>
     <use xlink:href="#m6fc27778fb" x="321.019241" y="304.591586" style="fill: #1f77b4; stroke: #1f77b4"/>
     <use xlink:href="#m6fc27778fb" x="326.143208" y="300.222898" style="fill: #1f77b4; stroke: #1f77b4"/>
     <use xlink:href="#m6fc27778fb" x="331.267175" y="301.097124" style="fill: #1f77b4; stroke: #1f77b4"/>
     <use xlink:href="#m6fc27778fb" x="336.391142" y="255.335954" style="fill: #1f77b4; stroke: #1f77b4"/>
     <use xlink:href="#m6fc27778fb" x="341.515108" y="228.439331" style="fill: #1f77b4; stroke: #1f77b4"/>
     <use xlink:href="#m6fc27778fb" x="346.639075" y="228.879732" style="fill: #1f77b4; stroke: #1f77b4"/>
     <use xlink:href="#m6fc27778fb" x="351.763042" y="128.313985" style="fill: #1f77b4; stroke: #1f77b4"/>
     <use xlink:href="#m6fc27778fb" x="356.887009" y="100.581193" style="fill: #1f77b4; stroke: #1f77b4"/>
     <use xlink:href="#m6fc27778fb" x="362.010976" y="125.527842" style="fill: #1f77b4; stroke: #1f77b4"/>
     <use xlink:href="#m6fc27778fb" x="367.134943" y="111.794565" style="fill: #1f77b4; stroke: #1f77b4"/>
     <use xlink:href="#m6fc27778fb" x="372.25891" y="93.618576" style="fill: #1f77b4; stroke: #1f77b4"/>
     <use xlink:href="#m6fc27778fb" x="377.382877" y="51.539832" style="fill: #1f77b4; stroke: #1f77b4"/>
     <use xlink:href="#m6fc27778fb" x="382.506844" y="129.569641" style="fill: #1f77b4; stroke: #1f77b4"/>
     <use xlink:href="#m6fc27778fb" x="387.630811" y="160.445477" style="fill: #1f77b4; stroke: #1f77b4"/>
     <use xlink:href="#m6fc27778fb" x="392.754778" y="159.19328" style="fill: #1f77b4; stroke: #1f77b4"/>
     <use xlink:href="#m6fc27778fb" x="397.878745" y="171.066895" style="fill: #1f77b4; stroke: #1f77b4"/>
     <use xlink:href="#m6fc27778fb" x="403.002712" y="196.170144" style="fill: #1f77b4; stroke: #1f77b4"/>
     <use xlink:href="#m6fc27778fb" x="408.126679" y="217.632905" style="fill: #1f77b4; stroke: #1f77b4"/>
     <use xlink:href="#m6fc27778fb" x="413.250646" y="255.382744" style="fill: #1f77b4; stroke: #1f77b4"/>
     <use xlink:href="#m6fc27778fb" x="418.374613" y="304.512027" style="fill: #1f77b4; stroke: #1f77b4"/>
     <use xlink:href="#m6fc27778fb" x="423.49858" y="293.102319" style="fill: #1f77b4; stroke: #1f77b4"/>
     <use xlink:href="#m6fc27778fb" x="428.622546" y="314.130616" style="fill: #1f77b4; stroke: #1f77b4"/>
     <use xlink:href="#m6fc27778fb" x="433.746513" y="343.480708" style="fill: #1f77b4; stroke: #1f77b4"/>
     <use xlink:href="#m6fc27778fb" x="438.87048" y="343.516558" style="fill: #1f77b4; stroke: #1f77b4"/>
     <use xlink:href="#m6fc27778fb" x="443.994447" y="332.148506" style="fill: #1f77b4; stroke: #1f77b4"/>
     <use xlink:href="#m6fc27778fb" x="449.118414" y="311.46414" style="fill: #1f77b4; stroke: #1f77b4"/>
     <use xlink:href="#m6fc27778fb" x="454.242381" y="308.129477" style="fill: #1f77b4; stroke: #1f77b4"/>
     <use xlink:href="#m6fc27778fb" x="459.366348" y="245.519194" style="fill: #1f77b4; stroke: #1f77b4"/>
     <use xlink:href="#m6fc27778fb" x="464.490315" y="236.379945" style="fill: #1f77b4; stroke: #1f77b4"/>
     <use xlink:href="#m6fc27778fb" x="469.614282" y="227.590405" style="fill: #1f77b4; stroke: #1f77b4"/>
     <use xlink:href="#m6fc27778fb" x="474.738249" y="196.063558" style="fill: #1f77b4; stroke: #1f77b4"/>
     <use xlink:href="#m6fc27778fb" x="479.862216" y="174.69519" style="fill: #1f77b4; stroke: #1f77b4"/>
     <use xlink:href="#m6fc27778fb" x="484.986183" y="142.891062" style="fill: #1f77b4; stroke: #1f77b4"/>
     <use xlink:href="#m6fc27778fb" x="490.11015" y="78.758017" style="fill: #1f77b4; stroke: #1f77b4"/>
     <use xlink:href="#m6fc27778fb" x="495.234117" y="123.113037" style="fill: #1f77b4; stroke: #1f77b4"/>
     <use xlink:href="#m6fc27778fb" x="500.358084" y="80.340742" style="fill: #1f77b4; stroke: #1f77b4"/>
     <use xlink:href="#m6fc27778fb" x="505.482051" y="191.879358" style="fill: #1f77b4; stroke: #1f77b4"/>
     <use xlink:href="#m6fc27778fb" x="510.606018" y="102.146719" style="fill: #1f77b4; stroke: #1f77b4"/>
     <use xlink:href="#m6fc27778fb" x="515.729985" y="121.381736" style="fill: #1f77b4; stroke: #1f77b4"/>
     <use xlink:href="#m6fc27778fb" x="520.853951" y="118.232812" style="fill: #1f77b4; stroke: #1f77b4"/>
     <use xlink:href="#m6fc27778fb" x="525.977918" y="175.424552" style="fill: #1f77b4; stroke: #1f77b4"/>
     <use xlink:href="#m6fc27778fb" x="531.101885" y="250.058269" style="fill: #1f77b4; stroke: #1f77b4"/>
     <use xlink:href="#m6fc27778fb" x="536.225852" y="230.085419" style="fill: #1f77b4; stroke: #1f77b4"/>
     <use xlink:href="#m6fc27778fb" x="541.349819" y="260.640448" style="fill: #1f77b4; stroke: #1f77b4"/>
     <use xlink:href="#m6fc27778fb" x="546.473786" y="291.768844" style="fill: #1f77b4; stroke: #1f77b4"/>
     <use xlink:href="#m6fc27778fb" x="551.597753" y="322.629738" style="fill: #1f77b4; stroke: #1f77b4"/>
     <use xlink:href="#m6fc27778fb" x="556.72172" y="361.0003" style="fill: #1f77b4; stroke: #1f77b4"/>
     <use xlink:href="#m6fc27778fb" x="561.845687" y="342.847654" style="fill: #1f77b4; stroke: #1f77b4"/>
     <use xlink:href="#m6fc27778fb" x="566.969654" y="354.613663" style="fill: #1f77b4; stroke: #1f77b4"/>
     <use xlink:href="#m6fc27778fb" x="572.093621" y="320.54673" style="fill: #1f77b4; stroke: #1f77b4"/>
     <use xlink:href="#m6fc27778fb" x="577.217588" y="306.396942" style="fill: #1f77b4; stroke: #1f77b4"/>
     <use xlink:href="#m6fc27778fb" x="582.341555" y="308.731907" style="fill: #1f77b4; stroke: #1f77b4"/>
     <use xlink:href="#m6fc27778fb" x="587.465522" y="286.326536" style="fill: #1f77b4; stroke: #1f77b4"/>
     <use xlink:href="#m6fc27778fb" x="592.589489" y="219.145303" style="fill: #1f77b4; stroke: #1f77b4"/>
    </g>
   </g>
   <g id="patch_3">
    <path d="M 59.953125 378.603418 
L 59.953125 35.965375 
" style="fill: none; stroke: #cccccc; stroke-width: 2; stroke-linejoin: miter; stroke-linecap: square"/>
   </g>
   <g id="patch_4">
    <path d="M 617.953125 378.603418 
L 617.953125 35.965375 
" style="fill: none; stroke: #cccccc; stroke-width: 2; stroke-linejoin: miter; stroke-linecap: square"/>
   </g>
   <g id="patch_5">
    <path d="M 59.953125 378.603418 
L 617.953125 378.603418 
" style="fill: none; stroke: #cccccc; stroke-width: 2; stroke-linejoin: miter; stroke-linecap: square"/>
   </g>
   <g id="patch_6">
    <path d="M 59.953125 35.965375 
L 617.953125 35.965375 
" style="fill: none; stroke: #cccccc; stroke-width: 2; stroke-linejoin: miter; stroke-linecap: square"/>
   </g>
   <g id="text_15">
    <!-- Plot title -->
    <g transform="translate(304.030125 19.965375) scale(0.168 -0.168)">
     <defs>
      <path id="DejaVuSans-50" d="M 1259 4147 
L 1259 2394 
L 2053 2394 
Q 2494 2394 2734 2622 
Q 2975 2850 2975 3272 
Q 2975 3691 2734 3919 
Q 2494 4147 2053 4147 
L 1259 4147 
z
M 628 4666 
L 2053 4666 
Q 2838 4666 3239 4311 
Q 3641 3956 3641 3272 
Q 3641 2581 3239 2228 
Q 2838 1875 2053 1875 
L 1259 1875 
L 1259 0 
L 628 0 
L 628 4666 
z
" transform="scale(0.015625)"/>
      <path id="DejaVuSans-6f" d="M 1959 3097 
Q 1497 3097 1228 2736 
Q 959 2375 959 1747 
Q 959 1119 1226 758 
Q 1494 397 1959 397 
Q 2419 397 2687 759 
Q 2956 1122 2956 1747 
Q 2956 2369 2687 2733 
Q 2419 3097 1959 3097 
z
M 1959 3584 
Q 2709 3584 3137 3096 
Q 3566 2609 3566 1747 
Q 3566 888 3137 398 
Q 2709 -91 1959 -91 
Q 1206 -91 779 398 
Q 353 888 353 1747 
Q 353 2609 779 3096 
Q 1206 3584 1959 3584 
z
" transform="scale(0.015625)"/>
     </defs>
     <use xlink:href="#DejaVuSans-50"/>
     <use xlink:href="#DejaVuSans-6c" x="60.302734"/>
     <use xlink:href="#DejaVuSans-6f" x="88.085938"/>
     <use xlink:href="#DejaVuSans-74" x="149.267578"/>
     <use xlink:href="#DejaVuSans-20" x="188.476562"/>
     <use xlink:href="#DejaVuSans-74" x="220.263672"/>
     <use xlink:href="#DejaVuSans-69" x="259.472656"/>
     <use xlink:href="#DejaVuSans-74" x="287.255859"/>
     <use xlink:href="#DejaVuSans-6c" x="326.464844"/>
     <use xlink:href="#DejaVuSans-65" x="354.248047"/>
    </g>
   </g>
  </g>
 </g>
 <defs>
  <clipPath id="pccde30e155">
   <rect x="59.953125" y="35.965375" width="558" height="342.638043"/>
  </clipPath>
 </defs>
</svg>
