<?xml version="1.0" encoding="utf-8" standalone="no"?>
<!DOCTYPE svg PUBLIC "-//W3C//DTD SVG 1.1//EN"
  "http://www.w3.org/Graphics/SVG/1.1/DTD/svg11.dtd">
<svg xmlns:xlink="http://www.w3.org/1999/xlink" width="618.91875pt" height="421.030918pt" viewBox="0 0 618.91875 421.030918" xmlns="http://www.w3.org/2000/svg" version="1.1">
 <metadata>
  <rdf:RDF xmlns:dc="http://purl.org/dc/elements/1.1/" xmlns:cc="http://creativecommons.org/ns#" xmlns:rdf="http://www.w3.org/1999/02/22-rdf-syntax-ns#">
   <cc:Work>
    <dc:type rdf:resource="http://purl.org/dc/dcmitype/StillImage"/>
    <dc:date>2023-10-25T18:46:32.112937</dc:date>
    <dc:format>image/svg+xml</dc:format>
    <dc:creator>
     <cc:Agent>
      <dc:title>Matplotlib v3.8.0, https://matplotlib.org/</dc:title>
     </cc:Agent>
    </dc:creator>
   </cc:Work>
  </rdf:RDF>
 </metadata>
 <defs>
  <style type="text/css">*{stroke-linejoin: round; stroke-linecap: butt}</style>
 </defs>
 <g id="figure_1">
  <g id="patch_1">
   <path d="M 0 421.030918 
L 618.91875 421.030918 
L 618.91875 0 
L 0 0 
z
" style="fill: #ffffff"/>
  </g>
  <g id="axes_1">
   <g id="patch_2">
    <path d="M 53.71875 378.603418 
L 611.71875 378.603418 
L 611.71875 35.965375 
L 53.71875 35.965375 
z
" style="fill: #ffffff"/>
   </g>
   <g id="matplotlib.axis_1">
    <g id="xtick_1">
     <g id="line2d_1">
      <path d="M 79.082386 378.603418 
L 79.082386 35.965375 
" clip-path="url(#pa7156dcb50)" style="fill: none; stroke-dasharray: 2,8; stroke-dashoffset: 0; stroke: #cccccc; stroke-width: 2; stroke-linecap: round"/>
     </g>
     <g id="line2d_2"/>
     <g id="text_1">
      <!-- 0 -->
      <g transform="translate(75.264886 391.721543) scale(0.12 -0.12)">
       <defs>
        <path id="DejaVuSans-30" d="M 2034 4250 
Q 1547 4250 1301 3770 
Q 1056 3291 1056 2328 
Q 1056 1369 1301 889 
Q 1547 409 2034 409 
Q 2525 409 2770 889 
Q 3016 1369 3016 2328 
Q 3016 3291 2770 3770 
Q 2525 4250 2034 4250 
z
M 2034 4750 
Q 2819 4750 3233 4129 
Q 3647 3509 3647 2328 
Q 3647 1150 3233 529 
Q 2819 -91 2034 -91 
Q 1250 -91 836 529 
Q 422 1150 422 2328 
Q 422 3509 836 4129 
Q 1250 4750 2034 4750 
z
" transform="scale(0.015625)"/>
       </defs>
       <use xlink:href="#DejaVuSans-30"/>
      </g>
     </g>
    </g>
    <g id="xtick_2">
     <g id="line2d_3">
      <path d="M 158.34375 378.603418 
L 158.34375 35.965375 
" clip-path="url(#pa7156dcb50)" style="fill: none; stroke-dasharray: 2,8; stroke-dashoffset: 0; stroke: #cccccc; stroke-width: 2; stroke-linecap: round"/>
     </g>
     <g id="line2d_4"/>
     <g id="text_2">
      <!-- 10 -->
      <g transform="translate(150.70875 391.721543) scale(0.12 -0.12)">
       <defs>
        <path id="DejaVuSans-31" d="M 794 531 
L 1825 531 
L 1825 4091 
L 703 3866 
L 703 4441 
L 1819 4666 
L 2450 4666 
L 2450 531 
L 3481 531 
L 3481 0 
L 794 0 
L 794 531 
z
" transform="scale(0.015625)"/>
       </defs>
       <use xlink:href="#DejaVuSans-31"/>
       <use xlink:href="#DejaVuSans-30" x="63.623047"/>
      </g>
     </g>
    </g>
    <g id="xtick_3">
     <g id="line2d_5">
      <path d="M 237.605114 378.603418 
L 237.605114 35.965375 
" clip-path="url(#pa7156dcb50)" style="fill: none; stroke-dasharray: 2,8; stroke-dashoffset: 0; stroke: #cccccc; stroke-width: 2; stroke-linecap: round"/>
     </g>
     <g id="line2d_6"/>
     <g id="text_3">
      <!-- 20 -->
      <g transform="translate(229.970114 391.721543) scale(0.12 -0.12)">
       <defs>
        <path id="DejaVuSans-32" d="M 1228 531 
L 3431 531 
L 3431 0 
L 469 0 
L 469 531 
Q 828 903 1448 1529 
Q 2069 2156 2228 2338 
Q 2531 2678 2651 2914 
Q 2772 3150 2772 3378 
Q 2772 3750 2511 3984 
Q 2250 4219 1831 4219 
Q 1534 4219 1204 4116 
Q 875 4013 500 3803 
L 500 4441 
Q 881 4594 1212 4672 
Q 1544 4750 1819 4750 
Q 2544 4750 2975 4387 
Q 3406 4025 3406 3419 
Q 3406 3131 3298 2873 
Q 3191 2616 2906 2266 
Q 2828 2175 2409 1742 
Q 1991 1309 1228 531 
z
" transform="scale(0.015625)"/>
       </defs>
       <use xlink:href="#DejaVuSans-32"/>
       <use xlink:href="#DejaVuSans-30" x="63.623047"/>
      </g>
     </g>
    </g>
    <g id="xtick_4">
     <g id="line2d_7">
      <path d="M 316.866477 378.603418 
L 316.866477 35.965375 
" clip-path="url(#pa7156dcb50)" style="fill: none; stroke-dasharray: 2,8; stroke-dashoffset: 0; stroke: #cccccc; stroke-width: 2; stroke-linecap: round"/>
     </g>
     <g id="line2d_8"/>
     <g id="text_4">
      <!-- 30 -->
      <g transform="translate(309.231477 391.721543) scale(0.12 -0.12)">
       <defs>
        <path id="DejaVuSans-33" d="M 2597 2516 
Q 3050 2419 3304 2112 
Q 3559 1806 3559 1356 
Q 3559 666 3084 287 
Q 2609 -91 1734 -91 
Q 1441 -91 1130 -33 
Q 819 25 488 141 
L 488 750 
Q 750 597 1062 519 
Q 1375 441 1716 441 
Q 2309 441 2620 675 
Q 2931 909 2931 1356 
Q 2931 1769 2642 2001 
Q 2353 2234 1838 2234 
L 1294 2234 
L 1294 2753 
L 1863 2753 
Q 2328 2753 2575 2939 
Q 2822 3125 2822 3475 
Q 2822 3834 2567 4026 
Q 2313 4219 1838 4219 
Q 1578 4219 1281 4162 
Q 984 4106 628 3988 
L 628 4550 
Q 988 4650 1302 4700 
Q 1616 4750 1894 4750 
Q 2613 4750 3031 4423 
Q 3450 4097 3450 3541 
Q 3450 3153 3228 2886 
Q 3006 2619 2597 2516 
z
" transform="scale(0.015625)"/>
       </defs>
       <use xlink:href="#DejaVuSans-33"/>
       <use xlink:href="#DejaVuSans-30" x="63.623047"/>
      </g>
     </g>
    </g>
    <g id="xtick_5">
     <g id="line2d_9">
      <path d="M 396.127841 378.603418 
L 396.127841 35.965375 
" clip-path="url(#pa7156dcb50)" style="fill: none; stroke-dasharray: 2,8; stroke-dashoffset: 0; stroke: #cccccc; stroke-width: 2; stroke-linecap: round"/>
     </g>
     <g id="line2d_10"/>
     <g id="text_5">
      <!-- 40 -->
      <g transform="translate(388.492841 391.721543) scale(0.12 -0.12)">
       <defs>
        <path id="DejaVuSans-34" d="M 2419 4116 
L 825 1625 
L 2419 1625 
L 2419 4116 
z
M 2253 4666 
L 3047 4666 
L 3047 1625 
L 3713 1625 
L 3713 1100 
L 3047 1100 
L 3047 0 
L 2419 0 
L 2419 1100 
L 313 1100 
L 313 1709 
L 2253 4666 
z
" transform="scale(0.015625)"/>
       </defs>
       <use xlink:href="#DejaVuSans-34"/>
       <use xlink:href="#DejaVuSans-30" x="63.623047"/>
      </g>
     </g>
    </g>
    <g id="xtick_6">
     <g id="line2d_11">
      <path d="M 475.389205 378.603418 
L 475.389205 35.965375 
" clip-path="url(#pa7156dcb50)" style="fill: none; stroke-dasharray: 2,8; stroke-dashoffset: 0; stroke: #cccccc; stroke-width: 2; stroke-linecap: round"/>
     </g>
     <g id="line2d_12"/>
     <g id="text_6">
      <!-- 50 -->
      <g transform="translate(467.754205 391.721543) scale(0.12 -0.12)">
       <defs>
        <path id="DejaVuSans-35" d="M 691 4666 
L 3169 4666 
L 3169 4134 
L 1269 4134 
L 1269 2991 
Q 1406 3038 1543 3061 
Q 1681 3084 1819 3084 
Q 2600 3084 3056 2656 
Q 3513 2228 3513 1497 
Q 3513 744 3044 326 
Q 2575 -91 1722 -91 
Q 1428 -91 1123 -41 
Q 819 9 494 109 
L 494 744 
Q 775 591 1075 516 
Q 1375 441 1709 441 
Q 2250 441 2565 725 
Q 2881 1009 2881 1497 
Q 2881 1984 2565 2268 
Q 2250 2553 1709 2553 
Q 1456 2553 1204 2497 
Q 953 2441 691 2322 
L 691 4666 
z
" transform="scale(0.015625)"/>
       </defs>
       <use xlink:href="#DejaVuSans-35"/>
       <use xlink:href="#DejaVuSans-30" x="63.623047"/>
      </g>
     </g>
    </g>
    <g id="xtick_7">
     <g id="line2d_13">
      <path d="M 554.650568 378.603418 
L 554.650568 35.965375 
" clip-path="url(#pa7156dcb50)" style="fill: none; stroke-dasharray: 2,8; stroke-dashoffset: 0; stroke: #cccccc; stroke-width: 2; stroke-linecap: round"/>
     </g>
     <g id="line2d_14"/>
     <g id="text_7">
      <!-- 60 -->
      <g transform="translate(547.015568 391.721543) scale(0.12 -0.12)">
       <defs>
        <path id="DejaVuSans-36" d="M 2113 2584 
Q 1688 2584 1439 2293 
Q 1191 2003 1191 1497 
Q 1191 994 1439 701 
Q 1688 409 2113 409 
Q 2538 409 2786 701 
Q 3034 994 3034 1497 
Q 3034 2003 2786 2293 
Q 2538 2584 2113 2584 
z
M 3366 4563 
L 3366 3988 
Q 3128 4100 2886 4159 
Q 2644 4219 2406 4219 
Q 1781 4219 1451 3797 
Q 1122 3375 1075 2522 
Q 1259 2794 1537 2939 
Q 1816 3084 2150 3084 
Q 2853 3084 3261 2657 
Q 3669 2231 3669 1497 
Q 3669 778 3244 343 
Q 2819 -91 2113 -91 
Q 1303 -91 875 529 
Q 447 1150 447 2328 
Q 447 3434 972 4092 
Q 1497 4750 2381 4750 
Q 2619 4750 2861 4703 
Q 3103 4656 3366 4563 
z
" transform="scale(0.015625)"/>
       </defs>
       <use xlink:href="#DejaVuSans-36"/>
       <use xlink:href="#DejaVuSans-30" x="63.623047"/>
      </g>
     </g>
    </g>
    <g id="text_8">
     <!-- $X=x^2$ -->
     <g transform="translate(314.53875 411.335293) scale(0.12 -0.12)">
      <defs>
       <path id="DejaVuSans-Oblique-58" d="M 878 4666 
L 1516 4666 
L 2316 2981 
L 3763 4666 
L 4500 4666 
L 2578 2438 
L 3738 0 
L 3103 0 
L 2163 1966 
L 459 0 
L -275 0 
L 1906 2509 
L 878 4666 
z
" transform="scale(0.015625)"/>
       <path id="DejaVuSans-3d" d="M 678 2906 
L 4684 2906 
L 4684 2381 
L 678 2381 
L 678 2906 
z
M 678 1631 
L 4684 1631 
L 4684 1100 
L 678 1100 
L 678 1631 
z
" transform="scale(0.015625)"/>
       <path id="DejaVuSans-Oblique-78" d="M 3841 3500 
L 2234 1784 
L 3219 0 
L 2559 0 
L 1819 1388 
L 531 0 
L -166 0 
L 1556 1844 
L 641 3500 
L 1300 3500 
L 1972 2234 
L 3144 3500 
L 3841 3500 
z
" transform="scale(0.015625)"/>
      </defs>
      <use xlink:href="#DejaVuSans-Oblique-58" transform="translate(0 0.765625)"/>
      <use xlink:href="#DejaVuSans-3d" transform="translate(87.988281 0.765625)"/>
      <use xlink:href="#DejaVuSans-Oblique-78" transform="translate(191.259766 0.765625)"/>
      <use xlink:href="#DejaVuSans-32" transform="translate(254.905599 39.046875) scale(0.7)"/>
     </g>
    </g>
   </g>
   <g id="matplotlib.axis_2">
    <g id="ytick_1">
     <g id="line2d_15">
      <path d="M 53.71875 342.098473 
L 611.71875 342.098473 
" clip-path="url(#pa7156dcb50)" style="fill: none; stroke-dasharray: 2,8; stroke-dashoffset: 0; stroke: #cccccc; stroke-width: 2; stroke-linecap: round"/>
     </g>
     <g id="line2d_16"/>
     <g id="text_9">
      <!-- 100 -->
      <g transform="translate(26.81375 346.657536) scale(0.12 -0.12)">
       <use xlink:href="#DejaVuSans-31"/>
       <use xlink:href="#DejaVuSans-30" x="63.623047"/>
       <use xlink:href="#DejaVuSans-30" x="127.246094"/>
      </g>
     </g>
    </g>
    <g id="ytick_2">
     <g id="line2d_17">
      <path d="M 53.71875 294.776219 
L 611.71875 294.776219 
" clip-path="url(#pa7156dcb50)" style="fill: none; stroke-dasharray: 2,8; stroke-dashoffset: 0; stroke: #cccccc; stroke-width: 2; stroke-linecap: round"/>
     </g>
     <g id="line2d_18"/>
     <g id="text_10">
      <!-- 150 -->
      <g transform="translate(26.81375 299.335281) scale(0.12 -0.12)">
       <use xlink:href="#DejaVuSans-31"/>
       <use xlink:href="#DejaVuSans-35" x="63.623047"/>
       <use xlink:href="#DejaVuSans-30" x="127.246094"/>
      </g>
     </g>
    </g>
    <g id="ytick_3">
     <g id="line2d_19">
      <path d="M 53.71875 247.453965 
L 611.71875 247.453965 
" clip-path="url(#pa7156dcb50)" style="fill: none; stroke-dasharray: 2,8; stroke-dashoffset: 0; stroke: #cccccc; stroke-width: 2; stroke-linecap: round"/>
     </g>
     <g id="line2d_20"/>
     <g id="text_11">
      <!-- 200 -->
      <g transform="translate(26.81375 252.013027) scale(0.12 -0.12)">
       <use xlink:href="#DejaVuSans-32"/>
       <use xlink:href="#DejaVuSans-30" x="63.623047"/>
       <use xlink:href="#DejaVuSans-30" x="127.246094"/>
      </g>
     </g>
    </g>
    <g id="ytick_4">
     <g id="line2d_21">
      <path d="M 53.71875 200.13171 
L 611.71875 200.13171 
" clip-path="url(#pa7156dcb50)" style="fill: none; stroke-dasharray: 2,8; stroke-dashoffset: 0; stroke: #cccccc; stroke-width: 2; stroke-linecap: round"/>
     </g>
     <g id="line2d_22"/>
     <g id="text_12">
      <!-- 250 -->
      <g transform="translate(26.81375 204.690773) scale(0.12 -0.12)">
       <use xlink:href="#DejaVuSans-32"/>
       <use xlink:href="#DejaVuSans-35" x="63.623047"/>
       <use xlink:href="#DejaVuSans-30" x="127.246094"/>
      </g>
     </g>
    </g>
    <g id="ytick_5">
     <g id="line2d_23">
      <path d="M 53.71875 152.809456 
L 611.71875 152.809456 
" clip-path="url(#pa7156dcb50)" style="fill: none; stroke-dasharray: 2,8; stroke-dashoffset: 0; stroke: #cccccc; stroke-width: 2; stroke-linecap: round"/>
     </g>
     <g id="line2d_24"/>
     <g id="text_13">
      <!-- 300 -->
      <g transform="translate(26.81375 157.368518) scale(0.12 -0.12)">
       <use xlink:href="#DejaVuSans-33"/>
       <use xlink:href="#DejaVuSans-30" x="63.623047"/>
       <use xlink:href="#DejaVuSans-30" x="127.246094"/>
      </g>
     </g>
    </g>
    <g id="ytick_6">
     <g id="line2d_25">
      <path d="M 53.71875 105.487201 
L 611.71875 105.487201 
" clip-path="url(#pa7156dcb50)" style="fill: none; stroke-dasharray: 2,8; stroke-dashoffset: 0; stroke: #cccccc; stroke-width: 2; stroke-linecap: round"/>
     </g>
     <g id="line2d_26"/>
     <g id="text_14">
      <!-- 350 -->
      <g transform="translate(26.81375 110.046264) scale(0.12 -0.12)">
       <use xlink:href="#DejaVuSans-33"/>
       <use xlink:href="#DejaVuSans-35" x="63.623047"/>
       <use xlink:href="#DejaVuSans-30" x="127.246094"/>
      </g>
     </g>
    </g>
    <g id="ytick_7">
     <g id="line2d_27">
      <path d="M 53.71875 58.164947 
L 611.71875 58.164947 
" clip-path="url(#pa7156dcb50)" style="fill: none; stroke-dasharray: 2,8; stroke-dashoffset: 0; stroke: #cccccc; stroke-width: 2; stroke-linecap: round"/>
     </g>
     <g id="line2d_28"/>
     <g id="text_15">
      <!-- 400 -->
      <g transform="translate(26.81375 62.72401) scale(0.12 -0.12)">
       <use xlink:href="#DejaVuSans-34"/>
       <use xlink:href="#DejaVuSans-30" x="63.623047"/>
       <use xlink:href="#DejaVuSans-30" x="127.246094"/>
      </g>
     </g>
    </g>
    <g id="text_16">
     <!-- $Y=y$ -->
     <g transform="translate(16.29375 221.924397) rotate(-90) scale(0.12 -0.12)">
      <defs>
       <path id="DejaVuSans-Oblique-59" d="M 403 4666 
L 1081 4666 
L 1953 2747 
L 3616 4666 
L 4325 4666 
L 2209 2222 
L 1778 0 
L 1147 0 
L 1575 2222 
L 403 4666 
z
" transform="scale(0.015625)"/>
       <path id="DejaVuSans-Oblique-79" d="M 1588 -325 
Q 1188 -997 936 -1164 
Q 684 -1331 294 -1331 
L -159 -1331 
L -63 -850 
L 269 -850 
Q 509 -850 678 -719 
Q 847 -588 1056 -206 
L 1234 128 
L 459 3500 
L 1069 3500 
L 1650 819 
L 3256 3500 
L 3859 3500 
L 1588 -325 
z
" transform="scale(0.015625)"/>
      </defs>
      <use xlink:href="#DejaVuSans-Oblique-59" transform="translate(0 0.09375)"/>
      <use xlink:href="#DejaVuSans-3d" transform="translate(80.566406 0.09375)"/>
      <use xlink:href="#DejaVuSans-Oblique-79" transform="translate(183.837891 0.09375)"/>
     </g>
    </g>
   </g>
   <g id="line2d_29">
    <defs>
     <path id="m9132333db9" d="M 0 3 
C 0.795609 3 1.55874 2.683901 2.12132 2.12132 
C 2.683901 1.55874 3 0.795609 3 0 
C 3 -0.795609 2.683901 -1.55874 2.12132 -2.12132 
C 1.55874 -2.683901 0.795609 -3 0 -3 
C -0.795609 -3 -1.55874 -2.683901 -2.12132 -2.12132 
C -2.683901 -1.55874 -3 -0.795609 -3 0 
C -3 0.795609 -2.683901 1.55874 -2.12132 2.12132 
C -1.55874 2.683901 -0.795609 3 0 3 
z
" style="stroke: #1f77b4"/>
    </defs>
    <g clip-path="url(#pa7156dcb50)">
     <use xlink:href="#m9132333db9" x="145.78412" y="309.723133" style="fill: #1f77b4; stroke: #1f77b4"/>
     <use xlink:href="#m9132333db9" x="308.199002" y="218.320699" style="fill: #1f77b4; stroke: #1f77b4"/>
     <use xlink:href="#m9132333db9" x="116.851554" y="329.529646" style="fill: #1f77b4; stroke: #1f77b4"/>
     <use xlink:href="#m9132333db9" x="104.745725" y="345.436171" style="fill: #1f77b4; stroke: #1f77b4"/>
     <use xlink:href="#m9132333db9" x="79.176621" y="356.666184" style="fill: #1f77b4; stroke: #1f77b4"/>
     <use xlink:href="#m9132333db9" x="86.315112" y="344.597059" style="fill: #1f77b4; stroke: #1f77b4"/>
     <use xlink:href="#m9132333db9" x="81.686189" y="355.616038" style="fill: #1f77b4; stroke: #1f77b4"/>
     <use xlink:href="#m9132333db9" x="104.31757" y="337.959217" style="fill: #1f77b4; stroke: #1f77b4"/>
     <use xlink:href="#m9132333db9" x="100.645923" y="352.278745" style="fill: #1f77b4; stroke: #1f77b4"/>
     <use xlink:href="#m9132333db9" x="101.47327" y="339.460778" style="fill: #1f77b4; stroke: #1f77b4"/>
     <use xlink:href="#m9132333db9" x="569.721832" y="59.735748" style="fill: #1f77b4; stroke: #1f77b4"/>
     <use xlink:href="#m9132333db9" x="87.399368" y="352.348858" style="fill: #1f77b4; stroke: #1f77b4"/>
     <use xlink:href="#m9132333db9" x="293.066186" y="221.390289" style="fill: #1f77b4; stroke: #1f77b4"/>
     <use xlink:href="#m9132333db9" x="87.230218" y="328.630462" style="fill: #1f77b4; stroke: #1f77b4"/>
     <use xlink:href="#m9132333db9" x="384.755978" y="173.331256" style="fill: #1f77b4; stroke: #1f77b4"/>
     <use xlink:href="#m9132333db9" x="291.216489" y="226.911279" style="fill: #1f77b4; stroke: #1f77b4"/>
     <use xlink:href="#m9132333db9" x="272.205119" y="243.391464" style="fill: #1f77b4; stroke: #1f77b4"/>
     <use xlink:href="#m9132333db9" x="335.970243" y="203.692839" style="fill: #1f77b4; stroke: #1f77b4"/>
     <use xlink:href="#m9132333db9" x="135.763089" y="325.311064" style="fill: #1f77b4; stroke: #1f77b4"/>
     <use xlink:href="#m9132333db9" x="379.49707" y="172.16169" style="fill: #1f77b4; stroke: #1f77b4"/>
     <use xlink:href="#m9132333db9" x="461.312257" y="130.032348" style="fill: #1f77b4; stroke: #1f77b4"/>
     <use xlink:href="#m9132333db9" x="229.350699" y="260.444911" style="fill: #1f77b4; stroke: #1f77b4"/>
     <use xlink:href="#m9132333db9" x="141.591184" y="327.97773" style="fill: #1f77b4; stroke: #1f77b4"/>
     <use xlink:href="#m9132333db9" x="498.325496" y="101.03977" style="fill: #1f77b4; stroke: #1f77b4"/>
     <use xlink:href="#m9132333db9" x="118.093441" y="333.609872" style="fill: #1f77b4; stroke: #1f77b4"/>
     <use xlink:href="#m9132333db9" x="550.729324" y="70.922927" style="fill: #1f77b4; stroke: #1f77b4"/>
     <use xlink:href="#m9132333db9" x="170.877112" y="298.193117" style="fill: #1f77b4; stroke: #1f77b4"/>
     <use xlink:href="#m9132333db9" x="277.647457" y="228.561804" style="fill: #1f77b4; stroke: #1f77b4"/>
     <use xlink:href="#m9132333db9" x="103.685529" y="352.126502" style="fill: #1f77b4; stroke: #1f77b4"/>
     <use xlink:href="#m9132333db9" x="337.462532" y="203.678388" style="fill: #1f77b4; stroke: #1f77b4"/>
     <use xlink:href="#m9132333db9" x="142.303751" y="320.941604" style="fill: #1f77b4; stroke: #1f77b4"/>
     <use xlink:href="#m9132333db9" x="194.441976" y="289.36882" style="fill: #1f77b4; stroke: #1f77b4"/>
     <use xlink:href="#m9132333db9" x="114.287645" y="338.569717" style="fill: #1f77b4; stroke: #1f77b4"/>
     <use xlink:href="#m9132333db9" x="90.096451" y="339.845709" style="fill: #1f77b4; stroke: #1f77b4"/>
     <use xlink:href="#m9132333db9" x="435.204753" y="128.044972" style="fill: #1f77b4; stroke: #1f77b4"/>
     <use xlink:href="#m9132333db9" x="103.007533" y="346.36081" style="fill: #1f77b4; stroke: #1f77b4"/>
     <use xlink:href="#m9132333db9" x="198.011523" y="283.947438" style="fill: #1f77b4; stroke: #1f77b4"/>
     <use xlink:href="#m9132333db9" x="137.776025" y="322.576568" style="fill: #1f77b4; stroke: #1f77b4"/>
     <use xlink:href="#m9132333db9" x="575.217769" y="54.990803" style="fill: #1f77b4; stroke: #1f77b4"/>
     <use xlink:href="#m9132333db9" x="177.119591" y="297.384814" style="fill: #1f77b4; stroke: #1f77b4"/>
     <use xlink:href="#m9132333db9" x="85.278552" y="341.69721" style="fill: #1f77b4; stroke: #1f77b4"/>
     <use xlink:href="#m9132333db9" x="142.114338" y="318.091449" style="fill: #1f77b4; stroke: #1f77b4"/>
     <use xlink:href="#m9132333db9" x="491.256254" y="107.937341" style="fill: #1f77b4; stroke: #1f77b4"/>
     <use xlink:href="#m9132333db9" x="171.172434" y="293.389358" style="fill: #1f77b4; stroke: #1f77b4"/>
     <use xlink:href="#m9132333db9" x="466.76765" y="110.762544" style="fill: #1f77b4; stroke: #1f77b4"/>
     <use xlink:href="#m9132333db9" x="321.877246" y="206.435327" style="fill: #1f77b4; stroke: #1f77b4"/>
     <use xlink:href="#m9132333db9" x="381.574688" y="163.9185" style="fill: #1f77b4; stroke: #1f77b4"/>
     <use xlink:href="#m9132333db9" x="81.010529" y="358.306817" style="fill: #1f77b4; stroke: #1f77b4"/>
     <use xlink:href="#m9132333db9" x="99.875697" y="340.622669" style="fill: #1f77b4; stroke: #1f77b4"/>
     <use xlink:href="#m9132333db9" x="86.803481" y="343.655646" style="fill: #1f77b4; stroke: #1f77b4"/>
     <use xlink:href="#m9132333db9" x="499.235923" y="89.391034" style="fill: #1f77b4; stroke: #1f77b4"/>
     <use xlink:href="#m9132333db9" x="219.157585" y="273.40369" style="fill: #1f77b4; stroke: #1f77b4"/>
     <use xlink:href="#m9132333db9" x="359.594222" y="180.823732" style="fill: #1f77b4; stroke: #1f77b4"/>
     <use xlink:href="#m9132333db9" x="239.929221" y="256.709666" style="fill: #1f77b4; stroke: #1f77b4"/>
     <use xlink:href="#m9132333db9" x="81.960141" y="346.530351" style="fill: #1f77b4; stroke: #1f77b4"/>
     <use xlink:href="#m9132333db9" x="131.047511" y="321.700203" style="fill: #1f77b4; stroke: #1f77b4"/>
     <use xlink:href="#m9132333db9" x="379.095046" y="183.404334" style="fill: #1f77b4; stroke: #1f77b4"/>
     <use xlink:href="#m9132333db9" x="513.850625" y="97.836874" style="fill: #1f77b4; stroke: #1f77b4"/>
     <use xlink:href="#m9132333db9" x="444.470846" y="139.72535" style="fill: #1f77b4; stroke: #1f77b4"/>
     <use xlink:href="#m9132333db9" x="432.07753" y="147.027245" style="fill: #1f77b4; stroke: #1f77b4"/>
     <use xlink:href="#m9132333db9" x="155.818228" y="306.318485" style="fill: #1f77b4; stroke: #1f77b4"/>
     <use xlink:href="#m9132333db9" x="395.151445" y="175.844489" style="fill: #1f77b4; stroke: #1f77b4"/>
     <use xlink:href="#m9132333db9" x="252.803633" y="255.880018" style="fill: #1f77b4; stroke: #1f77b4"/>
     <use xlink:href="#m9132333db9" x="421.167195" y="149.347486" style="fill: #1f77b4; stroke: #1f77b4"/>
     <use xlink:href="#m9132333db9" x="307.069204" y="206.735088" style="fill: #1f77b4; stroke: #1f77b4"/>
     <use xlink:href="#m9132333db9" x="82.142743" y="340.965524" style="fill: #1f77b4; stroke: #1f77b4"/>
     <use xlink:href="#m9132333db9" x="80.132995" y="357.563286" style="fill: #1f77b4; stroke: #1f77b4"/>
     <use xlink:href="#m9132333db9" x="147.45233" y="323.471242" style="fill: #1f77b4; stroke: #1f77b4"/>
     <use xlink:href="#m9132333db9" x="83.798673" y="356.230392" style="fill: #1f77b4; stroke: #1f77b4"/>
     <use xlink:href="#m9132333db9" x="103.798466" y="345.257975" style="fill: #1f77b4; stroke: #1f77b4"/>
     <use xlink:href="#m9132333db9" x="216.787269" y="281.345893" style="fill: #1f77b4; stroke: #1f77b4"/>
     <use xlink:href="#m9132333db9" x="290.263691" y="218.896918" style="fill: #1f77b4; stroke: #1f77b4"/>
     <use xlink:href="#m9132333db9" x="301.616283" y="225.429941" style="fill: #1f77b4; stroke: #1f77b4"/>
     <use xlink:href="#m9132333db9" x="512.477462" y="104.180047" style="fill: #1f77b4; stroke: #1f77b4"/>
     <use xlink:href="#m9132333db9" x="129.926479" y="331.262534" style="fill: #1f77b4; stroke: #1f77b4"/>
     <use xlink:href="#m9132333db9" x="511.173985" y="82.847995" style="fill: #1f77b4; stroke: #1f77b4"/>
     <use xlink:href="#m9132333db9" x="242.634058" y="250.332842" style="fill: #1f77b4; stroke: #1f77b4"/>
     <use xlink:href="#m9132333db9" x="121.308567" y="332.737203" style="fill: #1f77b4; stroke: #1f77b4"/>
     <use xlink:href="#m9132333db9" x="143.061782" y="317.592468" style="fill: #1f77b4; stroke: #1f77b4"/>
     <use xlink:href="#m9132333db9" x="79.857725" y="351.823622" style="fill: #1f77b4; stroke: #1f77b4"/>
     <use xlink:href="#m9132333db9" x="444.992356" y="136.041467" style="fill: #1f77b4; stroke: #1f77b4"/>
     <use xlink:href="#m9132333db9" x="555.699734" y="78.430779" style="fill: #1f77b4; stroke: #1f77b4"/>
     <use xlink:href="#m9132333db9" x="86.417299" y="342.636529" style="fill: #1f77b4; stroke: #1f77b4"/>
     <use xlink:href="#m9132333db9" x="399.967785" y="166.533013" style="fill: #1f77b4; stroke: #1f77b4"/>
     <use xlink:href="#m9132333db9" x="80.097569" y="340.751659" style="fill: #1f77b4; stroke: #1f77b4"/>
     <use xlink:href="#m9132333db9" x="82.563488" y="360.031805" style="fill: #1f77b4; stroke: #1f77b4"/>
     <use xlink:href="#m9132333db9" x="534.505215" y="92.397737" style="fill: #1f77b4; stroke: #1f77b4"/>
     <use xlink:href="#m9132333db9" x="261.594881" y="238.400643" style="fill: #1f77b4; stroke: #1f77b4"/>
     <use xlink:href="#m9132333db9" x="325.628453" y="218.859121" style="fill: #1f77b4; stroke: #1f77b4"/>
     <use xlink:href="#m9132333db9" x="80.71472" y="363.028962" style="fill: #1f77b4; stroke: #1f77b4"/>
     <use xlink:href="#m9132333db9" x="519.378649" y="89.67593" style="fill: #1f77b4; stroke: #1f77b4"/>
     <use xlink:href="#m9132333db9" x="144.798248" y="306.164142" style="fill: #1f77b4; stroke: #1f77b4"/>
     <use xlink:href="#m9132333db9" x="186.108317" y="290.271277" style="fill: #1f77b4; stroke: #1f77b4"/>
     <use xlink:href="#m9132333db9" x="119.419033" y="331.385147" style="fill: #1f77b4; stroke: #1f77b4"/>
     <use xlink:href="#m9132333db9" x="80.601344" y="346.586215" style="fill: #1f77b4; stroke: #1f77b4"/>
     <use xlink:href="#m9132333db9" x="124.799715" y="330.694875" style="fill: #1f77b4; stroke: #1f77b4"/>
     <use xlink:href="#m9132333db9" x="105.821897" y="333.077786" style="fill: #1f77b4; stroke: #1f77b4"/>
     <use xlink:href="#m9132333db9" x="213.437499" y="293.799297" style="fill: #1f77b4; stroke: #1f77b4"/>
     <use xlink:href="#m9132333db9" x="116.525415" y="323.194184" style="fill: #1f77b4; stroke: #1f77b4"/>
     <use xlink:href="#m9132333db9" x="199.413906" y="269.813728" style="fill: #1f77b4; stroke: #1f77b4"/>
    </g>
   </g>
   <g id="line2d_30">
    <path d="M 79.082386 354.402259 
L 586.355114 51.539832 
" clip-path="url(#pa7156dcb50)" style="fill: none; stroke: #ff7f0e; stroke-width: 1.5; stroke-linecap: square"/>
   </g>
   <g id="patch_3">
    <path d="M 53.71875 378.603418 
L 53.71875 35.965375 
" style="fill: none; stroke: #cccccc; stroke-width: 2; stroke-linejoin: miter; stroke-linecap: square"/>
   </g>
   <g id="patch_4">
    <path d="M 611.71875 378.603418 
L 611.71875 35.965375 
" style="fill: none; stroke: #cccccc; stroke-width: 2; stroke-linejoin: miter; stroke-linecap: square"/>
   </g>
   <g id="patch_5">
    <path d="M 53.71875 378.603418 
L 611.71875 378.603418 
" style="fill: none; stroke: #cccccc; stroke-width: 2; stroke-linejoin: miter; stroke-linecap: square"/>
   </g>
   <g id="patch_6">
    <path d="M 53.71875 35.965375 
L 611.71875 35.965375 
" style="fill: none; stroke: #cccccc; stroke-width: 2; stroke-linejoin: miter; stroke-linecap: square"/>
   </g>
   <g id="text_17">
    <!-- Linear trend with trendline -->
    <g transform="translate(220.859625 19.965375) scale(0.168 -0.168)">
     <defs>
      <path id="DejaVuSans-4c" d="M 628 4666 
L 1259 4666 
L 1259 531 
L 3531 531 
L 3531 0 
L 628 0 
L 628 4666 
z
" transform="scale(0.015625)"/>
      <path id="DejaVuSans-69" d="M 603 3500 
L 1178 3500 
L 1178 0 
L 603 0 
L 603 3500 
z
M 603 4863 
L 1178 4863 
L 1178 4134 
L 603 4134 
L 603 4863 
z
" transform="scale(0.015625)"/>
      <path id="DejaVuSans-6e" d="M 3513 2113 
L 3513 0 
L 2938 0 
L 2938 2094 
Q 2938 2591 2744 2837 
Q 2550 3084 2163 3084 
Q 1697 3084 1428 2787 
Q 1159 2491 1159 1978 
L 1159 0 
L 581 0 
L 581 3500 
L 1159 3500 
L 1159 2956 
Q 1366 3272 1645 3428 
Q 1925 3584 2291 3584 
Q 2894 3584 3203 3211 
Q 3513 2838 3513 2113 
z
" transform="scale(0.015625)"/>
      <path id="DejaVuSans-65" d="M 3597 1894 
L 3597 1613 
L 953 1613 
Q 991 1019 1311 708 
Q 1631 397 2203 397 
Q 2534 397 2845 478 
Q 3156 559 3463 722 
L 3463 178 
Q 3153 47 2828 -22 
Q 2503 -91 2169 -91 
Q 1331 -91 842 396 
Q 353 884 353 1716 
Q 353 2575 817 3079 
Q 1281 3584 2069 3584 
Q 2775 3584 3186 3129 
Q 3597 2675 3597 1894 
z
M 3022 2063 
Q 3016 2534 2758 2815 
Q 2500 3097 2075 3097 
Q 1594 3097 1305 2825 
Q 1016 2553 972 2059 
L 3022 2063 
z
" transform="scale(0.015625)"/>
      <path id="DejaVuSans-61" d="M 2194 1759 
Q 1497 1759 1228 1600 
Q 959 1441 959 1056 
Q 959 750 1161 570 
Q 1363 391 1709 391 
Q 2188 391 2477 730 
Q 2766 1069 2766 1631 
L 2766 1759 
L 2194 1759 
z
M 3341 1997 
L 3341 0 
L 2766 0 
L 2766 531 
Q 2569 213 2275 61 
Q 1981 -91 1556 -91 
Q 1019 -91 701 211 
Q 384 513 384 1019 
Q 384 1609 779 1909 
Q 1175 2209 1959 2209 
L 2766 2209 
L 2766 2266 
Q 2766 2663 2505 2880 
Q 2244 3097 1772 3097 
Q 1472 3097 1187 3025 
Q 903 2953 641 2809 
L 641 3341 
Q 956 3463 1253 3523 
Q 1550 3584 1831 3584 
Q 2591 3584 2966 3190 
Q 3341 2797 3341 1997 
z
" transform="scale(0.015625)"/>
      <path id="DejaVuSans-72" d="M 2631 2963 
Q 2534 3019 2420 3045 
Q 2306 3072 2169 3072 
Q 1681 3072 1420 2755 
Q 1159 2438 1159 1844 
L 1159 0 
L 581 0 
L 581 3500 
L 1159 3500 
L 1159 2956 
Q 1341 3275 1631 3429 
Q 1922 3584 2338 3584 
Q 2397 3584 2469 3576 
Q 2541 3569 2628 3553 
L 2631 2963 
z
" transform="scale(0.015625)"/>
      <path id="DejaVuSans-20" transform="scale(0.015625)"/>
      <path id="DejaVuSans-74" d="M 1172 4494 
L 1172 3500 
L 2356 3500 
L 2356 3053 
L 1172 3053 
L 1172 1153 
Q 1172 725 1289 603 
Q 1406 481 1766 481 
L 2356 481 
L 2356 0 
L 1766 0 
Q 1100 0 847 248 
Q 594 497 594 1153 
L 594 3053 
L 172 3053 
L 172 3500 
L 594 3500 
L 594 4494 
L 1172 4494 
z
" transform="scale(0.015625)"/>
      <path id="DejaVuSans-64" d="M 2906 2969 
L 2906 4863 
L 3481 4863 
L 3481 0 
L 2906 0 
L 2906 525 
Q 2725 213 2448 61 
Q 2172 -91 1784 -91 
Q 1150 -91 751 415 
Q 353 922 353 1747 
Q 353 2572 751 3078 
Q 1150 3584 1784 3584 
Q 2172 3584 2448 3432 
Q 2725 3281 2906 2969 
z
M 947 1747 
Q 947 1113 1208 752 
Q 1469 391 1925 391 
Q 2381 391 2643 752 
Q 2906 1113 2906 1747 
Q 2906 2381 2643 2742 
Q 2381 3103 1925 3103 
Q 1469 3103 1208 2742 
Q 947 2381 947 1747 
z
" transform="scale(0.015625)"/>
      <path id="DejaVuSans-77" d="M 269 3500 
L 844 3500 
L 1563 769 
L 2278 3500 
L 2956 3500 
L 3675 769 
L 4391 3500 
L 4966 3500 
L 4050 0 
L 3372 0 
L 2619 2869 
L 1863 0 
L 1184 0 
L 269 3500 
z
" transform="scale(0.015625)"/>
      <path id="DejaVuSans-68" d="M 3513 2113 
L 3513 0 
L 2938 0 
L 2938 2094 
Q 2938 2591 2744 2837 
Q 2550 3084 2163 3084 
Q 1697 3084 1428 2787 
Q 1159 2491 1159 1978 
L 1159 0 
L 581 0 
L 581 4863 
L 1159 4863 
L 1159 2956 
Q 1366 3272 1645 3428 
Q 1925 3584 2291 3584 
Q 2894 3584 3203 3211 
Q 3513 2838 3513 2113 
z
" transform="scale(0.015625)"/>
      <path id="DejaVuSans-6c" d="M 603 4863 
L 1178 4863 
L 1178 0 
L 603 0 
L 603 4863 
z
" transform="scale(0.015625)"/>
     </defs>
     <use xlink:href="#DejaVuSans-4c"/>
     <use xlink:href="#DejaVuSans-69" x="55.712891"/>
     <use xlink:href="#DejaVuSans-6e" x="83.496094"/>
     <use xlink:href="#DejaVuSans-65" x="146.875"/>
     <use xlink:href="#DejaVuSans-61" x="208.398438"/>
     <use xlink:href="#DejaVuSans-72" x="269.677734"/>
     <use xlink:href="#DejaVuSans-20" x="310.791016"/>
     <use xlink:href="#DejaVuSans-74" x="342.578125"/>
     <use xlink:href="#DejaVuSans-72" x="381.787109"/>
     <use xlink:href="#DejaVuSans-65" x="420.650391"/>
     <use xlink:href="#DejaVuSans-6e" x="482.173828"/>
     <use xlink:href="#DejaVuSans-64" x="545.552734"/>
     <use xlink:href="#DejaVuSans-20" x="609.029297"/>
     <use xlink:href="#DejaVuSans-77" x="640.816406"/>
     <use xlink:href="#DejaVuSans-69" x="722.603516"/>
     <use xlink:href="#DejaVuSans-74" x="750.386719"/>
     <use xlink:href="#DejaVuSans-68" x="789.595703"/>
     <use xlink:href="#DejaVuSans-20" x="852.974609"/>
     <use xlink:href="#DejaVuSans-74" x="884.761719"/>
     <use xlink:href="#DejaVuSans-72" x="923.970703"/>
     <use xlink:href="#DejaVuSans-65" x="962.833984"/>
     <use xlink:href="#DejaVuSans-6e" x="1024.357422"/>
     <use xlink:href="#DejaVuSans-64" x="1087.736328"/>
     <use xlink:href="#DejaVuSans-6c" x="1151.212891"/>
     <use xlink:href="#DejaVuSans-69" x="1178.996094"/>
     <use xlink:href="#DejaVuSans-6e" x="1206.779297"/>
     <use xlink:href="#DejaVuSans-65" x="1270.158203"/>
    </g>
   </g>
  </g>
 </g>
 <defs>
  <clipPath id="pa7156dcb50">
   <rect x="53.71875" y="35.965375" width="558" height="342.638043"/>
  </clipPath>
 </defs>
</svg>
