<?xml version="1.0" encoding="utf-8" standalone="no"?>
<!DOCTYPE svg PUBLIC "-//W3C//DTD SVG 1.1//EN"
  "http://www.w3.org/Graphics/SVG/1.1/DTD/svg11.dtd">
<svg xmlns:xlink="http://www.w3.org/1999/xlink" width="618.91875pt" height="421.030918pt" viewBox="0 0 618.91875 421.030918" xmlns="http://www.w3.org/2000/svg" version="1.1">
 <metadata>
  <rdf:RDF xmlns:dc="http://purl.org/dc/elements/1.1/" xmlns:cc="http://creativecommons.org/ns#" xmlns:rdf="http://www.w3.org/1999/02/22-rdf-syntax-ns#">
   <cc:Work>
    <dc:type rdf:resource="http://purl.org/dc/dcmitype/StillImage"/>
    <dc:date>2023-10-25T18:46:31.732542</dc:date>
    <dc:format>image/svg+xml</dc:format>
    <dc:creator>
     <cc:Agent>
      <dc:title>Matplotlib v3.8.0, https://matplotlib.org/</dc:title>
     </cc:Agent>
    </dc:creator>
   </cc:Work>
  </rdf:RDF>
 </metadata>
 <defs>
  <style type="text/css">*{stroke-linejoin: round; stroke-linecap: butt}</style>
 </defs>
 <g id="figure_1">
  <g id="patch_1">
   <path d="M 0 421.030918 
L 618.91875 421.030918 
L 618.91875 0 
L 0 0 
z
" style="fill: #ffffff"/>
  </g>
  <g id="axes_1">
   <g id="patch_2">
    <path d="M 53.71875 378.603418 
L 611.71875 378.603418 
L 611.71875 35.965375 
L 53.71875 35.965375 
z
" style="fill: #ffffff"/>
   </g>
   <g id="matplotlib.axis_1">
    <g id="xtick_1">
     <g id="line2d_1">
      <path d="M 78.986018 378.603418 
L 78.986018 35.965375 
" clip-path="url(#pd98fa7129c)" style="fill: none; stroke-dasharray: 2,8; stroke-dashoffset: 0; stroke: #cccccc; stroke-width: 2; stroke-linecap: round"/>
     </g>
     <g id="line2d_2"/>
     <g id="text_1">
      <!-- 0 -->
      <g transform="translate(75.168518 391.721543) scale(0.12 -0.12)">
       <defs>
        <path id="DejaVuSans-30" d="M 2034 4250 
Q 1547 4250 1301 3770 
Q 1056 3291 1056 2328 
Q 1056 1369 1301 889 
Q 1547 409 2034 409 
Q 2525 409 2770 889 
Q 3016 1369 3016 2328 
Q 3016 3291 2770 3770 
Q 2525 4250 2034 4250 
z
M 2034 4750 
Q 2819 4750 3233 4129 
Q 3647 3509 3647 2328 
Q 3647 1150 3233 529 
Q 2819 -91 2034 -91 
Q 1250 -91 836 529 
Q 422 1150 422 2328 
Q 422 3509 836 4129 
Q 1250 4750 2034 4750 
z
" transform="scale(0.015625)"/>
       </defs>
       <use xlink:href="#DejaVuSans-30"/>
      </g>
     </g>
    </g>
    <g id="xtick_2">
     <g id="line2d_3">
      <path d="M 160.042052 378.603418 
L 160.042052 35.965375 
" clip-path="url(#pd98fa7129c)" style="fill: none; stroke-dasharray: 2,8; stroke-dashoffset: 0; stroke: #cccccc; stroke-width: 2; stroke-linecap: round"/>
     </g>
     <g id="line2d_4"/>
     <g id="text_2">
      <!-- 10 -->
      <g transform="translate(152.407052 391.721543) scale(0.12 -0.12)">
       <defs>
        <path id="DejaVuSans-31" d="M 794 531 
L 1825 531 
L 1825 4091 
L 703 3866 
L 703 4441 
L 1819 4666 
L 2450 4666 
L 2450 531 
L 3481 531 
L 3481 0 
L 794 0 
L 794 531 
z
" transform="scale(0.015625)"/>
       </defs>
       <use xlink:href="#DejaVuSans-31"/>
       <use xlink:href="#DejaVuSans-30" x="63.623047"/>
      </g>
     </g>
    </g>
    <g id="xtick_3">
     <g id="line2d_5">
      <path d="M 241.098086 378.603418 
L 241.098086 35.965375 
" clip-path="url(#pd98fa7129c)" style="fill: none; stroke-dasharray: 2,8; stroke-dashoffset: 0; stroke: #cccccc; stroke-width: 2; stroke-linecap: round"/>
     </g>
     <g id="line2d_6"/>
     <g id="text_3">
      <!-- 20 -->
      <g transform="translate(233.463086 391.721543) scale(0.12 -0.12)">
       <defs>
        <path id="DejaVuSans-32" d="M 1228 531 
L 3431 531 
L 3431 0 
L 469 0 
L 469 531 
Q 828 903 1448 1529 
Q 2069 2156 2228 2338 
Q 2531 2678 2651 2914 
Q 2772 3150 2772 3378 
Q 2772 3750 2511 3984 
Q 2250 4219 1831 4219 
Q 1534 4219 1204 4116 
Q 875 4013 500 3803 
L 500 4441 
Q 881 4594 1212 4672 
Q 1544 4750 1819 4750 
Q 2544 4750 2975 4387 
Q 3406 4025 3406 3419 
Q 3406 3131 3298 2873 
Q 3191 2616 2906 2266 
Q 2828 2175 2409 1742 
Q 1991 1309 1228 531 
z
" transform="scale(0.015625)"/>
       </defs>
       <use xlink:href="#DejaVuSans-32"/>
       <use xlink:href="#DejaVuSans-30" x="63.623047"/>
      </g>
     </g>
    </g>
    <g id="xtick_4">
     <g id="line2d_7">
      <path d="M 322.15412 378.603418 
L 322.15412 35.965375 
" clip-path="url(#pd98fa7129c)" style="fill: none; stroke-dasharray: 2,8; stroke-dashoffset: 0; stroke: #cccccc; stroke-width: 2; stroke-linecap: round"/>
     </g>
     <g id="line2d_8"/>
     <g id="text_4">
      <!-- 30 -->
      <g transform="translate(314.51912 391.721543) scale(0.12 -0.12)">
       <defs>
        <path id="DejaVuSans-33" d="M 2597 2516 
Q 3050 2419 3304 2112 
Q 3559 1806 3559 1356 
Q 3559 666 3084 287 
Q 2609 -91 1734 -91 
Q 1441 -91 1130 -33 
Q 819 25 488 141 
L 488 750 
Q 750 597 1062 519 
Q 1375 441 1716 441 
Q 2309 441 2620 675 
Q 2931 909 2931 1356 
Q 2931 1769 2642 2001 
Q 2353 2234 1838 2234 
L 1294 2234 
L 1294 2753 
L 1863 2753 
Q 2328 2753 2575 2939 
Q 2822 3125 2822 3475 
Q 2822 3834 2567 4026 
Q 2313 4219 1838 4219 
Q 1578 4219 1281 4162 
Q 984 4106 628 3988 
L 628 4550 
Q 988 4650 1302 4700 
Q 1616 4750 1894 4750 
Q 2613 4750 3031 4423 
Q 3450 4097 3450 3541 
Q 3450 3153 3228 2886 
Q 3006 2619 2597 2516 
z
" transform="scale(0.015625)"/>
       </defs>
       <use xlink:href="#DejaVuSans-33"/>
       <use xlink:href="#DejaVuSans-30" x="63.623047"/>
      </g>
     </g>
    </g>
    <g id="xtick_5">
     <g id="line2d_9">
      <path d="M 403.210154 378.603418 
L 403.210154 35.965375 
" clip-path="url(#pd98fa7129c)" style="fill: none; stroke-dasharray: 2,8; stroke-dashoffset: 0; stroke: #cccccc; stroke-width: 2; stroke-linecap: round"/>
     </g>
     <g id="line2d_10"/>
     <g id="text_5">
      <!-- 40 -->
      <g transform="translate(395.575154 391.721543) scale(0.12 -0.12)">
       <defs>
        <path id="DejaVuSans-34" d="M 2419 4116 
L 825 1625 
L 2419 1625 
L 2419 4116 
z
M 2253 4666 
L 3047 4666 
L 3047 1625 
L 3713 1625 
L 3713 1100 
L 3047 1100 
L 3047 0 
L 2419 0 
L 2419 1100 
L 313 1100 
L 313 1709 
L 2253 4666 
z
" transform="scale(0.015625)"/>
       </defs>
       <use xlink:href="#DejaVuSans-34"/>
       <use xlink:href="#DejaVuSans-30" x="63.623047"/>
      </g>
     </g>
    </g>
    <g id="xtick_6">
     <g id="line2d_11">
      <path d="M 484.266188 378.603418 
L 484.266188 35.965375 
" clip-path="url(#pd98fa7129c)" style="fill: none; stroke-dasharray: 2,8; stroke-dashoffset: 0; stroke: #cccccc; stroke-width: 2; stroke-linecap: round"/>
     </g>
     <g id="line2d_12"/>
     <g id="text_6">
      <!-- 50 -->
      <g transform="translate(476.631188 391.721543) scale(0.12 -0.12)">
       <defs>
        <path id="DejaVuSans-35" d="M 691 4666 
L 3169 4666 
L 3169 4134 
L 1269 4134 
L 1269 2991 
Q 1406 3038 1543 3061 
Q 1681 3084 1819 3084 
Q 2600 3084 3056 2656 
Q 3513 2228 3513 1497 
Q 3513 744 3044 326 
Q 2575 -91 1722 -91 
Q 1428 -91 1123 -41 
Q 819 9 494 109 
L 494 744 
Q 775 591 1075 516 
Q 1375 441 1709 441 
Q 2250 441 2565 725 
Q 2881 1009 2881 1497 
Q 2881 1984 2565 2268 
Q 2250 2553 1709 2553 
Q 1456 2553 1204 2497 
Q 953 2441 691 2322 
L 691 4666 
z
" transform="scale(0.015625)"/>
       </defs>
       <use xlink:href="#DejaVuSans-35"/>
       <use xlink:href="#DejaVuSans-30" x="63.623047"/>
      </g>
     </g>
    </g>
    <g id="xtick_7">
     <g id="line2d_13">
      <path d="M 565.322222 378.603418 
L 565.322222 35.965375 
" clip-path="url(#pd98fa7129c)" style="fill: none; stroke-dasharray: 2,8; stroke-dashoffset: 0; stroke: #cccccc; stroke-width: 2; stroke-linecap: round"/>
     </g>
     <g id="line2d_14"/>
     <g id="text_7">
      <!-- 60 -->
      <g transform="translate(557.687222 391.721543) scale(0.12 -0.12)">
       <defs>
        <path id="DejaVuSans-36" d="M 2113 2584 
Q 1688 2584 1439 2293 
Q 1191 2003 1191 1497 
Q 1191 994 1439 701 
Q 1688 409 2113 409 
Q 2538 409 2786 701 
Q 3034 994 3034 1497 
Q 3034 2003 2786 2293 
Q 2538 2584 2113 2584 
z
M 3366 4563 
L 3366 3988 
Q 3128 4100 2886 4159 
Q 2644 4219 2406 4219 
Q 1781 4219 1451 3797 
Q 1122 3375 1075 2522 
Q 1259 2794 1537 2939 
Q 1816 3084 2150 3084 
Q 2853 3084 3261 2657 
Q 3669 2231 3669 1497 
Q 3669 778 3244 343 
Q 2819 -91 2113 -91 
Q 1303 -91 875 529 
Q 447 1150 447 2328 
Q 447 3434 972 4092 
Q 1497 4750 2381 4750 
Q 2619 4750 2861 4703 
Q 3103 4656 3366 4563 
z
" transform="scale(0.015625)"/>
       </defs>
       <use xlink:href="#DejaVuSans-36"/>
       <use xlink:href="#DejaVuSans-30" x="63.623047"/>
      </g>
     </g>
    </g>
    <g id="text_8">
     <!-- $X=x^2$ -->
     <g transform="translate(314.53875 411.335293) scale(0.12 -0.12)">
      <defs>
       <path id="DejaVuSans-Oblique-58" d="M 878 4666 
L 1516 4666 
L 2316 2981 
L 3763 4666 
L 4500 4666 
L 2578 2438 
L 3738 0 
L 3103 0 
L 2163 1966 
L 459 0 
L -275 0 
L 1906 2509 
L 878 4666 
z
" transform="scale(0.015625)"/>
       <path id="DejaVuSans-3d" d="M 678 2906 
L 4684 2906 
L 4684 2381 
L 678 2381 
L 678 2906 
z
M 678 1631 
L 4684 1631 
L 4684 1100 
L 678 1100 
L 678 1631 
z
" transform="scale(0.015625)"/>
       <path id="DejaVuSans-Oblique-78" d="M 3841 3500 
L 2234 1784 
L 3219 0 
L 2559 0 
L 1819 1388 
L 531 0 
L -166 0 
L 1556 1844 
L 641 3500 
L 1300 3500 
L 1972 2234 
L 3144 3500 
L 3841 3500 
z
" transform="scale(0.015625)"/>
      </defs>
      <use xlink:href="#DejaVuSans-Oblique-58" transform="translate(0 0.765625)"/>
      <use xlink:href="#DejaVuSans-3d" transform="translate(87.988281 0.765625)"/>
      <use xlink:href="#DejaVuSans-Oblique-78" transform="translate(191.259766 0.765625)"/>
      <use xlink:href="#DejaVuSans-32" transform="translate(254.905599 39.046875) scale(0.7)"/>
     </g>
    </g>
   </g>
   <g id="matplotlib.axis_2">
    <g id="ytick_1">
     <g id="line2d_15">
      <path d="M 53.71875 341.863988 
L 611.71875 341.863988 
" clip-path="url(#pd98fa7129c)" style="fill: none; stroke-dasharray: 2,8; stroke-dashoffset: 0; stroke: #cccccc; stroke-width: 2; stroke-linecap: round"/>
     </g>
     <g id="line2d_16"/>
     <g id="text_9">
      <!-- 100 -->
      <g transform="translate(26.81375 346.42305) scale(0.12 -0.12)">
       <use xlink:href="#DejaVuSans-31"/>
       <use xlink:href="#DejaVuSans-30" x="63.623047"/>
       <use xlink:href="#DejaVuSans-30" x="127.246094"/>
      </g>
     </g>
    </g>
    <g id="ytick_2">
     <g id="line2d_17">
      <path d="M 53.71875 294.011579 
L 611.71875 294.011579 
" clip-path="url(#pd98fa7129c)" style="fill: none; stroke-dasharray: 2,8; stroke-dashoffset: 0; stroke: #cccccc; stroke-width: 2; stroke-linecap: round"/>
     </g>
     <g id="line2d_18"/>
     <g id="text_10">
      <!-- 150 -->
      <g transform="translate(26.81375 298.570641) scale(0.12 -0.12)">
       <use xlink:href="#DejaVuSans-31"/>
       <use xlink:href="#DejaVuSans-35" x="63.623047"/>
       <use xlink:href="#DejaVuSans-30" x="127.246094"/>
      </g>
     </g>
    </g>
    <g id="ytick_3">
     <g id="line2d_19">
      <path d="M 53.71875 246.15917 
L 611.71875 246.15917 
" clip-path="url(#pd98fa7129c)" style="fill: none; stroke-dasharray: 2,8; stroke-dashoffset: 0; stroke: #cccccc; stroke-width: 2; stroke-linecap: round"/>
     </g>
     <g id="line2d_20"/>
     <g id="text_11">
      <!-- 200 -->
      <g transform="translate(26.81375 250.718233) scale(0.12 -0.12)">
       <use xlink:href="#DejaVuSans-32"/>
       <use xlink:href="#DejaVuSans-30" x="63.623047"/>
       <use xlink:href="#DejaVuSans-30" x="127.246094"/>
      </g>
     </g>
    </g>
    <g id="ytick_4">
     <g id="line2d_21">
      <path d="M 53.71875 198.306761 
L 611.71875 198.306761 
" clip-path="url(#pd98fa7129c)" style="fill: none; stroke-dasharray: 2,8; stroke-dashoffset: 0; stroke: #cccccc; stroke-width: 2; stroke-linecap: round"/>
     </g>
     <g id="line2d_22"/>
     <g id="text_12">
      <!-- 250 -->
      <g transform="translate(26.81375 202.865824) scale(0.12 -0.12)">
       <use xlink:href="#DejaVuSans-32"/>
       <use xlink:href="#DejaVuSans-35" x="63.623047"/>
       <use xlink:href="#DejaVuSans-30" x="127.246094"/>
      </g>
     </g>
    </g>
    <g id="ytick_5">
     <g id="line2d_23">
      <path d="M 53.71875 150.454353 
L 611.71875 150.454353 
" clip-path="url(#pd98fa7129c)" style="fill: none; stroke-dasharray: 2,8; stroke-dashoffset: 0; stroke: #cccccc; stroke-width: 2; stroke-linecap: round"/>
     </g>
     <g id="line2d_24"/>
     <g id="text_13">
      <!-- 300 -->
      <g transform="translate(26.81375 155.013415) scale(0.12 -0.12)">
       <use xlink:href="#DejaVuSans-33"/>
       <use xlink:href="#DejaVuSans-30" x="63.623047"/>
       <use xlink:href="#DejaVuSans-30" x="127.246094"/>
      </g>
     </g>
    </g>
    <g id="ytick_6">
     <g id="line2d_25">
      <path d="M 53.71875 102.601944 
L 611.71875 102.601944 
" clip-path="url(#pd98fa7129c)" style="fill: none; stroke-dasharray: 2,8; stroke-dashoffset: 0; stroke: #cccccc; stroke-width: 2; stroke-linecap: round"/>
     </g>
     <g id="line2d_26"/>
     <g id="text_14">
      <!-- 350 -->
      <g transform="translate(26.81375 107.161007) scale(0.12 -0.12)">
       <use xlink:href="#DejaVuSans-33"/>
       <use xlink:href="#DejaVuSans-35" x="63.623047"/>
       <use xlink:href="#DejaVuSans-30" x="127.246094"/>
      </g>
     </g>
    </g>
    <g id="ytick_7">
     <g id="line2d_27">
      <path d="M 53.71875 54.749535 
L 611.71875 54.749535 
" clip-path="url(#pd98fa7129c)" style="fill: none; stroke-dasharray: 2,8; stroke-dashoffset: 0; stroke: #cccccc; stroke-width: 2; stroke-linecap: round"/>
     </g>
     <g id="line2d_28"/>
     <g id="text_15">
      <!-- 400 -->
      <g transform="translate(26.81375 59.308598) scale(0.12 -0.12)">
       <use xlink:href="#DejaVuSans-34"/>
       <use xlink:href="#DejaVuSans-30" x="63.623047"/>
       <use xlink:href="#DejaVuSans-30" x="127.246094"/>
      </g>
     </g>
    </g>
    <g id="text_16">
     <!-- $Y=y$ -->
     <g transform="translate(16.29375 221.924397) rotate(-90) scale(0.12 -0.12)">
      <defs>
       <path id="DejaVuSans-Oblique-59" d="M 403 4666 
L 1081 4666 
L 1953 2747 
L 3616 4666 
L 4325 4666 
L 2209 2222 
L 1778 0 
L 1147 0 
L 1575 2222 
L 403 4666 
z
" transform="scale(0.015625)"/>
       <path id="DejaVuSans-Oblique-79" d="M 1588 -325 
Q 1188 -997 936 -1164 
Q 684 -1331 294 -1331 
L -159 -1331 
L -63 -850 
L 269 -850 
Q 509 -850 678 -719 
Q 847 -588 1056 -206 
L 1234 128 
L 459 3500 
L 1069 3500 
L 1650 819 
L 3256 3500 
L 3859 3500 
L 1588 -325 
z
" transform="scale(0.015625)"/>
      </defs>
      <use xlink:href="#DejaVuSans-Oblique-59" transform="translate(0 0.09375)"/>
      <use xlink:href="#DejaVuSans-3d" transform="translate(80.566406 0.09375)"/>
      <use xlink:href="#DejaVuSans-Oblique-79" transform="translate(183.837891 0.09375)"/>
     </g>
    </g>
   </g>
   <g id="line2d_29">
    <defs>
     <path id="m5458b04d7b" d="M 0 3 
C 0.795609 3 1.55874 2.683901 2.12132 2.12132 
C 2.683901 1.55874 3 0.795609 3 0 
C 3 -0.795609 2.683901 -1.55874 2.12132 -2.12132 
C 1.55874 -2.683901 0.795609 -3 0 -3 
C -0.795609 -3 -1.55874 -2.683901 -2.12132 -2.12132 
C -2.683901 -1.55874 -3 -0.795609 -3 0 
C -3 0.795609 -2.683901 1.55874 -2.12132 2.12132 
C -1.55874 2.683901 -0.795609 3 0 3 
z
" style="stroke: #1f77b4"/>
    </defs>
    <g clip-path="url(#pd98fa7129c)">
     <use xlink:href="#m5458b04d7b" x="147.198042" y="309.125944" style="fill: #1f77b4; stroke: #1f77b4"/>
     <use xlink:href="#m5458b04d7b" x="313.290392" y="216.699523" style="fill: #1f77b4; stroke: #1f77b4"/>
     <use xlink:href="#m5458b04d7b" x="117.610372" y="329.154351" style="fill: #1f77b4; stroke: #1f77b4"/>
     <use xlink:href="#m5458b04d7b" x="105.230437" y="345.239078" style="fill: #1f77b4; stroke: #1f77b4"/>
     <use xlink:href="#m5458b04d7b" x="79.082386" y="356.594901" style="fill: #1f77b4; stroke: #1f77b4"/>
     <use xlink:href="#m5458b04d7b" x="86.382511" y="344.390565" style="fill: #1f77b4; stroke: #1f77b4"/>
     <use xlink:href="#m5458b04d7b" x="81.648778" y="355.53299" style="fill: #1f77b4; stroke: #1f77b4"/>
     <use xlink:href="#m5458b04d7b" x="104.792588" y="337.678359" style="fill: #1f77b4; stroke: #1f77b4"/>
     <use xlink:href="#m5458b04d7b" x="101.037806" y="352.158309" style="fill: #1f77b4; stroke: #1f77b4"/>
     <use xlink:href="#m5458b04d7b" x="101.883886" y="339.196742" style="fill: #1f77b4; stroke: #1f77b4"/>
     <use xlink:href="#m5458b04d7b" x="580.734736" y="56.337934" style="fill: #1f77b4; stroke: #1f77b4"/>
     <use xlink:href="#m5458b04d7b" x="87.491316" y="352.229208" style="fill: #1f77b4; stroke: #1f77b4"/>
     <use xlink:href="#m5458b04d7b" x="297.814932" y="219.803502" style="fill: #1f77b4; stroke: #1f77b4"/>
     <use xlink:href="#m5458b04d7b" x="87.318337" y="328.245093" style="fill: #1f77b4; stroke: #1f77b4"/>
     <use xlink:href="#m5458b04d7b" x="391.580804" y="171.20606" style="fill: #1f77b4; stroke: #1f77b4"/>
     <use xlink:href="#m5458b04d7b" x="295.923353" y="225.386344" style="fill: #1f77b4; stroke: #1f77b4"/>
     <use xlink:href="#m5458b04d7b" x="276.48152" y="242.051157" style="fill: #1f77b4; stroke: #1f77b4"/>
     <use xlink:href="#m5458b04d7b" x="341.690442" y="201.907786" style="fill: #1f77b4; stroke: #1f77b4"/>
     <use xlink:href="#m5458b04d7b" x="136.95011" y="324.888508" style="fill: #1f77b4; stroke: #1f77b4"/>
     <use xlink:href="#m5458b04d7b" x="386.202821" y="170.023392" style="fill: #1f77b4; stroke: #1f77b4"/>
     <use xlink:href="#m5458b04d7b" x="469.870504" y="127.422071" style="fill: #1f77b4; stroke: #1f77b4"/>
     <use xlink:href="#m5458b04d7b" x="232.656772" y="259.295655" style="fill: #1f77b4; stroke: #1f77b4"/>
     <use xlink:href="#m5458b04d7b" x="142.910167" y="327.585048" style="fill: #1f77b4; stroke: #1f77b4"/>
     <use xlink:href="#m5458b04d7b" x="507.721812" y="98.104688" style="fill: #1f77b4; stroke: #1f77b4"/>
     <use xlink:href="#m5458b04d7b" x="118.880378" y="333.280288" style="fill: #1f77b4; stroke: #1f77b4"/>
     <use xlink:href="#m5458b04d7b" x="561.312191" y="67.650444" style="fill: #1f77b4; stroke: #1f77b4"/>
     <use xlink:href="#m5458b04d7b" x="172.859199" y="297.466756" style="fill: #1f77b4; stroke: #1f77b4"/>
     <use xlink:href="#m5458b04d7b" x="282.047086" y="227.055359" style="fill: #1f77b4; stroke: #1f77b4"/>
     <use xlink:href="#m5458b04d7b" x="104.146236" y="352.004361" style="fill: #1f77b4; stroke: #1f77b4"/>
     <use xlink:href="#m5458b04d7b" x="343.216519" y="201.893173" style="fill: #1f77b4; stroke: #1f77b4"/>
     <use xlink:href="#m5458b04d7b" x="143.638869" y="320.470097" style="fill: #1f77b4; stroke: #1f77b4"/>
     <use xlink:href="#m5458b04d7b" x="196.957629" y="288.543601" style="fill: #1f77b4; stroke: #1f77b4"/>
     <use xlink:href="#m5458b04d7b" x="114.98841" y="338.295698" style="fill: #1f77b4; stroke: #1f77b4"/>
     <use xlink:href="#m5458b04d7b" x="90.249468" y="339.585986" style="fill: #1f77b4; stroke: #1f77b4"/>
     <use xlink:href="#m5458b04d7b" x="443.171863" y="125.412431" style="fill: #1f77b4; stroke: #1f77b4"/>
     <use xlink:href="#m5458b04d7b" x="103.452888" y="346.174076" style="fill: #1f77b4; stroke: #1f77b4"/>
     <use xlink:href="#m5458b04d7b" x="200.608" y="283.061482" style="fill: #1f77b4; stroke: #1f77b4"/>
     <use xlink:href="#m5458b04d7b" x="139.008623" y="322.123377" style="fill: #1f77b4; stroke: #1f77b4"/>
     <use xlink:href="#m5458b04d7b" x="586.355114" y="51.539832" style="fill: #1f77b4; stroke: #1f77b4"/>
     <use xlink:href="#m5458b04d7b" x="179.243024" y="296.649398" style="fill: #1f77b4; stroke: #1f77b4"/>
     <use xlink:href="#m5458b04d7b" x="85.32248" y="341.458229" style="fill: #1f77b4; stroke: #1f77b4"/>
     <use xlink:href="#m5458b04d7b" x="143.445167" y="317.588011" style="fill: #1f77b4; stroke: #1f77b4"/>
     <use xlink:href="#m5458b04d7b" x="500.492505" y="105.079533" style="fill: #1f77b4; stroke: #1f77b4"/>
     <use xlink:href="#m5458b04d7b" x="173.161209" y="292.609181" style="fill: #1f77b4; stroke: #1f77b4"/>
     <use xlink:href="#m5458b04d7b" x="475.44942" y="107.936386" style="fill: #1f77b4; stroke: #1f77b4"/>
     <use xlink:href="#m5458b04d7b" x="327.278345" y="204.680998" style="fill: #1f77b4; stroke: #1f77b4"/>
     <use xlink:href="#m5458b04d7b" x="388.327482" y="161.687852" style="fill: #1f77b4; stroke: #1f77b4"/>
     <use xlink:href="#m5458b04d7b" x="80.957818" y="358.253914" style="fill: #1f77b4; stroke: #1f77b4"/>
     <use xlink:href="#m5458b04d7b" x="100.25014" y="340.371649" style="fill: #1f77b4; stroke: #1f77b4"/>
     <use xlink:href="#m5458b04d7b" x="86.881937" y="343.438605" style="fill: #1f77b4; stroke: #1f77b4"/>
     <use xlink:href="#m5458b04d7b" x="508.652854" y="86.325451" style="fill: #1f77b4; stroke: #1f77b4"/>
     <use xlink:href="#m5458b04d7b" x="222.23286" y="272.399612" style="fill: #1f77b4; stroke: #1f77b4"/>
     <use xlink:href="#m5458b04d7b" x="365.849325" y="178.782475" style="fill: #1f77b4; stroke: #1f77b4"/>
     <use xlink:href="#m5458b04d7b" x="243.474817" y="255.518564" style="fill: #1f77b4; stroke: #1f77b4"/>
     <use xlink:href="#m5458b04d7b" x="81.928933" y="346.345516" style="fill: #1f77b4; stroke: #1f77b4"/>
     <use xlink:href="#m5458b04d7b" x="132.12776" y="321.237194" style="fill: #1f77b4; stroke: #1f77b4"/>
     <use xlink:href="#m5458b04d7b" x="385.791695" y="181.391987" style="fill: #1f77b4; stroke: #1f77b4"/>
     <use xlink:href="#m5458b04d7b" x="523.598468" y="94.86591" style="fill: #1f77b4; stroke: #1f77b4"/>
     <use xlink:href="#m5458b04d7b" x="452.647762" y="137.223665" style="fill: #1f77b4; stroke: #1f77b4"/>
     <use xlink:href="#m5458b04d7b" x="439.973831" y="144.607363" style="fill: #1f77b4; stroke: #1f77b4"/>
     <use xlink:href="#m5458b04d7b" x="157.459346" y="305.683153" style="fill: #1f77b4; stroke: #1f77b4"/>
     <use xlink:href="#m5458b04d7b" x="402.21165" y="173.747449" style="fill: #1f77b4; stroke: #1f77b4"/>
     <use xlink:href="#m5458b04d7b" x="256.640737" y="254.679621" style="fill: #1f77b4; stroke: #1f77b4"/>
     <use xlink:href="#m5458b04d7b" x="428.81646" y="146.953598" style="fill: #1f77b4; stroke: #1f77b4"/>
     <use xlink:href="#m5458b04d7b" x="312.135013" y="204.984118" style="fill: #1f77b4; stroke: #1f77b4"/>
     <use xlink:href="#m5458b04d7b" x="82.115669" y="340.718346" style="fill: #1f77b4; stroke: #1f77b4"/>
     <use xlink:href="#m5458b04d7b" x="80.060415" y="357.502054" style="fill: #1f77b4; stroke: #1f77b4"/>
     <use xlink:href="#m5458b04d7b" x="148.904024" y="323.028074" style="fill: #1f77b4; stroke: #1f77b4"/>
     <use xlink:href="#m5458b04d7b" x="83.809093" y="356.154227" style="fill: #1f77b4; stroke: #1f77b4"/>
     <use xlink:href="#m5458b04d7b" x="104.26173" y="345.058886" style="fill: #1f77b4; stroke: #1f77b4"/>
     <use xlink:href="#m5458b04d7b" x="219.808874" y="280.430792" style="fill: #1f77b4; stroke: #1f77b4"/>
     <use xlink:href="#m5458b04d7b" x="294.948982" y="217.282197" style="fill: #1f77b4; stroke: #1f77b4"/>
     <use xlink:href="#m5458b04d7b" x="306.558624" y="223.88841" style="fill: #1f77b4; stroke: #1f77b4"/>
     <use xlink:href="#m5458b04d7b" x="522.194213" y="101.280145" style="fill: #1f77b4; stroke: #1f77b4"/>
     <use xlink:href="#m5458b04d7b" x="130.981345" y="330.906653" style="fill: #1f77b4; stroke: #1f77b4"/>
     <use xlink:href="#m5458b04d7b" x="520.861222" y="79.709109" style="fill: #1f77b4; stroke: #1f77b4"/>
     <use xlink:href="#m5458b04d7b" x="246.240898" y="249.0703" style="fill: #1f77b4; stroke: #1f77b4"/>
     <use xlink:href="#m5458b04d7b" x="122.168302" y="332.397843" style="fill: #1f77b4; stroke: #1f77b4"/>
     <use xlink:href="#m5458b04d7b" x="144.414063" y="317.08344" style="fill: #1f77b4; stroke: #1f77b4"/>
     <use xlink:href="#m5458b04d7b" x="79.778912" y="351.698088" style="fill: #1f77b4; stroke: #1f77b4"/>
     <use xlink:href="#m5458b04d7b" x="453.181081" y="133.498511" style="fill: #1f77b4; stroke: #1f77b4"/>
     <use xlink:href="#m5458b04d7b" x="566.395143" y="75.242407" style="fill: #1f77b4; stroke: #1f77b4"/>
     <use xlink:href="#m5458b04d7b" x="86.487011" y="342.408071" style="fill: #1f77b4; stroke: #1f77b4"/>
     <use xlink:href="#m5458b04d7b" x="407.137044" y="164.331656" style="fill: #1f77b4; stroke: #1f77b4"/>
     <use xlink:href="#m5458b04d7b" x="80.024187" y="340.502084" style="fill: #1f77b4; stroke: #1f77b4"/>
     <use xlink:href="#m5458b04d7b" x="82.545941" y="359.998227" style="fill: #1f77b4; stroke: #1f77b4"/>
     <use xlink:href="#m5458b04d7b" x="544.720729" y="89.365838" style="fill: #1f77b4; stroke: #1f77b4"/>
     <use xlink:href="#m5458b04d7b" x="265.63104" y="237.004424" style="fill: #1f77b4; stroke: #1f77b4"/>
     <use xlink:href="#m5458b04d7b" x="331.114488" y="217.243977" style="fill: #1f77b4; stroke: #1f77b4"/>
     <use xlink:href="#m5458b04d7b" x="80.655312" y="363.028962" style="fill: #1f77b4; stroke: #1f77b4"/>
     <use xlink:href="#m5458b04d7b" x="529.25166" y="86.613538" style="fill: #1f77b4; stroke: #1f77b4"/>
     <use xlink:href="#m5458b04d7b" x="146.189847" y="305.527081" style="fill: #1f77b4; stroke: #1f77b4"/>
     <use xlink:href="#m5458b04d7b" x="188.435277" y="289.456168" style="fill: #1f77b4; stroke: #1f77b4"/>
     <use xlink:href="#m5458b04d7b" x="120.235984" y="331.03064" style="fill: #1f77b4; stroke: #1f77b4"/>
     <use xlink:href="#m5458b04d7b" x="80.539369" y="346.402006" style="fill: #1f77b4; stroke: #1f77b4"/>
     <use xlink:href="#m5458b04d7b" x="125.738498" y="330.332634" style="fill: #1f77b4; stroke: #1f77b4"/>
     <use xlink:href="#m5458b04d7b" x="106.330976" y="332.742241" style="fill: #1f77b4; stroke: #1f77b4"/>
     <use xlink:href="#m5458b04d7b" x="216.383258" y="293.023712" style="fill: #1f77b4; stroke: #1f77b4"/>
     <use xlink:href="#m5458b04d7b" x="117.276848" y="322.747913" style="fill: #1f77b4; stroke: #1f77b4"/>
     <use xlink:href="#m5458b04d7b" x="202.042136" y="268.769431" style="fill: #1f77b4; stroke: #1f77b4"/>
    </g>
   </g>
   <g id="patch_3">
    <path d="M 53.71875 378.603418 
L 53.71875 35.965375 
" style="fill: none; stroke: #cccccc; stroke-width: 2; stroke-linejoin: miter; stroke-linecap: square"/>
   </g>
   <g id="patch_4">
    <path d="M 611.71875 378.603418 
L 611.71875 35.965375 
" style="fill: none; stroke: #cccccc; stroke-width: 2; stroke-linejoin: miter; stroke-linecap: square"/>
   </g>
   <g id="patch_5">
    <path d="M 53.71875 378.603418 
L 611.71875 378.603418 
" style="fill: none; stroke: #cccccc; stroke-width: 2; stroke-linejoin: miter; stroke-linecap: square"/>
   </g>
   <g id="patch_6">
    <path d="M 53.71875 35.965375 
L 611.71875 35.965375 
" style="fill: none; stroke: #cccccc; stroke-width: 2; stroke-linejoin: miter; stroke-linecap: square"/>
   </g>
   <g id="text_17">
    <!-- Linear trend -->
    <g transform="translate(281.560125 19.965375) scale(0.168 -0.168)">
     <defs>
      <path id="DejaVuSans-4c" d="M 628 4666 
L 1259 4666 
L 1259 531 
L 3531 531 
L 3531 0 
L 628 0 
L 628 4666 
z
" transform="scale(0.015625)"/>
      <path id="DejaVuSans-69" d="M 603 3500 
L 1178 3500 
L 1178 0 
L 603 0 
L 603 3500 
z
M 603 4863 
L 1178 4863 
L 1178 4134 
L 603 4134 
L 603 4863 
z
" transform="scale(0.015625)"/>
      <path id="DejaVuSans-6e" d="M 3513 2113 
L 3513 0 
L 2938 0 
L 2938 2094 
Q 2938 2591 2744 2837 
Q 2550 3084 2163 3084 
Q 1697 3084 1428 2787 
Q 1159 2491 1159 1978 
L 1159 0 
L 581 0 
L 581 3500 
L 1159 3500 
L 1159 2956 
Q 1366 3272 1645 3428 
Q 1925 3584 2291 3584 
Q 2894 3584 3203 3211 
Q 3513 2838 3513 2113 
z
" transform="scale(0.015625)"/>
      <path id="DejaVuSans-65" d="M 3597 1894 
L 3597 1613 
L 953 1613 
Q 991 1019 1311 708 
Q 1631 397 2203 397 
Q 2534 397 2845 478 
Q 3156 559 3463 722 
L 3463 178 
Q 3153 47 2828 -22 
Q 2503 -91 2169 -91 
Q 1331 -91 842 396 
Q 353 884 353 1716 
Q 353 2575 817 3079 
Q 1281 3584 2069 3584 
Q 2775 3584 3186 3129 
Q 3597 2675 3597 1894 
z
M 3022 2063 
Q 3016 2534 2758 2815 
Q 2500 3097 2075 3097 
Q 1594 3097 1305 2825 
Q 1016 2553 972 2059 
L 3022 2063 
z
" transform="scale(0.015625)"/>
      <path id="DejaVuSans-61" d="M 2194 1759 
Q 1497 1759 1228 1600 
Q 959 1441 959 1056 
Q 959 750 1161 570 
Q 1363 391 1709 391 
Q 2188 391 2477 730 
Q 2766 1069 2766 1631 
L 2766 1759 
L 2194 1759 
z
M 3341 1997 
L 3341 0 
L 2766 0 
L 2766 531 
Q 2569 213 2275 61 
Q 1981 -91 1556 -91 
Q 1019 -91 701 211 
Q 384 513 384 1019 
Q 384 1609 779 1909 
Q 1175 2209 1959 2209 
L 2766 2209 
L 2766 2266 
Q 2766 2663 2505 2880 
Q 2244 3097 1772 3097 
Q 1472 3097 1187 3025 
Q 903 2953 641 2809 
L 641 3341 
Q 956 3463 1253 3523 
Q 1550 3584 1831 3584 
Q 2591 3584 2966 3190 
Q 3341 2797 3341 1997 
z
" transform="scale(0.015625)"/>
      <path id="DejaVuSans-72" d="M 2631 2963 
Q 2534 3019 2420 3045 
Q 2306 3072 2169 3072 
Q 1681 3072 1420 2755 
Q 1159 2438 1159 1844 
L 1159 0 
L 581 0 
L 581 3500 
L 1159 3500 
L 1159 2956 
Q 1341 3275 1631 3429 
Q 1922 3584 2338 3584 
Q 2397 3584 2469 3576 
Q 2541 3569 2628 3553 
L 2631 2963 
z
" transform="scale(0.015625)"/>
      <path id="DejaVuSans-20" transform="scale(0.015625)"/>
      <path id="DejaVuSans-74" d="M 1172 4494 
L 1172 3500 
L 2356 3500 
L 2356 3053 
L 1172 3053 
L 1172 1153 
Q 1172 725 1289 603 
Q 1406 481 1766 481 
L 2356 481 
L 2356 0 
L 1766 0 
Q 1100 0 847 248 
Q 594 497 594 1153 
L 594 3053 
L 172 3053 
L 172 3500 
L 594 3500 
L 594 4494 
L 1172 4494 
z
" transform="scale(0.015625)"/>
      <path id="DejaVuSans-64" d="M 2906 2969 
L 2906 4863 
L 3481 4863 
L 3481 0 
L 2906 0 
L 2906 525 
Q 2725 213 2448 61 
Q 2172 -91 1784 -91 
Q 1150 -91 751 415 
Q 353 922 353 1747 
Q 353 2572 751 3078 
Q 1150 3584 1784 3584 
Q 2172 3584 2448 3432 
Q 2725 3281 2906 2969 
z
M 947 1747 
Q 947 1113 1208 752 
Q 1469 391 1925 391 
Q 2381 391 2643 752 
Q 2906 1113 2906 1747 
Q 2906 2381 2643 2742 
Q 2381 3103 1925 3103 
Q 1469 3103 1208 2742 
Q 947 2381 947 1747 
z
" transform="scale(0.015625)"/>
     </defs>
     <use xlink:href="#DejaVuSans-4c"/>
     <use xlink:href="#DejaVuSans-69" x="55.712891"/>
     <use xlink:href="#DejaVuSans-6e" x="83.496094"/>
     <use xlink:href="#DejaVuSans-65" x="146.875"/>
     <use xlink:href="#DejaVuSans-61" x="208.398438"/>
     <use xlink:href="#DejaVuSans-72" x="269.677734"/>
     <use xlink:href="#DejaVuSans-20" x="310.791016"/>
     <use xlink:href="#DejaVuSans-74" x="342.578125"/>
     <use xlink:href="#DejaVuSans-72" x="381.787109"/>
     <use xlink:href="#DejaVuSans-65" x="420.650391"/>
     <use xlink:href="#DejaVuSans-6e" x="482.173828"/>
     <use xlink:href="#DejaVuSans-64" x="545.552734"/>
    </g>
   </g>
  </g>
 </g>
 <defs>
  <clipPath id="pd98fa7129c">
   <rect x="53.71875" y="35.965375" width="558" height="342.638043"/>
  </clipPath>
 </defs>
</svg>
