<?xml version="1.0" encoding="utf-8" standalone="no"?>
<!DOCTYPE svg PUBLIC "-//W3C//DTD SVG 1.1//EN"
  "http://www.w3.org/Graphics/SVG/1.1/DTD/svg11.dtd">
<svg xmlns:xlink="http://www.w3.org/1999/xlink" width="622.7325pt" height="421.030918pt" viewBox="0 0 622.7325 421.030918" xmlns="http://www.w3.org/2000/svg" version="1.1">
 <metadata>
  <rdf:RDF xmlns:dc="http://purl.org/dc/elements/1.1/" xmlns:cc="http://creativecommons.org/ns#" xmlns:rdf="http://www.w3.org/1999/02/22-rdf-syntax-ns#">
   <cc:Work>
    <dc:type rdf:resource="http://purl.org/dc/dcmitype/StillImage"/>
    <dc:date>2023-10-25T18:46:32.528299</dc:date>
    <dc:format>image/svg+xml</dc:format>
    <dc:creator>
     <cc:Agent>
      <dc:title>Matplotlib v3.8.0, https://matplotlib.org/</dc:title>
     </cc:Agent>
    </dc:creator>
   </cc:Work>
  </rdf:RDF>
 </metadata>
 <defs>
  <style type="text/css">*{stroke-linejoin: round; stroke-linecap: butt}</style>
 </defs>
 <g id="figure_1">
  <g id="patch_1">
   <path d="M 0 421.030918 
L 622.7325 421.030918 
L 622.7325 0 
L 0 0 
z
" style="fill: #ffffff"/>
  </g>
  <g id="axes_1">
   <g id="patch_2">
    <path d="M 57.5325 378.603418 
L 615.5325 378.603418 
L 615.5325 35.965375 
L 57.5325 35.965375 
z
" style="fill: #ffffff"/>
   </g>
   <g id="matplotlib.axis_1">
    <g id="xtick_1">
     <g id="line2d_1">
      <path d="M 68.127531 378.603418 
L 68.127531 35.965375 
" clip-path="url(#pd6c0aaba84)" style="fill: none; stroke-dasharray: 2,8; stroke-dashoffset: 0; stroke: #cccccc; stroke-width: 2; stroke-linecap: round"/>
     </g>
     <g id="line2d_2"/>
     <g id="text_1">
      <!-- 0.2 -->
      <g transform="translate(58.585656 391.721543) scale(0.12 -0.12)">
       <defs>
        <path id="DejaVuSans-30" d="M 2034 4250 
Q 1547 4250 1301 3770 
Q 1056 3291 1056 2328 
Q 1056 1369 1301 889 
Q 1547 409 2034 409 
Q 2525 409 2770 889 
Q 3016 1369 3016 2328 
Q 3016 3291 2770 3770 
Q 2525 4250 2034 4250 
z
M 2034 4750 
Q 2819 4750 3233 4129 
Q 3647 3509 3647 2328 
Q 3647 1150 3233 529 
Q 2819 -91 2034 -91 
Q 1250 -91 836 529 
Q 422 1150 422 2328 
Q 422 3509 836 4129 
Q 1250 4750 2034 4750 
z
" transform="scale(0.015625)"/>
        <path id="DejaVuSans-2e" d="M 684 794 
L 1344 794 
L 1344 0 
L 684 0 
L 684 794 
z
" transform="scale(0.015625)"/>
        <path id="DejaVuSans-32" d="M 1228 531 
L 3431 531 
L 3431 0 
L 469 0 
L 469 531 
Q 828 903 1448 1529 
Q 2069 2156 2228 2338 
Q 2531 2678 2651 2914 
Q 2772 3150 2772 3378 
Q 2772 3750 2511 3984 
Q 2250 4219 1831 4219 
Q 1534 4219 1204 4116 
Q 875 4013 500 3803 
L 500 4441 
Q 881 4594 1212 4672 
Q 1544 4750 1819 4750 
Q 2544 4750 2975 4387 
Q 3406 4025 3406 3419 
Q 3406 3131 3298 2873 
Q 3191 2616 2906 2266 
Q 2828 2175 2409 1742 
Q 1991 1309 1228 531 
z
" transform="scale(0.015625)"/>
       </defs>
       <use xlink:href="#DejaVuSans-30"/>
       <use xlink:href="#DejaVuSans-2e" x="63.623047"/>
       <use xlink:href="#DejaVuSans-32" x="95.410156"/>
      </g>
     </g>
    </g>
    <g id="xtick_2">
     <g id="line2d_3">
      <path d="M 155.6202 378.603418 
L 155.6202 35.965375 
" clip-path="url(#pd6c0aaba84)" style="fill: none; stroke-dasharray: 2,8; stroke-dashoffset: 0; stroke: #cccccc; stroke-width: 2; stroke-linecap: round"/>
     </g>
     <g id="line2d_4"/>
     <g id="text_2">
      <!-- 0.3 -->
      <g transform="translate(146.078325 391.721543) scale(0.12 -0.12)">
       <defs>
        <path id="DejaVuSans-33" d="M 2597 2516 
Q 3050 2419 3304 2112 
Q 3559 1806 3559 1356 
Q 3559 666 3084 287 
Q 2609 -91 1734 -91 
Q 1441 -91 1130 -33 
Q 819 25 488 141 
L 488 750 
Q 750 597 1062 519 
Q 1375 441 1716 441 
Q 2309 441 2620 675 
Q 2931 909 2931 1356 
Q 2931 1769 2642 2001 
Q 2353 2234 1838 2234 
L 1294 2234 
L 1294 2753 
L 1863 2753 
Q 2328 2753 2575 2939 
Q 2822 3125 2822 3475 
Q 2822 3834 2567 4026 
Q 2313 4219 1838 4219 
Q 1578 4219 1281 4162 
Q 984 4106 628 3988 
L 628 4550 
Q 988 4650 1302 4700 
Q 1616 4750 1894 4750 
Q 2613 4750 3031 4423 
Q 3450 4097 3450 3541 
Q 3450 3153 3228 2886 
Q 3006 2619 2597 2516 
z
" transform="scale(0.015625)"/>
       </defs>
       <use xlink:href="#DejaVuSans-30"/>
       <use xlink:href="#DejaVuSans-2e" x="63.623047"/>
       <use xlink:href="#DejaVuSans-33" x="95.410156"/>
      </g>
     </g>
    </g>
    <g id="xtick_3">
     <g id="line2d_5">
      <path d="M 243.112869 378.603418 
L 243.112869 35.965375 
" clip-path="url(#pd6c0aaba84)" style="fill: none; stroke-dasharray: 2,8; stroke-dashoffset: 0; stroke: #cccccc; stroke-width: 2; stroke-linecap: round"/>
     </g>
     <g id="line2d_6"/>
     <g id="text_3">
      <!-- 0.4 -->
      <g transform="translate(233.570994 391.721543) scale(0.12 -0.12)">
       <defs>
        <path id="DejaVuSans-34" d="M 2419 4116 
L 825 1625 
L 2419 1625 
L 2419 4116 
z
M 2253 4666 
L 3047 4666 
L 3047 1625 
L 3713 1625 
L 3713 1100 
L 3047 1100 
L 3047 0 
L 2419 0 
L 2419 1100 
L 313 1100 
L 313 1709 
L 2253 4666 
z
" transform="scale(0.015625)"/>
       </defs>
       <use xlink:href="#DejaVuSans-30"/>
       <use xlink:href="#DejaVuSans-2e" x="63.623047"/>
       <use xlink:href="#DejaVuSans-34" x="95.410156"/>
      </g>
     </g>
    </g>
    <g id="xtick_4">
     <g id="line2d_7">
      <path d="M 330.605538 378.603418 
L 330.605538 35.965375 
" clip-path="url(#pd6c0aaba84)" style="fill: none; stroke-dasharray: 2,8; stroke-dashoffset: 0; stroke: #cccccc; stroke-width: 2; stroke-linecap: round"/>
     </g>
     <g id="line2d_8"/>
     <g id="text_4">
      <!-- 0.5 -->
      <g transform="translate(321.063663 391.721543) scale(0.12 -0.12)">
       <defs>
        <path id="DejaVuSans-35" d="M 691 4666 
L 3169 4666 
L 3169 4134 
L 1269 4134 
L 1269 2991 
Q 1406 3038 1543 3061 
Q 1681 3084 1819 3084 
Q 2600 3084 3056 2656 
Q 3513 2228 3513 1497 
Q 3513 744 3044 326 
Q 2575 -91 1722 -91 
Q 1428 -91 1123 -41 
Q 819 9 494 109 
L 494 744 
Q 775 591 1075 516 
Q 1375 441 1709 441 
Q 2250 441 2565 725 
Q 2881 1009 2881 1497 
Q 2881 1984 2565 2268 
Q 2250 2553 1709 2553 
Q 1456 2553 1204 2497 
Q 953 2441 691 2322 
L 691 4666 
z
" transform="scale(0.015625)"/>
       </defs>
       <use xlink:href="#DejaVuSans-30"/>
       <use xlink:href="#DejaVuSans-2e" x="63.623047"/>
       <use xlink:href="#DejaVuSans-35" x="95.410156"/>
      </g>
     </g>
    </g>
    <g id="xtick_5">
     <g id="line2d_9">
      <path d="M 418.098207 378.603418 
L 418.098207 35.965375 
" clip-path="url(#pd6c0aaba84)" style="fill: none; stroke-dasharray: 2,8; stroke-dashoffset: 0; stroke: #cccccc; stroke-width: 2; stroke-linecap: round"/>
     </g>
     <g id="line2d_10"/>
     <g id="text_5">
      <!-- 0.6 -->
      <g transform="translate(408.556332 391.721543) scale(0.12 -0.12)">
       <defs>
        <path id="DejaVuSans-36" d="M 2113 2584 
Q 1688 2584 1439 2293 
Q 1191 2003 1191 1497 
Q 1191 994 1439 701 
Q 1688 409 2113 409 
Q 2538 409 2786 701 
Q 3034 994 3034 1497 
Q 3034 2003 2786 2293 
Q 2538 2584 2113 2584 
z
M 3366 4563 
L 3366 3988 
Q 3128 4100 2886 4159 
Q 2644 4219 2406 4219 
Q 1781 4219 1451 3797 
Q 1122 3375 1075 2522 
Q 1259 2794 1537 2939 
Q 1816 3084 2150 3084 
Q 2853 3084 3261 2657 
Q 3669 2231 3669 1497 
Q 3669 778 3244 343 
Q 2819 -91 2113 -91 
Q 1303 -91 875 529 
Q 447 1150 447 2328 
Q 447 3434 972 4092 
Q 1497 4750 2381 4750 
Q 2619 4750 2861 4703 
Q 3103 4656 3366 4563 
z
" transform="scale(0.015625)"/>
       </defs>
       <use xlink:href="#DejaVuSans-30"/>
       <use xlink:href="#DejaVuSans-2e" x="63.623047"/>
       <use xlink:href="#DejaVuSans-36" x="95.410156"/>
      </g>
     </g>
    </g>
    <g id="xtick_6">
     <g id="line2d_11">
      <path d="M 505.590876 378.603418 
L 505.590876 35.965375 
" clip-path="url(#pd6c0aaba84)" style="fill: none; stroke-dasharray: 2,8; stroke-dashoffset: 0; stroke: #cccccc; stroke-width: 2; stroke-linecap: round"/>
     </g>
     <g id="line2d_12"/>
     <g id="text_6">
      <!-- 0.7 -->
      <g transform="translate(496.049001 391.721543) scale(0.12 -0.12)">
       <defs>
        <path id="DejaVuSans-37" d="M 525 4666 
L 3525 4666 
L 3525 4397 
L 1831 0 
L 1172 0 
L 2766 4134 
L 525 4134 
L 525 4666 
z
" transform="scale(0.015625)"/>
       </defs>
       <use xlink:href="#DejaVuSans-30"/>
       <use xlink:href="#DejaVuSans-2e" x="63.623047"/>
       <use xlink:href="#DejaVuSans-37" x="95.410156"/>
      </g>
     </g>
    </g>
    <g id="xtick_7">
     <g id="line2d_13">
      <path d="M 593.083545 378.603418 
L 593.083545 35.965375 
" clip-path="url(#pd6c0aaba84)" style="fill: none; stroke-dasharray: 2,8; stroke-dashoffset: 0; stroke: #cccccc; stroke-width: 2; stroke-linecap: round"/>
     </g>
     <g id="line2d_14"/>
     <g id="text_7">
      <!-- 0.8 -->
      <g transform="translate(583.54167 391.721543) scale(0.12 -0.12)">
       <defs>
        <path id="DejaVuSans-38" d="M 2034 2216 
Q 1584 2216 1326 1975 
Q 1069 1734 1069 1313 
Q 1069 891 1326 650 
Q 1584 409 2034 409 
Q 2484 409 2743 651 
Q 3003 894 3003 1313 
Q 3003 1734 2745 1975 
Q 2488 2216 2034 2216 
z
M 1403 2484 
Q 997 2584 770 2862 
Q 544 3141 544 3541 
Q 544 4100 942 4425 
Q 1341 4750 2034 4750 
Q 2731 4750 3128 4425 
Q 3525 4100 3525 3541 
Q 3525 3141 3298 2862 
Q 3072 2584 2669 2484 
Q 3125 2378 3379 2068 
Q 3634 1759 3634 1313 
Q 3634 634 3220 271 
Q 2806 -91 2034 -91 
Q 1263 -91 848 271 
Q 434 634 434 1313 
Q 434 1759 690 2068 
Q 947 2378 1403 2484 
z
M 1172 3481 
Q 1172 3119 1398 2916 
Q 1625 2713 2034 2713 
Q 2441 2713 2670 2916 
Q 2900 3119 2900 3481 
Q 2900 3844 2670 4047 
Q 2441 4250 2034 4250 
Q 1625 4250 1398 4047 
Q 1172 3844 1172 3481 
z
" transform="scale(0.015625)"/>
       </defs>
       <use xlink:href="#DejaVuSans-30"/>
       <use xlink:href="#DejaVuSans-2e" x="63.623047"/>
       <use xlink:href="#DejaVuSans-38" x="95.410156"/>
      </g>
     </g>
    </g>
    <g id="text_8">
     <!-- $S$ -->
     <g transform="translate(332.6925 411.335293) scale(0.12 -0.12)">
      <defs>
       <path id="DejaVuSans-Oblique-53" d="M 3859 4513 
L 3738 3897 
Q 3422 4066 3111 4152 
Q 2800 4238 2509 4238 
Q 1944 4238 1609 3991 
Q 1275 3744 1275 3334 
Q 1275 3109 1398 2989 
Q 1522 2869 2034 2731 
L 2413 2638 
Q 3053 2472 3303 2217 
Q 3553 1963 3553 1503 
Q 3553 797 2998 353 
Q 2444 -91 1538 -91 
Q 1166 -91 791 -17 
Q 416 56 38 206 
L 166 856 
Q 513 641 861 531 
Q 1209 422 1556 422 
Q 2147 422 2503 684 
Q 2859 947 2859 1369 
Q 2859 1650 2717 1795 
Q 2575 1941 2106 2059 
L 1728 2156 
Q 1081 2325 845 2545 
Q 609 2766 609 3163 
Q 609 3859 1145 4304 
Q 1681 4750 2541 4750 
Q 2875 4750 3203 4690 
Q 3531 4631 3859 4513 
z
" transform="scale(0.015625)"/>
      </defs>
      <use xlink:href="#DejaVuSans-Oblique-53" transform="translate(0 0.78125)"/>
     </g>
    </g>
   </g>
   <g id="matplotlib.axis_2">
    <g id="ytick_1">
     <g id="line2d_15">
      <path d="M 57.5325 329.074255 
L 615.5325 329.074255 
" clip-path="url(#pd6c0aaba84)" style="fill: none; stroke-dasharray: 2,8; stroke-dashoffset: 0; stroke: #cccccc; stroke-width: 2; stroke-linecap: round"/>
     </g>
     <g id="line2d_16"/>
     <g id="text_9">
      <!-- 0.06 -->
      <g transform="translate(26.81375 333.633317) scale(0.12 -0.12)">
       <use xlink:href="#DejaVuSans-30"/>
       <use xlink:href="#DejaVuSans-2e" x="63.623047"/>
       <use xlink:href="#DejaVuSans-30" x="95.410156"/>
       <use xlink:href="#DejaVuSans-36" x="159.033203"/>
      </g>
     </g>
    </g>
    <g id="ytick_2">
     <g id="line2d_17">
      <path d="M 57.5325 278.067484 
L 615.5325 278.067484 
" clip-path="url(#pd6c0aaba84)" style="fill: none; stroke-dasharray: 2,8; stroke-dashoffset: 0; stroke: #cccccc; stroke-width: 2; stroke-linecap: round"/>
     </g>
     <g id="line2d_18"/>
     <g id="text_10">
      <!-- 0.07 -->
      <g transform="translate(26.81375 282.626547) scale(0.12 -0.12)">
       <use xlink:href="#DejaVuSans-30"/>
       <use xlink:href="#DejaVuSans-2e" x="63.623047"/>
       <use xlink:href="#DejaVuSans-30" x="95.410156"/>
       <use xlink:href="#DejaVuSans-37" x="159.033203"/>
      </g>
     </g>
    </g>
    <g id="ytick_3">
     <g id="line2d_19">
      <path d="M 57.5325 227.060714 
L 615.5325 227.060714 
" clip-path="url(#pd6c0aaba84)" style="fill: none; stroke-dasharray: 2,8; stroke-dashoffset: 0; stroke: #cccccc; stroke-width: 2; stroke-linecap: round"/>
     </g>
     <g id="line2d_20"/>
     <g id="text_11">
      <!-- 0.08 -->
      <g transform="translate(26.81375 231.619776) scale(0.12 -0.12)">
       <use xlink:href="#DejaVuSans-30"/>
       <use xlink:href="#DejaVuSans-2e" x="63.623047"/>
       <use xlink:href="#DejaVuSans-30" x="95.410156"/>
       <use xlink:href="#DejaVuSans-38" x="159.033203"/>
      </g>
     </g>
    </g>
    <g id="ytick_4">
     <g id="line2d_21">
      <path d="M 57.5325 176.053943 
L 615.5325 176.053943 
" clip-path="url(#pd6c0aaba84)" style="fill: none; stroke-dasharray: 2,8; stroke-dashoffset: 0; stroke: #cccccc; stroke-width: 2; stroke-linecap: round"/>
     </g>
     <g id="line2d_22"/>
     <g id="text_12">
      <!-- 0.09 -->
      <g transform="translate(26.81375 180.613006) scale(0.12 -0.12)">
       <defs>
        <path id="DejaVuSans-39" d="M 703 97 
L 703 672 
Q 941 559 1184 500 
Q 1428 441 1663 441 
Q 2288 441 2617 861 
Q 2947 1281 2994 2138 
Q 2813 1869 2534 1725 
Q 2256 1581 1919 1581 
Q 1219 1581 811 2004 
Q 403 2428 403 3163 
Q 403 3881 828 4315 
Q 1253 4750 1959 4750 
Q 2769 4750 3195 4129 
Q 3622 3509 3622 2328 
Q 3622 1225 3098 567 
Q 2575 -91 1691 -91 
Q 1453 -91 1209 -44 
Q 966 3 703 97 
z
M 1959 2075 
Q 2384 2075 2632 2365 
Q 2881 2656 2881 3163 
Q 2881 3666 2632 3958 
Q 2384 4250 1959 4250 
Q 1534 4250 1286 3958 
Q 1038 3666 1038 3163 
Q 1038 2656 1286 2365 
Q 1534 2075 1959 2075 
z
" transform="scale(0.015625)"/>
       </defs>
       <use xlink:href="#DejaVuSans-30"/>
       <use xlink:href="#DejaVuSans-2e" x="63.623047"/>
       <use xlink:href="#DejaVuSans-30" x="95.410156"/>
       <use xlink:href="#DejaVuSans-39" x="159.033203"/>
      </g>
     </g>
    </g>
    <g id="ytick_5">
     <g id="line2d_23">
      <path d="M 57.5325 125.047173 
L 615.5325 125.047173 
" clip-path="url(#pd6c0aaba84)" style="fill: none; stroke-dasharray: 2,8; stroke-dashoffset: 0; stroke: #cccccc; stroke-width: 2; stroke-linecap: round"/>
     </g>
     <g id="line2d_24"/>
     <g id="text_13">
      <!-- 0.10 -->
      <g transform="translate(26.81375 129.606235) scale(0.12 -0.12)">
       <defs>
        <path id="DejaVuSans-31" d="M 794 531 
L 1825 531 
L 1825 4091 
L 703 3866 
L 703 4441 
L 1819 4666 
L 2450 4666 
L 2450 531 
L 3481 531 
L 3481 0 
L 794 0 
L 794 531 
z
" transform="scale(0.015625)"/>
       </defs>
       <use xlink:href="#DejaVuSans-30"/>
       <use xlink:href="#DejaVuSans-2e" x="63.623047"/>
       <use xlink:href="#DejaVuSans-31" x="95.410156"/>
       <use xlink:href="#DejaVuSans-30" x="159.033203"/>
      </g>
     </g>
    </g>
    <g id="ytick_6">
     <g id="line2d_25">
      <path d="M 57.5325 74.040402 
L 615.5325 74.040402 
" clip-path="url(#pd6c0aaba84)" style="fill: none; stroke-dasharray: 2,8; stroke-dashoffset: 0; stroke: #cccccc; stroke-width: 2; stroke-linecap: round"/>
     </g>
     <g id="line2d_26"/>
     <g id="text_14">
      <!-- 0.11 -->
      <g transform="translate(26.81375 78.599465) scale(0.12 -0.12)">
       <use xlink:href="#DejaVuSans-30"/>
       <use xlink:href="#DejaVuSans-2e" x="63.623047"/>
       <use xlink:href="#DejaVuSans-31" x="95.410156"/>
       <use xlink:href="#DejaVuSans-31" x="159.033203"/>
      </g>
     </g>
    </g>
    <g id="text_15">
     <!-- $V$ -->
     <g transform="translate(16.318125 211.424397) rotate(-90) scale(0.12 -0.12)">
      <defs>
       <path id="DejaVuSans-Oblique-56" d="M 1319 0 
L 500 4666 
L 1119 4666 
L 1797 653 
L 4063 4666 
L 4750 4666 
L 2053 0 
L 1319 0 
z
" transform="scale(0.015625)"/>
      </defs>
      <use xlink:href="#DejaVuSans-Oblique-56" transform="translate(0 0.09375)"/>
     </g>
    </g>
   </g>
   <g id="line2d_27">
    <defs>
     <path id="m419e85fd25" d="M 0 3 
C 0.795609 3 1.55874 2.683901 2.12132 2.12132 
C 2.683901 1.55874 3 0.795609 3 0 
C 3 -0.795609 2.683901 -1.55874 2.12132 -2.12132 
C 1.55874 -2.683901 0.795609 -3 0 -3 
C -0.795609 -3 -1.55874 -2.683901 -2.12132 -2.12132 
C -2.683901 -1.55874 -3 -0.795609 -3 0 
C -3 0.795609 -2.683901 1.55874 -2.12132 2.12132 
C -1.55874 2.683901 -0.795609 3 0 3 
z
" style="stroke: #1f77b4"/>
    </defs>
    <g clip-path="url(#pd6c0aaba84)">
     <use xlink:href="#m419e85fd25" x="363.505074" y="156.503779" style="fill: #1f77b4; stroke: #1f77b4"/>
     <use xlink:href="#m419e85fd25" x="472.860176" y="99.815587" style="fill: #1f77b4; stroke: #1f77b4"/>
     <use xlink:href="#m419e85fd25" x="247.409484" y="221.92195" style="fill: #1f77b4; stroke: #1f77b4"/>
     <use xlink:href="#m419e85fd25" x="91.526238" y="360.590505" style="fill: #1f77b4; stroke: #1f77b4"/>
     <use xlink:href="#m419e85fd25" x="299.241409" y="192.679913" style="fill: #1f77b4; stroke: #1f77b4"/>
     <use xlink:href="#m419e85fd25" x="559.759047" y="66.845743" style="fill: #1f77b4; stroke: #1f77b4"/>
     <use xlink:href="#m419e85fd25" x="562.844174" y="56.632215" style="fill: #1f77b4; stroke: #1f77b4"/>
     <use xlink:href="#m419e85fd25" x="97.632082" y="343.872345" style="fill: #1f77b4; stroke: #1f77b4"/>
     <use xlink:href="#m419e85fd25" x="198.447819" y="261.241109" style="fill: #1f77b4; stroke: #1f77b4"/>
     <use xlink:href="#m419e85fd25" x="162.627519" y="288.037441" style="fill: #1f77b4; stroke: #1f77b4"/>
     <use xlink:href="#m419e85fd25" x="152.398995" y="305.842009" style="fill: #1f77b4; stroke: #1f77b4"/>
     <use xlink:href="#m419e85fd25" x="526.148305" y="75.800737" style="fill: #1f77b4; stroke: #1f77b4"/>
     <use xlink:href="#m419e85fd25" x="349.971941" y="165.183335" style="fill: #1f77b4; stroke: #1f77b4"/>
     <use xlink:href="#m419e85fd25" x="91.570939" y="353.985176" style="fill: #1f77b4; stroke: #1f77b4"/>
     <use xlink:href="#m419e85fd25" x="514.133411" y="88.925155" style="fill: #1f77b4; stroke: #1f77b4"/>
     <use xlink:href="#m419e85fd25" x="219.728216" y="230.980794" style="fill: #1f77b4; stroke: #1f77b4"/>
     <use xlink:href="#m419e85fd25" x="547.82068" y="73.336905" style="fill: #1f77b4; stroke: #1f77b4"/>
     <use xlink:href="#m419e85fd25" x="426.822519" y="121.308936" style="fill: #1f77b4; stroke: #1f77b4"/>
     <use xlink:href="#m419e85fd25" x="99.494115" y="338.882768" style="fill: #1f77b4; stroke: #1f77b4"/>
     <use xlink:href="#m419e85fd25" x="283.409047" y="194.95114" style="fill: #1f77b4; stroke: #1f77b4"/>
     <use xlink:href="#m419e85fd25" x="98.576805" y="338.562644" style="fill: #1f77b4; stroke: #1f77b4"/>
     <use xlink:href="#m419e85fd25" x="340.097969" y="176.66442" style="fill: #1f77b4; stroke: #1f77b4"/>
     <use xlink:href="#m419e85fd25" x="191.36938" y="261.743711" style="fill: #1f77b4; stroke: #1f77b4"/>
     <use xlink:href="#m419e85fd25" x="441.952126" y="116.138809" style="fill: #1f77b4; stroke: #1f77b4"/>
     <use xlink:href="#m419e85fd25" x="590.168864" y="51.539832" style="fill: #1f77b4; stroke: #1f77b4"/>
     <use xlink:href="#m419e85fd25" x="574.365065" y="57.346574" style="fill: #1f77b4; stroke: #1f77b4"/>
     <use xlink:href="#m419e85fd25" x="346.753828" y="161.530745" style="fill: #1f77b4; stroke: #1f77b4"/>
     <use xlink:href="#m419e85fd25" x="519.772015" y="69.336574" style="fill: #1f77b4; stroke: #1f77b4"/>
     <use xlink:href="#m419e85fd25" x="381.56111" y="136.943723" style="fill: #1f77b4; stroke: #1f77b4"/>
     <use xlink:href="#m419e85fd25" x="450.614224" y="107.316913" style="fill: #1f77b4; stroke: #1f77b4"/>
     <use xlink:href="#m419e85fd25" x="548.330084" y="77.155792" style="fill: #1f77b4; stroke: #1f77b4"/>
     <use xlink:href="#m419e85fd25" x="162.526341" y="288.206976" style="fill: #1f77b4; stroke: #1f77b4"/>
     <use xlink:href="#m419e85fd25" x="270.14201" y="206.761283" style="fill: #1f77b4; stroke: #1f77b4"/>
     <use xlink:href="#m419e85fd25" x="185.265883" y="275.379742" style="fill: #1f77b4; stroke: #1f77b4"/>
     <use xlink:href="#m419e85fd25" x="255.129407" y="214.912506" style="fill: #1f77b4; stroke: #1f77b4"/>
     <use xlink:href="#m419e85fd25" x="82.896136" y="360.184247" style="fill: #1f77b4; stroke: #1f77b4"/>
     <use xlink:href="#m419e85fd25" x="458.216763" y="109.517429" style="fill: #1f77b4; stroke: #1f77b4"/>
     <use xlink:href="#m419e85fd25" x="178.730933" y="278.717248" style="fill: #1f77b4; stroke: #1f77b4"/>
     <use xlink:href="#m419e85fd25" x="137.561311" y="296.11665" style="fill: #1f77b4; stroke: #1f77b4"/>
     <use xlink:href="#m419e85fd25" x="474.467211" y="104.988036" style="fill: #1f77b4; stroke: #1f77b4"/>
     <use xlink:href="#m419e85fd25" x="503.424826" y="85.723126" style="fill: #1f77b4; stroke: #1f77b4"/>
     <use xlink:href="#m419e85fd25" x="368.788512" y="148.946823" style="fill: #1f77b4; stroke: #1f77b4"/>
     <use xlink:href="#m419e85fd25" x="442.229379" y="115.813247" style="fill: #1f77b4; stroke: #1f77b4"/>
     <use xlink:href="#m419e85fd25" x="218.476744" y="248.964115" style="fill: #1f77b4; stroke: #1f77b4"/>
     <use xlink:href="#m419e85fd25" x="546.498212" y="70.818312" style="fill: #1f77b4; stroke: #1f77b4"/>
     <use xlink:href="#m419e85fd25" x="298.361357" y="194.719644" style="fill: #1f77b4; stroke: #1f77b4"/>
     <use xlink:href="#m419e85fd25" x="231.43596" y="233.071304" style="fill: #1f77b4; stroke: #1f77b4"/>
     <use xlink:href="#m419e85fd25" x="148.154139" y="309.505357" style="fill: #1f77b4; stroke: #1f77b4"/>
     <use xlink:href="#m419e85fd25" x="506.281769" y="90.649071" style="fill: #1f77b4; stroke: #1f77b4"/>
     <use xlink:href="#m419e85fd25" x="234.78689" y="228.136529" style="fill: #1f77b4; stroke: #1f77b4"/>
     <use xlink:href="#m419e85fd25" x="338.843865" y="174.311071" style="fill: #1f77b4; stroke: #1f77b4"/>
     <use xlink:href="#m419e85fd25" x="477.713574" y="93.693645" style="fill: #1f77b4; stroke: #1f77b4"/>
     <use xlink:href="#m419e85fd25" x="547.333382" y="68.544735" style="fill: #1f77b4; stroke: #1f77b4"/>
     <use xlink:href="#m419e85fd25" x="123.805489" y="322.003912" style="fill: #1f77b4; stroke: #1f77b4"/>
     <use xlink:href="#m419e85fd25" x="109.710203" y="338.058199" style="fill: #1f77b4; stroke: #1f77b4"/>
     <use xlink:href="#m419e85fd25" x="139.296794" y="318.130298" style="fill: #1f77b4; stroke: #1f77b4"/>
     <use xlink:href="#m419e85fd25" x="562.062536" y="57.5834" style="fill: #1f77b4; stroke: #1f77b4"/>
     <use xlink:href="#m419e85fd25" x="300.518892" y="186.929079" style="fill: #1f77b4; stroke: #1f77b4"/>
     <use xlink:href="#m419e85fd25" x="276.562768" y="188.459317" style="fill: #1f77b4; stroke: #1f77b4"/>
     <use xlink:href="#m419e85fd25" x="342.062084" y="161.445705" style="fill: #1f77b4; stroke: #1f77b4"/>
     <use xlink:href="#m419e85fd25" x="435.194457" y="114.2298" style="fill: #1f77b4; stroke: #1f77b4"/>
     <use xlink:href="#m419e85fd25" x="484.073815" y="95.566107" style="fill: #1f77b4; stroke: #1f77b4"/>
     <use xlink:href="#m419e85fd25" x="347.954038" y="161.734804" style="fill: #1f77b4; stroke: #1f77b4"/>
     <use xlink:href="#m419e85fd25" x="442.58378" y="118.413583" style="fill: #1f77b4; stroke: #1f77b4"/>
     <use xlink:href="#m419e85fd25" x="185.946784" y="268.349201" style="fill: #1f77b4; stroke: #1f77b4"/>
     <use xlink:href="#m419e85fd25" x="214.805379" y="251.496153" style="fill: #1f77b4; stroke: #1f77b4"/>
     <use xlink:href="#m419e85fd25" x="193.144498" y="272.65815" style="fill: #1f77b4; stroke: #1f77b4"/>
     <use xlink:href="#m419e85fd25" x="274.832431" y="196.227346" style="fill: #1f77b4; stroke: #1f77b4"/>
     <use xlink:href="#m419e85fd25" x="189.59598" y="265.433433" style="fill: #1f77b4; stroke: #1f77b4"/>
     <use xlink:href="#m419e85fd25" x="115.836647" y="332.048835" style="fill: #1f77b4; stroke: #1f77b4"/>
     <use xlink:href="#m419e85fd25" x="224.432226" y="242.042209" style="fill: #1f77b4; stroke: #1f77b4"/>
     <use xlink:href="#m419e85fd25" x="331.575402" y="166.08695" style="fill: #1f77b4; stroke: #1f77b4"/>
     <use xlink:href="#m419e85fd25" x="299.398152" y="193.854051" style="fill: #1f77b4; stroke: #1f77b4"/>
     <use xlink:href="#m419e85fd25" x="171.802773" y="291.172398" style="fill: #1f77b4; stroke: #1f77b4"/>
     <use xlink:href="#m419e85fd25" x="164.84902" y="280.809457" style="fill: #1f77b4; stroke: #1f77b4"/>
     <use xlink:href="#m419e85fd25" x="546.841746" y="76.019016" style="fill: #1f77b4; stroke: #1f77b4"/>
     <use xlink:href="#m419e85fd25" x="365.931999" y="152.526344" style="fill: #1f77b4; stroke: #1f77b4"/>
     <use xlink:href="#m419e85fd25" x="316.822335" y="172.328161" style="fill: #1f77b4; stroke: #1f77b4"/>
     <use xlink:href="#m419e85fd25" x="369.806071" y="154.58866" style="fill: #1f77b4; stroke: #1f77b4"/>
     <use xlink:href="#m419e85fd25" x="288.999986" y="188.83466" style="fill: #1f77b4; stroke: #1f77b4"/>
     <use xlink:href="#m419e85fd25" x="463.253848" y="90.192902" style="fill: #1f77b4; stroke: #1f77b4"/>
     <use xlink:href="#m419e85fd25" x="237.30809" y="230.48019" style="fill: #1f77b4; stroke: #1f77b4"/>
     <use xlink:href="#m419e85fd25" x="175.156284" y="280.513054" style="fill: #1f77b4; stroke: #1f77b4"/>
     <use xlink:href="#m419e85fd25" x="91.312571" y="363.028962" style="fill: #1f77b4; stroke: #1f77b4"/>
     <use xlink:href="#m419e85fd25" x="376.012094" y="149.29774" style="fill: #1f77b4; stroke: #1f77b4"/>
     <use xlink:href="#m419e85fd25" x="229.371349" y="237.720037" style="fill: #1f77b4; stroke: #1f77b4"/>
     <use xlink:href="#m419e85fd25" x="458.525509" y="108.667503" style="fill: #1f77b4; stroke: #1f77b4"/>
     <use xlink:href="#m419e85fd25" x="567.43739" y="60.696561" style="fill: #1f77b4; stroke: #1f77b4"/>
     <use xlink:href="#m419e85fd25" x="443.794013" y="104.906972" style="fill: #1f77b4; stroke: #1f77b4"/>
     <use xlink:href="#m419e85fd25" x="264.999521" y="215.388457" style="fill: #1f77b4; stroke: #1f77b4"/>
     <use xlink:href="#m419e85fd25" x="342.328584" y="168.337363" style="fill: #1f77b4; stroke: #1f77b4"/>
     <use xlink:href="#m419e85fd25" x="461.835793" y="95.651574" style="fill: #1f77b4; stroke: #1f77b4"/>
     <use xlink:href="#m419e85fd25" x="482.029282" y="86.772867" style="fill: #1f77b4; stroke: #1f77b4"/>
     <use xlink:href="#m419e85fd25" x="309.401306" y="186.393437" style="fill: #1f77b4; stroke: #1f77b4"/>
     <use xlink:href="#m419e85fd25" x="228.614526" y="245.256766" style="fill: #1f77b4; stroke: #1f77b4"/>
     <use xlink:href="#m419e85fd25" x="279.25269" y="201.195909" style="fill: #1f77b4; stroke: #1f77b4"/>
     <use xlink:href="#m419e85fd25" x="404.987583" y="139.238733" style="fill: #1f77b4; stroke: #1f77b4"/>
     <use xlink:href="#m419e85fd25" x="403.226705" y="127.150286" style="fill: #1f77b4; stroke: #1f77b4"/>
     <use xlink:href="#m419e85fd25" x="529.68836" y="69.344101" style="fill: #1f77b4; stroke: #1f77b4"/>
     <use xlink:href="#m419e85fd25" x="509.970737" y="77.234384" style="fill: #1f77b4; stroke: #1f77b4"/>
    </g>
   </g>
   <g id="patch_3">
    <path d="M 57.5325 378.603418 
L 57.5325 35.965375 
" style="fill: none; stroke: #cccccc; stroke-width: 2; stroke-linejoin: miter; stroke-linecap: square"/>
   </g>
   <g id="patch_4">
    <path d="M 615.5325 378.603418 
L 615.5325 35.965375 
" style="fill: none; stroke: #cccccc; stroke-width: 2; stroke-linejoin: miter; stroke-linecap: square"/>
   </g>
   <g id="patch_5">
    <path d="M 57.5325 378.603418 
L 615.5325 378.603418 
" style="fill: none; stroke: #cccccc; stroke-width: 2; stroke-linejoin: miter; stroke-linecap: square"/>
   </g>
   <g id="patch_6">
    <path d="M 57.5325 35.965375 
L 615.5325 35.965375 
" style="fill: none; stroke: #cccccc; stroke-width: 2; stroke-linejoin: miter; stroke-linecap: square"/>
   </g>
   <g id="text_16">
    <!-- Original data -->
    <g transform="translate(282.071625 19.965375) scale(0.168 -0.168)">
     <defs>
      <path id="DejaVuSans-4f" d="M 2522 4238 
Q 1834 4238 1429 3725 
Q 1025 3213 1025 2328 
Q 1025 1447 1429 934 
Q 1834 422 2522 422 
Q 3209 422 3611 934 
Q 4013 1447 4013 2328 
Q 4013 3213 3611 3725 
Q 3209 4238 2522 4238 
z
M 2522 4750 
Q 3503 4750 4090 4092 
Q 4678 3434 4678 2328 
Q 4678 1225 4090 567 
Q 3503 -91 2522 -91 
Q 1538 -91 948 565 
Q 359 1222 359 2328 
Q 359 3434 948 4092 
Q 1538 4750 2522 4750 
z
" transform="scale(0.015625)"/>
      <path id="DejaVuSans-72" d="M 2631 2963 
Q 2534 3019 2420 3045 
Q 2306 3072 2169 3072 
Q 1681 3072 1420 2755 
Q 1159 2438 1159 1844 
L 1159 0 
L 581 0 
L 581 3500 
L 1159 3500 
L 1159 2956 
Q 1341 3275 1631 3429 
Q 1922 3584 2338 3584 
Q 2397 3584 2469 3576 
Q 2541 3569 2628 3553 
L 2631 2963 
z
" transform="scale(0.015625)"/>
      <path id="DejaVuSans-69" d="M 603 3500 
L 1178 3500 
L 1178 0 
L 603 0 
L 603 3500 
z
M 603 4863 
L 1178 4863 
L 1178 4134 
L 603 4134 
L 603 4863 
z
" transform="scale(0.015625)"/>
      <path id="DejaVuSans-67" d="M 2906 1791 
Q 2906 2416 2648 2759 
Q 2391 3103 1925 3103 
Q 1463 3103 1205 2759 
Q 947 2416 947 1791 
Q 947 1169 1205 825 
Q 1463 481 1925 481 
Q 2391 481 2648 825 
Q 2906 1169 2906 1791 
z
M 3481 434 
Q 3481 -459 3084 -895 
Q 2688 -1331 1869 -1331 
Q 1566 -1331 1297 -1286 
Q 1028 -1241 775 -1147 
L 775 -588 
Q 1028 -725 1275 -790 
Q 1522 -856 1778 -856 
Q 2344 -856 2625 -561 
Q 2906 -266 2906 331 
L 2906 616 
Q 2728 306 2450 153 
Q 2172 0 1784 0 
Q 1141 0 747 490 
Q 353 981 353 1791 
Q 353 2603 747 3093 
Q 1141 3584 1784 3584 
Q 2172 3584 2450 3431 
Q 2728 3278 2906 2969 
L 2906 3500 
L 3481 3500 
L 3481 434 
z
" transform="scale(0.015625)"/>
      <path id="DejaVuSans-6e" d="M 3513 2113 
L 3513 0 
L 2938 0 
L 2938 2094 
Q 2938 2591 2744 2837 
Q 2550 3084 2163 3084 
Q 1697 3084 1428 2787 
Q 1159 2491 1159 1978 
L 1159 0 
L 581 0 
L 581 3500 
L 1159 3500 
L 1159 2956 
Q 1366 3272 1645 3428 
Q 1925 3584 2291 3584 
Q 2894 3584 3203 3211 
Q 3513 2838 3513 2113 
z
" transform="scale(0.015625)"/>
      <path id="DejaVuSans-61" d="M 2194 1759 
Q 1497 1759 1228 1600 
Q 959 1441 959 1056 
Q 959 750 1161 570 
Q 1363 391 1709 391 
Q 2188 391 2477 730 
Q 2766 1069 2766 1631 
L 2766 1759 
L 2194 1759 
z
M 3341 1997 
L 3341 0 
L 2766 0 
L 2766 531 
Q 2569 213 2275 61 
Q 1981 -91 1556 -91 
Q 1019 -91 701 211 
Q 384 513 384 1019 
Q 384 1609 779 1909 
Q 1175 2209 1959 2209 
L 2766 2209 
L 2766 2266 
Q 2766 2663 2505 2880 
Q 2244 3097 1772 3097 
Q 1472 3097 1187 3025 
Q 903 2953 641 2809 
L 641 3341 
Q 956 3463 1253 3523 
Q 1550 3584 1831 3584 
Q 2591 3584 2966 3190 
Q 3341 2797 3341 1997 
z
" transform="scale(0.015625)"/>
      <path id="DejaVuSans-6c" d="M 603 4863 
L 1178 4863 
L 1178 0 
L 603 0 
L 603 4863 
z
" transform="scale(0.015625)"/>
      <path id="DejaVuSans-20" transform="scale(0.015625)"/>
      <path id="DejaVuSans-64" d="M 2906 2969 
L 2906 4863 
L 3481 4863 
L 3481 0 
L 2906 0 
L 2906 525 
Q 2725 213 2448 61 
Q 2172 -91 1784 -91 
Q 1150 -91 751 415 
Q 353 922 353 1747 
Q 353 2572 751 3078 
Q 1150 3584 1784 3584 
Q 2172 3584 2448 3432 
Q 2725 3281 2906 2969 
z
M 947 1747 
Q 947 1113 1208 752 
Q 1469 391 1925 391 
Q 2381 391 2643 752 
Q 2906 1113 2906 1747 
Q 2906 2381 2643 2742 
Q 2381 3103 1925 3103 
Q 1469 3103 1208 2742 
Q 947 2381 947 1747 
z
" transform="scale(0.015625)"/>
      <path id="DejaVuSans-74" d="M 1172 4494 
L 1172 3500 
L 2356 3500 
L 2356 3053 
L 1172 3053 
L 1172 1153 
Q 1172 725 1289 603 
Q 1406 481 1766 481 
L 2356 481 
L 2356 0 
L 1766 0 
Q 1100 0 847 248 
Q 594 497 594 1153 
L 594 3053 
L 172 3053 
L 172 3500 
L 594 3500 
L 594 4494 
L 1172 4494 
z
" transform="scale(0.015625)"/>
     </defs>
     <use xlink:href="#DejaVuSans-4f"/>
     <use xlink:href="#DejaVuSans-72" x="78.710938"/>
     <use xlink:href="#DejaVuSans-69" x="119.824219"/>
     <use xlink:href="#DejaVuSans-67" x="147.607422"/>
     <use xlink:href="#DejaVuSans-69" x="211.083984"/>
     <use xlink:href="#DejaVuSans-6e" x="238.867188"/>
     <use xlink:href="#DejaVuSans-61" x="302.246094"/>
     <use xlink:href="#DejaVuSans-6c" x="363.525391"/>
     <use xlink:href="#DejaVuSans-20" x="391.308594"/>
     <use xlink:href="#DejaVuSans-64" x="423.095703"/>
     <use xlink:href="#DejaVuSans-61" x="486.572266"/>
     <use xlink:href="#DejaVuSans-74" x="547.851562"/>
     <use xlink:href="#DejaVuSans-61" x="587.060547"/>
    </g>
   </g>
  </g>
 </g>
 <defs>
  <clipPath id="pd6c0aaba84">
   <rect x="57.5325" y="35.965375" width="558" height="342.638043"/>
  </clipPath>
 </defs>
</svg>
