<?xml version="1.0" encoding="utf-8" standalone="no"?>
<!DOCTYPE svg PUBLIC "-//W3C//DTD SVG 1.1//EN"
  "http://www.w3.org/Graphics/SVG/1.1/DTD/svg11.dtd">
<svg xmlns:xlink="http://www.w3.org/1999/xlink" width="611.28375pt" height="421.030918pt" viewBox="0 0 611.28375 421.030918" xmlns="http://www.w3.org/2000/svg" version="1.1">
 <metadata>
  <rdf:RDF xmlns:dc="http://purl.org/dc/elements/1.1/" xmlns:cc="http://creativecommons.org/ns#" xmlns:rdf="http://www.w3.org/1999/02/22-rdf-syntax-ns#">
   <cc:Work>
    <dc:type rdf:resource="http://purl.org/dc/dcmitype/StillImage"/>
    <dc:date>2023-10-25T18:46:33.122151</dc:date>
    <dc:format>image/svg+xml</dc:format>
    <dc:creator>
     <cc:Agent>
      <dc:title>Matplotlib v3.8.0, https://matplotlib.org/</dc:title>
     </cc:Agent>
    </dc:creator>
   </cc:Work>
  </rdf:RDF>
 </metadata>
 <defs>
  <style type="text/css">*{stroke-linejoin: round; stroke-linecap: butt}</style>
 </defs>
 <g id="figure_1">
  <g id="patch_1">
   <path d="M 0 421.030918 
L 611.28375 421.030918 
L 611.28375 0 
L 0 0 
z
" style="fill: #ffffff"/>
  </g>
  <g id="axes_1">
   <g id="patch_2">
    <path d="M 46.08375 378.603418 
L 604.08375 378.603418 
L 604.08375 35.965375 
L 46.08375 35.965375 
z
" style="fill: #ffffff"/>
   </g>
   <g id="matplotlib.axis_1">
    <g id="xtick_1">
     <g id="line2d_1">
      <path d="M 105.265568 378.603418 
L 105.265568 35.965375 
" clip-path="url(#pe96cc97a27)" style="fill: none; stroke-dasharray: 2,8; stroke-dashoffset: 0; stroke: #cccccc; stroke-width: 2; stroke-linecap: round"/>
     </g>
     <g id="line2d_2"/>
     <g id="text_1">
      <!-- 1.5 -->
      <g transform="translate(95.723693 391.721543) scale(0.12 -0.12)">
       <defs>
        <path id="DejaVuSans-31" d="M 794 531 
L 1825 531 
L 1825 4091 
L 703 3866 
L 703 4441 
L 1819 4666 
L 2450 4666 
L 2450 531 
L 3481 531 
L 3481 0 
L 794 0 
L 794 531 
z
" transform="scale(0.015625)"/>
        <path id="DejaVuSans-2e" d="M 684 794 
L 1344 794 
L 1344 0 
L 684 0 
L 684 794 
z
" transform="scale(0.015625)"/>
        <path id="DejaVuSans-35" d="M 691 4666 
L 3169 4666 
L 3169 4134 
L 1269 4134 
L 1269 2991 
Q 1406 3038 1543 3061 
Q 1681 3084 1819 3084 
Q 2600 3084 3056 2656 
Q 3513 2228 3513 1497 
Q 3513 744 3044 326 
Q 2575 -91 1722 -91 
Q 1428 -91 1123 -41 
Q 819 9 494 109 
L 494 744 
Q 775 591 1075 516 
Q 1375 441 1709 441 
Q 2250 441 2565 725 
Q 2881 1009 2881 1497 
Q 2881 1984 2565 2268 
Q 2250 2553 1709 2553 
Q 1456 2553 1204 2497 
Q 953 2441 691 2322 
L 691 4666 
z
" transform="scale(0.015625)"/>
       </defs>
       <use xlink:href="#DejaVuSans-31"/>
       <use xlink:href="#DejaVuSans-2e" x="63.623047"/>
       <use xlink:href="#DejaVuSans-35" x="95.410156"/>
      </g>
     </g>
    </g>
    <g id="xtick_2">
     <g id="line2d_3">
      <path d="M 172.901932 378.603418 
L 172.901932 35.965375 
" clip-path="url(#pe96cc97a27)" style="fill: none; stroke-dasharray: 2,8; stroke-dashoffset: 0; stroke: #cccccc; stroke-width: 2; stroke-linecap: round"/>
     </g>
     <g id="line2d_4"/>
     <g id="text_2">
      <!-- 2.0 -->
      <g transform="translate(163.360057 391.721543) scale(0.12 -0.12)">
       <defs>
        <path id="DejaVuSans-32" d="M 1228 531 
L 3431 531 
L 3431 0 
L 469 0 
L 469 531 
Q 828 903 1448 1529 
Q 2069 2156 2228 2338 
Q 2531 2678 2651 2914 
Q 2772 3150 2772 3378 
Q 2772 3750 2511 3984 
Q 2250 4219 1831 4219 
Q 1534 4219 1204 4116 
Q 875 4013 500 3803 
L 500 4441 
Q 881 4594 1212 4672 
Q 1544 4750 1819 4750 
Q 2544 4750 2975 4387 
Q 3406 4025 3406 3419 
Q 3406 3131 3298 2873 
Q 3191 2616 2906 2266 
Q 2828 2175 2409 1742 
Q 1991 1309 1228 531 
z
" transform="scale(0.015625)"/>
        <path id="DejaVuSans-30" d="M 2034 4250 
Q 1547 4250 1301 3770 
Q 1056 3291 1056 2328 
Q 1056 1369 1301 889 
Q 1547 409 2034 409 
Q 2525 409 2770 889 
Q 3016 1369 3016 2328 
Q 3016 3291 2770 3770 
Q 2525 4250 2034 4250 
z
M 2034 4750 
Q 2819 4750 3233 4129 
Q 3647 3509 3647 2328 
Q 3647 1150 3233 529 
Q 2819 -91 2034 -91 
Q 1250 -91 836 529 
Q 422 1150 422 2328 
Q 422 3509 836 4129 
Q 1250 4750 2034 4750 
z
" transform="scale(0.015625)"/>
       </defs>
       <use xlink:href="#DejaVuSans-32"/>
       <use xlink:href="#DejaVuSans-2e" x="63.623047"/>
       <use xlink:href="#DejaVuSans-30" x="95.410156"/>
      </g>
     </g>
    </g>
    <g id="xtick_3">
     <g id="line2d_5">
      <path d="M 240.538295 378.603418 
L 240.538295 35.965375 
" clip-path="url(#pe96cc97a27)" style="fill: none; stroke-dasharray: 2,8; stroke-dashoffset: 0; stroke: #cccccc; stroke-width: 2; stroke-linecap: round"/>
     </g>
     <g id="line2d_6"/>
     <g id="text_3">
      <!-- 2.5 -->
      <g transform="translate(230.99642 391.721543) scale(0.12 -0.12)">
       <use xlink:href="#DejaVuSans-32"/>
       <use xlink:href="#DejaVuSans-2e" x="63.623047"/>
       <use xlink:href="#DejaVuSans-35" x="95.410156"/>
      </g>
     </g>
    </g>
    <g id="xtick_4">
     <g id="line2d_7">
      <path d="M 308.174659 378.603418 
L 308.174659 35.965375 
" clip-path="url(#pe96cc97a27)" style="fill: none; stroke-dasharray: 2,8; stroke-dashoffset: 0; stroke: #cccccc; stroke-width: 2; stroke-linecap: round"/>
     </g>
     <g id="line2d_8"/>
     <g id="text_4">
      <!-- 3.0 -->
      <g transform="translate(298.632784 391.721543) scale(0.12 -0.12)">
       <defs>
        <path id="DejaVuSans-33" d="M 2597 2516 
Q 3050 2419 3304 2112 
Q 3559 1806 3559 1356 
Q 3559 666 3084 287 
Q 2609 -91 1734 -91 
Q 1441 -91 1130 -33 
Q 819 25 488 141 
L 488 750 
Q 750 597 1062 519 
Q 1375 441 1716 441 
Q 2309 441 2620 675 
Q 2931 909 2931 1356 
Q 2931 1769 2642 2001 
Q 2353 2234 1838 2234 
L 1294 2234 
L 1294 2753 
L 1863 2753 
Q 2328 2753 2575 2939 
Q 2822 3125 2822 3475 
Q 2822 3834 2567 4026 
Q 2313 4219 1838 4219 
Q 1578 4219 1281 4162 
Q 984 4106 628 3988 
L 628 4550 
Q 988 4650 1302 4700 
Q 1616 4750 1894 4750 
Q 2613 4750 3031 4423 
Q 3450 4097 3450 3541 
Q 3450 3153 3228 2886 
Q 3006 2619 2597 2516 
z
" transform="scale(0.015625)"/>
       </defs>
       <use xlink:href="#DejaVuSans-33"/>
       <use xlink:href="#DejaVuSans-2e" x="63.623047"/>
       <use xlink:href="#DejaVuSans-30" x="95.410156"/>
      </g>
     </g>
    </g>
    <g id="xtick_5">
     <g id="line2d_9">
      <path d="M 375.811023 378.603418 
L 375.811023 35.965375 
" clip-path="url(#pe96cc97a27)" style="fill: none; stroke-dasharray: 2,8; stroke-dashoffset: 0; stroke: #cccccc; stroke-width: 2; stroke-linecap: round"/>
     </g>
     <g id="line2d_10"/>
     <g id="text_5">
      <!-- 3.5 -->
      <g transform="translate(366.269148 391.721543) scale(0.12 -0.12)">
       <use xlink:href="#DejaVuSans-33"/>
       <use xlink:href="#DejaVuSans-2e" x="63.623047"/>
       <use xlink:href="#DejaVuSans-35" x="95.410156"/>
      </g>
     </g>
    </g>
    <g id="xtick_6">
     <g id="line2d_11">
      <path d="M 443.447386 378.603418 
L 443.447386 35.965375 
" clip-path="url(#pe96cc97a27)" style="fill: none; stroke-dasharray: 2,8; stroke-dashoffset: 0; stroke: #cccccc; stroke-width: 2; stroke-linecap: round"/>
     </g>
     <g id="line2d_12"/>
     <g id="text_6">
      <!-- 4.0 -->
      <g transform="translate(433.905511 391.721543) scale(0.12 -0.12)">
       <defs>
        <path id="DejaVuSans-34" d="M 2419 4116 
L 825 1625 
L 2419 1625 
L 2419 4116 
z
M 2253 4666 
L 3047 4666 
L 3047 1625 
L 3713 1625 
L 3713 1100 
L 3047 1100 
L 3047 0 
L 2419 0 
L 2419 1100 
L 313 1100 
L 313 1709 
L 2253 4666 
z
" transform="scale(0.015625)"/>
       </defs>
       <use xlink:href="#DejaVuSans-34"/>
       <use xlink:href="#DejaVuSans-2e" x="63.623047"/>
       <use xlink:href="#DejaVuSans-30" x="95.410156"/>
      </g>
     </g>
    </g>
    <g id="xtick_7">
     <g id="line2d_13">
      <path d="M 511.08375 378.603418 
L 511.08375 35.965375 
" clip-path="url(#pe96cc97a27)" style="fill: none; stroke-dasharray: 2,8; stroke-dashoffset: 0; stroke: #cccccc; stroke-width: 2; stroke-linecap: round"/>
     </g>
     <g id="line2d_14"/>
     <g id="text_7">
      <!-- 4.5 -->
      <g transform="translate(501.541875 391.721543) scale(0.12 -0.12)">
       <use xlink:href="#DejaVuSans-34"/>
       <use xlink:href="#DejaVuSans-2e" x="63.623047"/>
       <use xlink:href="#DejaVuSans-35" x="95.410156"/>
      </g>
     </g>
    </g>
    <g id="xtick_8">
     <g id="line2d_15">
      <path d="M 578.720114 378.603418 
L 578.720114 35.965375 
" clip-path="url(#pe96cc97a27)" style="fill: none; stroke-dasharray: 2,8; stroke-dashoffset: 0; stroke: #cccccc; stroke-width: 2; stroke-linecap: round"/>
     </g>
     <g id="line2d_16"/>
     <g id="text_8">
      <!-- 5.0 -->
      <g transform="translate(569.178239 391.721543) scale(0.12 -0.12)">
       <use xlink:href="#DejaVuSans-35"/>
       <use xlink:href="#DejaVuSans-2e" x="63.623047"/>
       <use xlink:href="#DejaVuSans-30" x="95.410156"/>
      </g>
     </g>
    </g>
    <g id="text_9">
     <!-- $X=1/S$ -->
     <g transform="translate(303.90375 411.335293) scale(0.12 -0.12)">
      <defs>
       <path id="DejaVuSans-Oblique-58" d="M 878 4666 
L 1516 4666 
L 2316 2981 
L 3763 4666 
L 4500 4666 
L 2578 2438 
L 3738 0 
L 3103 0 
L 2163 1966 
L 459 0 
L -275 0 
L 1906 2509 
L 878 4666 
z
" transform="scale(0.015625)"/>
       <path id="DejaVuSans-3d" d="M 678 2906 
L 4684 2906 
L 4684 2381 
L 678 2381 
L 678 2906 
z
M 678 1631 
L 4684 1631 
L 4684 1100 
L 678 1100 
L 678 1631 
z
" transform="scale(0.015625)"/>
       <path id="DejaVuSans-2f" d="M 1625 4666 
L 2156 4666 
L 531 -594 
L 0 -594 
L 1625 4666 
z
" transform="scale(0.015625)"/>
       <path id="DejaVuSans-Oblique-53" d="M 3859 4513 
L 3738 3897 
Q 3422 4066 3111 4152 
Q 2800 4238 2509 4238 
Q 1944 4238 1609 3991 
Q 1275 3744 1275 3334 
Q 1275 3109 1398 2989 
Q 1522 2869 2034 2731 
L 2413 2638 
Q 3053 2472 3303 2217 
Q 3553 1963 3553 1503 
Q 3553 797 2998 353 
Q 2444 -91 1538 -91 
Q 1166 -91 791 -17 
Q 416 56 38 206 
L 166 856 
Q 513 641 861 531 
Q 1209 422 1556 422 
Q 2147 422 2503 684 
Q 2859 947 2859 1369 
Q 2859 1650 2717 1795 
Q 2575 1941 2106 2059 
L 1728 2156 
Q 1081 2325 845 2545 
Q 609 2766 609 3163 
Q 609 3859 1145 4304 
Q 1681 4750 2541 4750 
Q 2875 4750 3203 4690 
Q 3531 4631 3859 4513 
z
" transform="scale(0.015625)"/>
      </defs>
      <use xlink:href="#DejaVuSans-Oblique-58" transform="translate(0 0.78125)"/>
      <use xlink:href="#DejaVuSans-3d" transform="translate(87.988281 0.78125)"/>
      <use xlink:href="#DejaVuSans-31" transform="translate(191.259766 0.78125)"/>
      <use xlink:href="#DejaVuSans-2f" transform="translate(254.882812 0.78125)"/>
      <use xlink:href="#DejaVuSans-Oblique-53" transform="translate(288.574219 0.78125)"/>
     </g>
    </g>
   </g>
   <g id="matplotlib.axis_2">
    <g id="ytick_1">
     <g id="line2d_17">
      <path d="M 46.08375 328.182893 
L 604.08375 328.182893 
" clip-path="url(#pe96cc97a27)" style="fill: none; stroke-dasharray: 2,8; stroke-dashoffset: 0; stroke: #cccccc; stroke-width: 2; stroke-linecap: round"/>
     </g>
     <g id="line2d_18"/>
     <g id="text_10">
      <!-- 10 -->
      <g transform="translate(26.81375 332.741956) scale(0.12 -0.12)">
       <use xlink:href="#DejaVuSans-31"/>
       <use xlink:href="#DejaVuSans-30" x="63.623047"/>
      </g>
     </g>
    </g>
    <g id="ytick_2">
     <g id="line2d_19">
      <path d="M 46.08375 272.854281 
L 604.08375 272.854281 
" clip-path="url(#pe96cc97a27)" style="fill: none; stroke-dasharray: 2,8; stroke-dashoffset: 0; stroke: #cccccc; stroke-width: 2; stroke-linecap: round"/>
     </g>
     <g id="line2d_20"/>
     <g id="text_11">
      <!-- 12 -->
      <g transform="translate(26.81375 277.413343) scale(0.12 -0.12)">
       <use xlink:href="#DejaVuSans-31"/>
       <use xlink:href="#DejaVuSans-32" x="63.623047"/>
      </g>
     </g>
    </g>
    <g id="ytick_3">
     <g id="line2d_21">
      <path d="M 46.08375 217.525669 
L 604.08375 217.525669 
" clip-path="url(#pe96cc97a27)" style="fill: none; stroke-dasharray: 2,8; stroke-dashoffset: 0; stroke: #cccccc; stroke-width: 2; stroke-linecap: round"/>
     </g>
     <g id="line2d_22"/>
     <g id="text_12">
      <!-- 14 -->
      <g transform="translate(26.81375 222.084731) scale(0.12 -0.12)">
       <use xlink:href="#DejaVuSans-31"/>
       <use xlink:href="#DejaVuSans-34" x="63.623047"/>
      </g>
     </g>
    </g>
    <g id="ytick_4">
     <g id="line2d_23">
      <path d="M 46.08375 162.197056 
L 604.08375 162.197056 
" clip-path="url(#pe96cc97a27)" style="fill: none; stroke-dasharray: 2,8; stroke-dashoffset: 0; stroke: #cccccc; stroke-width: 2; stroke-linecap: round"/>
     </g>
     <g id="line2d_24"/>
     <g id="text_13">
      <!-- 16 -->
      <g transform="translate(26.81375 166.756119) scale(0.12 -0.12)">
       <defs>
        <path id="DejaVuSans-36" d="M 2113 2584 
Q 1688 2584 1439 2293 
Q 1191 2003 1191 1497 
Q 1191 994 1439 701 
Q 1688 409 2113 409 
Q 2538 409 2786 701 
Q 3034 994 3034 1497 
Q 3034 2003 2786 2293 
Q 2538 2584 2113 2584 
z
M 3366 4563 
L 3366 3988 
Q 3128 4100 2886 4159 
Q 2644 4219 2406 4219 
Q 1781 4219 1451 3797 
Q 1122 3375 1075 2522 
Q 1259 2794 1537 2939 
Q 1816 3084 2150 3084 
Q 2853 3084 3261 2657 
Q 3669 2231 3669 1497 
Q 3669 778 3244 343 
Q 2819 -91 2113 -91 
Q 1303 -91 875 529 
Q 447 1150 447 2328 
Q 447 3434 972 4092 
Q 1497 4750 2381 4750 
Q 2619 4750 2861 4703 
Q 3103 4656 3366 4563 
z
" transform="scale(0.015625)"/>
       </defs>
       <use xlink:href="#DejaVuSans-31"/>
       <use xlink:href="#DejaVuSans-36" x="63.623047"/>
      </g>
     </g>
    </g>
    <g id="ytick_5">
     <g id="line2d_25">
      <path d="M 46.08375 106.868444 
L 604.08375 106.868444 
" clip-path="url(#pe96cc97a27)" style="fill: none; stroke-dasharray: 2,8; stroke-dashoffset: 0; stroke: #cccccc; stroke-width: 2; stroke-linecap: round"/>
     </g>
     <g id="line2d_26"/>
     <g id="text_14">
      <!-- 18 -->
      <g transform="translate(26.81375 111.427506) scale(0.12 -0.12)">
       <defs>
        <path id="DejaVuSans-38" d="M 2034 2216 
Q 1584 2216 1326 1975 
Q 1069 1734 1069 1313 
Q 1069 891 1326 650 
Q 1584 409 2034 409 
Q 2484 409 2743 651 
Q 3003 894 3003 1313 
Q 3003 1734 2745 1975 
Q 2488 2216 2034 2216 
z
M 1403 2484 
Q 997 2584 770 2862 
Q 544 3141 544 3541 
Q 544 4100 942 4425 
Q 1341 4750 2034 4750 
Q 2731 4750 3128 4425 
Q 3525 4100 3525 3541 
Q 3525 3141 3298 2862 
Q 3072 2584 2669 2484 
Q 3125 2378 3379 2068 
Q 3634 1759 3634 1313 
Q 3634 634 3220 271 
Q 2806 -91 2034 -91 
Q 1263 -91 848 271 
Q 434 634 434 1313 
Q 434 1759 690 2068 
Q 947 2378 1403 2484 
z
M 1172 3481 
Q 1172 3119 1398 2916 
Q 1625 2713 2034 2713 
Q 2441 2713 2670 2916 
Q 2900 3119 2900 3481 
Q 2900 3844 2670 4047 
Q 2441 4250 2034 4250 
Q 1625 4250 1398 4047 
Q 1172 3844 1172 3481 
z
" transform="scale(0.015625)"/>
       </defs>
       <use xlink:href="#DejaVuSans-31"/>
       <use xlink:href="#DejaVuSans-38" x="63.623047"/>
      </g>
     </g>
    </g>
    <g id="ytick_6">
     <g id="line2d_27">
      <path d="M 46.08375 51.539832 
L 604.08375 51.539832 
" clip-path="url(#pe96cc97a27)" style="fill: none; stroke-dasharray: 2,8; stroke-dashoffset: 0; stroke: #cccccc; stroke-width: 2; stroke-linecap: round"/>
     </g>
     <g id="line2d_28"/>
     <g id="text_15">
      <!-- 20 -->
      <g transform="translate(26.81375 56.098894) scale(0.12 -0.12)">
       <use xlink:href="#DejaVuSans-32"/>
       <use xlink:href="#DejaVuSans-30" x="63.623047"/>
      </g>
     </g>
    </g>
    <g id="text_16">
     <!-- $Y=1/V$ -->
     <g transform="translate(16.318125 228.284397) rotate(-90) scale(0.12 -0.12)">
      <defs>
       <path id="DejaVuSans-Oblique-59" d="M 403 4666 
L 1081 4666 
L 1953 2747 
L 3616 4666 
L 4325 4666 
L 2209 2222 
L 1778 0 
L 1147 0 
L 1575 2222 
L 403 4666 
z
" transform="scale(0.015625)"/>
       <path id="DejaVuSans-Oblique-56" d="M 1319 0 
L 500 4666 
L 1119 4666 
L 1797 653 
L 4063 4666 
L 4750 4666 
L 2053 0 
L 1319 0 
z
" transform="scale(0.015625)"/>
      </defs>
      <use xlink:href="#DejaVuSans-Oblique-59" transform="translate(0 0.09375)"/>
      <use xlink:href="#DejaVuSans-3d" transform="translate(80.566406 0.09375)"/>
      <use xlink:href="#DejaVuSans-31" transform="translate(183.837891 0.09375)"/>
      <use xlink:href="#DejaVuSans-2f" transform="translate(247.460938 0.09375)"/>
      <use xlink:href="#DejaVuSans-Oblique-56" transform="translate(281.152344 0.09375)"/>
     </g>
    </g>
   </g>
   <g id="line2d_29">
    <defs>
     <path id="m2b8091ae2e" d="M 0 3 
C 0.795609 3 1.55874 2.683901 2.12132 2.12132 
C 2.683901 1.55874 3 0.795609 3 0 
C 3 -0.795609 2.683901 -1.55874 2.12132 -2.12132 
C 1.55874 -2.683901 0.795609 -3 0 -3 
C -0.795609 -3 -1.55874 -2.683901 -2.12132 -2.12132 
C -2.683901 -1.55874 -3 -0.795609 -3 0 
C -3 0.795609 -2.683901 1.55874 -2.12132 2.12132 
C -1.55874 2.683901 -0.795609 3 0 3 
z
" style="stroke: #1f77b4"/>
    </defs>
    <g clip-path="url(#pe96cc97a27)">
     <use xlink:href="#m2b8091ae2e" x="153.978628" y="310.000591" style="fill: #1f77b4; stroke: #1f77b4"/>
     <use xlink:href="#m2b8091ae2e" x="106.513883" y="341.222595" style="fill: #1f77b4; stroke: #1f77b4"/>
     <use xlink:href="#m2b8091ae2e" x="236.436767" y="263.322793" style="fill: #1f77b4; stroke: #1f77b4"/>
     <use xlink:href="#m2b8091ae2e" x="498.945378" y="90.821714" style="fill: #1f77b4; stroke: #1f77b4"/>
     <use xlink:href="#m2b8091ae2e" x="193.796881" y="285.893902" style="fill: #1f77b4; stroke: #1f77b4"/>
     <use xlink:href="#m2b8091ae2e" x="79.900323" y="356.516337" style="fill: #1f77b4; stroke: #1f77b4"/>
     <use xlink:href="#m2b8091ae2e" x="79.082428" y="360.900422" style="fill: #1f77b4; stroke: #1f77b4"/>
     <use xlink:href="#m2b8091ae2e" x="481.131889" y="120.327038" style="fill: #1f77b4; stroke: #1f77b4"/>
     <use xlink:href="#m2b8091ae2e" x="290.013007" y="227.407951" style="fill: #1f77b4; stroke: #1f77b4"/>
     <use xlink:href="#m2b8091ae2e" x="341.54076" y="198.269157" style="fill: #1f77b4; stroke: #1f77b4"/>
     <use xlink:href="#m2b8091ae2e" x="358.868008" y="176.285662" style="fill: #1f77b4; stroke: #1f77b4"/>
     <use xlink:href="#m2b8091ae2e" x="89.327373" y="352.540734" style="fill: #1f77b4; stroke: #1f77b4"/>
     <use xlink:href="#m2b8091ae2e" x="161.432687" y="304.555216" style="fill: #1f77b4; stroke: #1f77b4"/>
     <use xlink:href="#m2b8091ae2e" x="498.810981" y="102.898586" style="fill: #1f77b4; stroke: #1f77b4"/>
     <use xlink:href="#m2b8091ae2e" x="92.944872" y="346.478561" style="fill: #1f77b4; stroke: #1f77b4"/>
     <use xlink:href="#m2b8091ae2e" x="264.753246" y="255.667848" style="fill: #1f77b4; stroke: #1f77b4"/>
     <use xlink:href="#m2b8091ae2e" x="83.137917" y="353.6472" style="fill: #1f77b4; stroke: #1f77b4"/>
     <use xlink:href="#m2b8091ae2e" x="124.125416" y="330.195632" style="fill: #1f77b4; stroke: #1f77b4"/>
     <use xlink:href="#m2b8091ae2e" x="475.90926" y="128.487682" style="fill: #1f77b4; stroke: #1f77b4"/>
     <use xlink:href="#m2b8091ae2e" x="205.620048" y="284.248226" style="fill: #1f77b4; stroke: #1f77b4"/>
     <use xlink:href="#m2b8091ae2e" x="478.470298" y="129.001882" style="fill: #1f77b4; stroke: #1f77b4"/>
     <use xlink:href="#m2b8091ae2e" x="167.156097" y="297.035464" style="fill: #1f77b4; stroke: #1f77b4"/>
     <use xlink:href="#m2b8091ae2e" x="299.214056" y="226.899901" style="fill: #1f77b4; stroke: #1f77b4"/>
     <use xlink:href="#m2b8091ae2e" x="118.011684" y="332.931546" style="fill: #1f77b4; stroke: #1f77b4"/>
     <use xlink:href="#m2b8091ae2e" x="72.154456" y="363.028962" style="fill: #1f77b4; stroke: #1f77b4"/>
     <use xlink:href="#m2b8091ae2e" x="76.093626" y="360.59883" style="fill: #1f77b4; stroke: #1f77b4"/>
     <use xlink:href="#m2b8091ae2e" x="163.270683" y="306.8711" style="fill: #1f77b4; stroke: #1f77b4"/>
     <use xlink:href="#m2b8091ae2e" x="91.2299" y="355.423158" style="fill: #1f77b4; stroke: #1f77b4"/>
     <use xlink:href="#m2b8091ae2e" x="144.676575" y="321.576533" style="fill: #1f77b4; stroke: #1f77b4"/>
     <use xlink:href="#m2b8091ae2e" x="114.660795" y="337.476134" style="fill: #1f77b4; stroke: #1f77b4"/>
     <use xlink:href="#m2b8091ae2e" x="82.997361" y="351.928036" style="fill: #1f77b4; stroke: #1f77b4"/>
     <use xlink:href="#m2b8091ae2e" x="341.705713" y="198.070471" style="fill: #1f77b4; stroke: #1f77b4"/>
     <use xlink:href="#m2b8091ae2e" x="216.292225" y="275.409573" style="fill: #1f77b4; stroke: #1f77b4"/>
     <use xlink:href="#m2b8091ae2e" x="307.505815" y="212.57433" style="fill: #1f77b4; stroke: #1f77b4"/>
     <use xlink:href="#m2b8091ae2e" x="229.312002" y="269.019446" style="fill: #1f77b4; stroke: #1f77b4"/>
     <use xlink:href="#m2b8091ae2e" x="526.078532" y="91.581246" style="fill: #1f77b4; stroke: #1f77b4"/>
     <use xlink:href="#m2b8091ae2e" x="111.804444" y="336.356821" style="fill: #1f77b4; stroke: #1f77b4"/>
     <use xlink:href="#m2b8091ae2e" x="316.776596" y="208.901067" style="fill: #1f77b4; stroke: #1f77b4"/>
     <use xlink:href="#m2b8091ae2e" x="386.580953" y="188.579851" style="fill: #1f77b4; stroke: #1f77b4"/>
     <use xlink:href="#m2b8091ae2e" x="105.949503" y="338.650616" style="fill: #1f77b4; stroke: #1f77b4"/>
     <use xlink:href="#m2b8091ae2e" x="96.289113" y="347.984291" style="fill: #1f77b4; stroke: #1f77b4"/>
     <use xlink:href="#m2b8091ae2e" x="151.183631" y="314.583332" style="fill: #1f77b4; stroke: #1f77b4"/>
     <use xlink:href="#m2b8091ae2e" x="117.902792" y="333.102003" style="fill: #1f77b4; stroke: #1f77b4"/>
     <use xlink:href="#m2b8091ae2e" x="266.147286" y="239.407302" style="fill: #1f77b4; stroke: #1f77b4"/>
     <use xlink:href="#m2b8091ae2e" x="83.50384" y="354.768272" style="fill: #1f77b4; stroke: #1f77b4"/>
     <use xlink:href="#m2b8091ae2e" x="194.429829" y="284.416739" style="fill: #1f77b4; stroke: #1f77b4"/>
     <use xlink:href="#m2b8091ae2e" x="252.21134" y="253.852327" style="fill: #1f77b4; stroke: #1f77b4"/>
     <use xlink:href="#m2b8091ae2e" x="366.466968" y="171.464266" style="fill: #1f77b4; stroke: #1f77b4"/>
     <use xlink:href="#m2b8091ae2e" x="95.385478" y="345.660568" style="fill: #1f77b4; stroke: #1f77b4"/>
     <use xlink:href="#m2b8091ae2e" x="248.779883" y="258.108023" style="fill: #1f77b4; stroke: #1f77b4"/>
     <use xlink:href="#m2b8091ae2e" x="167.901183" y="298.607365" style="fill: #1f77b4; stroke: #1f77b4"/>
     <use xlink:href="#m2b8091ae2e" x="104.818868" y="344.203203" style="fill: #1f77b4; stroke: #1f77b4"/>
     <use xlink:href="#m2b8091ae2e" x="83.272579" y="355.771723" style="fill: #1f77b4; stroke: #1f77b4"/>
     <use xlink:href="#m2b8091ae2e" x="415.458134" y="154.165623" style="fill: #1f77b4; stroke: #1f77b4"/>
     <use xlink:href="#m2b8091ae2e" x="448.853255" y="129.809899" style="fill: #1f77b4; stroke: #1f77b4"/>
     <use xlink:href="#m2b8091ae2e" x="383.166987" y="159.672781" style="fill: #1f77b4; stroke: #1f77b4"/>
     <use xlink:href="#m2b8091ae2e" x="79.288934" y="360.498681" style="fill: #1f77b4; stroke: #1f77b4"/>
     <use xlink:href="#m2b8091ae2e" x="192.88296" y="289.986235" style="fill: #1f77b4; stroke: #1f77b4"/>
     <use xlink:href="#m2b8091ae2e" x="211.03506" y="288.907596" style="fill: #1f77b4; stroke: #1f77b4"/>
     <use xlink:href="#m2b8091ae2e" x="165.997545" y="306.924593" style="fill: #1f77b4; stroke: #1f77b4"/>
     <use xlink:href="#m2b8091ae2e" x="120.700219" y="333.928021" style="fill: #1f77b4; stroke: #1f77b4"/>
     <use xlink:href="#m2b8091ae2e" x="102.63975" y="343.298732" style="fill: #1f77b4; stroke: #1f77b4"/>
     <use xlink:href="#m2b8091ae2e" x="162.582153" y="306.742661" style="fill: #1f77b4; stroke: #1f77b4"/>
     <use xlink:href="#m2b8091ae2e" x="117.763761" y="331.734533" style="fill: #1f77b4; stroke: #1f77b4"/>
     <use xlink:href="#m2b8091ae2e" x="306.563662" y="220.093411" style="fill: #1f77b4; stroke: #1f77b4"/>
     <use xlink:href="#m2b8091ae2e" x="270.299483" y="236.995391" style="fill: #1f77b4; stroke: #1f77b4"/>
     <use xlink:href="#m2b8091ae2e" x="296.865844" y="215.519644" style="fill: #1f77b4; stroke: #1f77b4"/>
     <use xlink:href="#m2b8091ae2e" x="212.434409" y="283.316043" style="fill: #1f77b4; stroke: #1f77b4"/>
     <use xlink:href="#m2b8091ae2e" x="301.588076" y="223.127892" style="fill: #1f77b4; stroke: #1f77b4"/>
     <use xlink:href="#m2b8091ae2e" x="433.818833" y="139.228786" style="fill: #1f77b4; stroke: #1f77b4"/>
     <use xlink:href="#m2b8091ae2e" x="259.60755" y="245.842228" style="fill: #1f77b4; stroke: #1f77b4"/>
     <use xlink:href="#m2b8091ae2e" x="172.303454" y="303.976724" style="fill: #1f77b4; stroke: #1f77b4"/>
     <use xlink:href="#m2b8091ae2e" x="193.684436" y="285.045265" style="fill: #1f77b4; stroke: #1f77b4"/>
     <use xlink:href="#m2b8091ae2e" x="327.080059" y="194.563484" style="fill: #1f77b4; stroke: #1f77b4"/>
     <use xlink:href="#m2b8091ae2e" x="337.949946" y="206.563091" style="fill: #1f77b4; stroke: #1f77b4"/>
     <use xlink:href="#m2b8091ae2e" x="83.408643" y="352.442238" style="fill: #1f77b4; stroke: #1f77b4"/>
     <use xlink:href="#m2b8091ae2e" x="152.687" y="312.430505" style="fill: #1f77b4; stroke: #1f77b4"/>
     <use xlink:href="#m2b8091ae2e" x="181.703342" y="299.919426" style="fill: #1f77b4; stroke: #1f77b4"/>
     <use xlink:href="#m2b8091ae2e" x="150.652446" y="311.175606" style="fill: #1f77b4; stroke: #1f77b4"/>
     <use xlink:href="#m2b8091ae2e" x="201.336873" y="288.641894" style="fill: #1f77b4; stroke: #1f77b4"/>
     <use xlink:href="#m2b8091ae2e" x="109.953916" y="345.877522" style="fill: #1f77b4; stroke: #1f77b4"/>
     <use xlink:href="#m2b8091ae2e" x="246.242145" y="256.099818" style="fill: #1f77b4; stroke: #1f77b4"/>
     <use xlink:href="#m2b8091ae2e" x="322.029548" y="206.895989" style="fill: #1f77b4; stroke: #1f77b4"/>
     <use xlink:href="#m2b8091ae2e" x="499.58862" y="86.215166" style="fill: #1f77b4; stroke: #1f77b4"/>
     <use xlink:href="#m2b8091ae2e" x="147.461254" y="314.373683" style="fill: #1f77b4; stroke: #1f77b4"/>
     <use xlink:href="#m2b8091ae2e" x="254.35962" y="249.74663" style="fill: #1f77b4; stroke: #1f77b4"/>
     <use xlink:href="#m2b8091ae2e" x="111.690068" y="336.790253" style="fill: #1f77b4; stroke: #1f77b4"/>
     <use xlink:href="#m2b8091ae2e" x="77.878593" y="359.174507" style="fill: #1f77b4; stroke: #1f77b4"/>
     <use xlink:href="#m2b8091ae2e" x="117.290334" y="338.691312" style="fill: #1f77b4; stroke: #1f77b4"/>
     <use xlink:href="#m2b8091ae2e" x="220.633705" y="268.638657" style="fill: #1f77b4; stroke: #1f77b4"/>
     <use xlink:href="#m2b8091ae2e" x="165.841128" y="302.526279" style="fill: #1f77b4; stroke: #1f77b4"/>
     <use xlink:href="#m2b8091ae2e" x="110.471567" y="343.257298" style="fill: #1f77b4; stroke: #1f77b4"/>
     <use xlink:href="#m2b8091ae2e" x="103.335106" y="347.492596" style="fill: #1f77b4; stroke: #1f77b4"/>
     <use xlink:href="#m2b8091ae2e" x="186.683512" y="290.362061" style="fill: #1f77b4; stroke: #1f77b4"/>
     <use xlink:href="#m2b8091ae2e" x="255.153736" y="242.882245" style="fill: #1f77b4; stroke: #1f77b4"/>
     <use xlink:href="#m2b8091ae2e" x="208.884584" y="279.634614" style="fill: #1f77b4; stroke: #1f77b4"/>
     <use xlink:href="#m2b8091ae2e" x="133.585911" y="320.2656" style="fill: #1f77b4; stroke: #1f77b4"/>
     <use xlink:href="#m2b8091ae2e" x="134.384145" y="327.037515" style="fill: #1f77b4; stroke: #1f77b4"/>
     <use xlink:href="#m2b8091ae2e" x="88.287562" y="355.41984" style="fill: #1f77b4; stroke: #1f77b4"/>
     <use xlink:href="#m2b8091ae2e" x="94.23106" y="351.892409" style="fill: #1f77b4; stroke: #1f77b4"/>
    </g>
   </g>
   <g id="line2d_30">
    <path d="M 71.447386 362.763276 
L 578.720114 51.539832 
" clip-path="url(#pe96cc97a27)" style="fill: none; stroke: #ff7f0e; stroke-width: 1.5; stroke-linecap: square"/>
   </g>
   <g id="patch_3">
    <path d="M 46.08375 378.603418 
L 46.08375 35.965375 
" style="fill: none; stroke: #cccccc; stroke-width: 2; stroke-linejoin: miter; stroke-linecap: square"/>
   </g>
   <g id="patch_4">
    <path d="M 604.08375 378.603418 
L 604.08375 35.965375 
" style="fill: none; stroke: #cccccc; stroke-width: 2; stroke-linejoin: miter; stroke-linecap: square"/>
   </g>
   <g id="patch_5">
    <path d="M 46.08375 378.603418 
L 604.08375 378.603418 
" style="fill: none; stroke: #cccccc; stroke-width: 2; stroke-linejoin: miter; stroke-linecap: square"/>
   </g>
   <g id="patch_6">
    <path d="M 46.08375 35.965375 
L 604.08375 35.965375 
" style="fill: none; stroke: #cccccc; stroke-width: 2; stroke-linejoin: miter; stroke-linecap: square"/>
   </g>
   <g id="text_17">
    <!-- Linear trend with trendline -->
    <g transform="translate(213.224625 19.965375) scale(0.168 -0.168)">
     <defs>
      <path id="DejaVuSans-4c" d="M 628 4666 
L 1259 4666 
L 1259 531 
L 3531 531 
L 3531 0 
L 628 0 
L 628 4666 
z
" transform="scale(0.015625)"/>
      <path id="DejaVuSans-69" d="M 603 3500 
L 1178 3500 
L 1178 0 
L 603 0 
L 603 3500 
z
M 603 4863 
L 1178 4863 
L 1178 4134 
L 603 4134 
L 603 4863 
z
" transform="scale(0.015625)"/>
      <path id="DejaVuSans-6e" d="M 3513 2113 
L 3513 0 
L 2938 0 
L 2938 2094 
Q 2938 2591 2744 2837 
Q 2550 3084 2163 3084 
Q 1697 3084 1428 2787 
Q 1159 2491 1159 1978 
L 1159 0 
L 581 0 
L 581 3500 
L 1159 3500 
L 1159 2956 
Q 1366 3272 1645 3428 
Q 1925 3584 2291 3584 
Q 2894 3584 3203 3211 
Q 3513 2838 3513 2113 
z
" transform="scale(0.015625)"/>
      <path id="DejaVuSans-65" d="M 3597 1894 
L 3597 1613 
L 953 1613 
Q 991 1019 1311 708 
Q 1631 397 2203 397 
Q 2534 397 2845 478 
Q 3156 559 3463 722 
L 3463 178 
Q 3153 47 2828 -22 
Q 2503 -91 2169 -91 
Q 1331 -91 842 396 
Q 353 884 353 1716 
Q 353 2575 817 3079 
Q 1281 3584 2069 3584 
Q 2775 3584 3186 3129 
Q 3597 2675 3597 1894 
z
M 3022 2063 
Q 3016 2534 2758 2815 
Q 2500 3097 2075 3097 
Q 1594 3097 1305 2825 
Q 1016 2553 972 2059 
L 3022 2063 
z
" transform="scale(0.015625)"/>
      <path id="DejaVuSans-61" d="M 2194 1759 
Q 1497 1759 1228 1600 
Q 959 1441 959 1056 
Q 959 750 1161 570 
Q 1363 391 1709 391 
Q 2188 391 2477 730 
Q 2766 1069 2766 1631 
L 2766 1759 
L 2194 1759 
z
M 3341 1997 
L 3341 0 
L 2766 0 
L 2766 531 
Q 2569 213 2275 61 
Q 1981 -91 1556 -91 
Q 1019 -91 701 211 
Q 384 513 384 1019 
Q 384 1609 779 1909 
Q 1175 2209 1959 2209 
L 2766 2209 
L 2766 2266 
Q 2766 2663 2505 2880 
Q 2244 3097 1772 3097 
Q 1472 3097 1187 3025 
Q 903 2953 641 2809 
L 641 3341 
Q 956 3463 1253 3523 
Q 1550 3584 1831 3584 
Q 2591 3584 2966 3190 
Q 3341 2797 3341 1997 
z
" transform="scale(0.015625)"/>
      <path id="DejaVuSans-72" d="M 2631 2963 
Q 2534 3019 2420 3045 
Q 2306 3072 2169 3072 
Q 1681 3072 1420 2755 
Q 1159 2438 1159 1844 
L 1159 0 
L 581 0 
L 581 3500 
L 1159 3500 
L 1159 2956 
Q 1341 3275 1631 3429 
Q 1922 3584 2338 3584 
Q 2397 3584 2469 3576 
Q 2541 3569 2628 3553 
L 2631 2963 
z
" transform="scale(0.015625)"/>
      <path id="DejaVuSans-20" transform="scale(0.015625)"/>
      <path id="DejaVuSans-74" d="M 1172 4494 
L 1172 3500 
L 2356 3500 
L 2356 3053 
L 1172 3053 
L 1172 1153 
Q 1172 725 1289 603 
Q 1406 481 1766 481 
L 2356 481 
L 2356 0 
L 1766 0 
Q 1100 0 847 248 
Q 594 497 594 1153 
L 594 3053 
L 172 3053 
L 172 3500 
L 594 3500 
L 594 4494 
L 1172 4494 
z
" transform="scale(0.015625)"/>
      <path id="DejaVuSans-64" d="M 2906 2969 
L 2906 4863 
L 3481 4863 
L 3481 0 
L 2906 0 
L 2906 525 
Q 2725 213 2448 61 
Q 2172 -91 1784 -91 
Q 1150 -91 751 415 
Q 353 922 353 1747 
Q 353 2572 751 3078 
Q 1150 3584 1784 3584 
Q 2172 3584 2448 3432 
Q 2725 3281 2906 2969 
z
M 947 1747 
Q 947 1113 1208 752 
Q 1469 391 1925 391 
Q 2381 391 2643 752 
Q 2906 1113 2906 1747 
Q 2906 2381 2643 2742 
Q 2381 3103 1925 3103 
Q 1469 3103 1208 2742 
Q 947 2381 947 1747 
z
" transform="scale(0.015625)"/>
      <path id="DejaVuSans-77" d="M 269 3500 
L 844 3500 
L 1563 769 
L 2278 3500 
L 2956 3500 
L 3675 769 
L 4391 3500 
L 4966 3500 
L 4050 0 
L 3372 0 
L 2619 2869 
L 1863 0 
L 1184 0 
L 269 3500 
z
" transform="scale(0.015625)"/>
      <path id="DejaVuSans-68" d="M 3513 2113 
L 3513 0 
L 2938 0 
L 2938 2094 
Q 2938 2591 2744 2837 
Q 2550 3084 2163 3084 
Q 1697 3084 1428 2787 
Q 1159 2491 1159 1978 
L 1159 0 
L 581 0 
L 581 4863 
L 1159 4863 
L 1159 2956 
Q 1366 3272 1645 3428 
Q 1925 3584 2291 3584 
Q 2894 3584 3203 3211 
Q 3513 2838 3513 2113 
z
" transform="scale(0.015625)"/>
      <path id="DejaVuSans-6c" d="M 603 4863 
L 1178 4863 
L 1178 0 
L 603 0 
L 603 4863 
z
" transform="scale(0.015625)"/>
     </defs>
     <use xlink:href="#DejaVuSans-4c"/>
     <use xlink:href="#DejaVuSans-69" x="55.712891"/>
     <use xlink:href="#DejaVuSans-6e" x="83.496094"/>
     <use xlink:href="#DejaVuSans-65" x="146.875"/>
     <use xlink:href="#DejaVuSans-61" x="208.398438"/>
     <use xlink:href="#DejaVuSans-72" x="269.677734"/>
     <use xlink:href="#DejaVuSans-20" x="310.791016"/>
     <use xlink:href="#DejaVuSans-74" x="342.578125"/>
     <use xlink:href="#DejaVuSans-72" x="381.787109"/>
     <use xlink:href="#DejaVuSans-65" x="420.650391"/>
     <use xlink:href="#DejaVuSans-6e" x="482.173828"/>
     <use xlink:href="#DejaVuSans-64" x="545.552734"/>
     <use xlink:href="#DejaVuSans-20" x="609.029297"/>
     <use xlink:href="#DejaVuSans-77" x="640.816406"/>
     <use xlink:href="#DejaVuSans-69" x="722.603516"/>
     <use xlink:href="#DejaVuSans-74" x="750.386719"/>
     <use xlink:href="#DejaVuSans-68" x="789.595703"/>
     <use xlink:href="#DejaVuSans-20" x="852.974609"/>
     <use xlink:href="#DejaVuSans-74" x="884.761719"/>
     <use xlink:href="#DejaVuSans-72" x="923.970703"/>
     <use xlink:href="#DejaVuSans-65" x="962.833984"/>
     <use xlink:href="#DejaVuSans-6e" x="1024.357422"/>
     <use xlink:href="#DejaVuSans-64" x="1087.736328"/>
     <use xlink:href="#DejaVuSans-6c" x="1151.212891"/>
     <use xlink:href="#DejaVuSans-69" x="1178.996094"/>
     <use xlink:href="#DejaVuSans-6e" x="1206.779297"/>
     <use xlink:href="#DejaVuSans-65" x="1270.158203"/>
    </g>
   </g>
  </g>
 </g>
 <defs>
  <clipPath id="pe96cc97a27">
   <rect x="46.08375" y="35.965375" width="558" height="342.638043"/>
  </clipPath>
 </defs>
</svg>
