<?xml version="1.0" encoding="utf-8" standalone="no"?>
<!DOCTYPE svg PUBLIC "-//W3C//DTD SVG 1.1//EN"
  "http://www.w3.org/Graphics/SVG/1.1/DTD/svg11.dtd">
<svg xmlns:xlink="http://www.w3.org/1999/xlink" width="611.28375pt" height="421.030918pt" viewBox="0 0 611.28375 421.030918" xmlns="http://www.w3.org/2000/svg" version="1.1">
 <metadata>
  <rdf:RDF xmlns:dc="http://purl.org/dc/elements/1.1/" xmlns:cc="http://creativecommons.org/ns#" xmlns:rdf="http://www.w3.org/1999/02/22-rdf-syntax-ns#">
   <cc:Work>
    <dc:type rdf:resource="http://purl.org/dc/dcmitype/StillImage"/>
    <dc:date>2023-10-25T18:46:32.850477</dc:date>
    <dc:format>image/svg+xml</dc:format>
    <dc:creator>
     <cc:Agent>
      <dc:title>Matplotlib v3.8.0, https://matplotlib.org/</dc:title>
     </cc:Agent>
    </dc:creator>
   </cc:Work>
  </rdf:RDF>
 </metadata>
 <defs>
  <style type="text/css">*{stroke-linejoin: round; stroke-linecap: butt}</style>
 </defs>
 <g id="figure_1">
  <g id="patch_1">
   <path d="M 0 421.030918 
L 611.28375 421.030918 
L 611.28375 0 
L 0 0 
z
" style="fill: #ffffff"/>
  </g>
  <g id="axes_1">
   <g id="patch_2">
    <path d="M 46.08375 378.603418 
L 604.08375 378.603418 
L 604.08375 35.965375 
L 46.08375 35.965375 
z
" style="fill: #ffffff"/>
   </g>
   <g id="matplotlib.axis_1">
    <g id="xtick_1">
     <g id="line2d_1">
      <path d="M 108.449972 378.603418 
L 108.449972 35.965375 
" clip-path="url(#pfa9d170c8d)" style="fill: none; stroke-dasharray: 2,8; stroke-dashoffset: 0; stroke: #cccccc; stroke-width: 2; stroke-linecap: round"/>
     </g>
     <g id="line2d_2"/>
     <g id="text_1">
      <!-- 1.5 -->
      <g transform="translate(98.908097 391.721543) scale(0.12 -0.12)">
       <defs>
        <path id="DejaVuSans-31" d="M 794 531 
L 1825 531 
L 1825 4091 
L 703 3866 
L 703 4441 
L 1819 4666 
L 2450 4666 
L 2450 531 
L 3481 531 
L 3481 0 
L 794 0 
L 794 531 
z
" transform="scale(0.015625)"/>
        <path id="DejaVuSans-2e" d="M 684 794 
L 1344 794 
L 1344 0 
L 684 0 
L 684 794 
z
" transform="scale(0.015625)"/>
        <path id="DejaVuSans-35" d="M 691 4666 
L 3169 4666 
L 3169 4134 
L 1269 4134 
L 1269 2991 
Q 1406 3038 1543 3061 
Q 1681 3084 1819 3084 
Q 2600 3084 3056 2656 
Q 3513 2228 3513 1497 
Q 3513 744 3044 326 
Q 2575 -91 1722 -91 
Q 1428 -91 1123 -41 
Q 819 9 494 109 
L 494 744 
Q 775 591 1075 516 
Q 1375 441 1709 441 
Q 2250 441 2565 725 
Q 2881 1009 2881 1497 
Q 2881 1984 2565 2268 
Q 2250 2553 1709 2553 
Q 1456 2553 1204 2497 
Q 953 2441 691 2322 
L 691 4666 
z
" transform="scale(0.015625)"/>
       </defs>
       <use xlink:href="#DejaVuSans-31"/>
       <use xlink:href="#DejaVuSans-2e" x="63.623047"/>
       <use xlink:href="#DejaVuSans-35" x="95.410156"/>
      </g>
     </g>
    </g>
    <g id="xtick_2">
     <g id="line2d_3">
      <path d="M 184.035481 378.603418 
L 184.035481 35.965375 
" clip-path="url(#pfa9d170c8d)" style="fill: none; stroke-dasharray: 2,8; stroke-dashoffset: 0; stroke: #cccccc; stroke-width: 2; stroke-linecap: round"/>
     </g>
     <g id="line2d_4"/>
     <g id="text_2">
      <!-- 2.0 -->
      <g transform="translate(174.493606 391.721543) scale(0.12 -0.12)">
       <defs>
        <path id="DejaVuSans-32" d="M 1228 531 
L 3431 531 
L 3431 0 
L 469 0 
L 469 531 
Q 828 903 1448 1529 
Q 2069 2156 2228 2338 
Q 2531 2678 2651 2914 
Q 2772 3150 2772 3378 
Q 2772 3750 2511 3984 
Q 2250 4219 1831 4219 
Q 1534 4219 1204 4116 
Q 875 4013 500 3803 
L 500 4441 
Q 881 4594 1212 4672 
Q 1544 4750 1819 4750 
Q 2544 4750 2975 4387 
Q 3406 4025 3406 3419 
Q 3406 3131 3298 2873 
Q 3191 2616 2906 2266 
Q 2828 2175 2409 1742 
Q 1991 1309 1228 531 
z
" transform="scale(0.015625)"/>
        <path id="DejaVuSans-30" d="M 2034 4250 
Q 1547 4250 1301 3770 
Q 1056 3291 1056 2328 
Q 1056 1369 1301 889 
Q 1547 409 2034 409 
Q 2525 409 2770 889 
Q 3016 1369 3016 2328 
Q 3016 3291 2770 3770 
Q 2525 4250 2034 4250 
z
M 2034 4750 
Q 2819 4750 3233 4129 
Q 3647 3509 3647 2328 
Q 3647 1150 3233 529 
Q 2819 -91 2034 -91 
Q 1250 -91 836 529 
Q 422 1150 422 2328 
Q 422 3509 836 4129 
Q 1250 4750 2034 4750 
z
" transform="scale(0.015625)"/>
       </defs>
       <use xlink:href="#DejaVuSans-32"/>
       <use xlink:href="#DejaVuSans-2e" x="63.623047"/>
       <use xlink:href="#DejaVuSans-30" x="95.410156"/>
      </g>
     </g>
    </g>
    <g id="xtick_3">
     <g id="line2d_5">
      <path d="M 259.620991 378.603418 
L 259.620991 35.965375 
" clip-path="url(#pfa9d170c8d)" style="fill: none; stroke-dasharray: 2,8; stroke-dashoffset: 0; stroke: #cccccc; stroke-width: 2; stroke-linecap: round"/>
     </g>
     <g id="line2d_6"/>
     <g id="text_3">
      <!-- 2.5 -->
      <g transform="translate(250.079116 391.721543) scale(0.12 -0.12)">
       <use xlink:href="#DejaVuSans-32"/>
       <use xlink:href="#DejaVuSans-2e" x="63.623047"/>
       <use xlink:href="#DejaVuSans-35" x="95.410156"/>
      </g>
     </g>
    </g>
    <g id="xtick_4">
     <g id="line2d_7">
      <path d="M 335.206501 378.603418 
L 335.206501 35.965375 
" clip-path="url(#pfa9d170c8d)" style="fill: none; stroke-dasharray: 2,8; stroke-dashoffset: 0; stroke: #cccccc; stroke-width: 2; stroke-linecap: round"/>
     </g>
     <g id="line2d_8"/>
     <g id="text_4">
      <!-- 3.0 -->
      <g transform="translate(325.664626 391.721543) scale(0.12 -0.12)">
       <defs>
        <path id="DejaVuSans-33" d="M 2597 2516 
Q 3050 2419 3304 2112 
Q 3559 1806 3559 1356 
Q 3559 666 3084 287 
Q 2609 -91 1734 -91 
Q 1441 -91 1130 -33 
Q 819 25 488 141 
L 488 750 
Q 750 597 1062 519 
Q 1375 441 1716 441 
Q 2309 441 2620 675 
Q 2931 909 2931 1356 
Q 2931 1769 2642 2001 
Q 2353 2234 1838 2234 
L 1294 2234 
L 1294 2753 
L 1863 2753 
Q 2328 2753 2575 2939 
Q 2822 3125 2822 3475 
Q 2822 3834 2567 4026 
Q 2313 4219 1838 4219 
Q 1578 4219 1281 4162 
Q 984 4106 628 3988 
L 628 4550 
Q 988 4650 1302 4700 
Q 1616 4750 1894 4750 
Q 2613 4750 3031 4423 
Q 3450 4097 3450 3541 
Q 3450 3153 3228 2886 
Q 3006 2619 2597 2516 
z
" transform="scale(0.015625)"/>
       </defs>
       <use xlink:href="#DejaVuSans-33"/>
       <use xlink:href="#DejaVuSans-2e" x="63.623047"/>
       <use xlink:href="#DejaVuSans-30" x="95.410156"/>
      </g>
     </g>
    </g>
    <g id="xtick_5">
     <g id="line2d_9">
      <path d="M 410.792011 378.603418 
L 410.792011 35.965375 
" clip-path="url(#pfa9d170c8d)" style="fill: none; stroke-dasharray: 2,8; stroke-dashoffset: 0; stroke: #cccccc; stroke-width: 2; stroke-linecap: round"/>
     </g>
     <g id="line2d_10"/>
     <g id="text_5">
      <!-- 3.5 -->
      <g transform="translate(401.250136 391.721543) scale(0.12 -0.12)">
       <use xlink:href="#DejaVuSans-33"/>
       <use xlink:href="#DejaVuSans-2e" x="63.623047"/>
       <use xlink:href="#DejaVuSans-35" x="95.410156"/>
      </g>
     </g>
    </g>
    <g id="xtick_6">
     <g id="line2d_11">
      <path d="M 486.37752 378.603418 
L 486.37752 35.965375 
" clip-path="url(#pfa9d170c8d)" style="fill: none; stroke-dasharray: 2,8; stroke-dashoffset: 0; stroke: #cccccc; stroke-width: 2; stroke-linecap: round"/>
     </g>
     <g id="line2d_12"/>
     <g id="text_6">
      <!-- 4.0 -->
      <g transform="translate(476.835645 391.721543) scale(0.12 -0.12)">
       <defs>
        <path id="DejaVuSans-34" d="M 2419 4116 
L 825 1625 
L 2419 1625 
L 2419 4116 
z
M 2253 4666 
L 3047 4666 
L 3047 1625 
L 3713 1625 
L 3713 1100 
L 3047 1100 
L 3047 0 
L 2419 0 
L 2419 1100 
L 313 1100 
L 313 1709 
L 2253 4666 
z
" transform="scale(0.015625)"/>
       </defs>
       <use xlink:href="#DejaVuSans-34"/>
       <use xlink:href="#DejaVuSans-2e" x="63.623047"/>
       <use xlink:href="#DejaVuSans-30" x="95.410156"/>
      </g>
     </g>
    </g>
    <g id="xtick_7">
     <g id="line2d_13">
      <path d="M 561.96303 378.603418 
L 561.96303 35.965375 
" clip-path="url(#pfa9d170c8d)" style="fill: none; stroke-dasharray: 2,8; stroke-dashoffset: 0; stroke: #cccccc; stroke-width: 2; stroke-linecap: round"/>
     </g>
     <g id="line2d_14"/>
     <g id="text_7">
      <!-- 4.5 -->
      <g transform="translate(552.421155 391.721543) scale(0.12 -0.12)">
       <use xlink:href="#DejaVuSans-34"/>
       <use xlink:href="#DejaVuSans-2e" x="63.623047"/>
       <use xlink:href="#DejaVuSans-35" x="95.410156"/>
      </g>
     </g>
    </g>
    <g id="text_8">
     <!-- $X=1/S$ -->
     <g transform="translate(303.90375 411.335293) scale(0.12 -0.12)">
      <defs>
       <path id="DejaVuSans-Oblique-58" d="M 878 4666 
L 1516 4666 
L 2316 2981 
L 3763 4666 
L 4500 4666 
L 2578 2438 
L 3738 0 
L 3103 0 
L 2163 1966 
L 459 0 
L -275 0 
L 1906 2509 
L 878 4666 
z
" transform="scale(0.015625)"/>
       <path id="DejaVuSans-3d" d="M 678 2906 
L 4684 2906 
L 4684 2381 
L 678 2381 
L 678 2906 
z
M 678 1631 
L 4684 1631 
L 4684 1100 
L 678 1100 
L 678 1631 
z
" transform="scale(0.015625)"/>
       <path id="DejaVuSans-2f" d="M 1625 4666 
L 2156 4666 
L 531 -594 
L 0 -594 
L 1625 4666 
z
" transform="scale(0.015625)"/>
       <path id="DejaVuSans-Oblique-53" d="M 3859 4513 
L 3738 3897 
Q 3422 4066 3111 4152 
Q 2800 4238 2509 4238 
Q 1944 4238 1609 3991 
Q 1275 3744 1275 3334 
Q 1275 3109 1398 2989 
Q 1522 2869 2034 2731 
L 2413 2638 
Q 3053 2472 3303 2217 
Q 3553 1963 3553 1503 
Q 3553 797 2998 353 
Q 2444 -91 1538 -91 
Q 1166 -91 791 -17 
Q 416 56 38 206 
L 166 856 
Q 513 641 861 531 
Q 1209 422 1556 422 
Q 2147 422 2503 684 
Q 2859 947 2859 1369 
Q 2859 1650 2717 1795 
Q 2575 1941 2106 2059 
L 1728 2156 
Q 1081 2325 845 2545 
Q 609 2766 609 3163 
Q 609 3859 1145 4304 
Q 1681 4750 2541 4750 
Q 2875 4750 3203 4690 
Q 3531 4631 3859 4513 
z
" transform="scale(0.015625)"/>
      </defs>
      <use xlink:href="#DejaVuSans-Oblique-58" transform="translate(0 0.78125)"/>
      <use xlink:href="#DejaVuSans-3d" transform="translate(87.988281 0.78125)"/>
      <use xlink:href="#DejaVuSans-31" transform="translate(191.259766 0.78125)"/>
      <use xlink:href="#DejaVuSans-2f" transform="translate(254.882812 0.78125)"/>
      <use xlink:href="#DejaVuSans-Oblique-53" transform="translate(288.574219 0.78125)"/>
     </g>
    </g>
   </g>
   <g id="matplotlib.axis_2">
    <g id="ytick_1">
     <g id="line2d_15">
      <path d="M 46.08375 323.817868 
L 604.08375 323.817868 
" clip-path="url(#pfa9d170c8d)" style="fill: none; stroke-dasharray: 2,8; stroke-dashoffset: 0; stroke: #cccccc; stroke-width: 2; stroke-linecap: round"/>
     </g>
     <g id="line2d_16"/>
     <g id="text_9">
      <!-- 10 -->
      <g transform="translate(26.81375 328.376931) scale(0.12 -0.12)">
       <use xlink:href="#DejaVuSans-31"/>
       <use xlink:href="#DejaVuSans-30" x="63.623047"/>
      </g>
     </g>
    </g>
    <g id="ytick_2">
     <g id="line2d_17">
      <path d="M 46.08375 261.558467 
L 604.08375 261.558467 
" clip-path="url(#pfa9d170c8d)" style="fill: none; stroke-dasharray: 2,8; stroke-dashoffset: 0; stroke: #cccccc; stroke-width: 2; stroke-linecap: round"/>
     </g>
     <g id="line2d_18"/>
     <g id="text_10">
      <!-- 12 -->
      <g transform="translate(26.81375 266.117529) scale(0.12 -0.12)">
       <use xlink:href="#DejaVuSans-31"/>
       <use xlink:href="#DejaVuSans-32" x="63.623047"/>
      </g>
     </g>
    </g>
    <g id="ytick_3">
     <g id="line2d_19">
      <path d="M 46.08375 199.299065 
L 604.08375 199.299065 
" clip-path="url(#pfa9d170c8d)" style="fill: none; stroke-dasharray: 2,8; stroke-dashoffset: 0; stroke: #cccccc; stroke-width: 2; stroke-linecap: round"/>
     </g>
     <g id="line2d_20"/>
     <g id="text_11">
      <!-- 14 -->
      <g transform="translate(26.81375 203.858127) scale(0.12 -0.12)">
       <use xlink:href="#DejaVuSans-31"/>
       <use xlink:href="#DejaVuSans-34" x="63.623047"/>
      </g>
     </g>
    </g>
    <g id="ytick_4">
     <g id="line2d_21">
      <path d="M 46.08375 137.039663 
L 604.08375 137.039663 
" clip-path="url(#pfa9d170c8d)" style="fill: none; stroke-dasharray: 2,8; stroke-dashoffset: 0; stroke: #cccccc; stroke-width: 2; stroke-linecap: round"/>
     </g>
     <g id="line2d_22"/>
     <g id="text_12">
      <!-- 16 -->
      <g transform="translate(26.81375 141.598725) scale(0.12 -0.12)">
       <defs>
        <path id="DejaVuSans-36" d="M 2113 2584 
Q 1688 2584 1439 2293 
Q 1191 2003 1191 1497 
Q 1191 994 1439 701 
Q 1688 409 2113 409 
Q 2538 409 2786 701 
Q 3034 994 3034 1497 
Q 3034 2003 2786 2293 
Q 2538 2584 2113 2584 
z
M 3366 4563 
L 3366 3988 
Q 3128 4100 2886 4159 
Q 2644 4219 2406 4219 
Q 1781 4219 1451 3797 
Q 1122 3375 1075 2522 
Q 1259 2794 1537 2939 
Q 1816 3084 2150 3084 
Q 2853 3084 3261 2657 
Q 3669 2231 3669 1497 
Q 3669 778 3244 343 
Q 2819 -91 2113 -91 
Q 1303 -91 875 529 
Q 447 1150 447 2328 
Q 447 3434 972 4092 
Q 1497 4750 2381 4750 
Q 2619 4750 2861 4703 
Q 3103 4656 3366 4563 
z
" transform="scale(0.015625)"/>
       </defs>
       <use xlink:href="#DejaVuSans-31"/>
       <use xlink:href="#DejaVuSans-36" x="63.623047"/>
      </g>
     </g>
    </g>
    <g id="ytick_5">
     <g id="line2d_23">
      <path d="M 46.08375 74.780261 
L 604.08375 74.780261 
" clip-path="url(#pfa9d170c8d)" style="fill: none; stroke-dasharray: 2,8; stroke-dashoffset: 0; stroke: #cccccc; stroke-width: 2; stroke-linecap: round"/>
     </g>
     <g id="line2d_24"/>
     <g id="text_13">
      <!-- 18 -->
      <g transform="translate(26.81375 79.339324) scale(0.12 -0.12)">
       <defs>
        <path id="DejaVuSans-38" d="M 2034 2216 
Q 1584 2216 1326 1975 
Q 1069 1734 1069 1313 
Q 1069 891 1326 650 
Q 1584 409 2034 409 
Q 2484 409 2743 651 
Q 3003 894 3003 1313 
Q 3003 1734 2745 1975 
Q 2488 2216 2034 2216 
z
M 1403 2484 
Q 997 2584 770 2862 
Q 544 3141 544 3541 
Q 544 4100 942 4425 
Q 1341 4750 2034 4750 
Q 2731 4750 3128 4425 
Q 3525 4100 3525 3541 
Q 3525 3141 3298 2862 
Q 3072 2584 2669 2484 
Q 3125 2378 3379 2068 
Q 3634 1759 3634 1313 
Q 3634 634 3220 271 
Q 2806 -91 2034 -91 
Q 1263 -91 848 271 
Q 434 634 434 1313 
Q 434 1759 690 2068 
Q 947 2378 1403 2484 
z
M 1172 3481 
Q 1172 3119 1398 2916 
Q 1625 2713 2034 2713 
Q 2441 2713 2670 2916 
Q 2900 3119 2900 3481 
Q 2900 3844 2670 4047 
Q 2441 4250 2034 4250 
Q 1625 4250 1398 4047 
Q 1172 3844 1172 3481 
z
" transform="scale(0.015625)"/>
       </defs>
       <use xlink:href="#DejaVuSans-31"/>
       <use xlink:href="#DejaVuSans-38" x="63.623047"/>
      </g>
     </g>
    </g>
    <g id="text_14">
     <!-- $Y=1/V$ -->
     <g transform="translate(16.318125 228.284397) rotate(-90) scale(0.12 -0.12)">
      <defs>
       <path id="DejaVuSans-Oblique-59" d="M 403 4666 
L 1081 4666 
L 1953 2747 
L 3616 4666 
L 4325 4666 
L 2209 2222 
L 1778 0 
L 1147 0 
L 1575 2222 
L 403 4666 
z
" transform="scale(0.015625)"/>
       <path id="DejaVuSans-Oblique-56" d="M 1319 0 
L 500 4666 
L 1119 4666 
L 1797 653 
L 4063 4666 
L 4750 4666 
L 2053 0 
L 1319 0 
z
" transform="scale(0.015625)"/>
      </defs>
      <use xlink:href="#DejaVuSans-Oblique-59" transform="translate(0 0.09375)"/>
      <use xlink:href="#DejaVuSans-3d" transform="translate(80.566406 0.09375)"/>
      <use xlink:href="#DejaVuSans-31" transform="translate(183.837891 0.09375)"/>
      <use xlink:href="#DejaVuSans-2f" transform="translate(247.460938 0.09375)"/>
      <use xlink:href="#DejaVuSans-Oblique-56" transform="translate(281.152344 0.09375)"/>
     </g>
    </g>
   </g>
   <g id="line2d_25">
    <defs>
     <path id="m38b8ddc00d" d="M 0 3 
C 0.795609 3 1.55874 2.683901 2.12132 2.12132 
C 2.683901 1.55874 3 0.795609 3 0 
C 3 -0.795609 2.683901 -1.55874 2.12132 -2.12132 
C 1.55874 -2.683901 0.795609 -3 0 -3 
C -0.795609 -3 -1.55874 -2.683901 -2.12132 -2.12132 
C -2.683901 -1.55874 -3 -0.795609 -3 0 
C -3 0.795609 -2.683901 1.55874 -2.12132 2.12132 
C -1.55874 2.683901 -0.795609 3 0 3 
z
" style="stroke: #1f77b4"/>
    </defs>
    <g clip-path="url(#pfa9d170c8d)">
     <use xlink:href="#m38b8ddc00d" x="162.888165" y="303.357943" style="fill: #1f77b4; stroke: #1f77b4"/>
     <use xlink:href="#m38b8ddc00d" x="109.844998" y="338.491" style="fill: #1f77b4; stroke: #1f77b4"/>
     <use xlink:href="#m38b8ddc00d" x="255.03742" y="250.833008" style="fill: #1f77b4; stroke: #1f77b4"/>
     <use xlink:href="#m38b8ddc00d" x="548.398063" y="56.723423" style="fill: #1f77b4; stroke: #1f77b4"/>
     <use xlink:href="#m38b8ddc00d" x="207.386166" y="276.231508" style="fill: #1f77b4; stroke: #1f77b4"/>
     <use xlink:href="#m38b8ddc00d" x="80.103607" y="355.700528" style="fill: #1f77b4; stroke: #1f77b4"/>
     <use xlink:href="#m38b8ddc00d" x="79.189588" y="360.633789" style="fill: #1f77b4; stroke: #1f77b4"/>
     <use xlink:href="#m38b8ddc00d" x="528.490995" y="89.924758" style="fill: #1f77b4; stroke: #1f77b4"/>
     <use xlink:href="#m38b8ddc00d" x="314.910351" y="210.41926" style="fill: #1f77b4; stroke: #1f77b4"/>
     <use xlink:href="#m38b8ddc00d" x="372.494043" y="177.630368" style="fill: #1f77b4; stroke: #1f77b4"/>
     <use xlink:href="#m38b8ddc00d" x="391.857723" y="152.89309" style="fill: #1f77b4; stroke: #1f77b4"/>
     <use xlink:href="#m38b8ddc00d" x="90.638597" y="351.226916" style="fill: #1f77b4; stroke: #1f77b4"/>
     <use xlink:href="#m38b8ddc00d" x="171.218282" y="297.230449" style="fill: #1f77b4; stroke: #1f77b4"/>
     <use xlink:href="#m38b8ddc00d" x="548.247871" y="70.313115" style="fill: #1f77b4; stroke: #1f77b4"/>
     <use xlink:href="#m38b8ddc00d" x="94.681253" y="344.40536" style="fill: #1f77b4; stroke: #1f77b4"/>
     <use xlink:href="#m38b8ddc00d" x="286.681869" y="242.21916" style="fill: #1f77b4; stroke: #1f77b4"/>
     <use xlink:href="#m38b8ddc00d" x="83.721709" y="352.471985" style="fill: #1f77b4; stroke: #1f77b4"/>
     <use xlink:href="#m38b8ddc00d" x="129.526374" y="326.082735" style="fill: #1f77b4; stroke: #1f77b4"/>
     <use xlink:href="#m38b8ddc00d" x="522.654563" y="99.107653" style="fill: #1f77b4; stroke: #1f77b4"/>
     <use xlink:href="#m38b8ddc00d" x="220.598882" y="274.379684" style="fill: #1f77b4; stroke: #1f77b4"/>
     <use xlink:href="#m38b8ddc00d" x="525.516594" y="99.686265" style="fill: #1f77b4; stroke: #1f77b4"/>
     <use xlink:href="#m38b8ddc00d" x="177.614352" y="288.768728" style="fill: #1f77b4; stroke: #1f77b4"/>
     <use xlink:href="#m38b8ddc00d" x="325.192778" y="209.847569" style="fill: #1f77b4; stroke: #1f77b4"/>
     <use xlink:href="#m38b8ddc00d" x="122.694109" y="329.161365" style="fill: #1f77b4; stroke: #1f77b4"/>
     <use xlink:href="#m38b8ddc00d" x="71.447386" y="363.028962" style="fill: #1f77b4; stroke: #1f77b4"/>
     <use xlink:href="#m38b8ddc00d" x="75.849519" y="360.294418" style="fill: #1f77b4; stroke: #1f77b4"/>
     <use xlink:href="#m38b8ddc00d" x="173.272294" y="299.836434" style="fill: #1f77b4; stroke: #1f77b4"/>
     <use xlink:href="#m38b8ddc00d" x="92.764724" y="354.470409" style="fill: #1f77b4; stroke: #1f77b4"/>
     <use xlink:href="#m38b8ddc00d" x="152.492863" y="316.383957" style="fill: #1f77b4; stroke: #1f77b4"/>
     <use xlink:href="#m38b8ddc00d" x="118.949398" y="334.275235" style="fill: #1f77b4; stroke: #1f77b4"/>
     <use xlink:href="#m38b8ddc00d" x="83.564633" y="350.537469" style="fill: #1f77b4; stroke: #1f77b4"/>
     <use xlink:href="#m38b8ddc00d" x="372.678382" y="177.406794" style="fill: #1f77b4; stroke: #1f77b4"/>
     <use xlink:href="#m38b8ddc00d" x="232.525336" y="264.433849" style="fill: #1f77b4; stroke: #1f77b4"/>
     <use xlink:href="#m38b8ddc00d" x="334.459049" y="193.727492" style="fill: #1f77b4; stroke: #1f77b4"/>
     <use xlink:href="#m38b8ddc00d" x="247.075297" y="257.243257" style="fill: #1f77b4; stroke: #1f77b4"/>
     <use xlink:href="#m38b8ddc00d" x="578.720114" y="57.578098" style="fill: #1f77b4; stroke: #1f77b4"/>
     <use xlink:href="#m38b8ddc00d" x="115.757346" y="333.015711" style="fill: #1f77b4; stroke: #1f77b4"/>
     <use xlink:href="#m38b8ddc00d" x="344.819404" y="189.594095" style="fill: #1f77b4; stroke: #1f77b4"/>
     <use xlink:href="#m38b8ddc00d" x="422.827706" y="166.727323" style="fill: #1f77b4; stroke: #1f77b4"/>
     <use xlink:href="#m38b8ddc00d" x="109.214288" y="335.59684" style="fill: #1f77b4; stroke: #1f77b4"/>
     <use xlink:href="#m38b8ddc00d" x="98.418535" y="346.099707" style="fill: #1f77b4; stroke: #1f77b4"/>
     <use xlink:href="#m38b8ddc00d" x="159.764678" y="308.514745" style="fill: #1f77b4; stroke: #1f77b4"/>
     <use xlink:href="#m38b8ddc00d" x="122.572419" y="329.353175" style="fill: #1f77b4; stroke: #1f77b4"/>
     <use xlink:href="#m38b8ddc00d" x="288.239747" y="223.921721" style="fill: #1f77b4; stroke: #1f77b4"/>
     <use xlink:href="#m38b8ddc00d" x="84.130637" y="353.73349" style="fill: #1f77b4; stroke: #1f77b4"/>
     <use xlink:href="#m38b8ddc00d" x="208.093503" y="274.569306" style="fill: #1f77b4; stroke: #1f77b4"/>
     <use xlink:href="#m38b8ddc00d" x="272.665942" y="240.176216" style="fill: #1f77b4; stroke: #1f77b4"/>
     <use xlink:href="#m38b8ddc00d" x="400.349771" y="147.467739" style="fill: #1f77b4; stroke: #1f77b4"/>
     <use xlink:href="#m38b8ddc00d" x="97.408697" y="343.4849" style="fill: #1f77b4; stroke: #1f77b4"/>
     <use xlink:href="#m38b8ddc00d" x="268.831193" y="244.965005" style="fill: #1f77b4; stroke: #1f77b4"/>
     <use xlink:href="#m38b8ddc00d" x="178.447006" y="290.537535" style="fill: #1f77b4; stroke: #1f77b4"/>
     <use xlink:href="#m38b8ddc00d" x="107.950772" y="341.844977" style="fill: #1f77b4; stroke: #1f77b4"/>
     <use xlink:href="#m38b8ddc00d" x="83.872197" y="354.862639" style="fill: #1f77b4; stroke: #1f77b4"/>
     <use xlink:href="#m38b8ddc00d" x="455.098755" y="128.002165" style="fill: #1f77b4; stroke: #1f77b4"/>
     <use xlink:href="#m38b8ddc00d" x="492.418728" y="100.595499" style="fill: #1f77b4; stroke: #1f77b4"/>
     <use xlink:href="#m38b8ddc00d" x="419.012505" y="134.199182" style="fill: #1f77b4; stroke: #1f77b4"/>
     <use xlink:href="#m38b8ddc00d" x="79.420363" y="360.181723" style="fill: #1f77b4; stroke: #1f77b4"/>
     <use xlink:href="#m38b8ddc00d" x="206.364834" y="280.83647" style="fill: #1f77b4; stroke: #1f77b4"/>
     <use xlink:href="#m38b8ddc00d" x="226.650308" y="279.622715" style="fill: #1f77b4; stroke: #1f77b4"/>
     <use xlink:href="#m38b8ddc00d" x="176.319638" y="299.896628" style="fill: #1f77b4; stroke: #1f77b4"/>
     <use xlink:href="#m38b8ddc00d" x="125.698622" y="330.282665" style="fill: #1f77b4; stroke: #1f77b4"/>
     <use xlink:href="#m38b8ddc00d" x="105.515548" y="340.827207" style="fill: #1f77b4; stroke: #1f77b4"/>
     <use xlink:href="#m38b8ddc00d" x="172.502842" y="299.691906" style="fill: #1f77b4; stroke: #1f77b4"/>
     <use xlink:href="#m38b8ddc00d" x="122.417048" y="327.814407" style="fill: #1f77b4; stroke: #1f77b4"/>
     <use xlink:href="#m38b8ddc00d" x="333.406166" y="202.188458" style="fill: #1f77b4; stroke: #1f77b4"/>
     <use xlink:href="#m38b8ddc00d" x="292.879942" y="221.20768" style="fill: #1f77b4; stroke: #1f77b4"/>
     <use xlink:href="#m38b8ddc00d" x="322.568587" y="197.041754" style="fill: #1f77b4; stroke: #1f77b4"/>
     <use xlink:href="#m38b8ddc00d" x="228.214119" y="273.330732" style="fill: #1f77b4; stroke: #1f77b4"/>
     <use xlink:href="#m38b8ddc00d" x="327.845812" y="205.603056" style="fill: #1f77b4; stroke: #1f77b4"/>
     <use xlink:href="#m38b8ddc00d" x="475.617345" y="111.194251" style="fill: #1f77b4; stroke: #1f77b4"/>
     <use xlink:href="#m38b8ddc00d" x="280.931411" y="231.162724" style="fill: #1f77b4; stroke: #1f77b4"/>
     <use xlink:href="#m38b8ddc00d" x="183.366666" y="296.579491" style="fill: #1f77b4; stroke: #1f77b4"/>
     <use xlink:href="#m38b8ddc00d" x="207.260506" y="275.276565" style="fill: #1f77b4; stroke: #1f77b4"/>
     <use xlink:href="#m38b8ddc00d" x="356.333809" y="173.460501" style="fill: #1f77b4; stroke: #1f77b4"/>
     <use xlink:href="#m38b8ddc00d" x="368.481209" y="186.96325" style="fill: #1f77b4; stroke: #1f77b4"/>
     <use xlink:href="#m38b8ddc00d" x="84.024252" y="351.116083" style="fill: #1f77b4; stroke: #1f77b4"/>
     <use xlink:href="#m38b8ddc00d" x="161.444736" y="306.092243" style="fill: #1f77b4; stroke: #1f77b4"/>
     <use xlink:href="#m38b8ddc00d" x="193.871302" y="292.013952" style="fill: #1f77b4; stroke: #1f77b4"/>
     <use xlink:href="#m38b8ddc00d" x="159.171065" y="304.680147" style="fill: #1f77b4; stroke: #1f77b4"/>
     <use xlink:href="#m38b8ddc00d" x="215.812316" y="279.323729" style="fill: #1f77b4; stroke: #1f77b4"/>
     <use xlink:href="#m38b8ddc00d" x="113.689331" y="343.729031" style="fill: #1f77b4; stroke: #1f77b4"/>
     <use xlink:href="#m38b8ddc00d" x="265.995201" y="242.705241" style="fill: #1f77b4; stroke: #1f77b4"/>
     <use xlink:href="#m38b8ddc00d" x="350.689723" y="187.337849" style="fill: #1f77b4; stroke: #1f77b4"/>
     <use xlink:href="#m38b8ddc00d" x="549.116904" y="51.539832" style="fill: #1f77b4; stroke: #1f77b4"/>
     <use xlink:href="#m38b8ddc00d" x="155.60482" y="308.278835" style="fill: #1f77b4; stroke: #1f77b4"/>
     <use xlink:href="#m38b8ddc00d" x="275.066704" y="235.556215" style="fill: #1f77b4; stroke: #1f77b4"/>
     <use xlink:href="#m38b8ddc00d" x="115.629528" y="333.503437" style="fill: #1f77b4; stroke: #1f77b4"/>
     <use xlink:href="#m38b8ddc00d" x="77.844268" y="358.691675" style="fill: #1f77b4; stroke: #1f77b4"/>
     <use xlink:href="#m38b8ddc00d" x="121.887981" y="335.642634" style="fill: #1f77b4; stroke: #1f77b4"/>
     <use xlink:href="#m38b8ddc00d" x="237.37706" y="256.814768" style="fill: #1f77b4; stroke: #1f77b4"/>
     <use xlink:href="#m38b8ddc00d" x="176.144838" y="294.947355" style="fill: #1f77b4; stroke: #1f77b4"/>
     <use xlink:href="#m38b8ddc00d" x="114.267819" y="340.780583" style="fill: #1f77b4; stroke: #1f77b4"/>
     <use xlink:href="#m38b8ddc00d" x="106.292627" y="345.546418" style="fill: #1f77b4; stroke: #1f77b4"/>
     <use xlink:href="#m38b8ddc00d" x="199.436779" y="281.259375" style="fill: #1f77b4; stroke: #1f77b4"/>
     <use xlink:href="#m38b8ddc00d" x="275.954151" y="227.831956" style="fill: #1f77b4; stroke: #1f77b4"/>
     <use xlink:href="#m38b8ddc00d" x="224.247092" y="269.188144" style="fill: #1f77b4; stroke: #1f77b4"/>
     <use xlink:href="#m38b8ddc00d" x="140.098739" y="314.908808" style="fill: #1f77b4; stroke: #1f77b4"/>
     <use xlink:href="#m38b8ddc00d" x="140.990788" y="322.529013" style="fill: #1f77b4; stroke: #1f77b4"/>
     <use xlink:href="#m38b8ddc00d" x="89.47658" y="354.466676" style="fill: #1f77b4; stroke: #1f77b4"/>
     <use xlink:href="#m38b8ddc00d" x="96.118603" y="350.497378" style="fill: #1f77b4; stroke: #1f77b4"/>
    </g>
   </g>
   <g id="patch_3">
    <path d="M 46.08375 378.603418 
L 46.08375 35.965375 
" style="fill: none; stroke: #cccccc; stroke-width: 2; stroke-linejoin: miter; stroke-linecap: square"/>
   </g>
   <g id="patch_4">
    <path d="M 604.08375 378.603418 
L 604.08375 35.965375 
" style="fill: none; stroke: #cccccc; stroke-width: 2; stroke-linejoin: miter; stroke-linecap: square"/>
   </g>
   <g id="patch_5">
    <path d="M 46.08375 378.603418 
L 604.08375 378.603418 
" style="fill: none; stroke: #cccccc; stroke-width: 2; stroke-linejoin: miter; stroke-linecap: square"/>
   </g>
   <g id="patch_6">
    <path d="M 46.08375 35.965375 
L 604.08375 35.965375 
" style="fill: none; stroke: #cccccc; stroke-width: 2; stroke-linejoin: miter; stroke-linecap: square"/>
   </g>
   <g id="text_15">
    <!-- Linear trend -->
    <g transform="translate(273.925125 19.965375) scale(0.168 -0.168)">
     <defs>
      <path id="DejaVuSans-4c" d="M 628 4666 
L 1259 4666 
L 1259 531 
L 3531 531 
L 3531 0 
L 628 0 
L 628 4666 
z
" transform="scale(0.015625)"/>
      <path id="DejaVuSans-69" d="M 603 3500 
L 1178 3500 
L 1178 0 
L 603 0 
L 603 3500 
z
M 603 4863 
L 1178 4863 
L 1178 4134 
L 603 4134 
L 603 4863 
z
" transform="scale(0.015625)"/>
      <path id="DejaVuSans-6e" d="M 3513 2113 
L 3513 0 
L 2938 0 
L 2938 2094 
Q 2938 2591 2744 2837 
Q 2550 3084 2163 3084 
Q 1697 3084 1428 2787 
Q 1159 2491 1159 1978 
L 1159 0 
L 581 0 
L 581 3500 
L 1159 3500 
L 1159 2956 
Q 1366 3272 1645 3428 
Q 1925 3584 2291 3584 
Q 2894 3584 3203 3211 
Q 3513 2838 3513 2113 
z
" transform="scale(0.015625)"/>
      <path id="DejaVuSans-65" d="M 3597 1894 
L 3597 1613 
L 953 1613 
Q 991 1019 1311 708 
Q 1631 397 2203 397 
Q 2534 397 2845 478 
Q 3156 559 3463 722 
L 3463 178 
Q 3153 47 2828 -22 
Q 2503 -91 2169 -91 
Q 1331 -91 842 396 
Q 353 884 353 1716 
Q 353 2575 817 3079 
Q 1281 3584 2069 3584 
Q 2775 3584 3186 3129 
Q 3597 2675 3597 1894 
z
M 3022 2063 
Q 3016 2534 2758 2815 
Q 2500 3097 2075 3097 
Q 1594 3097 1305 2825 
Q 1016 2553 972 2059 
L 3022 2063 
z
" transform="scale(0.015625)"/>
      <path id="DejaVuSans-61" d="M 2194 1759 
Q 1497 1759 1228 1600 
Q 959 1441 959 1056 
Q 959 750 1161 570 
Q 1363 391 1709 391 
Q 2188 391 2477 730 
Q 2766 1069 2766 1631 
L 2766 1759 
L 2194 1759 
z
M 3341 1997 
L 3341 0 
L 2766 0 
L 2766 531 
Q 2569 213 2275 61 
Q 1981 -91 1556 -91 
Q 1019 -91 701 211 
Q 384 513 384 1019 
Q 384 1609 779 1909 
Q 1175 2209 1959 2209 
L 2766 2209 
L 2766 2266 
Q 2766 2663 2505 2880 
Q 2244 3097 1772 3097 
Q 1472 3097 1187 3025 
Q 903 2953 641 2809 
L 641 3341 
Q 956 3463 1253 3523 
Q 1550 3584 1831 3584 
Q 2591 3584 2966 3190 
Q 3341 2797 3341 1997 
z
" transform="scale(0.015625)"/>
      <path id="DejaVuSans-72" d="M 2631 2963 
Q 2534 3019 2420 3045 
Q 2306 3072 2169 3072 
Q 1681 3072 1420 2755 
Q 1159 2438 1159 1844 
L 1159 0 
L 581 0 
L 581 3500 
L 1159 3500 
L 1159 2956 
Q 1341 3275 1631 3429 
Q 1922 3584 2338 3584 
Q 2397 3584 2469 3576 
Q 2541 3569 2628 3553 
L 2631 2963 
z
" transform="scale(0.015625)"/>
      <path id="DejaVuSans-20" transform="scale(0.015625)"/>
      <path id="DejaVuSans-74" d="M 1172 4494 
L 1172 3500 
L 2356 3500 
L 2356 3053 
L 1172 3053 
L 1172 1153 
Q 1172 725 1289 603 
Q 1406 481 1766 481 
L 2356 481 
L 2356 0 
L 1766 0 
Q 1100 0 847 248 
Q 594 497 594 1153 
L 594 3053 
L 172 3053 
L 172 3500 
L 594 3500 
L 594 4494 
L 1172 4494 
z
" transform="scale(0.015625)"/>
      <path id="DejaVuSans-64" d="M 2906 2969 
L 2906 4863 
L 3481 4863 
L 3481 0 
L 2906 0 
L 2906 525 
Q 2725 213 2448 61 
Q 2172 -91 1784 -91 
Q 1150 -91 751 415 
Q 353 922 353 1747 
Q 353 2572 751 3078 
Q 1150 3584 1784 3584 
Q 2172 3584 2448 3432 
Q 2725 3281 2906 2969 
z
M 947 1747 
Q 947 1113 1208 752 
Q 1469 391 1925 391 
Q 2381 391 2643 752 
Q 2906 1113 2906 1747 
Q 2906 2381 2643 2742 
Q 2381 3103 1925 3103 
Q 1469 3103 1208 2742 
Q 947 2381 947 1747 
z
" transform="scale(0.015625)"/>
     </defs>
     <use xlink:href="#DejaVuSans-4c"/>
     <use xlink:href="#DejaVuSans-69" x="55.712891"/>
     <use xlink:href="#DejaVuSans-6e" x="83.496094"/>
     <use xlink:href="#DejaVuSans-65" x="146.875"/>
     <use xlink:href="#DejaVuSans-61" x="208.398438"/>
     <use xlink:href="#DejaVuSans-72" x="269.677734"/>
     <use xlink:href="#DejaVuSans-20" x="310.791016"/>
     <use xlink:href="#DejaVuSans-74" x="342.578125"/>
     <use xlink:href="#DejaVuSans-72" x="381.787109"/>
     <use xlink:href="#DejaVuSans-65" x="420.650391"/>
     <use xlink:href="#DejaVuSans-6e" x="482.173828"/>
     <use xlink:href="#DejaVuSans-64" x="545.552734"/>
    </g>
   </g>
  </g>
 </g>
 <defs>
  <clipPath id="pfa9d170c8d">
   <rect x="46.08375" y="35.965375" width="558" height="342.638043"/>
  </clipPath>
 </defs>
</svg>
