<?xml version="1.0" encoding="utf-8" standalone="no"?>
<!DOCTYPE svg PUBLIC "-//W3C//DTD SVG 1.1//EN"
  "http://www.w3.org/Graphics/SVG/1.1/DTD/svg11.dtd">
<svg xmlns:xlink="http://www.w3.org/1999/xlink" width="576pt" height="355.987577pt" viewBox="0 0 576 355.987577" xmlns="http://www.w3.org/2000/svg" version="1.1">
 <metadata>
  <rdf:RDF xmlns:dc="http://purl.org/dc/elements/1.1/" xmlns:cc="http://creativecommons.org/ns#" xmlns:rdf="http://www.w3.org/1999/02/22-rdf-syntax-ns#">
   <cc:Work>
    <dc:type rdf:resource="http://purl.org/dc/dcmitype/StillImage"/>
    <dc:date>2023-11-02T17:33:11.974288</dc:date>
    <dc:format>image/svg+xml</dc:format>
    <dc:creator>
     <cc:Agent>
      <dc:title>Matplotlib v3.6.1, https://matplotlib.org/</dc:title>
     </cc:Agent>
    </dc:creator>
   </cc:Work>
  </rdf:RDF>
 </metadata>
 <defs>
  <style type="text/css">*{stroke-linejoin: round; stroke-linecap: butt}</style>
 </defs>
 <g id="figure_1">
  <g id="patch_1">
   <path d="M 0 355.987577 
L 576 355.987577 
L 576 0 
L 0 0 
z
" style="fill: #ffffff"/>
  </g>
  <g id="axes_1">
   <g id="patch_2">
    <path d="M 72 316.828944 
L 274.909091 316.828944 
L 274.909091 42.718509 
L 72 42.718509 
z
" style="fill: #ffffff"/>
   </g>
   <g id="matplotlib.axis_1">
    <g id="xtick_1">
     <g id="line2d_1">
      <path d="M 81.22314 316.828944 
L 81.22314 42.718509 
" clip-path="url(#p9abd043c43)" style="fill: none; stroke-dasharray: 2,8; stroke-dashoffset: 0; stroke: #cccccc; stroke-width: 2; stroke-linecap: round"/>
     </g>
     <g id="line2d_2"/>
     <g id="text_1">
      <!-- 0.00 -->
      <g transform="translate(67.863765 329.947069) scale(0.12 -0.12)">
       <defs>
        <path id="DejaVuSans-30" d="M 2034 4250 
Q 1547 4250 1301 3770 
Q 1056 3291 1056 2328 
Q 1056 1369 1301 889 
Q 1547 409 2034 409 
Q 2525 409 2770 889 
Q 3016 1369 3016 2328 
Q 3016 3291 2770 3770 
Q 2525 4250 2034 4250 
z
M 2034 4750 
Q 2819 4750 3233 4129 
Q 3647 3509 3647 2328 
Q 3647 1150 3233 529 
Q 2819 -91 2034 -91 
Q 1250 -91 836 529 
Q 422 1150 422 2328 
Q 422 3509 836 4129 
Q 1250 4750 2034 4750 
z
" transform="scale(0.015625)"/>
        <path id="DejaVuSans-2e" d="M 684 794 
L 1344 794 
L 1344 0 
L 684 0 
L 684 794 
z
" transform="scale(0.015625)"/>
       </defs>
       <use xlink:href="#DejaVuSans-30"/>
       <use xlink:href="#DejaVuSans-2e" x="63.623047"/>
       <use xlink:href="#DejaVuSans-30" x="95.410156"/>
       <use xlink:href="#DejaVuSans-30" x="159.033203"/>
      </g>
     </g>
    </g>
    <g id="xtick_2">
     <g id="line2d_3">
      <path d="M 127.338843 316.828944 
L 127.338843 42.718509 
" clip-path="url(#p9abd043c43)" style="fill: none; stroke-dasharray: 2,8; stroke-dashoffset: 0; stroke: #cccccc; stroke-width: 2; stroke-linecap: round"/>
     </g>
     <g id="line2d_4"/>
     <g id="text_2">
      <!-- 0.25 -->
      <g transform="translate(113.979468 329.947069) scale(0.12 -0.12)">
       <defs>
        <path id="DejaVuSans-32" d="M 1228 531 
L 3431 531 
L 3431 0 
L 469 0 
L 469 531 
Q 828 903 1448 1529 
Q 2069 2156 2228 2338 
Q 2531 2678 2651 2914 
Q 2772 3150 2772 3378 
Q 2772 3750 2511 3984 
Q 2250 4219 1831 4219 
Q 1534 4219 1204 4116 
Q 875 4013 500 3803 
L 500 4441 
Q 881 4594 1212 4672 
Q 1544 4750 1819 4750 
Q 2544 4750 2975 4387 
Q 3406 4025 3406 3419 
Q 3406 3131 3298 2873 
Q 3191 2616 2906 2266 
Q 2828 2175 2409 1742 
Q 1991 1309 1228 531 
z
" transform="scale(0.015625)"/>
        <path id="DejaVuSans-35" d="M 691 4666 
L 3169 4666 
L 3169 4134 
L 1269 4134 
L 1269 2991 
Q 1406 3038 1543 3061 
Q 1681 3084 1819 3084 
Q 2600 3084 3056 2656 
Q 3513 2228 3513 1497 
Q 3513 744 3044 326 
Q 2575 -91 1722 -91 
Q 1428 -91 1123 -41 
Q 819 9 494 109 
L 494 744 
Q 775 591 1075 516 
Q 1375 441 1709 441 
Q 2250 441 2565 725 
Q 2881 1009 2881 1497 
Q 2881 1984 2565 2268 
Q 2250 2553 1709 2553 
Q 1456 2553 1204 2497 
Q 953 2441 691 2322 
L 691 4666 
z
" transform="scale(0.015625)"/>
       </defs>
       <use xlink:href="#DejaVuSans-30"/>
       <use xlink:href="#DejaVuSans-2e" x="63.623047"/>
       <use xlink:href="#DejaVuSans-32" x="95.410156"/>
       <use xlink:href="#DejaVuSans-35" x="159.033203"/>
      </g>
     </g>
    </g>
    <g id="xtick_3">
     <g id="line2d_5">
      <path d="M 173.454545 316.828944 
L 173.454545 42.718509 
" clip-path="url(#p9abd043c43)" style="fill: none; stroke-dasharray: 2,8; stroke-dashoffset: 0; stroke: #cccccc; stroke-width: 2; stroke-linecap: round"/>
     </g>
     <g id="line2d_6"/>
     <g id="text_3">
      <!-- 0.50 -->
      <g transform="translate(160.09517 329.947069) scale(0.12 -0.12)">
       <use xlink:href="#DejaVuSans-30"/>
       <use xlink:href="#DejaVuSans-2e" x="63.623047"/>
       <use xlink:href="#DejaVuSans-35" x="95.410156"/>
       <use xlink:href="#DejaVuSans-30" x="159.033203"/>
      </g>
     </g>
    </g>
    <g id="xtick_4">
     <g id="line2d_7">
      <path d="M 219.570248 316.828944 
L 219.570248 42.718509 
" clip-path="url(#p9abd043c43)" style="fill: none; stroke-dasharray: 2,8; stroke-dashoffset: 0; stroke: #cccccc; stroke-width: 2; stroke-linecap: round"/>
     </g>
     <g id="line2d_8"/>
     <g id="text_4">
      <!-- 0.75 -->
      <g transform="translate(206.210873 329.947069) scale(0.12 -0.12)">
       <defs>
        <path id="DejaVuSans-37" d="M 525 4666 
L 3525 4666 
L 3525 4397 
L 1831 0 
L 1172 0 
L 2766 4134 
L 525 4134 
L 525 4666 
z
" transform="scale(0.015625)"/>
       </defs>
       <use xlink:href="#DejaVuSans-30"/>
       <use xlink:href="#DejaVuSans-2e" x="63.623047"/>
       <use xlink:href="#DejaVuSans-37" x="95.410156"/>
       <use xlink:href="#DejaVuSans-35" x="159.033203"/>
      </g>
     </g>
    </g>
    <g id="xtick_5">
     <g id="line2d_9">
      <path d="M 265.68595 316.828944 
L 265.68595 42.718509 
" clip-path="url(#p9abd043c43)" style="fill: none; stroke-dasharray: 2,8; stroke-dashoffset: 0; stroke: #cccccc; stroke-width: 2; stroke-linecap: round"/>
     </g>
     <g id="line2d_10"/>
     <g id="text_5">
      <!-- 1.00 -->
      <g transform="translate(252.326575 329.947069) scale(0.12 -0.12)">
       <defs>
        <path id="DejaVuSans-31" d="M 794 531 
L 1825 531 
L 1825 4091 
L 703 3866 
L 703 4441 
L 1819 4666 
L 2450 4666 
L 2450 531 
L 3481 531 
L 3481 0 
L 794 0 
L 794 531 
z
" transform="scale(0.015625)"/>
       </defs>
       <use xlink:href="#DejaVuSans-31"/>
       <use xlink:href="#DejaVuSans-2e" x="63.623047"/>
       <use xlink:href="#DejaVuSans-30" x="95.410156"/>
       <use xlink:href="#DejaVuSans-30" x="159.033203"/>
      </g>
     </g>
    </g>
   </g>
   <g id="matplotlib.axis_2">
    <g id="ytick_1">
     <g id="line2d_11">
      <path d="M 72 304.369379 
L 274.909091 304.369379 
" clip-path="url(#p9abd043c43)" style="fill: none; stroke-dasharray: 2,8; stroke-dashoffset: 0; stroke: #cccccc; stroke-width: 2; stroke-linecap: round"/>
     </g>
     <g id="line2d_12"/>
     <g id="text_6">
      <!-- 0.0 -->
      <g transform="translate(48.91625 308.928441) scale(0.12 -0.12)">
       <use xlink:href="#DejaVuSans-30"/>
       <use xlink:href="#DejaVuSans-2e" x="63.623047"/>
       <use xlink:href="#DejaVuSans-30" x="95.410156"/>
      </g>
     </g>
    </g>
    <g id="ytick_2">
     <g id="line2d_13">
      <path d="M 72 254.531118 
L 274.909091 254.531118 
" clip-path="url(#p9abd043c43)" style="fill: none; stroke-dasharray: 2,8; stroke-dashoffset: 0; stroke: #cccccc; stroke-width: 2; stroke-linecap: round"/>
     </g>
     <g id="line2d_14"/>
     <g id="text_7">
      <!-- 0.2 -->
      <g transform="translate(48.91625 259.09018) scale(0.12 -0.12)">
       <use xlink:href="#DejaVuSans-30"/>
       <use xlink:href="#DejaVuSans-2e" x="63.623047"/>
       <use xlink:href="#DejaVuSans-32" x="95.410156"/>
      </g>
     </g>
    </g>
    <g id="ytick_3">
     <g id="line2d_15">
      <path d="M 72 204.692857 
L 274.909091 204.692857 
" clip-path="url(#p9abd043c43)" style="fill: none; stroke-dasharray: 2,8; stroke-dashoffset: 0; stroke: #cccccc; stroke-width: 2; stroke-linecap: round"/>
     </g>
     <g id="line2d_16"/>
     <g id="text_8">
      <!-- 0.4 -->
      <g transform="translate(48.91625 209.251919) scale(0.12 -0.12)">
       <defs>
        <path id="DejaVuSans-34" d="M 2419 4116 
L 825 1625 
L 2419 1625 
L 2419 4116 
z
M 2253 4666 
L 3047 4666 
L 3047 1625 
L 3713 1625 
L 3713 1100 
L 3047 1100 
L 3047 0 
L 2419 0 
L 2419 1100 
L 313 1100 
L 313 1709 
L 2253 4666 
z
" transform="scale(0.015625)"/>
       </defs>
       <use xlink:href="#DejaVuSans-30"/>
       <use xlink:href="#DejaVuSans-2e" x="63.623047"/>
       <use xlink:href="#DejaVuSans-34" x="95.410156"/>
      </g>
     </g>
    </g>
    <g id="ytick_4">
     <g id="line2d_17">
      <path d="M 72 154.854596 
L 274.909091 154.854596 
" clip-path="url(#p9abd043c43)" style="fill: none; stroke-dasharray: 2,8; stroke-dashoffset: 0; stroke: #cccccc; stroke-width: 2; stroke-linecap: round"/>
     </g>
     <g id="line2d_18"/>
     <g id="text_9">
      <!-- 0.6 -->
      <g transform="translate(48.91625 159.413659) scale(0.12 -0.12)">
       <defs>
        <path id="DejaVuSans-36" d="M 2113 2584 
Q 1688 2584 1439 2293 
Q 1191 2003 1191 1497 
Q 1191 994 1439 701 
Q 1688 409 2113 409 
Q 2538 409 2786 701 
Q 3034 994 3034 1497 
Q 3034 2003 2786 2293 
Q 2538 2584 2113 2584 
z
M 3366 4563 
L 3366 3988 
Q 3128 4100 2886 4159 
Q 2644 4219 2406 4219 
Q 1781 4219 1451 3797 
Q 1122 3375 1075 2522 
Q 1259 2794 1537 2939 
Q 1816 3084 2150 3084 
Q 2853 3084 3261 2657 
Q 3669 2231 3669 1497 
Q 3669 778 3244 343 
Q 2819 -91 2113 -91 
Q 1303 -91 875 529 
Q 447 1150 447 2328 
Q 447 3434 972 4092 
Q 1497 4750 2381 4750 
Q 2619 4750 2861 4703 
Q 3103 4656 3366 4563 
z
" transform="scale(0.015625)"/>
       </defs>
       <use xlink:href="#DejaVuSans-30"/>
       <use xlink:href="#DejaVuSans-2e" x="63.623047"/>
       <use xlink:href="#DejaVuSans-36" x="95.410156"/>
      </g>
     </g>
    </g>
    <g id="ytick_5">
     <g id="line2d_19">
      <path d="M 72 105.016335 
L 274.909091 105.016335 
" clip-path="url(#p9abd043c43)" style="fill: none; stroke-dasharray: 2,8; stroke-dashoffset: 0; stroke: #cccccc; stroke-width: 2; stroke-linecap: round"/>
     </g>
     <g id="line2d_20"/>
     <g id="text_10">
      <!-- 0.8 -->
      <g transform="translate(48.91625 109.575398) scale(0.12 -0.12)">
       <defs>
        <path id="DejaVuSans-38" d="M 2034 2216 
Q 1584 2216 1326 1975 
Q 1069 1734 1069 1313 
Q 1069 891 1326 650 
Q 1584 409 2034 409 
Q 2484 409 2743 651 
Q 3003 894 3003 1313 
Q 3003 1734 2745 1975 
Q 2488 2216 2034 2216 
z
M 1403 2484 
Q 997 2584 770 2862 
Q 544 3141 544 3541 
Q 544 4100 942 4425 
Q 1341 4750 2034 4750 
Q 2731 4750 3128 4425 
Q 3525 4100 3525 3541 
Q 3525 3141 3298 2862 
Q 3072 2584 2669 2484 
Q 3125 2378 3379 2068 
Q 3634 1759 3634 1313 
Q 3634 634 3220 271 
Q 2806 -91 2034 -91 
Q 1263 -91 848 271 
Q 434 634 434 1313 
Q 434 1759 690 2068 
Q 947 2378 1403 2484 
z
M 1172 3481 
Q 1172 3119 1398 2916 
Q 1625 2713 2034 2713 
Q 2441 2713 2670 2916 
Q 2900 3119 2900 3481 
Q 2900 3844 2670 4047 
Q 2441 4250 2034 4250 
Q 1625 4250 1398 4047 
Q 1172 3844 1172 3481 
z
" transform="scale(0.015625)"/>
       </defs>
       <use xlink:href="#DejaVuSans-30"/>
       <use xlink:href="#DejaVuSans-2e" x="63.623047"/>
       <use xlink:href="#DejaVuSans-38" x="95.410156"/>
      </g>
     </g>
    </g>
    <g id="ytick_6">
     <g id="line2d_21">
      <path d="M 72 55.178074 
L 274.909091 55.178074 
" clip-path="url(#p9abd043c43)" style="fill: none; stroke-dasharray: 2,8; stroke-dashoffset: 0; stroke: #cccccc; stroke-width: 2; stroke-linecap: round"/>
     </g>
     <g id="line2d_22"/>
     <g id="text_11">
      <!-- 1.0 -->
      <g transform="translate(48.91625 59.737137) scale(0.12 -0.12)">
       <use xlink:href="#DejaVuSans-31"/>
       <use xlink:href="#DejaVuSans-2e" x="63.623047"/>
       <use xlink:href="#DejaVuSans-30" x="95.410156"/>
      </g>
     </g>
    </g>
   </g>
   <g id="line2d_23">
    <path d="M 81.22314 304.369379 
L 265.68595 55.178074 
" clip-path="url(#p9abd043c43)" style="fill: none; stroke: #1f77b4; stroke-width: 1.5; stroke-linecap: square"/>
    <defs>
     <path id="m6a62762794" d="M 0 3 
C 0.795609 3 1.55874 2.683901 2.12132 2.12132 
C 2.683901 1.55874 3 0.795609 3 0 
C 3 -0.795609 2.683901 -1.55874 2.12132 -2.12132 
C 1.55874 -2.683901 0.795609 -3 0 -3 
C -0.795609 -3 -1.55874 -2.683901 -2.12132 -2.12132 
C -2.683901 -1.55874 -3 -0.795609 -3 0 
C -3 0.795609 -2.683901 1.55874 -2.12132 2.12132 
C -1.55874 2.683901 -0.795609 3 0 3 
z
" style="stroke: #1f77b4"/>
    </defs>
    <g clip-path="url(#p9abd043c43)">
     <use xlink:href="#m6a62762794" x="81.22314" y="304.369379" style="fill: #1f77b4; stroke: #1f77b4"/>
     <use xlink:href="#m6a62762794" x="265.68595" y="55.178074" style="fill: #1f77b4; stroke: #1f77b4"/>
    </g>
   </g>
   <g id="patch_3">
    <path d="M 72 316.828944 
L 72 42.718509 
" style="fill: none; stroke: #cccccc; stroke-width: 2; stroke-linejoin: miter; stroke-linecap: square"/>
   </g>
   <g id="patch_4">
    <path d="M 274.909091 316.828944 
L 274.909091 42.718509 
" style="fill: none; stroke: #cccccc; stroke-width: 2; stroke-linejoin: miter; stroke-linecap: square"/>
   </g>
   <g id="patch_5">
    <path d="M 72 316.828944 
L 274.909091 316.828944 
" style="fill: none; stroke: #cccccc; stroke-width: 2; stroke-linejoin: miter; stroke-linecap: square"/>
   </g>
   <g id="patch_6">
    <path d="M 72 42.718509 
L 274.909091 42.718509 
" style="fill: none; stroke: #cccccc; stroke-width: 2; stroke-linejoin: miter; stroke-linecap: square"/>
   </g>
  </g>
  <g id="axes_2">
   <g id="patch_7">
    <path d="M 518.4 179.773727 
C 518.4 166.450838 515.775681 153.257497 510.677233 140.948753 
C 505.578784 128.640009 498.105357 117.455234 488.684652 108.034529 
C 479.263947 98.613824 468.079173 91.140397 455.770428 86.041948 
C 443.461684 80.9435 430.268343 78.319181 416.945455 78.319181 
C 403.622566 78.319181 390.429225 80.9435 378.120481 86.041948 
C 365.811737 91.140397 354.626963 98.613824 345.206257 108.034529 
C 335.785552 117.455234 328.312125 128.640009 323.213677 140.948753 
C 318.115228 153.257497 315.490909 166.450838 315.490909 179.773727 
C 315.490909 193.096615 318.115228 206.289956 323.213677 218.5987 
C 328.312125 230.907445 335.785552 242.092219 345.206257 251.512924 
C 354.626963 260.933629 365.811737 268.407056 378.120481 273.505505 
C 390.429225 278.603953 403.622566 281.228272 416.945455 281.228272 
C 430.268343 281.228272 443.461684 278.603953 455.770428 273.505505 
C 468.079173 268.407056 479.263947 260.933629 488.684652 251.512924 
C 498.105357 242.092219 505.578784 230.907445 510.677233 218.5987 
C 515.775681 206.289956 518.4 193.096615 518.4 179.773727 
M 416.945455 179.773727 
C 416.945455 179.773727 416.945455 179.773727 416.945455 179.773727 
C 416.945455 179.773727 416.945455 179.773727 416.945455 179.773727 
C 416.945455 179.773727 416.945455 179.773727 416.945455 179.773727 
C 416.945455 179.773727 416.945455 179.773727 416.945455 179.773727 
C 416.945455 179.773727 416.945455 179.773727 416.945455 179.773727 
C 416.945455 179.773727 416.945455 179.773727 416.945455 179.773727 
C 416.945455 179.773727 416.945455 179.773727 416.945455 179.773727 
C 416.945455 179.773727 416.945455 179.773727 416.945455 179.773727 
C 416.945455 179.773727 416.945455 179.773727 416.945455 179.773727 
C 416.945455 179.773727 416.945455 179.773727 416.945455 179.773727 
C 416.945455 179.773727 416.945455 179.773727 416.945455 179.773727 
C 416.945455 179.773727 416.945455 179.773727 416.945455 179.773727 
C 416.945455 179.773727 416.945455 179.773727 416.945455 179.773727 
C 416.945455 179.773727 416.945455 179.773727 416.945455 179.773727 
C 416.945455 179.773727 416.945455 179.773727 416.945455 179.773727 
C 416.945455 179.773727 416.945455 179.773727 416.945455 179.773727 
M 518.4 179.773727 
z
" style="fill: #ffffff"/>
   </g>
   <g id="matplotlib.axis_3">
    <g id="xtick_6">
     <g id="line2d_24">
      <path d="M 416.945455 179.773727 
L 518.4 179.773727 
" clip-path="url(#p101b11f3ee)" style="fill: none; stroke-dasharray: 2,8; stroke-dashoffset: 0; stroke: #cccccc; stroke-width: 2; stroke-linecap: round"/>
     </g>
     <g id="text_12">
      <!-- 0° -->
      <g transform="translate(522.5825 183.084977) scale(0.12 -0.12)">
       <defs>
        <path id="DejaVuSans-b0" d="M 1600 4347 
Q 1350 4347 1178 4173 
Q 1006 4000 1006 3750 
Q 1006 3503 1178 3333 
Q 1350 3163 1600 3163 
Q 1850 3163 2022 3333 
Q 2194 3503 2194 3750 
Q 2194 3997 2020 4172 
Q 1847 4347 1600 4347 
z
M 1600 4750 
Q 1800 4750 1984 4673 
Q 2169 4597 2303 4453 
Q 2447 4313 2519 4134 
Q 2591 3956 2591 3750 
Q 2591 3338 2302 3052 
Q 2013 2766 1594 2766 
Q 1172 2766 890 3047 
Q 609 3328 609 3750 
Q 609 4169 896 4459 
Q 1184 4750 1600 4750 
z
" transform="scale(0.015625)"/>
       </defs>
       <use xlink:href="#DejaVuSans-30"/>
       <use xlink:href="#DejaVuSans-b0" x="63.623047"/>
      </g>
     </g>
    </g>
    <g id="xtick_7">
     <g id="line2d_25">
      <path d="M 416.945455 179.773727 
L 488.684652 108.034529 
" clip-path="url(#p101b11f3ee)" style="fill: none; stroke-dasharray: 2,8; stroke-dashoffset: 0; stroke: #cccccc; stroke-width: 2; stroke-linecap: round"/>
     </g>
     <g id="text_13">
      <!-- 45° -->
      <g transform="translate(485.827826 103.567605) scale(0.12 -0.12)">
       <use xlink:href="#DejaVuSans-34"/>
       <use xlink:href="#DejaVuSans-35" x="63.623047"/>
       <use xlink:href="#DejaVuSans-b0" x="127.246094"/>
      </g>
     </g>
    </g>
    <g id="xtick_8">
     <g id="line2d_26">
      <path d="M 416.945455 179.773727 
L 416.945455 78.319181 
" clip-path="url(#p101b11f3ee)" style="fill: none; stroke-dasharray: 2,8; stroke-dashoffset: 0; stroke: #cccccc; stroke-width: 2; stroke-linecap: round"/>
     </g>
     <g id="text_14">
      <!-- 90° -->
      <g transform="translate(406.310455 70.630431) scale(0.12 -0.12)">
       <defs>
        <path id="DejaVuSans-39" d="M 703 97 
L 703 672 
Q 941 559 1184 500 
Q 1428 441 1663 441 
Q 2288 441 2617 861 
Q 2947 1281 2994 2138 
Q 2813 1869 2534 1725 
Q 2256 1581 1919 1581 
Q 1219 1581 811 2004 
Q 403 2428 403 3163 
Q 403 3881 828 4315 
Q 1253 4750 1959 4750 
Q 2769 4750 3195 4129 
Q 3622 3509 3622 2328 
Q 3622 1225 3098 567 
Q 2575 -91 1691 -91 
Q 1453 -91 1209 -44 
Q 966 3 703 97 
z
M 1959 2075 
Q 2384 2075 2632 2365 
Q 2881 2656 2881 3163 
Q 2881 3666 2632 3958 
Q 2384 4250 1959 4250 
Q 1534 4250 1286 3958 
Q 1038 3666 1038 3163 
Q 1038 2656 1286 2365 
Q 1534 2075 1959 2075 
z
" transform="scale(0.015625)"/>
       </defs>
       <use xlink:href="#DejaVuSans-39"/>
       <use xlink:href="#DejaVuSans-30" x="63.623047"/>
       <use xlink:href="#DejaVuSans-b0" x="127.246094"/>
      </g>
     </g>
    </g>
    <g id="xtick_9">
     <g id="line2d_27">
      <path d="M 416.945455 179.773727 
L 345.206257 108.034529 
" clip-path="url(#p101b11f3ee)" style="fill: none; stroke-dasharray: 2,8; stroke-dashoffset: 0; stroke: #cccccc; stroke-width: 2; stroke-linecap: round"/>
     </g>
     <g id="text_15">
      <!-- 135° -->
      <g transform="translate(322.975583 103.567605) scale(0.12 -0.12)">
       <defs>
        <path id="DejaVuSans-33" d="M 2597 2516 
Q 3050 2419 3304 2112 
Q 3559 1806 3559 1356 
Q 3559 666 3084 287 
Q 2609 -91 1734 -91 
Q 1441 -91 1130 -33 
Q 819 25 488 141 
L 488 750 
Q 750 597 1062 519 
Q 1375 441 1716 441 
Q 2309 441 2620 675 
Q 2931 909 2931 1356 
Q 2931 1769 2642 2001 
Q 2353 2234 1838 2234 
L 1294 2234 
L 1294 2753 
L 1863 2753 
Q 2328 2753 2575 2939 
Q 2822 3125 2822 3475 
Q 2822 3834 2567 4026 
Q 2313 4219 1838 4219 
Q 1578 4219 1281 4162 
Q 984 4106 628 3988 
L 628 4550 
Q 988 4650 1302 4700 
Q 1616 4750 1894 4750 
Q 2613 4750 3031 4423 
Q 3450 4097 3450 3541 
Q 3450 3153 3228 2886 
Q 3006 2619 2597 2516 
z
" transform="scale(0.015625)"/>
       </defs>
       <use xlink:href="#DejaVuSans-31"/>
       <use xlink:href="#DejaVuSans-33" x="63.623047"/>
       <use xlink:href="#DejaVuSans-35" x="127.246094"/>
       <use xlink:href="#DejaVuSans-b0" x="190.869141"/>
      </g>
     </g>
    </g>
    <g id="xtick_10">
     <g id="line2d_28">
      <path d="M 416.945455 179.773727 
L 315.490909 179.773727 
" clip-path="url(#p101b11f3ee)" style="fill: none; stroke-dasharray: 2,8; stroke-dashoffset: 0; stroke: #cccccc; stroke-width: 2; stroke-linecap: round"/>
     </g>
     <g id="text_16">
      <!-- 180° -->
      <g transform="translate(290.038409 183.084977) scale(0.12 -0.12)">
       <use xlink:href="#DejaVuSans-31"/>
       <use xlink:href="#DejaVuSans-38" x="63.623047"/>
       <use xlink:href="#DejaVuSans-30" x="127.246094"/>
       <use xlink:href="#DejaVuSans-b0" x="190.869141"/>
      </g>
     </g>
    </g>
    <g id="xtick_11">
     <g id="line2d_29">
      <path d="M 416.945455 179.773727 
L 345.206257 251.512924 
" clip-path="url(#p101b11f3ee)" style="fill: none; stroke-dasharray: 2,8; stroke-dashoffset: 0; stroke: #cccccc; stroke-width: 2; stroke-linecap: round"/>
     </g>
     <g id="text_17">
      <!-- 225° -->
      <g transform="translate(322.975583 262.602348) scale(0.12 -0.12)">
       <use xlink:href="#DejaVuSans-32"/>
       <use xlink:href="#DejaVuSans-32" x="63.623047"/>
       <use xlink:href="#DejaVuSans-35" x="127.246094"/>
       <use xlink:href="#DejaVuSans-b0" x="190.869141"/>
      </g>
     </g>
    </g>
    <g id="xtick_12">
     <g id="line2d_30">
      <path d="M 416.945455 179.773727 
L 416.945455 281.228272 
" clip-path="url(#p101b11f3ee)" style="fill: none; stroke-dasharray: 2,8; stroke-dashoffset: 0; stroke: #cccccc; stroke-width: 2; stroke-linecap: round"/>
     </g>
     <g id="text_18">
      <!-- 270° -->
      <g transform="translate(402.492955 295.539522) scale(0.12 -0.12)">
       <use xlink:href="#DejaVuSans-32"/>
       <use xlink:href="#DejaVuSans-37" x="63.623047"/>
       <use xlink:href="#DejaVuSans-30" x="127.246094"/>
       <use xlink:href="#DejaVuSans-b0" x="190.869141"/>
      </g>
     </g>
    </g>
    <g id="xtick_13">
     <g id="line2d_31">
      <path d="M 416.945455 179.773727 
L 488.684652 251.512924 
" clip-path="url(#p101b11f3ee)" style="fill: none; stroke-dasharray: 2,8; stroke-dashoffset: 0; stroke: #cccccc; stroke-width: 2; stroke-linecap: round"/>
     </g>
     <g id="text_19">
      <!-- 315° -->
      <g transform="translate(482.010326 262.602348) scale(0.12 -0.12)">
       <use xlink:href="#DejaVuSans-33"/>
       <use xlink:href="#DejaVuSans-31" x="63.623047"/>
       <use xlink:href="#DejaVuSans-35" x="127.246094"/>
       <use xlink:href="#DejaVuSans-b0" x="190.869141"/>
      </g>
     </g>
    </g>
   </g>
   <g id="matplotlib.axis_4">
    <g id="ytick_7">
     <g id="line2d_32">
      <path d="M 430.610064 179.773727 
C 430.610064 177.979307 430.256602 176.202335 429.569907 174.544507 
C 428.883212 172.886679 427.876639 171.380235 426.607792 170.111389 
C 425.338946 168.842542 423.832502 167.835969 422.174674 167.149274 
C 420.516846 166.462579 418.739875 166.109118 416.945455 166.109118 
C 415.151035 166.109118 413.374063 166.462579 411.716235 167.149274 
C 410.058407 167.835969 408.551963 168.842542 407.283117 170.111389 
C 406.01427 171.380235 405.007697 172.886679 404.321002 174.544507 
C 403.634307 176.202335 403.280846 177.979307 403.280846 179.773727 
C 403.280846 181.568147 403.634307 183.345118 404.321002 185.002946 
C 405.007697 186.660774 406.01427 188.167218 407.283117 189.436064 
C 408.551963 190.704911 410.058407 191.711484 411.716235 192.398179 
C 413.374063 193.084874 415.151035 193.438335 416.945455 193.438335 
C 418.739875 193.438335 420.516846 193.084874 422.174674 192.398179 
C 423.832502 191.711484 425.338946 190.704911 426.607792 189.436064 
C 427.876639 188.167218 428.883212 186.660774 429.569907 185.002946 
C 430.256602 183.345118 430.610064 181.568147 430.610064 179.773727 
" clip-path="url(#p101b11f3ee)" style="fill: none; stroke-dasharray: 2,8; stroke-dashoffset: 0; stroke: #cccccc; stroke-width: 2; stroke-linecap: round"/>
     </g>
     <g id="text_20">
      <!-- 0.2 -->
      <g transform="translate(429.569907 172.048882) scale(0.12 -0.12)">
       <use xlink:href="#DejaVuSans-30"/>
       <use xlink:href="#DejaVuSans-2e" x="63.623047"/>
       <use xlink:href="#DejaVuSans-32" x="95.410156"/>
      </g>
     </g>
    </g>
    <g id="ytick_8">
     <g id="line2d_33">
      <path d="M 444.274672 179.773727 
C 444.274672 176.184886 443.567749 172.630943 442.19436 169.315288 
C 440.82097 165.999632 438.807823 162.986744 436.27013 160.449051 
C 433.732437 157.911358 430.719549 155.898211 427.403893 154.524821 
C 424.088238 153.151432 420.534295 152.444509 416.945455 152.444509 
C 413.356615 152.444509 409.802671 153.151432 406.487016 154.524821 
C 403.17136 155.898211 400.158472 157.911358 397.620779 160.449051 
C 395.083086 162.986744 393.069939 165.999632 391.696549 169.315288 
C 390.32316 172.630943 389.616237 176.184886 389.616237 179.773727 
C 389.616237 183.362567 390.32316 186.91651 391.696549 190.232165 
C 393.069939 193.547821 395.083086 196.560709 397.620779 199.098402 
C 400.158472 201.636095 403.17136 203.649242 406.487016 205.022632 
C 409.802671 206.396021 413.356615 207.102944 416.945455 207.102944 
C 420.534295 207.102944 424.088238 206.396021 427.403893 205.022632 
C 430.719549 203.649242 433.732437 201.636095 436.27013 199.098402 
C 438.807823 196.560709 440.82097 193.547821 442.19436 190.232165 
C 443.567749 186.91651 444.274672 183.362567 444.274672 179.773727 
" clip-path="url(#p101b11f3ee)" style="fill: none; stroke-dasharray: 2,8; stroke-dashoffset: 0; stroke: #cccccc; stroke-width: 2; stroke-linecap: round"/>
     </g>
     <g id="text_21">
      <!-- 0.4 -->
      <g transform="translate(442.19436 166.819663) scale(0.12 -0.12)">
       <use xlink:href="#DejaVuSans-30"/>
       <use xlink:href="#DejaVuSans-2e" x="63.623047"/>
       <use xlink:href="#DejaVuSans-34" x="95.410156"/>
      </g>
     </g>
    </g>
    <g id="ytick_9">
     <g id="line2d_34">
      <path d="M 457.939281 179.773727 
C 457.939281 174.390466 456.878897 169.059552 454.818812 164.086068 
C 452.758728 159.112584 449.739007 154.593253 445.932468 150.786714 
C 442.125928 146.980174 437.606597 143.960453 432.633113 141.900369 
C 427.659629 139.840284 422.328715 138.7799 416.945455 138.7799 
C 411.562195 138.7799 406.23128 139.840284 401.257796 141.900369 
C 396.284312 143.960453 391.764981 146.980174 387.958442 150.786714 
C 384.151902 154.593253 381.132181 159.112584 379.072097 164.086068 
C 377.012012 169.059552 375.951628 174.390466 375.951628 179.773727 
C 375.951628 185.156987 377.012012 190.487901 379.072097 195.461385 
C 381.132181 200.434869 384.151902 204.9542 387.958442 208.760739 
C 391.764981 212.567279 396.284312 215.587 401.257796 217.647084 
C 406.23128 219.707169 411.562195 220.767553 416.945455 220.767553 
C 422.328715 220.767553 427.659629 219.707169 432.633113 217.647084 
C 437.606597 215.587 442.125928 212.567279 445.932468 208.760739 
C 449.739007 204.9542 452.758728 200.434869 454.818812 195.461385 
C 456.878897 190.487901 457.939281 185.156987 457.939281 179.773727 
" clip-path="url(#p101b11f3ee)" style="fill: none; stroke-dasharray: 2,8; stroke-dashoffset: 0; stroke: #cccccc; stroke-width: 2; stroke-linecap: round"/>
     </g>
     <g id="text_22">
      <!-- 0.6 -->
      <g transform="translate(454.818812 161.590443) scale(0.12 -0.12)">
       <use xlink:href="#DejaVuSans-30"/>
       <use xlink:href="#DejaVuSans-2e" x="63.623047"/>
       <use xlink:href="#DejaVuSans-36" x="95.410156"/>
      </g>
     </g>
    </g>
    <g id="ytick_10">
     <g id="line2d_35">
      <path d="M 471.60389 179.773727 
C 471.60389 172.596046 470.190044 165.48816 467.443265 158.856849 
C 464.696485 152.225537 460.670191 146.199762 455.594805 141.124376 
C 450.519419 136.04899 444.493644 132.022696 437.862332 129.275916 
C 431.231021 126.529137 424.123135 125.115291 416.945455 125.115291 
C 409.767775 125.115291 402.659888 126.529137 396.028577 129.275916 
C 389.397265 132.022696 383.37149 136.04899 378.296104 141.124376 
C 373.220718 146.199762 369.194424 152.225537 366.447644 158.856849 
C 363.700865 165.48816 362.287019 172.596046 362.287019 179.773727 
C 362.287019 186.951407 363.700865 194.059293 366.447644 200.690604 
C 369.194424 207.321916 373.220718 213.347691 378.296104 218.423077 
C 383.37149 223.498463 389.397265 227.524757 396.028577 230.271537 
C 402.659888 233.018316 409.767775 234.432162 416.945455 234.432162 
C 424.123135 234.432162 431.231021 233.018316 437.862332 230.271537 
C 444.493644 227.524757 450.519419 223.498463 455.594805 218.423077 
C 460.670191 213.347691 464.696485 207.321916 467.443265 200.690604 
C 470.190044 194.059293 471.60389 186.951407 471.60389 179.773727 
" clip-path="url(#p101b11f3ee)" style="fill: none; stroke-dasharray: 2,8; stroke-dashoffset: 0; stroke: #cccccc; stroke-width: 2; stroke-linecap: round"/>
     </g>
     <g id="text_23">
      <!-- 0.8 -->
      <g transform="translate(467.443265 156.361224) scale(0.12 -0.12)">
       <use xlink:href="#DejaVuSans-30"/>
       <use xlink:href="#DejaVuSans-2e" x="63.623047"/>
       <use xlink:href="#DejaVuSans-38" x="95.410156"/>
      </g>
     </g>
    </g>
    <g id="ytick_11">
     <g id="line2d_36">
      <path d="M 485.268499 179.773727 
C 485.268499 170.801626 483.501191 161.916769 480.067717 153.627629 
C 476.634243 145.33849 471.601376 137.806271 465.257143 131.462038 
C 458.91291 125.117805 451.380691 120.084938 443.091552 116.651464 
C 434.802412 113.21799 425.917555 111.450682 416.945455 111.450682 
C 407.973355 111.450682 399.088497 113.21799 390.799357 116.651464 
C 382.510218 120.084938 374.977999 125.117805 368.633766 131.462038 
C 362.289533 137.806271 357.256666 145.33849 353.823192 153.627629 
C 350.389718 161.916769 348.62241 170.801626 348.62241 179.773727 
C 348.62241 188.745827 350.389718 197.630684 353.823192 205.919824 
C 357.256666 214.208963 362.289533 221.741182 368.633766 228.085415 
C 374.977999 234.429648 382.510218 239.462515 390.799357 242.895989 
C 399.088497 246.329463 407.973355 248.096771 416.945455 248.096771 
C 425.917555 248.096771 434.802412 246.329463 443.091552 242.895989 
C 451.380691 239.462515 458.91291 234.429648 465.257143 228.085415 
C 471.601376 221.741182 476.634243 214.208963 480.067717 205.919824 
C 483.501191 197.630684 485.268499 188.745827 485.268499 179.773727 
" clip-path="url(#p101b11f3ee)" style="fill: none; stroke-dasharray: 2,8; stroke-dashoffset: 0; stroke: #cccccc; stroke-width: 2; stroke-linecap: round"/>
     </g>
     <g id="text_24">
      <!-- 1.0 -->
      <g transform="translate(480.067717 151.132004) scale(0.12 -0.12)">
       <use xlink:href="#DejaVuSans-31"/>
       <use xlink:href="#DejaVuSans-2e" x="63.623047"/>
       <use xlink:href="#DejaVuSans-30" x="95.410156"/>
      </g>
     </g>
    </g>
    <g id="ytick_12">
     <g id="line2d_37">
      <path d="M 498.933108 179.773727 
C 498.933108 169.007206 496.812339 158.345377 492.69217 148.39841 
C 488.572001 138.451442 482.53256 129.41278 474.919481 121.799701 
C 467.306401 114.186621 458.267739 108.14718 448.320771 104.027011 
C 438.373804 99.906842 427.711975 97.786073 416.945455 97.786073 
C 406.178934 97.786073 395.517105 99.906842 385.570138 104.027011 
C 375.62317 108.14718 366.584508 114.186621 358.971429 121.799701 
C 351.358349 129.41278 345.318908 138.451442 341.198739 148.39841 
C 337.07857 158.345377 334.957801 169.007206 334.957801 179.773727 
C 334.957801 190.540247 337.07857 201.202076 341.198739 211.149043 
C 345.318908 221.096011 351.358349 230.134673 358.971429 237.747752 
C 366.584508 245.360832 375.62317 251.400273 385.570138 255.520442 
C 395.517105 259.640611 406.178934 261.76138 416.945455 261.76138 
C 427.711975 261.76138 438.373804 259.640611 448.320771 255.520442 
C 458.267739 251.400273 467.306401 245.360832 474.919481 237.747752 
C 482.53256 230.134673 488.572001 221.096011 492.69217 211.149043 
C 496.812339 201.202076 498.933108 190.540247 498.933108 179.773727 
" clip-path="url(#p101b11f3ee)" style="fill: none; stroke-dasharray: 2,8; stroke-dashoffset: 0; stroke: #cccccc; stroke-width: 2; stroke-linecap: round"/>
     </g>
     <g id="text_25">
      <!-- 1.2 -->
      <g transform="translate(492.69217 145.902785) scale(0.12 -0.12)">
       <use xlink:href="#DejaVuSans-31"/>
       <use xlink:href="#DejaVuSans-2e" x="63.623047"/>
       <use xlink:href="#DejaVuSans-32" x="95.410156"/>
      </g>
     </g>
    </g>
    <g id="ytick_13">
     <g id="line2d_38">
      <path d="M 512.597717 179.773727 
C 512.597717 167.212786 510.123486 154.773986 505.316622 143.16919 
C 500.509759 131.564395 493.463744 121.019289 484.581818 112.137363 
C 475.699892 103.255437 465.154786 96.209422 453.549991 91.402559 
C 441.945195 86.595695 429.506395 84.121464 416.945455 84.121464 
C 404.384514 84.121464 391.945714 86.595695 380.340918 91.402559 
C 368.736123 96.209422 358.191017 103.255437 349.309091 112.137363 
C 340.427165 121.019289 333.38115 131.564395 328.574287 143.16919 
C 323.767423 154.773986 321.293192 167.212786 321.293192 179.773727 
C 321.293192 192.334667 323.767423 204.773467 328.574287 216.378263 
C 333.38115 227.983058 340.427165 238.528164 349.309091 247.41009 
C 358.191017 256.292016 368.736123 263.338031 380.340918 268.144894 
C 391.945714 272.951758 404.384514 275.425989 416.945455 275.425989 
C 429.506395 275.425989 441.945195 272.951758 453.549991 268.144894 
C 465.154786 263.338031 475.699892 256.292016 484.581818 247.41009 
C 493.463744 238.528164 500.509759 227.983058 505.316622 216.378263 
C 510.123486 204.773467 512.597717 192.334667 512.597717 179.773727 
" clip-path="url(#p101b11f3ee)" style="fill: none; stroke-dasharray: 2,8; stroke-dashoffset: 0; stroke: #cccccc; stroke-width: 2; stroke-linecap: round"/>
     </g>
     <g id="text_26">
      <!-- 1.4 -->
      <g transform="translate(505.316622 140.673565) scale(0.12 -0.12)">
       <use xlink:href="#DejaVuSans-31"/>
       <use xlink:href="#DejaVuSans-2e" x="63.623047"/>
       <use xlink:href="#DejaVuSans-34" x="95.410156"/>
      </g>
     </g>
    </g>
   </g>
   <g id="line2d_39">
    <path d="M 416.945455 179.773727 
L 485.268499 111.450682 
" clip-path="url(#p101b11f3ee)" style="fill: none; stroke: #1f77b4; stroke-width: 1.5; stroke-linecap: square"/>
    <g clip-path="url(#p101b11f3ee)">
     <use xlink:href="#m6a62762794" x="416.945455" y="179.773727" style="fill: #1f77b4; stroke: #1f77b4"/>
     <use xlink:href="#m6a62762794" x="485.268499" y="111.450682" style="fill: #1f77b4; stroke: #1f77b4"/>
    </g>
   </g>
   <g id="patch_8">
    <path d="M 518.4 179.773727 
C 518.4 166.450838 515.775681 153.257497 510.677233 140.948753 
C 505.578784 128.640009 498.105357 117.455234 488.684652 108.034529 
C 479.263947 98.613824 468.079173 91.140397 455.770428 86.041948 
C 443.461684 80.9435 430.268343 78.319181 416.945455 78.319181 
C 403.622566 78.319181 390.429225 80.9435 378.120481 86.041948 
C 365.811737 91.140397 354.626963 98.613824 345.206257 108.034529 
C 335.785552 117.455234 328.312125 128.640009 323.213677 140.948753 
C 318.115228 153.257497 315.490909 166.450838 315.490909 179.773727 
C 315.490909 193.096615 318.115228 206.289956 323.213677 218.5987 
C 328.312125 230.907445 335.785552 242.092219 345.206257 251.512924 
C 354.626963 260.933629 365.811737 268.407056 378.120481 273.505505 
C 390.429225 278.603953 403.622566 281.228272 416.945455 281.228272 
C 430.268343 281.228272 443.461684 278.603953 455.770428 273.505505 
C 468.079173 268.407056 479.263947 260.933629 488.684652 251.512924 
C 498.105357 242.092219 505.578784 230.907445 510.677233 218.5987 
C 515.775681 206.289956 518.4 193.096615 518.4 179.773727 
" style="fill: none; stroke: #cccccc; stroke-width: 2; stroke-linejoin: miter; stroke-linecap: square"/>
   </g>
  </g>
 </g>
 <defs>
  <clipPath id="p9abd043c43">
   <rect x="72" y="42.718509" width="202.909091" height="274.110434"/>
  </clipPath>
  <clipPath id="p101b11f3ee">
   <path d="M 518.4 179.773727 
C 518.4 166.450838 515.775681 153.257497 510.677233 140.948753 
C 505.578784 128.640009 498.105357 117.455234 488.684652 108.034529 
C 479.263947 98.613824 468.079173 91.140397 455.770428 86.041948 
C 443.461684 80.9435 430.268343 78.319181 416.945455 78.319181 
C 403.622566 78.319181 390.429225 80.9435 378.120481 86.041948 
C 365.811737 91.140397 354.626963 98.613824 345.206257 108.034529 
C 335.785552 117.455234 328.312125 128.640009 323.213677 140.948753 
C 318.115228 153.257497 315.490909 166.450838 315.490909 179.773727 
C 315.490909 193.096615 318.115228 206.289956 323.213677 218.5987 
C 328.312125 230.907445 335.785552 242.092219 345.206257 251.512924 
C 354.626963 260.933629 365.811737 268.407056 378.120481 273.505505 
C 390.429225 278.603953 403.622566 281.228272 416.945455 281.228272 
C 430.268343 281.228272 443.461684 278.603953 455.770428 273.505505 
C 468.079173 268.407056 479.263947 260.933629 488.684652 251.512924 
C 498.105357 242.092219 505.578784 230.907445 510.677233 218.5987 
C 515.775681 206.289956 518.4 193.096615 518.4 179.773727 
M 416.945455 179.773727 
C 416.945455 179.773727 416.945455 179.773727 416.945455 179.773727 
C 416.945455 179.773727 416.945455 179.773727 416.945455 179.773727 
C 416.945455 179.773727 416.945455 179.773727 416.945455 179.773727 
C 416.945455 179.773727 416.945455 179.773727 416.945455 179.773727 
C 416.945455 179.773727 416.945455 179.773727 416.945455 179.773727 
C 416.945455 179.773727 416.945455 179.773727 416.945455 179.773727 
C 416.945455 179.773727 416.945455 179.773727 416.945455 179.773727 
C 416.945455 179.773727 416.945455 179.773727 416.945455 179.773727 
C 416.945455 179.773727 416.945455 179.773727 416.945455 179.773727 
C 416.945455 179.773727 416.945455 179.773727 416.945455 179.773727 
C 416.945455 179.773727 416.945455 179.773727 416.945455 179.773727 
C 416.945455 179.773727 416.945455 179.773727 416.945455 179.773727 
C 416.945455 179.773727 416.945455 179.773727 416.945455 179.773727 
C 416.945455 179.773727 416.945455 179.773727 416.945455 179.773727 
C 416.945455 179.773727 416.945455 179.773727 416.945455 179.773727 
C 416.945455 179.773727 416.945455 179.773727 416.945455 179.773727 
M 518.4 179.773727 
z
"/>
  </clipPath>
 </defs>
</svg>
