<?xml version="1.0" encoding="utf-8" standalone="no"?>
<!DOCTYPE svg PUBLIC "-//W3C//DTD SVG 1.1//EN"
  "http://www.w3.org/Graphics/SVG/1.1/DTD/svg11.dtd">
<svg xmlns:xlink="http://www.w3.org/1999/xlink" width="625.153125pt" height="392.265543pt" viewBox="0 0 625.153125 392.265543" xmlns="http://www.w3.org/2000/svg" version="1.1">
 <metadata>
  <rdf:RDF xmlns:dc="http://purl.org/dc/elements/1.1/" xmlns:cc="http://creativecommons.org/ns#" xmlns:rdf="http://www.w3.org/1999/02/22-rdf-syntax-ns#">
   <cc:Work>
    <dc:type rdf:resource="http://purl.org/dc/dcmitype/StillImage"/>
    <dc:date>2023-11-04T18:05:27.397459</dc:date>
    <dc:format>image/svg+xml</dc:format>
    <dc:creator>
     <cc:Agent>
      <dc:title>Matplotlib v3.8.1, https://matplotlib.org/</dc:title>
     </cc:Agent>
    </dc:creator>
   </cc:Work>
  </rdf:RDF>
 </metadata>
 <defs>
  <style type="text/css">*{stroke-linejoin: round; stroke-linecap: butt}</style>
 </defs>
 <g id="figure_1">
  <g id="patch_1">
   <path d="M 0 392.265543 
L 625.153125 392.265543 
L 625.153125 0 
L 0 0 
z
" style="fill: #ffffff"/>
  </g>
  <g id="axes_1">
   <g id="patch_2">
    <path d="M 59.953125 349.838043 
L 617.953125 349.838043 
L 617.953125 7.2 
L 59.953125 7.2 
z
" style="fill: #ffffff"/>
   </g>
   <g id="matplotlib.axis_1">
    <g id="xtick_1">
     <g id="line2d_1">
      <path d="M 85.316761 349.838043 
L 85.316761 7.2 
" clip-path="url(#pf4cd57dcbc)" style="fill: none; stroke-dasharray: 2,8; stroke-dashoffset: 0; stroke: #cccccc; stroke-width: 2; stroke-linecap: round"/>
     </g>
     <g id="line2d_2"/>
     <g id="text_1">
      <!-- 0.0 -->
      <g transform="translate(75.774886 362.956168) scale(0.12 -0.12)">
       <defs>
        <path id="DejaVuSans-30" d="M 2034 4250 
Q 1547 4250 1301 3770 
Q 1056 3291 1056 2328 
Q 1056 1369 1301 889 
Q 1547 409 2034 409 
Q 2525 409 2770 889 
Q 3016 1369 3016 2328 
Q 3016 3291 2770 3770 
Q 2525 4250 2034 4250 
z
M 2034 4750 
Q 2819 4750 3233 4129 
Q 3647 3509 3647 2328 
Q 3647 1150 3233 529 
Q 2819 -91 2034 -91 
Q 1250 -91 836 529 
Q 422 1150 422 2328 
Q 422 3509 836 4129 
Q 1250 4750 2034 4750 
z
" transform="scale(0.015625)"/>
        <path id="DejaVuSans-2e" d="M 684 794 
L 1344 794 
L 1344 0 
L 684 0 
L 684 794 
z
" transform="scale(0.015625)"/>
       </defs>
       <use xlink:href="#DejaVuSans-30"/>
       <use xlink:href="#DejaVuSans-2e" x="63.623047"/>
       <use xlink:href="#DejaVuSans-30" x="95.410156"/>
      </g>
     </g>
    </g>
    <g id="xtick_2">
     <g id="line2d_3">
      <path d="M 186.771307 349.838043 
L 186.771307 7.2 
" clip-path="url(#pf4cd57dcbc)" style="fill: none; stroke-dasharray: 2,8; stroke-dashoffset: 0; stroke: #cccccc; stroke-width: 2; stroke-linecap: round"/>
     </g>
     <g id="line2d_4"/>
     <g id="text_2">
      <!-- 0.2 -->
      <g transform="translate(177.229432 362.956168) scale(0.12 -0.12)">
       <defs>
        <path id="DejaVuSans-32" d="M 1228 531 
L 3431 531 
L 3431 0 
L 469 0 
L 469 531 
Q 828 903 1448 1529 
Q 2069 2156 2228 2338 
Q 2531 2678 2651 2914 
Q 2772 3150 2772 3378 
Q 2772 3750 2511 3984 
Q 2250 4219 1831 4219 
Q 1534 4219 1204 4116 
Q 875 4013 500 3803 
L 500 4441 
Q 881 4594 1212 4672 
Q 1544 4750 1819 4750 
Q 2544 4750 2975 4387 
Q 3406 4025 3406 3419 
Q 3406 3131 3298 2873 
Q 3191 2616 2906 2266 
Q 2828 2175 2409 1742 
Q 1991 1309 1228 531 
z
" transform="scale(0.015625)"/>
       </defs>
       <use xlink:href="#DejaVuSans-30"/>
       <use xlink:href="#DejaVuSans-2e" x="63.623047"/>
       <use xlink:href="#DejaVuSans-32" x="95.410156"/>
      </g>
     </g>
    </g>
    <g id="xtick_3">
     <g id="line2d_5">
      <path d="M 288.225852 349.838043 
L 288.225852 7.2 
" clip-path="url(#pf4cd57dcbc)" style="fill: none; stroke-dasharray: 2,8; stroke-dashoffset: 0; stroke: #cccccc; stroke-width: 2; stroke-linecap: round"/>
     </g>
     <g id="line2d_6"/>
     <g id="text_3">
      <!-- 0.4 -->
      <g transform="translate(278.683977 362.956168) scale(0.12 -0.12)">
       <defs>
        <path id="DejaVuSans-34" d="M 2419 4116 
L 825 1625 
L 2419 1625 
L 2419 4116 
z
M 2253 4666 
L 3047 4666 
L 3047 1625 
L 3713 1625 
L 3713 1100 
L 3047 1100 
L 3047 0 
L 2419 0 
L 2419 1100 
L 313 1100 
L 313 1709 
L 2253 4666 
z
" transform="scale(0.015625)"/>
       </defs>
       <use xlink:href="#DejaVuSans-30"/>
       <use xlink:href="#DejaVuSans-2e" x="63.623047"/>
       <use xlink:href="#DejaVuSans-34" x="95.410156"/>
      </g>
     </g>
    </g>
    <g id="xtick_4">
     <g id="line2d_7">
      <path d="M 389.680398 349.838043 
L 389.680398 7.2 
" clip-path="url(#pf4cd57dcbc)" style="fill: none; stroke-dasharray: 2,8; stroke-dashoffset: 0; stroke: #cccccc; stroke-width: 2; stroke-linecap: round"/>
     </g>
     <g id="line2d_8"/>
     <g id="text_4">
      <!-- 0.6 -->
      <g transform="translate(380.138523 362.956168) scale(0.12 -0.12)">
       <defs>
        <path id="DejaVuSans-36" d="M 2113 2584 
Q 1688 2584 1439 2293 
Q 1191 2003 1191 1497 
Q 1191 994 1439 701 
Q 1688 409 2113 409 
Q 2538 409 2786 701 
Q 3034 994 3034 1497 
Q 3034 2003 2786 2293 
Q 2538 2584 2113 2584 
z
M 3366 4563 
L 3366 3988 
Q 3128 4100 2886 4159 
Q 2644 4219 2406 4219 
Q 1781 4219 1451 3797 
Q 1122 3375 1075 2522 
Q 1259 2794 1537 2939 
Q 1816 3084 2150 3084 
Q 2853 3084 3261 2657 
Q 3669 2231 3669 1497 
Q 3669 778 3244 343 
Q 2819 -91 2113 -91 
Q 1303 -91 875 529 
Q 447 1150 447 2328 
Q 447 3434 972 4092 
Q 1497 4750 2381 4750 
Q 2619 4750 2861 4703 
Q 3103 4656 3366 4563 
z
" transform="scale(0.015625)"/>
       </defs>
       <use xlink:href="#DejaVuSans-30"/>
       <use xlink:href="#DejaVuSans-2e" x="63.623047"/>
       <use xlink:href="#DejaVuSans-36" x="95.410156"/>
      </g>
     </g>
    </g>
    <g id="xtick_5">
     <g id="line2d_9">
      <path d="M 491.134943 349.838043 
L 491.134943 7.2 
" clip-path="url(#pf4cd57dcbc)" style="fill: none; stroke-dasharray: 2,8; stroke-dashoffset: 0; stroke: #cccccc; stroke-width: 2; stroke-linecap: round"/>
     </g>
     <g id="line2d_10"/>
     <g id="text_5">
      <!-- 0.8 -->
      <g transform="translate(481.593068 362.956168) scale(0.12 -0.12)">
       <defs>
        <path id="DejaVuSans-38" d="M 2034 2216 
Q 1584 2216 1326 1975 
Q 1069 1734 1069 1313 
Q 1069 891 1326 650 
Q 1584 409 2034 409 
Q 2484 409 2743 651 
Q 3003 894 3003 1313 
Q 3003 1734 2745 1975 
Q 2488 2216 2034 2216 
z
M 1403 2484 
Q 997 2584 770 2862 
Q 544 3141 544 3541 
Q 544 4100 942 4425 
Q 1341 4750 2034 4750 
Q 2731 4750 3128 4425 
Q 3525 4100 3525 3541 
Q 3525 3141 3298 2862 
Q 3072 2584 2669 2484 
Q 3125 2378 3379 2068 
Q 3634 1759 3634 1313 
Q 3634 634 3220 271 
Q 2806 -91 2034 -91 
Q 1263 -91 848 271 
Q 434 634 434 1313 
Q 434 1759 690 2068 
Q 947 2378 1403 2484 
z
M 1172 3481 
Q 1172 3119 1398 2916 
Q 1625 2713 2034 2713 
Q 2441 2713 2670 2916 
Q 2900 3119 2900 3481 
Q 2900 3844 2670 4047 
Q 2441 4250 2034 4250 
Q 1625 4250 1398 4047 
Q 1172 3844 1172 3481 
z
" transform="scale(0.015625)"/>
       </defs>
       <use xlink:href="#DejaVuSans-30"/>
       <use xlink:href="#DejaVuSans-2e" x="63.623047"/>
       <use xlink:href="#DejaVuSans-38" x="95.410156"/>
      </g>
     </g>
    </g>
    <g id="xtick_6">
     <g id="line2d_11">
      <path d="M 592.589489 349.838043 
L 592.589489 7.2 
" clip-path="url(#pf4cd57dcbc)" style="fill: none; stroke-dasharray: 2,8; stroke-dashoffset: 0; stroke: #cccccc; stroke-width: 2; stroke-linecap: round"/>
     </g>
     <g id="line2d_12"/>
     <g id="text_6">
      <!-- 1.0 -->
      <g transform="translate(583.047614 362.956168) scale(0.12 -0.12)">
       <defs>
        <path id="DejaVuSans-31" d="M 794 531 
L 1825 531 
L 1825 4091 
L 703 3866 
L 703 4441 
L 1819 4666 
L 2450 4666 
L 2450 531 
L 3481 531 
L 3481 0 
L 794 0 
L 794 531 
z
" transform="scale(0.015625)"/>
       </defs>
       <use xlink:href="#DejaVuSans-31"/>
       <use xlink:href="#DejaVuSans-2e" x="63.623047"/>
       <use xlink:href="#DejaVuSans-30" x="95.410156"/>
      </g>
     </g>
    </g>
    <g id="text_7">
     <!-- x -->
     <g transform="translate(335.401875 382.569918) scale(0.12 -0.12)">
      <defs>
       <path id="DejaVuSans-78" d="M 3513 3500 
L 2247 1797 
L 3578 0 
L 2900 0 
L 1881 1375 
L 863 0 
L 184 0 
L 1544 1831 
L 300 3500 
L 978 3500 
L 1906 2253 
L 2834 3500 
L 3513 3500 
z
" transform="scale(0.015625)"/>
      </defs>
      <use xlink:href="#DejaVuSans-78"/>
     </g>
    </g>
   </g>
   <g id="matplotlib.axis_2">
    <g id="ytick_1">
     <g id="line2d_13">
      <path d="M 59.953125 307.062176 
L 617.953125 307.062176 
" clip-path="url(#pf4cd57dcbc)" style="fill: none; stroke-dasharray: 2,8; stroke-dashoffset: 0; stroke: #cccccc; stroke-width: 2; stroke-linecap: round"/>
     </g>
     <g id="line2d_14"/>
     <g id="text_8">
      <!-- −0.6 -->
      <g transform="translate(26.81375 311.621239) scale(0.12 -0.12)">
       <defs>
        <path id="DejaVuSans-2212" d="M 678 2272 
L 4684 2272 
L 4684 1741 
L 678 1741 
L 678 2272 
z
" transform="scale(0.015625)"/>
       </defs>
       <use xlink:href="#DejaVuSans-2212"/>
       <use xlink:href="#DejaVuSans-30" x="83.789062"/>
       <use xlink:href="#DejaVuSans-2e" x="147.412109"/>
       <use xlink:href="#DejaVuSans-36" x="179.199219"/>
      </g>
     </g>
    </g>
    <g id="ytick_2">
     <g id="line2d_15">
      <path d="M 59.953125 264.214458 
L 617.953125 264.214458 
" clip-path="url(#pf4cd57dcbc)" style="fill: none; stroke-dasharray: 2,8; stroke-dashoffset: 0; stroke: #cccccc; stroke-width: 2; stroke-linecap: round"/>
     </g>
     <g id="line2d_16"/>
     <g id="text_9">
      <!-- −0.4 -->
      <g transform="translate(26.81375 268.77352) scale(0.12 -0.12)">
       <use xlink:href="#DejaVuSans-2212"/>
       <use xlink:href="#DejaVuSans-30" x="83.789062"/>
       <use xlink:href="#DejaVuSans-2e" x="147.412109"/>
       <use xlink:href="#DejaVuSans-34" x="179.199219"/>
      </g>
     </g>
    </g>
    <g id="ytick_3">
     <g id="line2d_17">
      <path d="M 59.953125 221.36674 
L 617.953125 221.36674 
" clip-path="url(#pf4cd57dcbc)" style="fill: none; stroke-dasharray: 2,8; stroke-dashoffset: 0; stroke: #cccccc; stroke-width: 2; stroke-linecap: round"/>
     </g>
     <g id="line2d_18"/>
     <g id="text_10">
      <!-- −0.2 -->
      <g transform="translate(26.81375 225.925802) scale(0.12 -0.12)">
       <use xlink:href="#DejaVuSans-2212"/>
       <use xlink:href="#DejaVuSans-30" x="83.789062"/>
       <use xlink:href="#DejaVuSans-2e" x="147.412109"/>
       <use xlink:href="#DejaVuSans-32" x="179.199219"/>
      </g>
     </g>
    </g>
    <g id="ytick_4">
     <g id="line2d_19">
      <path d="M 59.953125 178.519022 
L 617.953125 178.519022 
" clip-path="url(#pf4cd57dcbc)" style="fill: none; stroke-dasharray: 2,8; stroke-dashoffset: 0; stroke: #cccccc; stroke-width: 2; stroke-linecap: round"/>
     </g>
     <g id="line2d_20"/>
     <g id="text_11">
      <!-- 0.0 -->
      <g transform="translate(36.869375 183.078084) scale(0.12 -0.12)">
       <use xlink:href="#DejaVuSans-30"/>
       <use xlink:href="#DejaVuSans-2e" x="63.623047"/>
       <use xlink:href="#DejaVuSans-30" x="95.410156"/>
      </g>
     </g>
    </g>
    <g id="ytick_5">
     <g id="line2d_21">
      <path d="M 59.953125 135.671303 
L 617.953125 135.671303 
" clip-path="url(#pf4cd57dcbc)" style="fill: none; stroke-dasharray: 2,8; stroke-dashoffset: 0; stroke: #cccccc; stroke-width: 2; stroke-linecap: round"/>
     </g>
     <g id="line2d_22"/>
     <g id="text_12">
      <!-- 0.2 -->
      <g transform="translate(36.869375 140.230366) scale(0.12 -0.12)">
       <use xlink:href="#DejaVuSans-30"/>
       <use xlink:href="#DejaVuSans-2e" x="63.623047"/>
       <use xlink:href="#DejaVuSans-32" x="95.410156"/>
      </g>
     </g>
    </g>
    <g id="ytick_6">
     <g id="line2d_23">
      <path d="M 59.953125 92.823585 
L 617.953125 92.823585 
" clip-path="url(#pf4cd57dcbc)" style="fill: none; stroke-dasharray: 2,8; stroke-dashoffset: 0; stroke: #cccccc; stroke-width: 2; stroke-linecap: round"/>
     </g>
     <g id="line2d_24"/>
     <g id="text_13">
      <!-- 0.4 -->
      <g transform="translate(36.869375 97.382648) scale(0.12 -0.12)">
       <use xlink:href="#DejaVuSans-30"/>
       <use xlink:href="#DejaVuSans-2e" x="63.623047"/>
       <use xlink:href="#DejaVuSans-34" x="95.410156"/>
      </g>
     </g>
    </g>
    <g id="ytick_7">
     <g id="line2d_25">
      <path d="M 59.953125 49.975867 
L 617.953125 49.975867 
" clip-path="url(#pf4cd57dcbc)" style="fill: none; stroke-dasharray: 2,8; stroke-dashoffset: 0; stroke: #cccccc; stroke-width: 2; stroke-linecap: round"/>
     </g>
     <g id="line2d_26"/>
     <g id="text_14">
      <!-- 0.6 -->
      <g transform="translate(36.869375 54.534929) scale(0.12 -0.12)">
       <use xlink:href="#DejaVuSans-30"/>
       <use xlink:href="#DejaVuSans-2e" x="63.623047"/>
       <use xlink:href="#DejaVuSans-36" x="95.410156"/>
      </g>
     </g>
    </g>
    <g id="text_15">
     <!-- y -->
     <g transform="translate(16.318125 182.070272) rotate(-90) scale(0.12 -0.12)">
      <defs>
       <path id="DejaVuSans-79" d="M 2059 -325 
Q 1816 -950 1584 -1140 
Q 1353 -1331 966 -1331 
L 506 -1331 
L 506 -850 
L 844 -850 
Q 1081 -850 1212 -737 
Q 1344 -625 1503 -206 
L 1606 56 
L 191 3500 
L 800 3500 
L 1894 763 
L 2988 3500 
L 3597 3500 
L 2059 -325 
z
" transform="scale(0.015625)"/>
      </defs>
      <use xlink:href="#DejaVuSans-79"/>
     </g>
    </g>
   </g>
   <g id="line2d_27">
    <path d="M 85.316761 178.519022 
L 90.440728 176.362266 
L 95.564695 174.219992 
L 100.688662 172.092107 
L 105.812629 169.978522 
L 110.936596 167.879145 
L 116.060563 165.793888 
L 121.18453 163.722661 
L 126.308497 161.665376 
L 131.432464 159.621945 
L 136.556431 157.59228 
L 141.680398 155.576294 
L 146.804365 153.573901 
L 151.928332 151.585016 
L 157.052299 149.609552 
L 162.176265 147.647424 
L 167.300232 145.698549 
L 172.424199 143.762842 
L 177.548166 141.840221 
L 182.672133 139.930601 
L 187.7961 138.033901 
L 192.920067 136.150038 
L 198.044034 134.278932 
L 203.168001 132.420501 
L 208.291968 130.574665 
L 213.415935 128.741343 
L 218.539902 126.920457 
L 223.663869 125.111927 
L 228.787836 123.315675 
L 233.911803 121.531622 
L 239.03577 119.759692 
L 244.159737 117.999805 
L 249.283704 116.251887 
L 254.40767 114.515861 
L 259.531637 112.79165 
L 264.655604 111.07918 
L 269.779571 109.378375 
L 274.903538 107.689162 
L 280.027505 106.011466 
L 285.151472 104.345213 
L 290.275439 102.690331 
L 295.399406 101.046746 
L 300.523373 99.414387 
L 305.64734 97.793182 
L 310.771307 96.183059 
L 315.895274 94.583947 
L 321.019241 92.995775 
L 326.143208 91.418475 
L 331.267175 89.851975 
L 336.391142 88.296207 
L 341.515108 86.751101 
L 346.639075 85.21659 
L 351.763042 83.692605 
L 356.887009 82.179078 
L 362.010976 80.675943 
L 367.134943 79.183132 
L 372.25891 77.700579 
L 377.382877 76.228219 
L 382.506844 74.765984 
L 387.630811 73.313811 
L 392.754778 71.871634 
L 397.878745 70.439389 
L 403.002712 69.017012 
L 408.126679 67.604439 
L 413.250646 66.201607 
L 418.374613 64.808452 
L 423.49858 63.424913 
L 428.622546 62.050927 
L 433.746513 60.686433 
L 438.87048 59.331368 
L 443.994447 57.985673 
L 449.118414 56.649286 
L 454.242381 55.322146 
L 459.366348 54.004195 
L 464.490315 52.695372 
L 469.614282 51.395618 
L 474.738249 50.104875 
L 479.862216 48.823084 
L 484.986183 47.550186 
L 490.11015 46.286124 
L 495.234117 45.030841 
L 500.358084 43.784279 
L 505.482051 42.546382 
L 510.606018 41.317093 
L 515.729985 40.096356 
L 520.853951 38.884115 
L 525.977918 37.680315 
L 531.101885 36.484902 
L 536.225852 35.297819 
L 541.349819 34.119014 
L 546.473786 32.948431 
L 551.597753 31.786018 
L 556.72172 30.63172 
L 561.845687 29.485485 
L 566.969654 28.347259 
L 572.093621 27.216991 
L 577.217588 26.094629 
L 582.341555 24.98012 
L 587.465522 23.873413 
L 592.589489 22.774457 
" clip-path="url(#pf4cd57dcbc)" style="fill: none; stroke: #ff0000; stroke-width: 2; stroke-linecap: square"/>
   </g>
   <g id="line2d_28">
    <path d="M 85.316761 178.519022 
L 90.440728 180.675777 
L 95.564695 182.818051 
L 100.688662 184.945936 
L 105.812629 187.059521 
L 110.936596 189.158898 
L 116.060563 191.244155 
L 121.18453 193.315382 
L 126.308497 195.372667 
L 131.432464 197.416098 
L 136.556431 199.445763 
L 141.680398 201.461749 
L 146.804365 203.464142 
L 151.928332 205.453027 
L 157.052299 207.428491 
L 162.176265 209.390619 
L 167.300232 211.339494 
L 172.424199 213.275201 
L 177.548166 215.197822 
L 182.672133 217.107442 
L 187.7961 219.004142 
L 192.920067 220.888005 
L 198.044034 222.759111 
L 203.168001 224.617542 
L 208.291968 226.463378 
L 213.415935 228.2967 
L 218.539902 230.117586 
L 223.663869 231.926116 
L 228.787836 233.722368 
L 233.911803 235.506421 
L 239.03577 237.278352 
L 244.159737 239.038238 
L 249.283704 240.786156 
L 254.40767 242.522182 
L 259.531637 244.246393 
L 264.655604 245.958863 
L 269.779571 247.659668 
L 274.903538 249.348881 
L 280.027505 251.026577 
L 285.151472 252.69283 
L 290.275439 254.347712 
L 295.399406 255.991297 
L 300.523373 257.623656 
L 305.64734 259.244861 
L 310.771307 260.854984 
L 315.895274 262.454096 
L 321.019241 264.042268 
L 326.143208 265.619568 
L 331.267175 267.186068 
L 336.391142 268.741836 
L 341.515108 270.286942 
L 346.639075 271.821453 
L 351.763042 273.345438 
L 356.887009 274.858965 
L 362.010976 276.3621 
L 367.134943 277.854911 
L 372.25891 279.337464 
L 377.382877 280.809824 
L 382.506844 282.272059 
L 387.630811 283.724232 
L 392.754778 285.166409 
L 397.878745 286.598654 
L 403.002712 288.021031 
L 408.126679 289.433604 
L 413.250646 290.836436 
L 418.374613 292.229591 
L 423.49858 293.61313 
L 428.622546 294.987116 
L 433.746513 296.35161 
L 438.87048 297.706675 
L 443.994447 299.05237 
L 449.118414 300.388758 
L 454.242381 301.715897 
L 459.366348 303.033848 
L 464.490315 304.342671 
L 469.614282 305.642425 
L 474.738249 306.933168 
L 479.862216 308.214959 
L 484.986183 309.487857 
L 490.11015 310.751919 
L 495.234117 312.007202 
L 500.358084 313.253764 
L 505.482051 314.491661 
L 510.606018 315.720951 
L 515.729985 316.941688 
L 520.853951 318.153928 
L 525.977918 319.357728 
L 531.101885 320.553141 
L 536.225852 321.740224 
L 541.349819 322.919029 
L 546.473786 324.089612 
L 551.597753 325.252025 
L 556.72172 326.406323 
L 561.845687 327.552558 
L 566.969654 328.690784 
L 572.093621 329.821052 
L 577.217588 330.943414 
L 582.341555 332.057924 
L 587.465522 333.164631 
L 592.589489 334.263587 
" clip-path="url(#pf4cd57dcbc)" style="fill: none; stroke: #ff0000; stroke-width: 2; stroke-linecap: square"/>
   </g>
   <g id="line2d_29">
    <path d="M 85.316761 178.519019 
L 90.440728 176.362267 
L 95.564695 174.219992 
L 100.688662 172.092107 
L 105.812629 169.978522 
L 110.936596 167.879145 
L 116.060563 165.793889 
L 121.18453 163.722662 
L 126.308497 161.665378 
L 131.432464 159.621947 
L 136.556431 157.592282 
L 141.680398 155.576297 
L 146.804365 153.573904 
L 151.928332 151.585019 
L 157.052299 149.609555 
L 162.176265 147.647428 
L 167.300232 145.698553 
L 172.424199 143.762847 
L 177.548166 141.840225 
L 182.672133 139.930474 
L 187.7961 138.033887 
L 192.920067 136.150044 
L 198.044034 134.278936 
L 203.168001 132.420505 
L 208.291968 130.574669 
L 213.415935 128.741348 
L 218.539902 126.920461 
L 223.663869 125.111932 
L 228.787836 123.315679 
L 233.911803 121.531627 
L 239.03577 119.759697 
L 244.159737 117.999811 
L 249.283704 116.251893 
L 254.40767 114.515866 
L 259.531637 112.791655 
L 264.655604 111.079184 
L 269.779571 109.378379 
L 274.903538 107.689165 
L 280.027505 106.011469 
L 285.151472 104.345216 
L 290.275439 102.690334 
L 295.399406 101.046749 
L 300.523373 99.41439 
L 305.64734 97.793184 
L 310.771307 96.183061 
L 315.895274 94.583949 
L 321.019241 92.995778 
L 326.143208 91.418477 
L 331.267175 89.851977 
L 336.391142 88.296209 
L 341.515108 86.751103 
L 346.639075 85.216592 
L 351.763042 83.692606 
L 356.887009 82.17908 
L 362.010976 80.675944 
L 367.134943 79.183134 
L 372.25891 77.700581 
L 377.382877 76.22822 
L 382.506844 74.765986 
L 387.630811 73.313812 
L 392.754778 71.871635 
L 397.878745 70.43939 
L 403.002712 69.017013 
L 408.126679 67.604439 
L 413.250646 66.201607 
L 418.374613 64.808452 
L 423.49858 63.424913 
L 428.622546 62.050927 
L 433.746513 60.686433 
L 438.87048 59.331368 
L 443.994447 57.985673 
L 449.118414 56.649286 
L 454.242381 55.322147 
L 459.366348 54.004196 
L 464.490315 52.695374 
L 469.614282 51.39562 
L 474.738249 50.104877 
L 479.862216 48.823086 
L 484.986183 47.550188 
L 490.11015 46.286126 
L 495.234117 45.030843 
L 500.358084 43.784281 
L 505.482051 42.546384 
L 510.606018 41.317095 
L 515.729985 40.096358 
L 520.853951 38.884117 
L 525.977918 37.680318 
L 531.101885 36.484904 
L 536.225852 35.297822 
L 541.349819 34.119016 
L 546.473786 32.948433 
L 551.597753 31.78602 
L 556.72172 30.631722 
L 561.845687 29.485487 
L 566.969654 28.347261 
L 572.093621 27.216993 
L 577.217588 26.094631 
L 582.341555 24.980122 
L 587.465522 23.873415 
L 592.589489 22.774459 
" clip-path="url(#pf4cd57dcbc)" style="fill: none; stroke-dasharray: 2,8; stroke-dashoffset: 0; stroke: #000000; stroke-width: 2; stroke-linecap: round"/>
   </g>
   <g id="line2d_30">
    <path d="M 85.316761 178.519024 
L 90.440728 180.675776 
L 95.564695 182.818051 
L 100.688662 184.945936 
L 105.812629 187.059521 
L 110.936596 189.158898 
L 116.060563 191.244154 
L 121.18453 193.315381 
L 126.308497 195.372665 
L 131.432464 197.416096 
L 136.556431 199.445761 
L 141.680398 201.461746 
L 146.804365 203.464139 
L 151.928332 205.453024 
L 157.052299 207.428488 
L 162.176265 209.390615 
L 167.300232 211.33949 
L 172.424199 213.275196 
L 177.548166 215.197818 
L 182.672133 217.107569 
L 187.7961 219.004156 
L 192.920067 220.887999 
L 198.044034 222.759107 
L 203.168001 224.617538 
L 208.291968 226.463374 
L 213.415935 228.296696 
L 218.539902 230.117582 
L 223.663869 231.926112 
L 228.787836 233.722364 
L 233.911803 235.506416 
L 239.03577 237.278346 
L 244.159737 239.038232 
L 249.283704 240.78615 
L 254.40767 242.522177 
L 259.531637 244.246388 
L 264.655604 245.958859 
L 269.779571 247.659664 
L 274.903538 249.348878 
L 280.027505 251.026574 
L 285.151472 252.692827 
L 290.275439 254.34771 
L 295.399406 255.991294 
L 300.523373 257.623653 
L 305.64734 259.244859 
L 310.771307 260.854982 
L 315.895274 262.454094 
L 321.019241 264.042266 
L 326.143208 265.619566 
L 331.267175 267.186066 
L 336.391142 268.741834 
L 341.515108 270.28694 
L 346.639075 271.821452 
L 351.763042 273.345437 
L 356.887009 274.858963 
L 362.010976 276.362099 
L 367.134943 277.854909 
L 372.25891 279.337462 
L 377.382877 280.809823 
L 382.506844 282.272057 
L 387.630811 283.724231 
L 392.754778 285.166408 
L 397.878745 286.598653 
L 403.002712 288.02103 
L 408.126679 289.433604 
L 413.250646 290.836436 
L 418.374613 292.229591 
L 423.49858 293.61313 
L 428.622546 294.987116 
L 433.746513 296.351611 
L 438.87048 297.706675 
L 443.994447 299.05237 
L 449.118414 300.388757 
L 454.242381 301.715896 
L 459.366348 303.033847 
L 464.490315 304.342669 
L 469.614282 305.642423 
L 474.738249 306.933166 
L 479.862216 308.214957 
L 484.986183 309.487855 
L 490.11015 310.751917 
L 495.234117 312.0072 
L 500.358084 313.253762 
L 505.482051 314.491659 
L 510.606018 315.720948 
L 515.729985 316.941685 
L 520.853951 318.153926 
L 525.977918 319.357725 
L 531.101885 320.553139 
L 536.225852 321.740221 
L 541.349819 322.919027 
L 546.473786 324.08961 
L 551.597753 325.252023 
L 556.72172 326.406321 
L 561.845687 327.552556 
L 566.969654 328.690782 
L 572.093621 329.82105 
L 577.217588 330.943412 
L 582.341555 332.057921 
L 587.465522 333.164628 
L 592.589489 334.263584 
" clip-path="url(#pf4cd57dcbc)" style="fill: none; stroke-dasharray: 2,8; stroke-dashoffset: 0; stroke: #000000; stroke-width: 2; stroke-linecap: round"/>
   </g>
   <g id="patch_3">
    <path d="M 59.953125 349.838043 
L 59.953125 7.2 
" style="fill: none; stroke: #cccccc; stroke-width: 2; stroke-linejoin: miter; stroke-linecap: square"/>
   </g>
   <g id="patch_4">
    <path d="M 617.953125 349.838043 
L 617.953125 7.2 
" style="fill: none; stroke: #cccccc; stroke-width: 2; stroke-linejoin: miter; stroke-linecap: square"/>
   </g>
   <g id="patch_5">
    <path d="M 59.953125 349.838043 
L 617.953125 349.838043 
" style="fill: none; stroke: #cccccc; stroke-width: 2; stroke-linejoin: miter; stroke-linecap: square"/>
   </g>
   <g id="patch_6">
    <path d="M 59.953125 7.2 
L 617.953125 7.2 
" style="fill: none; stroke: #cccccc; stroke-width: 2; stroke-linejoin: miter; stroke-linecap: square"/>
   </g>
   <g id="legend_1">
    <g id="patch_7">
     <path d="M 68.353125 87.255 
L 176.64375 87.255 
Q 179.04375 87.255 179.04375 84.855 
L 179.04375 15.6 
Q 179.04375 13.2 176.64375 13.2 
L 68.353125 13.2 
Q 65.953125 13.2 65.953125 15.6 
L 65.953125 84.855 
Q 65.953125 87.255 68.353125 87.255 
z
" style="fill: #ffffff; opacity: 0.8; stroke: #cccccc; stroke-linejoin: miter"/>
    </g>
    <g id="line2d_31">
     <path d="M 70.753125 22.918125 
L 82.753125 22.918125 
L 94.753125 22.918125 
" style="fill: none; stroke: #ff0000; stroke-width: 2; stroke-linecap: square"/>
    </g>
    <g id="text_16">
     <!-- exact+ -->
     <g transform="translate(104.353125 27.118125) scale(0.12 -0.12)">
      <defs>
       <path id="DejaVuSans-65" d="M 3597 1894 
L 3597 1613 
L 953 1613 
Q 991 1019 1311 708 
Q 1631 397 2203 397 
Q 2534 397 2845 478 
Q 3156 559 3463 722 
L 3463 178 
Q 3153 47 2828 -22 
Q 2503 -91 2169 -91 
Q 1331 -91 842 396 
Q 353 884 353 1716 
Q 353 2575 817 3079 
Q 1281 3584 2069 3584 
Q 2775 3584 3186 3129 
Q 3597 2675 3597 1894 
z
M 3022 2063 
Q 3016 2534 2758 2815 
Q 2500 3097 2075 3097 
Q 1594 3097 1305 2825 
Q 1016 2553 972 2059 
L 3022 2063 
z
" transform="scale(0.015625)"/>
       <path id="DejaVuSans-61" d="M 2194 1759 
Q 1497 1759 1228 1600 
Q 959 1441 959 1056 
Q 959 750 1161 570 
Q 1363 391 1709 391 
Q 2188 391 2477 730 
Q 2766 1069 2766 1631 
L 2766 1759 
L 2194 1759 
z
M 3341 1997 
L 3341 0 
L 2766 0 
L 2766 531 
Q 2569 213 2275 61 
Q 1981 -91 1556 -91 
Q 1019 -91 701 211 
Q 384 513 384 1019 
Q 384 1609 779 1909 
Q 1175 2209 1959 2209 
L 2766 2209 
L 2766 2266 
Q 2766 2663 2505 2880 
Q 2244 3097 1772 3097 
Q 1472 3097 1187 3025 
Q 903 2953 641 2809 
L 641 3341 
Q 956 3463 1253 3523 
Q 1550 3584 1831 3584 
Q 2591 3584 2966 3190 
Q 3341 2797 3341 1997 
z
" transform="scale(0.015625)"/>
       <path id="DejaVuSans-63" d="M 3122 3366 
L 3122 2828 
Q 2878 2963 2633 3030 
Q 2388 3097 2138 3097 
Q 1578 3097 1268 2742 
Q 959 2388 959 1747 
Q 959 1106 1268 751 
Q 1578 397 2138 397 
Q 2388 397 2633 464 
Q 2878 531 3122 666 
L 3122 134 
Q 2881 22 2623 -34 
Q 2366 -91 2075 -91 
Q 1284 -91 818 406 
Q 353 903 353 1747 
Q 353 2603 823 3093 
Q 1294 3584 2113 3584 
Q 2378 3584 2631 3529 
Q 2884 3475 3122 3366 
z
" transform="scale(0.015625)"/>
       <path id="DejaVuSans-74" d="M 1172 4494 
L 1172 3500 
L 2356 3500 
L 2356 3053 
L 1172 3053 
L 1172 1153 
Q 1172 725 1289 603 
Q 1406 481 1766 481 
L 2356 481 
L 2356 0 
L 1766 0 
Q 1100 0 847 248 
Q 594 497 594 1153 
L 594 3053 
L 172 3053 
L 172 3500 
L 594 3500 
L 594 4494 
L 1172 4494 
z
" transform="scale(0.015625)"/>
       <path id="DejaVuSans-2b" d="M 2944 4013 
L 2944 2272 
L 4684 2272 
L 4684 1741 
L 2944 1741 
L 2944 0 
L 2419 0 
L 2419 1741 
L 678 1741 
L 678 2272 
L 2419 2272 
L 2419 4013 
L 2944 4013 
z
" transform="scale(0.015625)"/>
      </defs>
      <use xlink:href="#DejaVuSans-65"/>
      <use xlink:href="#DejaVuSans-78" x="59.773438"/>
      <use xlink:href="#DejaVuSans-61" x="118.953125"/>
      <use xlink:href="#DejaVuSans-63" x="180.232422"/>
      <use xlink:href="#DejaVuSans-74" x="235.212891"/>
      <use xlink:href="#DejaVuSans-2b" x="274.421875"/>
     </g>
    </g>
    <g id="line2d_32">
     <path d="M 70.753125 40.531875 
L 82.753125 40.531875 
L 94.753125 40.531875 
" style="fill: none; stroke: #ff0000; stroke-width: 2; stroke-linecap: square"/>
    </g>
    <g id="text_17">
     <!-- exact- -->
     <g transform="translate(104.353125 44.731875) scale(0.12 -0.12)">
      <defs>
       <path id="DejaVuSans-2d" d="M 313 2009 
L 1997 2009 
L 1997 1497 
L 313 1497 
L 313 2009 
z
" transform="scale(0.015625)"/>
      </defs>
      <use xlink:href="#DejaVuSans-65"/>
      <use xlink:href="#DejaVuSans-78" x="59.773438"/>
      <use xlink:href="#DejaVuSans-61" x="118.953125"/>
      <use xlink:href="#DejaVuSans-63" x="180.232422"/>
      <use xlink:href="#DejaVuSans-74" x="235.212891"/>
      <use xlink:href="#DejaVuSans-2d" x="274.421875"/>
     </g>
    </g>
    <g id="line2d_33">
     <path d="M 70.753125 58.145625 
L 82.753125 58.145625 
L 94.753125 58.145625 
" style="fill: none; stroke-dasharray: 2,8; stroke-dashoffset: 0; stroke: #000000; stroke-width: 2; stroke-linecap: round"/>
    </g>
    <g id="text_18">
     <!-- numerical+ -->
     <g transform="translate(104.353125 62.345625) scale(0.12 -0.12)">
      <defs>
       <path id="DejaVuSans-6e" d="M 3513 2113 
L 3513 0 
L 2938 0 
L 2938 2094 
Q 2938 2591 2744 2837 
Q 2550 3084 2163 3084 
Q 1697 3084 1428 2787 
Q 1159 2491 1159 1978 
L 1159 0 
L 581 0 
L 581 3500 
L 1159 3500 
L 1159 2956 
Q 1366 3272 1645 3428 
Q 1925 3584 2291 3584 
Q 2894 3584 3203 3211 
Q 3513 2838 3513 2113 
z
" transform="scale(0.015625)"/>
       <path id="DejaVuSans-75" d="M 544 1381 
L 544 3500 
L 1119 3500 
L 1119 1403 
Q 1119 906 1312 657 
Q 1506 409 1894 409 
Q 2359 409 2629 706 
Q 2900 1003 2900 1516 
L 2900 3500 
L 3475 3500 
L 3475 0 
L 2900 0 
L 2900 538 
Q 2691 219 2414 64 
Q 2138 -91 1772 -91 
Q 1169 -91 856 284 
Q 544 659 544 1381 
z
M 1991 3584 
L 1991 3584 
z
" transform="scale(0.015625)"/>
       <path id="DejaVuSans-6d" d="M 3328 2828 
Q 3544 3216 3844 3400 
Q 4144 3584 4550 3584 
Q 5097 3584 5394 3201 
Q 5691 2819 5691 2113 
L 5691 0 
L 5113 0 
L 5113 2094 
Q 5113 2597 4934 2840 
Q 4756 3084 4391 3084 
Q 3944 3084 3684 2787 
Q 3425 2491 3425 1978 
L 3425 0 
L 2847 0 
L 2847 2094 
Q 2847 2600 2669 2842 
Q 2491 3084 2119 3084 
Q 1678 3084 1418 2786 
Q 1159 2488 1159 1978 
L 1159 0 
L 581 0 
L 581 3500 
L 1159 3500 
L 1159 2956 
Q 1356 3278 1631 3431 
Q 1906 3584 2284 3584 
Q 2666 3584 2933 3390 
Q 3200 3197 3328 2828 
z
" transform="scale(0.015625)"/>
       <path id="DejaVuSans-72" d="M 2631 2963 
Q 2534 3019 2420 3045 
Q 2306 3072 2169 3072 
Q 1681 3072 1420 2755 
Q 1159 2438 1159 1844 
L 1159 0 
L 581 0 
L 581 3500 
L 1159 3500 
L 1159 2956 
Q 1341 3275 1631 3429 
Q 1922 3584 2338 3584 
Q 2397 3584 2469 3576 
Q 2541 3569 2628 3553 
L 2631 2963 
z
" transform="scale(0.015625)"/>
       <path id="DejaVuSans-69" d="M 603 3500 
L 1178 3500 
L 1178 0 
L 603 0 
L 603 3500 
z
M 603 4863 
L 1178 4863 
L 1178 4134 
L 603 4134 
L 603 4863 
z
" transform="scale(0.015625)"/>
       <path id="DejaVuSans-6c" d="M 603 4863 
L 1178 4863 
L 1178 0 
L 603 0 
L 603 4863 
z
" transform="scale(0.015625)"/>
      </defs>
      <use xlink:href="#DejaVuSans-6e"/>
      <use xlink:href="#DejaVuSans-75" x="63.378906"/>
      <use xlink:href="#DejaVuSans-6d" x="126.757812"/>
      <use xlink:href="#DejaVuSans-65" x="224.169922"/>
      <use xlink:href="#DejaVuSans-72" x="285.693359"/>
      <use xlink:href="#DejaVuSans-69" x="326.806641"/>
      <use xlink:href="#DejaVuSans-63" x="354.589844"/>
      <use xlink:href="#DejaVuSans-61" x="409.570312"/>
      <use xlink:href="#DejaVuSans-6c" x="470.849609"/>
      <use xlink:href="#DejaVuSans-2b" x="498.632812"/>
     </g>
    </g>
    <g id="line2d_34">
     <path d="M 70.753125 75.759375 
L 82.753125 75.759375 
L 94.753125 75.759375 
" style="fill: none; stroke-dasharray: 2,8; stroke-dashoffset: 0; stroke: #000000; stroke-width: 2; stroke-linecap: round"/>
    </g>
    <g id="text_19">
     <!-- numerical- -->
     <g transform="translate(104.353125 79.959375) scale(0.12 -0.12)">
      <use xlink:href="#DejaVuSans-6e"/>
      <use xlink:href="#DejaVuSans-75" x="63.378906"/>
      <use xlink:href="#DejaVuSans-6d" x="126.757812"/>
      <use xlink:href="#DejaVuSans-65" x="224.169922"/>
      <use xlink:href="#DejaVuSans-72" x="285.693359"/>
      <use xlink:href="#DejaVuSans-69" x="326.806641"/>
      <use xlink:href="#DejaVuSans-63" x="354.589844"/>
      <use xlink:href="#DejaVuSans-61" x="409.570312"/>
      <use xlink:href="#DejaVuSans-6c" x="470.849609"/>
      <use xlink:href="#DejaVuSans-2d" x="498.632812"/>
     </g>
    </g>
   </g>
  </g>
 </g>
 <defs>
  <clipPath id="pf4cd57dcbc">
   <rect x="59.953125" y="7.2" width="558" height="342.638043"/>
  </clipPath>
 </defs>
</svg>
