<?xml version="1.0" encoding="utf-8" standalone="no"?>
<!DOCTYPE svg PUBLIC "-//W3C//DTD SVG 1.1//EN"
  "http://www.w3.org/Graphics/SVG/1.1/DTD/svg11.dtd">
<svg xmlns:xlink="http://www.w3.org/1999/xlink" width="613.174375pt" height="392.265543pt" viewBox="0 0 613.174375 392.265543" xmlns="http://www.w3.org/2000/svg" version="1.1">
 <metadata>
  <rdf:RDF xmlns:dc="http://purl.org/dc/elements/1.1/" xmlns:cc="http://creativecommons.org/ns#" xmlns:rdf="http://www.w3.org/1999/02/22-rdf-syntax-ns#">
   <cc:Work>
    <dc:type rdf:resource="http://purl.org/dc/dcmitype/StillImage"/>
    <dc:date>2023-11-05T16:36:54.623182</dc:date>
    <dc:format>image/svg+xml</dc:format>
    <dc:creator>
     <cc:Agent>
      <dc:title>Matplotlib v3.8.1, https://matplotlib.org/</dc:title>
     </cc:Agent>
    </dc:creator>
   </cc:Work>
  </rdf:RDF>
 </metadata>
 <defs>
  <style type="text/css">*{stroke-linejoin: round; stroke-linecap: butt}</style>
 </defs>
 <g id="figure_1">
  <g id="patch_1">
   <path d="M 0 392.265543 
L 613.174375 392.265543 
L 613.174375 0 
L 0 0 
z
" style="fill: #ffffff"/>
  </g>
  <g id="axes_1">
   <g id="patch_2">
    <path d="M 47.974375 349.838043 
L 605.974375 349.838043 
L 605.974375 7.2 
L 47.974375 7.2 
z
" style="fill: #ffffff"/>
   </g>
   <g id="matplotlib.axis_1">
    <g id="xtick_1">
     <g id="line2d_1">
      <path d="M 73.338011 349.838043 
L 73.338011 7.2 
" clip-path="url(#pb523520fc8)" style="fill: none; stroke-dasharray: 2,8; stroke-dashoffset: 0; stroke: #cccccc; stroke-width: 2; stroke-linecap: round"/>
     </g>
     <g id="line2d_2"/>
     <g id="text_1">
      <!-- 0 -->
      <g transform="translate(69.520511 362.956168) scale(0.12 -0.12)">
       <defs>
        <path id="DejaVuSans-30" d="M 2034 4250 
Q 1547 4250 1301 3770 
Q 1056 3291 1056 2328 
Q 1056 1369 1301 889 
Q 1547 409 2034 409 
Q 2525 409 2770 889 
Q 3016 1369 3016 2328 
Q 3016 3291 2770 3770 
Q 2525 4250 2034 4250 
z
M 2034 4750 
Q 2819 4750 3233 4129 
Q 3647 3509 3647 2328 
Q 3647 1150 3233 529 
Q 2819 -91 2034 -91 
Q 1250 -91 836 529 
Q 422 1150 422 2328 
Q 422 3509 836 4129 
Q 1250 4750 2034 4750 
z
" transform="scale(0.015625)"/>
       </defs>
       <use xlink:href="#DejaVuSans-30"/>
      </g>
     </g>
    </g>
    <g id="xtick_2">
     <g id="line2d_3">
      <path d="M 157.883466 349.838043 
L 157.883466 7.2 
" clip-path="url(#pb523520fc8)" style="fill: none; stroke-dasharray: 2,8; stroke-dashoffset: 0; stroke: #cccccc; stroke-width: 2; stroke-linecap: round"/>
     </g>
     <g id="line2d_4"/>
     <g id="text_2">
      <!-- 1 -->
      <g transform="translate(154.065966 362.956168) scale(0.12 -0.12)">
       <defs>
        <path id="DejaVuSans-31" d="M 794 531 
L 1825 531 
L 1825 4091 
L 703 3866 
L 703 4441 
L 1819 4666 
L 2450 4666 
L 2450 531 
L 3481 531 
L 3481 0 
L 794 0 
L 794 531 
z
" transform="scale(0.015625)"/>
       </defs>
       <use xlink:href="#DejaVuSans-31"/>
      </g>
     </g>
    </g>
    <g id="xtick_3">
     <g id="line2d_5">
      <path d="M 242.42892 349.838043 
L 242.42892 7.2 
" clip-path="url(#pb523520fc8)" style="fill: none; stroke-dasharray: 2,8; stroke-dashoffset: 0; stroke: #cccccc; stroke-width: 2; stroke-linecap: round"/>
     </g>
     <g id="line2d_6"/>
     <g id="text_3">
      <!-- 2 -->
      <g transform="translate(238.61142 362.956168) scale(0.12 -0.12)">
       <defs>
        <path id="DejaVuSans-32" d="M 1228 531 
L 3431 531 
L 3431 0 
L 469 0 
L 469 531 
Q 828 903 1448 1529 
Q 2069 2156 2228 2338 
Q 2531 2678 2651 2914 
Q 2772 3150 2772 3378 
Q 2772 3750 2511 3984 
Q 2250 4219 1831 4219 
Q 1534 4219 1204 4116 
Q 875 4013 500 3803 
L 500 4441 
Q 881 4594 1212 4672 
Q 1544 4750 1819 4750 
Q 2544 4750 2975 4387 
Q 3406 4025 3406 3419 
Q 3406 3131 3298 2873 
Q 3191 2616 2906 2266 
Q 2828 2175 2409 1742 
Q 1991 1309 1228 531 
z
" transform="scale(0.015625)"/>
       </defs>
       <use xlink:href="#DejaVuSans-32"/>
      </g>
     </g>
    </g>
    <g id="xtick_4">
     <g id="line2d_7">
      <path d="M 326.974375 349.838043 
L 326.974375 7.2 
" clip-path="url(#pb523520fc8)" style="fill: none; stroke-dasharray: 2,8; stroke-dashoffset: 0; stroke: #cccccc; stroke-width: 2; stroke-linecap: round"/>
     </g>
     <g id="line2d_8"/>
     <g id="text_4">
      <!-- 3 -->
      <g transform="translate(323.156875 362.956168) scale(0.12 -0.12)">
       <defs>
        <path id="DejaVuSans-33" d="M 2597 2516 
Q 3050 2419 3304 2112 
Q 3559 1806 3559 1356 
Q 3559 666 3084 287 
Q 2609 -91 1734 -91 
Q 1441 -91 1130 -33 
Q 819 25 488 141 
L 488 750 
Q 750 597 1062 519 
Q 1375 441 1716 441 
Q 2309 441 2620 675 
Q 2931 909 2931 1356 
Q 2931 1769 2642 2001 
Q 2353 2234 1838 2234 
L 1294 2234 
L 1294 2753 
L 1863 2753 
Q 2328 2753 2575 2939 
Q 2822 3125 2822 3475 
Q 2822 3834 2567 4026 
Q 2313 4219 1838 4219 
Q 1578 4219 1281 4162 
Q 984 4106 628 3988 
L 628 4550 
Q 988 4650 1302 4700 
Q 1616 4750 1894 4750 
Q 2613 4750 3031 4423 
Q 3450 4097 3450 3541 
Q 3450 3153 3228 2886 
Q 3006 2619 2597 2516 
z
" transform="scale(0.015625)"/>
       </defs>
       <use xlink:href="#DejaVuSans-33"/>
      </g>
     </g>
    </g>
    <g id="xtick_5">
     <g id="line2d_9">
      <path d="M 411.51983 349.838043 
L 411.51983 7.2 
" clip-path="url(#pb523520fc8)" style="fill: none; stroke-dasharray: 2,8; stroke-dashoffset: 0; stroke: #cccccc; stroke-width: 2; stroke-linecap: round"/>
     </g>
     <g id="line2d_10"/>
     <g id="text_5">
      <!-- 4 -->
      <g transform="translate(407.70233 362.956168) scale(0.12 -0.12)">
       <defs>
        <path id="DejaVuSans-34" d="M 2419 4116 
L 825 1625 
L 2419 1625 
L 2419 4116 
z
M 2253 4666 
L 3047 4666 
L 3047 1625 
L 3713 1625 
L 3713 1100 
L 3047 1100 
L 3047 0 
L 2419 0 
L 2419 1100 
L 313 1100 
L 313 1709 
L 2253 4666 
z
" transform="scale(0.015625)"/>
       </defs>
       <use xlink:href="#DejaVuSans-34"/>
      </g>
     </g>
    </g>
    <g id="xtick_6">
     <g id="line2d_11">
      <path d="M 496.065284 349.838043 
L 496.065284 7.2 
" clip-path="url(#pb523520fc8)" style="fill: none; stroke-dasharray: 2,8; stroke-dashoffset: 0; stroke: #cccccc; stroke-width: 2; stroke-linecap: round"/>
     </g>
     <g id="line2d_12"/>
     <g id="text_6">
      <!-- 5 -->
      <g transform="translate(492.247784 362.956168) scale(0.12 -0.12)">
       <defs>
        <path id="DejaVuSans-35" d="M 691 4666 
L 3169 4666 
L 3169 4134 
L 1269 4134 
L 1269 2991 
Q 1406 3038 1543 3061 
Q 1681 3084 1819 3084 
Q 2600 3084 3056 2656 
Q 3513 2228 3513 1497 
Q 3513 744 3044 326 
Q 2575 -91 1722 -91 
Q 1428 -91 1123 -41 
Q 819 9 494 109 
L 494 744 
Q 775 591 1075 516 
Q 1375 441 1709 441 
Q 2250 441 2565 725 
Q 2881 1009 2881 1497 
Q 2881 1984 2565 2268 
Q 2250 2553 1709 2553 
Q 1456 2553 1204 2497 
Q 953 2441 691 2322 
L 691 4666 
z
" transform="scale(0.015625)"/>
       </defs>
       <use xlink:href="#DejaVuSans-35"/>
      </g>
     </g>
    </g>
    <g id="xtick_7">
     <g id="line2d_13">
      <path d="M 580.610739 349.838043 
L 580.610739 7.2 
" clip-path="url(#pb523520fc8)" style="fill: none; stroke-dasharray: 2,8; stroke-dashoffset: 0; stroke: #cccccc; stroke-width: 2; stroke-linecap: round"/>
     </g>
     <g id="line2d_14"/>
     <g id="text_7">
      <!-- 6 -->
      <g transform="translate(576.793239 362.956168) scale(0.12 -0.12)">
       <defs>
        <path id="DejaVuSans-36" d="M 2113 2584 
Q 1688 2584 1439 2293 
Q 1191 2003 1191 1497 
Q 1191 994 1439 701 
Q 1688 409 2113 409 
Q 2538 409 2786 701 
Q 3034 994 3034 1497 
Q 3034 2003 2786 2293 
Q 2538 2584 2113 2584 
z
M 3366 4563 
L 3366 3988 
Q 3128 4100 2886 4159 
Q 2644 4219 2406 4219 
Q 1781 4219 1451 3797 
Q 1122 3375 1075 2522 
Q 1259 2794 1537 2939 
Q 1816 3084 2150 3084 
Q 2853 3084 3261 2657 
Q 3669 2231 3669 1497 
Q 3669 778 3244 343 
Q 2819 -91 2113 -91 
Q 1303 -91 875 529 
Q 447 1150 447 2328 
Q 447 3434 972 4092 
Q 1497 4750 2381 4750 
Q 2619 4750 2861 4703 
Q 3103 4656 3366 4563 
z
" transform="scale(0.015625)"/>
       </defs>
       <use xlink:href="#DejaVuSans-36"/>
      </g>
     </g>
    </g>
    <g id="text_8">
     <!-- t -->
     <g transform="translate(324.622187 382.569918) scale(0.12 -0.12)">
      <defs>
       <path id="DejaVuSans-74" d="M 1172 4494 
L 1172 3500 
L 2356 3500 
L 2356 3053 
L 1172 3053 
L 1172 1153 
Q 1172 725 1289 603 
Q 1406 481 1766 481 
L 2356 481 
L 2356 0 
L 1766 0 
Q 1100 0 847 248 
Q 594 497 594 1153 
L 594 3053 
L 172 3053 
L 172 3500 
L 594 3500 
L 594 4494 
L 1172 4494 
z
" transform="scale(0.015625)"/>
      </defs>
      <use xlink:href="#DejaVuSans-74"/>
     </g>
    </g>
   </g>
   <g id="matplotlib.axis_2">
    <g id="ytick_1">
     <g id="line2d_15">
      <path d="M 47.974375 334.263587 
L 605.974375 334.263587 
" clip-path="url(#pb523520fc8)" style="fill: none; stroke-dasharray: 2,8; stroke-dashoffset: 0; stroke: #cccccc; stroke-width: 2; stroke-linecap: round"/>
     </g>
     <g id="line2d_16"/>
     <g id="text_9">
      <!-- −1.00 -->
      <g transform="translate(7.2 338.822649) scale(0.12 -0.12)">
       <defs>
        <path id="DejaVuSans-2212" d="M 678 2272 
L 4684 2272 
L 4684 1741 
L 678 1741 
L 678 2272 
z
" transform="scale(0.015625)"/>
        <path id="DejaVuSans-2e" d="M 684 794 
L 1344 794 
L 1344 0 
L 684 0 
L 684 794 
z
" transform="scale(0.015625)"/>
       </defs>
       <use xlink:href="#DejaVuSans-2212"/>
       <use xlink:href="#DejaVuSans-31" x="83.789062"/>
       <use xlink:href="#DejaVuSans-2e" x="147.412109"/>
       <use xlink:href="#DejaVuSans-30" x="179.199219"/>
       <use xlink:href="#DejaVuSans-30" x="242.822266"/>
      </g>
     </g>
    </g>
    <g id="ytick_2">
     <g id="line2d_17">
      <path d="M 47.974375 295.327445 
L 605.974375 295.327445 
" clip-path="url(#pb523520fc8)" style="fill: none; stroke-dasharray: 2,8; stroke-dashoffset: 0; stroke: #cccccc; stroke-width: 2; stroke-linecap: round"/>
     </g>
     <g id="line2d_18"/>
     <g id="text_10">
      <!-- −0.75 -->
      <g transform="translate(7.2 299.886508) scale(0.12 -0.12)">
       <defs>
        <path id="DejaVuSans-37" d="M 525 4666 
L 3525 4666 
L 3525 4397 
L 1831 0 
L 1172 0 
L 2766 4134 
L 525 4134 
L 525 4666 
z
" transform="scale(0.015625)"/>
       </defs>
       <use xlink:href="#DejaVuSans-2212"/>
       <use xlink:href="#DejaVuSans-30" x="83.789062"/>
       <use xlink:href="#DejaVuSans-2e" x="147.412109"/>
       <use xlink:href="#DejaVuSans-37" x="179.199219"/>
       <use xlink:href="#DejaVuSans-35" x="242.822266"/>
      </g>
     </g>
    </g>
    <g id="ytick_3">
     <g id="line2d_19">
      <path d="M 47.974375 256.391304 
L 605.974375 256.391304 
" clip-path="url(#pb523520fc8)" style="fill: none; stroke-dasharray: 2,8; stroke-dashoffset: 0; stroke: #cccccc; stroke-width: 2; stroke-linecap: round"/>
     </g>
     <g id="line2d_20"/>
     <g id="text_11">
      <!-- −0.50 -->
      <g transform="translate(7.2 260.950367) scale(0.12 -0.12)">
       <use xlink:href="#DejaVuSans-2212"/>
       <use xlink:href="#DejaVuSans-30" x="83.789062"/>
       <use xlink:href="#DejaVuSans-2e" x="147.412109"/>
       <use xlink:href="#DejaVuSans-35" x="179.199219"/>
       <use xlink:href="#DejaVuSans-30" x="242.822266"/>
      </g>
     </g>
    </g>
    <g id="ytick_4">
     <g id="line2d_21">
      <path d="M 47.974375 217.455163 
L 605.974375 217.455163 
" clip-path="url(#pb523520fc8)" style="fill: none; stroke-dasharray: 2,8; stroke-dashoffset: 0; stroke: #cccccc; stroke-width: 2; stroke-linecap: round"/>
     </g>
     <g id="line2d_22"/>
     <g id="text_12">
      <!-- −0.25 -->
      <g transform="translate(7.2 222.014225) scale(0.12 -0.12)">
       <use xlink:href="#DejaVuSans-2212"/>
       <use xlink:href="#DejaVuSans-30" x="83.789062"/>
       <use xlink:href="#DejaVuSans-2e" x="147.412109"/>
       <use xlink:href="#DejaVuSans-32" x="179.199219"/>
       <use xlink:href="#DejaVuSans-35" x="242.822266"/>
      </g>
     </g>
    </g>
    <g id="ytick_5">
     <g id="line2d_23">
      <path d="M 47.974375 178.519022 
L 605.974375 178.519022 
" clip-path="url(#pb523520fc8)" style="fill: none; stroke-dasharray: 2,8; stroke-dashoffset: 0; stroke: #cccccc; stroke-width: 2; stroke-linecap: round"/>
     </g>
     <g id="line2d_24"/>
     <g id="text_13">
      <!-- 0.00 -->
      <g transform="translate(17.255625 183.078084) scale(0.12 -0.12)">
       <use xlink:href="#DejaVuSans-30"/>
       <use xlink:href="#DejaVuSans-2e" x="63.623047"/>
       <use xlink:href="#DejaVuSans-30" x="95.410156"/>
       <use xlink:href="#DejaVuSans-30" x="159.033203"/>
      </g>
     </g>
    </g>
    <g id="ytick_6">
     <g id="line2d_25">
      <path d="M 47.974375 139.58288 
L 605.974375 139.58288 
" clip-path="url(#pb523520fc8)" style="fill: none; stroke-dasharray: 2,8; stroke-dashoffset: 0; stroke: #cccccc; stroke-width: 2; stroke-linecap: round"/>
     </g>
     <g id="line2d_26"/>
     <g id="text_14">
      <!-- 0.25 -->
      <g transform="translate(17.255625 144.141943) scale(0.12 -0.12)">
       <use xlink:href="#DejaVuSans-30"/>
       <use xlink:href="#DejaVuSans-2e" x="63.623047"/>
       <use xlink:href="#DejaVuSans-32" x="95.410156"/>
       <use xlink:href="#DejaVuSans-35" x="159.033203"/>
      </g>
     </g>
    </g>
    <g id="ytick_7">
     <g id="line2d_27">
      <path d="M 47.974375 100.646739 
L 605.974375 100.646739 
" clip-path="url(#pb523520fc8)" style="fill: none; stroke-dasharray: 2,8; stroke-dashoffset: 0; stroke: #cccccc; stroke-width: 2; stroke-linecap: round"/>
     </g>
     <g id="line2d_28"/>
     <g id="text_15">
      <!-- 0.50 -->
      <g transform="translate(17.255625 105.205802) scale(0.12 -0.12)">
       <use xlink:href="#DejaVuSans-30"/>
       <use xlink:href="#DejaVuSans-2e" x="63.623047"/>
       <use xlink:href="#DejaVuSans-35" x="95.410156"/>
       <use xlink:href="#DejaVuSans-30" x="159.033203"/>
      </g>
     </g>
    </g>
    <g id="ytick_8">
     <g id="line2d_29">
      <path d="M 47.974375 61.710598 
L 605.974375 61.710598 
" clip-path="url(#pb523520fc8)" style="fill: none; stroke-dasharray: 2,8; stroke-dashoffset: 0; stroke: #cccccc; stroke-width: 2; stroke-linecap: round"/>
     </g>
     <g id="line2d_30"/>
     <g id="text_16">
      <!-- 0.75 -->
      <g transform="translate(17.255625 66.26966) scale(0.12 -0.12)">
       <use xlink:href="#DejaVuSans-30"/>
       <use xlink:href="#DejaVuSans-2e" x="63.623047"/>
       <use xlink:href="#DejaVuSans-37" x="95.410156"/>
       <use xlink:href="#DejaVuSans-35" x="159.033203"/>
      </g>
     </g>
    </g>
    <g id="ytick_9">
     <g id="line2d_31">
      <path d="M 47.974375 22.774457 
L 605.974375 22.774457 
" clip-path="url(#pb523520fc8)" style="fill: none; stroke-dasharray: 2,8; stroke-dashoffset: 0; stroke: #cccccc; stroke-width: 2; stroke-linecap: round"/>
     </g>
     <g id="line2d_32"/>
     <g id="text_17">
      <!-- 1.00 -->
      <g transform="translate(17.255625 27.333519) scale(0.12 -0.12)">
       <use xlink:href="#DejaVuSans-31"/>
       <use xlink:href="#DejaVuSans-2e" x="63.623047"/>
       <use xlink:href="#DejaVuSans-30" x="95.410156"/>
       <use xlink:href="#DejaVuSans-30" x="159.033203"/>
      </g>
     </g>
    </g>
   </g>
   <g id="line2d_33">
    <path d="M 73.338011 22.774457 
L 78.461978 31.933177 
L 83.585945 40.553313 
L 88.709912 48.666533 
L 93.833879 56.302647 
L 98.957846 63.489715 
L 104.081813 70.254136 
L 109.20578 76.62076 
L 114.329747 82.612997 
L 119.453714 88.252852 
L 124.577681 93.561049 
L 129.701648 98.557093 
L 134.825615 103.259339 
L 139.949582 107.685064 
L 145.073549 111.85053 
L 150.197515 115.771041 
L 155.321482 119.461001 
L 160.445449 122.933971 
L 165.569416 126.20271 
L 170.693383 129.279227 
L 175.81735 132.174826 
L 180.941317 134.900145 
L 186.065284 137.4652 
L 191.189251 139.879413 
L 196.313218 142.151657 
L 201.437185 144.290278 
L 206.561152 146.303136 
L 211.685119 148.197625 
L 216.809086 149.980707 
L 221.933053 151.658933 
L 227.05702 153.23847 
L 232.180987 154.725119 
L 237.304954 156.124345 
L 242.42892 157.441288 
L 247.552887 158.680787 
L 252.676854 159.847395 
L 257.800821 160.9454 
L 262.924788 161.978836 
L 268.048755 162.951499 
L 273.172722 163.866964 
L 278.296689 164.728594 
L 283.420656 165.539555 
L 288.544623 166.302826 
L 293.66859 167.021213 
L 298.792557 167.697354 
L 303.916524 168.333733 
L 309.040491 168.93269 
L 314.164458 169.496425 
L 319.288425 170.027008 
L 324.412392 170.52639 
L 329.536358 170.996405 
L 334.660325 171.43878 
L 339.784292 171.855141 
L 344.908259 172.247017 
L 350.032226 172.615849 
L 355.156193 172.962991 
L 360.28016 173.289719 
L 365.404127 173.597234 
L 370.528094 173.886665 
L 375.652061 174.159076 
L 380.776028 174.415467 
L 385.899995 174.656781 
L 391.023962 174.883904 
L 396.147929 175.097671 
L 401.271896 175.298867 
L 406.395863 175.488232 
L 411.51983 175.66646 
L 416.643796 175.834208 
L 421.767763 175.992092 
L 426.89173 176.14069 
L 432.015697 176.280551 
L 437.139664 176.412186 
L 442.263631 176.536081 
L 447.387598 176.65269 
L 452.511565 176.762441 
L 457.635532 176.865739 
L 462.759499 176.962962 
L 467.883466 177.054468 
L 473.007433 177.140592 
L 478.1314 177.221652 
L 483.255367 177.297945 
L 488.379334 177.369752 
L 493.503301 177.437336 
L 498.627268 177.500946 
L 503.751235 177.560815 
L 508.875201 177.617163 
L 513.999168 177.670198 
L 519.123135 177.720114 
L 524.247102 177.767094 
L 529.371069 177.811312 
L 534.495036 177.85293 
L 539.619003 177.8921 
L 544.74297 177.928967 
L 549.866937 177.963666 
L 554.990904 177.996324 
L 560.114871 178.027062 
L 565.238838 178.055992 
L 570.362805 178.083221 
L 575.486772 178.108849 
L 580.610739 178.132969 
" clip-path="url(#pb523520fc8)" style="fill: none; stroke: #1f77b4; stroke-width: 1.5; stroke-linecap: square"/>
   </g>
   <g id="line2d_34">
    <path d="M 73.338011 334.263587 
L 78.461978 325.104867 
L 83.585945 316.484731 
L 88.709912 308.37151 
L 93.833879 300.735396 
L 98.957846 293.548328 
L 104.081813 286.783907 
L 109.20578 280.417283 
L 114.329747 274.425046 
L 119.453714 268.785191 
L 124.577681 263.476994 
L 129.701648 258.48095 
L 134.825615 253.778704 
L 139.949582 249.352979 
L 145.073549 245.187513 
L 150.197515 241.267003 
L 155.321482 237.577042 
L 160.445449 234.104073 
L 165.569416 230.835333 
L 170.693383 227.758816 
L 175.81735 224.863217 
L 180.941317 222.137898 
L 186.065284 219.572843 
L 191.189251 217.15863 
L 196.313218 214.886386 
L 201.437185 212.747765 
L 206.561152 210.734907 
L 211.685119 208.840418 
L 216.809086 207.057336 
L 221.933053 205.37911 
L 227.05702 203.799574 
L 232.180987 202.312924 
L 237.304954 200.913698 
L 242.42892 199.596755 
L 247.552887 198.357256 
L 252.676854 197.190648 
L 257.800821 196.092643 
L 262.924788 195.059207 
L 268.048755 194.086544 
L 273.172722 193.171079 
L 278.296689 192.309449 
L 283.420656 191.498488 
L 288.544623 190.735217 
L 293.66859 190.01683 
L 298.792557 189.34069 
L 303.916524 188.70431 
L 309.040491 188.105353 
L 314.164458 187.541618 
L 319.288425 187.011035 
L 324.412392 186.511653 
L 329.536358 186.041638 
L 334.660325 185.599263 
L 339.784292 185.182902 
L 344.908259 184.791026 
L 350.032226 184.422194 
L 355.156193 184.075052 
L 360.28016 183.748324 
L 365.404127 183.440809 
L 370.528094 183.151378 
L 375.652061 182.878967 
L 380.776028 182.622576 
L 385.899995 182.381262 
L 391.023962 182.154139 
L 396.147929 181.940372 
L 401.271896 181.739176 
L 406.395863 181.549811 
L 411.51983 181.371583 
L 416.643796 181.203835 
L 421.767763 181.045952 
L 426.89173 180.897353 
L 432.015697 180.757493 
L 437.139664 180.625857 
L 442.263631 180.501962 
L 447.387598 180.385353 
L 452.511565 180.275602 
L 457.635532 180.172304 
L 462.759499 180.075081 
L 467.883466 179.983575 
L 473.007433 179.897451 
L 478.1314 179.816391 
L 483.255367 179.740098 
L 488.379334 179.668291 
L 493.503301 179.600707 
L 498.627268 179.537097 
L 503.751235 179.477228 
L 508.875201 179.42088 
L 513.999168 179.367845 
L 519.123135 179.317929 
L 524.247102 179.270949 
L 529.371069 179.226731 
L 534.495036 179.185113 
L 539.619003 179.145943 
L 544.74297 179.109076 
L 549.866937 179.074377 
L 554.990904 179.041719 
L 560.114871 179.010981 
L 565.238838 178.982051 
L 570.362805 178.954822 
L 575.486772 178.929194 
L 580.610739 178.905074 
" clip-path="url(#pb523520fc8)" style="fill: none; stroke: #ff7f0e; stroke-width: 1.5; stroke-linecap: square"/>
   </g>
   <g id="patch_3">
    <path d="M 47.974375 349.838043 
L 47.974375 7.2 
" style="fill: none; stroke: #cccccc; stroke-width: 2; stroke-linejoin: miter; stroke-linecap: square"/>
   </g>
   <g id="patch_4">
    <path d="M 605.974375 349.838043 
L 605.974375 7.2 
" style="fill: none; stroke: #cccccc; stroke-width: 2; stroke-linejoin: miter; stroke-linecap: square"/>
   </g>
   <g id="patch_5">
    <path d="M 47.974375 349.838043 
L 605.974375 349.838043 
" style="fill: none; stroke: #cccccc; stroke-width: 2; stroke-linejoin: miter; stroke-linecap: square"/>
   </g>
   <g id="patch_6">
    <path d="M 47.974375 7.2 
L 605.974375 7.2 
" style="fill: none; stroke: #cccccc; stroke-width: 2; stroke-linejoin: miter; stroke-linecap: square"/>
   </g>
   <g id="legend_1">
    <g id="patch_7">
     <path d="M 526.21375 52.0275 
L 597.574375 52.0275 
Q 599.974375 52.0275 599.974375 49.6275 
L 599.974375 15.6 
Q 599.974375 13.2 597.574375 13.2 
L 526.21375 13.2 
Q 523.81375 13.2 523.81375 15.6 
L 523.81375 49.6275 
Q 523.81375 52.0275 526.21375 52.0275 
z
" style="fill: #ffffff; opacity: 0.8; stroke: #cccccc; stroke-linejoin: miter"/>
    </g>
    <g id="line2d_35">
     <path d="M 528.61375 22.918125 
L 540.61375 22.918125 
L 552.61375 22.918125 
" style="fill: none; stroke: #1f77b4; stroke-width: 1.5; stroke-linecap: square"/>
    </g>
    <g id="text_18">
     <!-- N -->
     <g transform="translate(562.21375 27.118125) scale(0.12 -0.12)">
      <defs>
       <path id="DejaVuSans-4e" d="M 628 4666 
L 1478 4666 
L 3547 763 
L 3547 4666 
L 4159 4666 
L 4159 0 
L 3309 0 
L 1241 3903 
L 1241 0 
L 628 0 
L 628 4666 
z
" transform="scale(0.015625)"/>
      </defs>
      <use xlink:href="#DejaVuSans-4e"/>
     </g>
    </g>
    <g id="line2d_36">
     <path d="M 528.61375 40.531875 
L 540.61375 40.531875 
L 552.61375 40.531875 
" style="fill: none; stroke: #ff7f0e; stroke-width: 1.5; stroke-linecap: square"/>
    </g>
    <g id="text_19">
     <!-- dN/dt -->
     <g transform="translate(562.21375 44.731875) scale(0.12 -0.12)">
      <defs>
       <path id="DejaVuSans-64" d="M 2906 2969 
L 2906 4863 
L 3481 4863 
L 3481 0 
L 2906 0 
L 2906 525 
Q 2725 213 2448 61 
Q 2172 -91 1784 -91 
Q 1150 -91 751 415 
Q 353 922 353 1747 
Q 353 2572 751 3078 
Q 1150 3584 1784 3584 
Q 2172 3584 2448 3432 
Q 2725 3281 2906 2969 
z
M 947 1747 
Q 947 1113 1208 752 
Q 1469 391 1925 391 
Q 2381 391 2643 752 
Q 2906 1113 2906 1747 
Q 2906 2381 2643 2742 
Q 2381 3103 1925 3103 
Q 1469 3103 1208 2742 
Q 947 2381 947 1747 
z
" transform="scale(0.015625)"/>
       <path id="DejaVuSans-2f" d="M 1625 4666 
L 2156 4666 
L 531 -594 
L 0 -594 
L 1625 4666 
z
" transform="scale(0.015625)"/>
      </defs>
      <use xlink:href="#DejaVuSans-64"/>
      <use xlink:href="#DejaVuSans-4e" x="63.476562"/>
      <use xlink:href="#DejaVuSans-2f" x="138.28125"/>
      <use xlink:href="#DejaVuSans-64" x="171.972656"/>
      <use xlink:href="#DejaVuSans-74" x="235.449219"/>
     </g>
    </g>
   </g>
  </g>
 </g>
 <defs>
  <clipPath id="pb523520fc8">
   <rect x="47.974375" y="7.2" width="558" height="342.638043"/>
  </clipPath>
 </defs>
</svg>
